<?xml version="1.0" encoding="UTF-8"?><svg id="Layer_1" xmlns="http://www.w3.org/2000/svg" viewBox="0 0 2569.8456 1695.9548"><defs><style>.cls-1{stroke-linecap:round;stroke-linejoin:round;}.cls-1,.cls-2{fill:none;stroke:#000;stroke-width:4px;}.cls-2{stroke-linecap:square;stroke-miterlimit:10;}</style></defs><rect class="cls-1" x="13.0669" y="13.0669" width="53.424" height="53.424" transform="translate(39.7789 -16.477) rotate(45)"/><circle class="cls-2" cx="39.7789" cy="39.7789" r="37.7942"/><rect class="cls-1" x="108.2659" y="13.0669" width="53.424" height="53.424" transform="translate(67.662 -83.7928) rotate(45)"/><circle class="cls-2" cx="134.9778" cy="39.7789" r="37.7942"/><rect class="cls-1" x="13.0669" y="108.2659" width="53.424" height="53.424" transform="translate(107.0947 11.4062) rotate(45)"/><circle class="cls-2" cx="39.7789" cy="134.9778" r="37.7942"/><rect class="cls-1" x="108.2659" y="108.2659" width="53.424" height="53.424" transform="translate(134.9778 -55.9096) rotate(45)"/><circle class="cls-2" cx="134.9778" cy="134.9778" r="37.7942"/><rect class="cls-1" x="203.4648" y="13.0669" width="53.424" height="53.424" transform="translate(95.5451 -151.1086) rotate(45)"/><circle class="cls-2" cx="230.1768" cy="39.7789" r="37.7942"/><rect class="cls-1" x="298.6637" y="13.0669" width="53.424" height="53.424" transform="translate(123.4283 -218.4244) rotate(45)"/><circle class="cls-2" cx="325.3757" cy="39.7789" r="37.7942"/><rect class="cls-1" x="203.4648" y="108.2659" width="53.424" height="53.424" transform="translate(162.861 -123.2255) rotate(45)"/><circle class="cls-2" cx="230.1768" cy="134.9778" r="37.7942"/><rect class="cls-1" x="298.6637" y="108.2659" width="53.424" height="53.424" transform="translate(190.7441 -190.5413) rotate(45)"/><circle class="cls-2" cx="325.3757" cy="134.9778" r="37.7942"/><rect class="cls-1" x="393.8626" y="13.0669" width="53.424" height="53.424" transform="translate(151.3114 -285.7402) rotate(45)"/><circle class="cls-2" cx="420.5746" cy="39.7789" r="37.7942"/><rect class="cls-1" x="393.8626" y="108.2659" width="53.424" height="53.424" transform="translate(218.6272 -257.8571) rotate(45)"/><circle class="cls-2" cx="420.5746" cy="134.9778" r="37.7942"/><rect class="cls-1" x="13.0669" y="203.4648" width="53.424" height="53.424" transform="translate(174.4105 39.2893) rotate(45)"/><circle class="cls-2" cx="39.7789" cy="230.1768" r="37.7942"/><rect class="cls-1" x="108.2659" y="203.4648" width="53.424" height="53.424" transform="translate(202.2936 -28.0265) rotate(45)"/><circle class="cls-2" cx="134.9778" cy="230.1768" r="37.7942"/><rect class="cls-1" x="13.0669" y="298.6637" width="53.424" height="53.424" transform="translate(241.7263 67.1724) rotate(45)"/><circle class="cls-2" cx="39.7789" cy="325.3757" r="37.7942"/><rect class="cls-1" x="108.2659" y="298.6637" width="53.424" height="53.424" transform="translate(269.6094 -.1434) rotate(45)"/><circle class="cls-2" cx="134.9778" cy="325.3757" r="37.7942"/><rect class="cls-1" x="203.4648" y="203.4648" width="53.424" height="53.424" transform="translate(230.1768 -95.3423) rotate(45)"/><circle class="cls-2" cx="230.1768" cy="230.1768" r="37.7942"/><rect class="cls-1" x="298.6637" y="203.4648" width="53.424" height="53.424" transform="translate(258.0599 -162.6581) rotate(45)"/><circle class="cls-2" cx="325.3757" cy="230.1768" r="37.7942"/><rect class="cls-1" x="203.4648" y="298.6637" width="53.424" height="53.424" transform="translate(297.4926 -67.4592) rotate(45)"/><circle class="cls-2" cx="230.1768" cy="325.3757" r="37.7942"/><rect class="cls-1" x="298.6637" y="298.6637" width="53.424" height="53.424" transform="translate(325.3757 -134.775) rotate(45)"/><circle class="cls-2" cx="325.3757" cy="325.3757" r="37.7942"/><rect class="cls-1" x="393.8626" y="203.4648" width="53.424" height="53.424" transform="translate(285.943 -229.9739) rotate(45)"/><circle class="cls-2" cx="420.5746" cy="230.1768" r="37.7942"/><rect class="cls-1" x="393.8626" y="298.6637" width="53.424" height="53.424" transform="translate(353.2588 -202.0908) rotate(45)"/><circle class="cls-2" cx="420.5746" cy="325.3757" r="37.7942"/><rect class="cls-1" x="489.0615" y="13.0669" width="53.424" height="53.424" transform="translate(179.1945 -353.056) rotate(45)"/><circle class="cls-2" cx="515.7735" cy="39.7789" r="37.7942"/><rect class="cls-1" x="584.2605" y="13.0669" width="53.424" height="53.424" transform="translate(207.0776 -420.3718) rotate(45)"/><circle class="cls-2" cx="610.9725" cy="39.7789" r="37.7942"/><rect class="cls-1" x="489.0615" y="108.2659" width="53.424" height="53.424" transform="translate(246.5103 -325.1729) rotate(45)"/><circle class="cls-2" cx="515.7735" cy="134.9778" r="37.7942"/><rect class="cls-1" x="584.2605" y="108.2659" width="53.424" height="53.424" transform="translate(274.3934 -392.4887) rotate(45)"/><circle class="cls-2" cx="610.9725" cy="134.9778" r="37.7942"/><rect class="cls-1" x="489.0615" y="203.4648" width="53.424" height="53.424" transform="translate(313.8261 -297.2897) rotate(45)"/><circle class="cls-2" cx="515.7735" cy="230.1768" r="37.7942"/><rect class="cls-1" x="584.2605" y="203.4648" width="53.424" height="53.424" transform="translate(341.7092 -364.6056) rotate(45)"/><circle class="cls-2" cx="610.9725" cy="230.1768" r="37.7942"/><rect class="cls-1" x="489.0615" y="298.6637" width="53.424" height="53.424" transform="translate(381.1419 -269.4066) rotate(45)"/><circle class="cls-2" cx="515.7735" cy="325.3757" r="37.7942"/><rect class="cls-1" x="584.2605" y="298.6637" width="53.424" height="53.424" transform="translate(409.025 -336.7224) rotate(45)"/><circle class="cls-2" cx="610.9725" cy="325.3757" r="37.7942"/><rect class="cls-1" x="13.0669" y="393.8982" width="53.424" height="53.424" transform="translate(309.0673 95.0659) rotate(45)"/><circle class="cls-2" cx="39.7789" cy="420.6101" r="37.7942"/><rect class="cls-1" x="108.2659" y="393.8982" width="53.424" height="53.424" transform="translate(336.9504 27.7501) rotate(45)"/><circle class="cls-2" cx="134.9778" cy="420.6101" r="37.7942"/><rect class="cls-1" x="203.4648" y="393.8982" width="53.424" height="53.424" transform="translate(364.8335 -39.5657) rotate(45)"/><circle class="cls-2" cx="230.1768" cy="420.6101" r="37.7942"/><rect class="cls-1" x="298.6637" y="393.8982" width="53.424" height="53.424" transform="translate(392.7166 -106.8815) rotate(45)"/><circle class="cls-2" cx="325.3757" cy="420.6101" r="37.7942"/><rect class="cls-1" x="393.8626" y="393.8982" width="53.424" height="53.424" transform="translate(420.5997 -174.1973) rotate(45)"/><circle class="cls-2" cx="420.5746" cy="420.6101" r="37.7942"/><rect class="cls-1" x="489.0615" y="393.8982" width="53.424" height="53.424" transform="translate(448.4829 -241.5131) rotate(45)"/><circle class="cls-2" cx="515.7735" cy="420.6101" r="37.7942"/><rect class="cls-1" x="584.2605" y="393.8982" width="53.424" height="53.424" transform="translate(476.366 -308.8289) rotate(45)"/><circle class="cls-2" cx="610.9725" cy="420.6101" r="37.7942"/><rect class="cls-1" x="13.0669" y="489.0615" width="53.424" height="53.424" transform="translate(376.3579 122.9386) rotate(45)"/><circle class="cls-2" cx="39.7789" cy="515.7735" r="37.7942"/><rect class="cls-1" x="108.2659" y="489.0615" width="53.424" height="53.424" transform="translate(404.2411 55.6228) rotate(45)"/><circle class="cls-2" cx="134.9778" cy="515.7735" r="37.7942"/><rect class="cls-1" x="13.0669" y="584.2605" width="53.424" height="53.424" transform="translate(443.6737 150.8218) rotate(45)"/><circle class="cls-2" cx="39.7789" cy="610.9725" r="37.7942"/><rect class="cls-1" x="108.2659" y="584.2605" width="53.424" height="53.424" transform="translate(471.5569 83.5059) rotate(45)"/><circle class="cls-2" cx="134.9778" cy="610.9725" r="37.7942"/><rect class="cls-1" x="203.4648" y="489.0615" width="53.424" height="53.424" transform="translate(432.1242 -11.693) rotate(45)"/><circle class="cls-2" cx="230.1768" cy="515.7735" r="37.7942"/><rect class="cls-1" x="298.6637" y="489.0615" width="53.424" height="53.424" transform="translate(460.0073 -79.0088) rotate(45)"/><circle class="cls-2" cx="325.3757" cy="515.7735" r="37.7942"/><rect class="cls-1" x="203.4648" y="584.2605" width="53.424" height="53.424" transform="translate(499.44 16.1901) rotate(45)"/><circle class="cls-2" cx="230.1768" cy="610.9725" r="37.7942"/><rect class="cls-1" x="298.6637" y="584.2605" width="53.424" height="53.424" transform="translate(527.3231 -51.1257) rotate(45)"/><circle class="cls-2" cx="325.3757" cy="610.9725" r="37.7942"/><rect class="cls-1" x="393.8626" y="489.0615" width="53.424" height="53.424" transform="translate(487.8904 -146.3246) rotate(45)"/><circle class="cls-2" cx="420.5746" cy="515.7735" r="37.7942"/><rect class="cls-1" x="393.8626" y="584.2605" width="53.424" height="53.424" transform="translate(555.2062 -118.4415) rotate(45)"/><circle class="cls-2" cx="420.5746" cy="610.9725" r="37.7942"/><rect class="cls-1" x="13.0669" y="679.4594" width="53.424" height="53.424" transform="translate(510.9895 178.7049) rotate(45)"/><circle class="cls-2" cx="39.7789" cy="706.1714" r="37.7942"/><rect class="cls-1" x="108.2659" y="679.4594" width="53.424" height="53.424" transform="translate(538.8727 111.3891) rotate(45)"/><circle class="cls-2" cx="134.9778" cy="706.1714" r="37.7942"/><rect class="cls-1" x="13.0669" y="774.6583" width="53.424" height="53.424" transform="translate(578.3053 206.588) rotate(45)"/><circle class="cls-2" cx="39.7789" cy="801.3703" r="37.7942"/><rect class="cls-1" x="108.2659" y="774.6583" width="53.424" height="53.424" transform="translate(606.1885 139.2722) rotate(45)"/><circle class="cls-2" cx="134.9778" cy="801.3703" r="37.7942"/><rect class="cls-1" x="203.4648" y="679.4594" width="53.424" height="53.424" transform="translate(566.7558 44.0733) rotate(45)"/><circle class="cls-2" cx="230.1768" cy="706.1714" r="37.7942"/><rect class="cls-1" x="298.6637" y="679.4594" width="53.424" height="53.424" transform="translate(594.6389 -23.2425) rotate(45)"/><circle class="cls-2" cx="325.3757" cy="706.1714" r="37.7942"/><rect class="cls-1" x="203.4648" y="774.6583" width="53.424" height="53.424" transform="translate(634.0716 71.9564) rotate(45)"/><circle class="cls-2" cx="230.1768" cy="801.3703" r="37.7942"/><rect class="cls-1" x="298.6637" y="774.6583" width="53.424" height="53.424" transform="translate(661.9547 4.6406) rotate(45)"/><circle class="cls-2" cx="325.3757" cy="801.3703" r="37.7942"/><rect class="cls-1" x="393.8626" y="679.4594" width="53.424" height="53.424" transform="translate(622.522 -90.5583) rotate(45)"/><circle class="cls-2" cx="420.5746" cy="706.1714" r="37.7942"/><rect class="cls-1" x="393.8626" y="774.6583" width="53.424" height="53.424" transform="translate(689.8378 -62.6752) rotate(45)"/><circle class="cls-2" cx="420.5746" cy="801.3703" r="37.7942"/><rect class="cls-1" x="489.0615" y="489.0615" width="53.424" height="53.424" transform="translate(515.7735 -213.6404) rotate(45)"/><circle class="cls-2" cx="515.7735" cy="515.7735" r="37.7942"/><rect class="cls-1" x="584.2605" y="489.0615" width="53.424" height="53.424" transform="translate(543.6566 -280.9562) rotate(45)"/><circle class="cls-2" cx="610.9725" cy="515.7735" r="37.7942"/><rect class="cls-1" x="489.0615" y="584.2605" width="53.424" height="53.424" transform="translate(583.0893 -185.7573) rotate(45)"/><circle class="cls-2" cx="515.7735" cy="610.9725" r="37.7942"/><rect class="cls-1" x="584.2605" y="584.2605" width="53.424" height="53.424" transform="translate(610.9725 -253.0731) rotate(45)"/><circle class="cls-2" cx="610.9725" cy="610.9725" r="37.7942"/><rect class="cls-1" x="489.0615" y="679.4594" width="53.424" height="53.424" transform="translate(650.4051 -157.8742) rotate(45)"/><circle class="cls-2" cx="515.7735" cy="706.1714" r="37.7942"/><rect class="cls-1" x="584.2605" y="679.4594" width="53.424" height="53.424" transform="translate(678.2883 -225.19) rotate(45)"/><circle class="cls-2" cx="610.9725" cy="706.1714" r="37.7942"/><rect class="cls-1" x="489.0615" y="774.6583" width="53.424" height="53.424" transform="translate(717.7209 -129.991) rotate(45)"/><circle class="cls-2" cx="515.7735" cy="801.3703" r="37.7942"/><rect class="cls-1" x="584.2605" y="774.6583" width="53.424" height="53.424" transform="translate(745.6041 -197.3068) rotate(45)"/><circle class="cls-2" cx="610.9725" cy="801.3703" r="37.7942"/><rect class="cls-1" x="679.4594" y="13.0669" width="53.424" height="53.424" transform="translate(234.9607 -487.6876) rotate(45)"/><circle class="cls-2" cx="706.1714" cy="39.7789" r="37.7942"/><rect class="cls-1" x="774.6583" y="13.0669" width="53.424" height="53.424" transform="translate(262.8439 -555.0034) rotate(45)"/><circle class="cls-2" cx="801.3703" cy="39.7789" r="37.7942"/><rect class="cls-1" x="679.4594" y="108.2659" width="53.424" height="53.424" transform="translate(302.2765 -459.8045) rotate(45)"/><circle class="cls-2" cx="706.1714" cy="134.9778" r="37.7942"/><rect class="cls-1" x="774.6583" y="108.2659" width="53.424" height="53.424" transform="translate(330.1597 -527.1203) rotate(45)"/><circle class="cls-2" cx="801.3703" cy="134.9778" r="37.7942"/><rect class="cls-1" x="869.8572" y="13.0669" width="53.424" height="53.424" transform="translate(290.727 -622.3192) rotate(45)"/><circle class="cls-2" cx="896.5692" cy="39.7789" r="37.7942"/><rect class="cls-1" x="965.0562" y="13.0669" width="53.424" height="53.424" transform="translate(318.6101 -689.635) rotate(45)"/><circle class="cls-2" cx="991.7681" cy="39.7789" r="37.7942"/><rect class="cls-1" x="869.8572" y="108.2659" width="53.424" height="53.424" transform="translate(358.0428 -594.4361) rotate(45)"/><circle class="cls-2" cx="896.5692" cy="134.9778" r="37.7942"/><rect class="cls-1" x="965.0562" y="108.2659" width="53.424" height="53.424" transform="translate(385.9259 -661.7519) rotate(45)"/><circle class="cls-2" cx="991.7681" cy="134.9778" r="37.7942"/><rect class="cls-1" x="1060.2551" y="13.0669" width="53.424" height="53.424" transform="translate(346.4932 -756.9508) rotate(45)"/><circle class="cls-2" cx="1086.9671" cy="39.7789" r="37.7942"/><rect class="cls-1" x="1060.2551" y="108.2659" width="53.424" height="53.424" transform="translate(413.809 -729.0677) rotate(45)"/><circle class="cls-2" cx="1086.9671" cy="134.9778" r="37.7942"/><rect class="cls-1" x="679.4594" y="203.4648" width="53.424" height="53.424" transform="translate(369.5924 -431.9214) rotate(45)"/><circle class="cls-2" cx="706.1714" cy="230.1768" r="37.7942"/><rect class="cls-1" x="774.6583" y="203.4648" width="53.424" height="53.424" transform="translate(397.4755 -499.2372) rotate(45)"/><circle class="cls-2" cx="801.3703" cy="230.1768" r="37.7942"/><rect class="cls-1" x="679.4594" y="298.6637" width="53.424" height="53.424" transform="translate(436.9082 -404.0382) rotate(45)"/><circle class="cls-2" cx="706.1714" cy="325.3757" r="37.7942"/><rect class="cls-1" x="774.6583" y="298.6637" width="53.424" height="53.424" transform="translate(464.7913 -471.354) rotate(45)"/><circle class="cls-2" cx="801.3703" cy="325.3757" r="37.7942"/><rect class="cls-1" x="869.8572" y="203.4648" width="53.424" height="53.424" transform="translate(425.3586 -566.553) rotate(45)"/><circle class="cls-2" cx="896.5692" cy="230.1768" r="37.7942"/><rect class="cls-1" x="965.0562" y="203.4648" width="53.424" height="53.424" transform="translate(453.2417 -633.8688) rotate(45)"/><circle class="cls-2" cx="991.7681" cy="230.1768" r="37.7942"/><rect class="cls-1" x="869.8572" y="298.6637" width="53.424" height="53.424" transform="translate(492.6744 -538.6698) rotate(45)"/><circle class="cls-2" cx="896.5692" cy="325.3757" r="37.7942"/><rect class="cls-1" x="965.0562" y="298.6637" width="53.424" height="53.424" transform="translate(520.5575 -605.9857) rotate(45)"/><circle class="cls-2" cx="991.7681" cy="325.3757" r="37.7942"/><rect class="cls-1" x="1060.2551" y="203.4648" width="53.424" height="53.424" transform="translate(481.1248 -701.1846) rotate(45)"/><circle class="cls-2" cx="1086.9671" cy="230.1768" r="37.7942"/><rect class="cls-1" x="1060.2551" y="298.6637" width="53.424" height="53.424" transform="translate(548.4406 -673.3015) rotate(45)"/><circle class="cls-2" cx="1086.9671" cy="325.3757" r="37.7942"/><rect class="cls-1" x="1155.454" y="13.0669" width="53.424" height="53.424" transform="translate(374.3763 -824.2666) rotate(45)"/><circle class="cls-2" cx="1182.166" cy="39.7789" r="37.7942"/><rect class="cls-1" x="1155.454" y="108.2659" width="53.424" height="53.424" transform="translate(441.6921 -796.3835) rotate(45)"/><circle class="cls-2" cx="1182.166" cy="134.9778" r="37.7942"/><rect class="cls-1" x="1155.454" y="203.4648" width="53.424" height="53.424" transform="translate(509.0079 -768.5004) rotate(45)"/><circle class="cls-2" cx="1182.166" cy="230.1768" r="37.7942"/><rect class="cls-1" x="1155.454" y="298.6637" width="53.424" height="53.424" transform="translate(576.3238 -740.6173) rotate(45)"/><circle class="cls-2" cx="1182.166" cy="325.3757" r="37.7942"/><rect class="cls-1" x="679.4594" y="393.8982" width="53.424" height="53.424" transform="translate(504.2491 -376.1447) rotate(45)"/><circle class="cls-2" cx="706.1714" cy="420.6101" r="37.7942"/><rect class="cls-1" x="774.6583" y="393.8982" width="53.424" height="53.424" transform="translate(532.1322 -443.4605) rotate(45)"/><circle class="cls-2" cx="801.3703" cy="420.6101" r="37.7942"/><rect class="cls-1" x="869.8572" y="393.8982" width="53.424" height="53.424" transform="translate(560.0153 -510.7763) rotate(45)"/><circle class="cls-2" cx="896.5692" cy="420.6101" r="37.7942"/><rect class="cls-1" x="965.0562" y="393.8982" width="53.424" height="53.424" transform="translate(587.8984 -578.0921) rotate(45)"/><circle class="cls-2" cx="991.7681" cy="420.6101" r="37.7942"/><rect class="cls-1" x="1060.2551" y="393.8982" width="53.424" height="53.424" transform="translate(615.7816 -645.4079) rotate(45)"/><circle class="cls-2" cx="1086.9671" cy="420.6101" r="37.7942"/><rect class="cls-1" x="1155.454" y="393.8982" width="53.424" height="53.424" transform="translate(643.6647 -712.7237) rotate(45)"/><circle class="cls-2" cx="1182.166" cy="420.6101" r="37.7942"/><rect class="cls-1" x="679.4594" y="489.0615" width="53.424" height="53.424" transform="translate(571.5398 -348.272) rotate(45)"/><circle class="cls-2" cx="706.1714" cy="515.7735" r="37.7942"/><rect class="cls-1" x="774.6583" y="489.0615" width="53.424" height="53.424" transform="translate(599.4229 -415.5878) rotate(45)"/><circle class="cls-2" cx="801.3703" cy="515.7735" r="37.7942"/><rect class="cls-1" x="679.4594" y="584.2605" width="53.424" height="53.424" transform="translate(638.8556 -320.3889) rotate(45)"/><circle class="cls-2" cx="706.1714" cy="610.9725" r="37.7942"/><rect class="cls-1" x="774.6583" y="584.2605" width="53.424" height="53.424" transform="translate(666.7387 -387.7047) rotate(45)"/><circle class="cls-2" cx="801.3703" cy="610.9725" r="37.7942"/><rect class="cls-1" x="869.8572" y="489.0615" width="53.424" height="53.424" transform="translate(627.306 -482.9036) rotate(45)"/><circle class="cls-2" cx="896.5692" cy="515.7735" r="37.7942"/><rect class="cls-1" x="965.0562" y="489.0615" width="53.424" height="53.424" transform="translate(655.1891 -550.2194) rotate(45)"/><circle class="cls-2" cx="991.7681" cy="515.7735" r="37.7942"/><rect class="cls-1" x="869.8572" y="584.2605" width="53.424" height="53.424" transform="translate(694.6218 -455.0205) rotate(45)"/><circle class="cls-2" cx="896.5692" cy="610.9725" r="37.7942"/><rect class="cls-1" x="965.0562" y="584.2605" width="53.424" height="53.424" transform="translate(722.5049 -522.3363) rotate(45)"/><circle class="cls-2" cx="991.7681" cy="610.9725" r="37.7942"/><rect class="cls-1" x="1060.2551" y="489.0615" width="53.424" height="53.424" transform="translate(683.0722 -617.5352) rotate(45)"/><circle class="cls-2" cx="1086.9671" cy="515.7735" r="37.7942"/><rect class="cls-1" x="1060.2551" y="584.2605" width="53.424" height="53.424" transform="translate(750.388 -589.6521) rotate(45)"/><circle class="cls-2" cx="1086.9671" cy="610.9725" r="37.7942"/><rect class="cls-1" x="679.4594" y="679.4594" width="53.424" height="53.424" transform="translate(706.1714 -292.5058) rotate(45)"/><circle class="cls-2" cx="706.1714" cy="706.1714" r="37.7942"/><rect class="cls-1" x="774.6583" y="679.4594" width="53.424" height="53.424" transform="translate(734.0545 -359.8216) rotate(45)"/><circle class="cls-2" cx="801.3703" cy="706.1714" r="37.7942"/><rect class="cls-1" x="679.4594" y="774.6583" width="53.424" height="53.424" transform="translate(773.4872 -264.6226) rotate(45)"/><circle class="cls-2" cx="706.1714" cy="801.3703" r="37.7942"/><rect class="cls-1" x="774.6583" y="774.6583" width="53.424" height="53.424" transform="translate(801.3703 -331.9384) rotate(45)"/><circle class="cls-2" cx="801.3703" cy="801.3703" r="37.7942"/><rect class="cls-1" x="869.8572" y="679.4594" width="53.424" height="53.424" transform="translate(761.9376 -427.1374) rotate(45)"/><circle class="cls-2" cx="896.5692" cy="706.1714" r="37.7942"/><rect class="cls-1" x="965.0562" y="679.4594" width="53.424" height="53.424" transform="translate(789.8207 -494.4532) rotate(45)"/><circle class="cls-2" cx="991.7681" cy="706.1714" r="37.7942"/><rect class="cls-1" x="869.8572" y="774.6583" width="53.424" height="53.424" transform="translate(829.2534 -399.2543) rotate(45)"/><circle class="cls-2" cx="896.5692" cy="801.3703" r="37.7942"/><rect class="cls-1" x="965.0562" y="774.6583" width="53.424" height="53.424" transform="translate(857.1365 -466.5701) rotate(45)"/><circle class="cls-2" cx="991.7681" cy="801.3703" r="37.7942"/><rect class="cls-1" x="1060.2551" y="679.4594" width="53.424" height="53.424" transform="translate(817.7039 -561.769) rotate(45)"/><circle class="cls-2" cx="1086.9671" cy="706.1714" r="37.7942"/><rect class="cls-1" x="1060.2551" y="774.6583" width="53.424" height="53.424" transform="translate(885.0197 -533.8859) rotate(45)"/><circle class="cls-2" cx="1086.9671" cy="801.3703" r="37.7942"/><rect class="cls-1" x="1155.454" y="489.0615" width="53.424" height="53.424" transform="translate(710.9554 -684.851) rotate(45)"/><circle class="cls-2" cx="1182.166" cy="515.7735" r="37.7942"/><rect class="cls-1" x="1155.454" y="584.2605" width="53.424" height="53.424" transform="translate(778.2712 -656.9679) rotate(45)"/><circle class="cls-2" cx="1182.166" cy="610.9725" r="37.7942"/><rect class="cls-1" x="1155.454" y="679.4594" width="53.424" height="53.424" transform="translate(845.587 -629.0848) rotate(45)"/><circle class="cls-2" cx="1182.166" cy="706.1714" r="37.7942"/><rect class="cls-1" x="1155.454" y="774.6583" width="53.424" height="53.424" transform="translate(912.9028 -601.2017) rotate(45)"/><circle class="cls-2" cx="1182.166" cy="801.3703" r="37.7942"/><rect class="cls-1" x="13.0669" y="869.8572" width="53.424" height="53.424" transform="translate(645.6212 234.4711) rotate(45)"/><circle class="cls-2" cx="39.7789" cy="896.5692" r="37.7942"/><rect class="cls-1" x="108.2659" y="869.8572" width="53.424" height="53.424" transform="translate(673.5043 167.1553) rotate(45)"/><circle class="cls-2" cx="134.9778" cy="896.5692" r="37.7942"/><rect class="cls-1" x="13.0669" y="965.0562" width="53.424" height="53.424" transform="translate(712.937 262.3542) rotate(45)"/><circle class="cls-2" cx="39.7789" cy="991.7681" r="37.7942"/><rect class="cls-1" x="108.2659" y="965.0562" width="53.424" height="53.424" transform="translate(740.8201 195.0384) rotate(45)"/><circle class="cls-2" cx="134.9778" cy="991.7681" r="37.7942"/><rect class="cls-1" x="203.4648" y="869.8572" width="53.424" height="53.424" transform="translate(701.3874 99.8395) rotate(45)"/><circle class="cls-2" cx="230.1768" cy="896.5692" r="37.7942"/><rect class="cls-1" x="298.6637" y="869.8572" width="53.424" height="53.424" transform="translate(729.2705 32.5237) rotate(45)"/><circle class="cls-2" cx="325.3757" cy="896.5692" r="37.7942"/><rect class="cls-1" x="203.4648" y="965.0562" width="53.424" height="53.424" transform="translate(768.7032 127.7226) rotate(45)"/><circle class="cls-2" cx="230.1768" cy="991.7681" r="37.7942"/><rect class="cls-1" x="298.6637" y="965.0562" width="53.424" height="53.424" transform="translate(796.5863 60.4068) rotate(45)"/><circle class="cls-2" cx="325.3757" cy="991.7681" r="37.7942"/><rect class="cls-1" x="393.8626" y="869.8572" width="53.424" height="53.424" transform="translate(757.1536 -34.7921) rotate(45)"/><circle class="cls-2" cx="420.5746" cy="896.5692" r="37.7942"/><rect class="cls-1" x="393.8626" y="965.0562" width="53.424" height="53.424" transform="translate(824.4694 -6.909) rotate(45)"/><circle class="cls-2" cx="420.5746" cy="991.7681" r="37.7942"/><rect class="cls-1" x="13.0669" y="1060.2551" width="53.424" height="53.424" transform="translate(780.2528 290.2373) rotate(45)"/><circle class="cls-2" cx="39.7789" cy="1086.9671" r="37.7942"/><rect class="cls-1" x="108.2659" y="1060.2551" width="53.424" height="53.424" transform="translate(808.1359 222.9215) rotate(45)"/><circle class="cls-2" cx="134.9778" cy="1086.9671" r="37.7942"/><rect class="cls-1" x="13.0669" y="1155.454" width="53.424" height="53.424" transform="translate(847.5686 318.1205) rotate(45)"/><circle class="cls-2" cx="39.7789" cy="1182.166" r="37.7942"/><rect class="cls-1" x="108.2659" y="1155.454" width="53.424" height="53.424" transform="translate(875.4517 250.8047) rotate(45)"/><circle class="cls-2" cx="134.9778" cy="1182.166" r="37.7942"/><rect class="cls-1" x="203.4648" y="1060.2551" width="53.424" height="53.424" transform="translate(836.019 155.6057) rotate(45)"/><circle class="cls-2" cx="230.1768" cy="1086.9671" r="37.7942"/><rect class="cls-1" x="298.6637" y="1060.2551" width="53.424" height="53.424" transform="translate(863.9021 88.2899) rotate(45)"/><circle class="cls-2" cx="325.3757" cy="1086.9671" r="37.7942"/><rect class="cls-1" x="203.4648" y="1155.454" width="53.424" height="53.424" transform="translate(903.3348 183.4889) rotate(45)"/><circle class="cls-2" cx="230.1768" cy="1182.166" r="37.7942"/><rect class="cls-1" x="298.6637" y="1155.454" width="53.424" height="53.424" transform="translate(931.2179 116.1731) rotate(45)"/><circle class="cls-2" cx="325.3757" cy="1182.166" r="37.7942"/><rect class="cls-1" x="393.8626" y="1060.2551" width="53.424" height="53.424" transform="translate(891.7852 20.9741) rotate(45)"/><circle class="cls-2" cx="420.5746" cy="1086.9671" r="37.7942"/><rect class="cls-1" x="393.8626" y="1155.454" width="53.424" height="53.424" transform="translate(959.101 48.8572) rotate(45)"/><circle class="cls-2" cx="420.5746" cy="1182.166" r="37.7942"/><rect class="cls-1" x="489.0615" y="869.8572" width="53.424" height="53.424" transform="translate(785.0367 -102.1079) rotate(45)"/><circle class="cls-2" cx="515.7735" cy="896.5692" r="37.7942"/><rect class="cls-1" x="584.2605" y="869.8572" width="53.424" height="53.424" transform="translate(812.9199 -169.4237) rotate(45)"/><circle class="cls-2" cx="610.9725" cy="896.5692" r="37.7942"/><rect class="cls-1" x="489.0615" y="965.0562" width="53.424" height="53.424" transform="translate(852.3526 -74.2248) rotate(45)"/><circle class="cls-2" cx="515.7735" cy="991.7681" r="37.7942"/><rect class="cls-1" x="584.2605" y="965.0562" width="53.424" height="53.424" transform="translate(880.2357 -141.5406) rotate(45)"/><circle class="cls-2" cx="610.9725" cy="991.7681" r="37.7942"/><rect class="cls-1" x="489.0615" y="1060.2551" width="53.424" height="53.424" transform="translate(919.6684 -46.3417) rotate(45)"/><circle class="cls-2" cx="515.7735" cy="1086.9671" r="37.7942"/><rect class="cls-1" x="584.2605" y="1060.2551" width="53.424" height="53.424" transform="translate(947.5515 -113.6575) rotate(45)"/><circle class="cls-2" cx="610.9725" cy="1086.9671" r="37.7942"/><rect class="cls-1" x="489.0615" y="1155.454" width="53.424" height="53.424" transform="translate(986.9842 -18.4586) rotate(45)"/><circle class="cls-2" cx="515.7735" cy="1182.166" r="37.7942"/><rect class="cls-1" x="584.2605" y="1155.454" width="53.424" height="53.424" transform="translate(1014.8673 -85.7744) rotate(45)"/><circle class="cls-2" cx="610.9725" cy="1182.166" r="37.7942"/><rect class="cls-1" x="13.0669" y="1250.6885" width="53.424" height="53.424" transform="translate(914.9095 346.014) rotate(45)"/><circle class="cls-2" cx="39.7789" cy="1277.4005" r="37.7942"/><rect class="cls-1" x="108.2659" y="1250.6885" width="53.424" height="53.424" transform="translate(942.7926 278.6982) rotate(45)"/><circle class="cls-2" cx="134.9778" cy="1277.4005" r="37.7942"/><rect class="cls-1" x="203.4648" y="1250.6885" width="53.424" height="53.424" transform="translate(970.6757 211.3824) rotate(45)"/><circle class="cls-2" cx="230.1768" cy="1277.4005" r="37.7942"/><rect class="cls-1" x="298.6637" y="1250.6885" width="53.424" height="53.424" transform="translate(998.5589 144.0666) rotate(45)"/><circle class="cls-2" cx="325.3757" cy="1277.4005" r="37.7942"/><rect class="cls-1" x="393.8626" y="1250.6885" width="53.424" height="53.424" transform="translate(1026.442 76.7508) rotate(45)"/><circle class="cls-2" cx="420.5746" cy="1277.4005" r="37.7942"/><rect class="cls-1" x="489.0615" y="1250.6885" width="53.424" height="53.424" transform="translate(1054.3251 9.435) rotate(45)"/><circle class="cls-2" cx="515.7735" cy="1277.4005" r="37.7942"/><rect class="cls-1" x="584.2605" y="1250.6885" width="53.424" height="53.424" transform="translate(1082.2082 -57.8808) rotate(45)"/><circle class="cls-2" cx="610.9725" cy="1277.4005" r="37.7942"/><rect class="cls-1" x="13.0669" y="1345.8519" width="53.424" height="53.424" transform="translate(982.2002 373.8867) rotate(45)"/><circle class="cls-2" cx="39.7789" cy="1372.5638" r="37.7942"/><rect class="cls-1" x="108.2659" y="1345.8519" width="53.424" height="53.424" transform="translate(1010.0833 306.5709) rotate(45)"/><circle class="cls-2" cx="134.9778" cy="1372.5638" r="37.7942"/><rect class="cls-1" x="13.0669" y="1441.0508" width="53.424" height="53.424" transform="translate(1049.516 401.7698) rotate(45)"/><circle class="cls-2" cx="39.7789" cy="1467.7628" r="37.7942"/><rect class="cls-1" x="108.2659" y="1441.0508" width="53.424" height="53.424" transform="translate(1077.3991 334.454) rotate(45)"/><circle class="cls-2" cx="134.9778" cy="1467.7628" r="37.7942"/><rect class="cls-1" x="203.4648" y="1345.8519" width="53.424" height="53.424" transform="translate(1037.9664 239.2551) rotate(45)"/><circle class="cls-2" cx="230.1768" cy="1372.5638" r="37.7942"/><rect class="cls-1" x="298.6637" y="1345.8519" width="53.424" height="53.424" transform="translate(1065.8495 171.9393) rotate(45)"/><circle class="cls-2" cx="325.3757" cy="1372.5638" r="37.7942"/><rect class="cls-1" x="203.4648" y="1441.0508" width="53.424" height="53.424" transform="translate(1105.2822 267.1382) rotate(45)"/><circle class="cls-2" cx="230.1768" cy="1467.7628" r="37.7942"/><rect class="cls-1" x="298.6637" y="1441.0508" width="53.424" height="53.424" transform="translate(1133.1653 199.8224) rotate(45)"/><circle class="cls-2" cx="325.3757" cy="1467.7628" r="37.7942"/><rect class="cls-1" x="393.8626" y="1345.8519" width="53.424" height="53.424" transform="translate(1093.7327 104.6235) rotate(45)"/><circle class="cls-2" cx="420.5746" cy="1372.5638" r="37.7942"/><rect class="cls-1" x="393.8626" y="1441.0508" width="53.424" height="53.424" transform="translate(1161.0485 132.5066) rotate(45)"/><circle class="cls-2" cx="420.5746" cy="1467.7628" r="37.7942"/><rect class="cls-1" x="13.0669" y="1536.2497" width="53.424" height="53.424" transform="translate(1116.8318 429.6529) rotate(45)"/><circle class="cls-2" cx="39.7789" cy="1562.9617" r="37.7942"/><rect class="cls-1" x="108.2659" y="1536.2497" width="53.424" height="53.424" transform="translate(1144.7149 362.3371) rotate(45)"/><circle class="cls-2" cx="134.9778" cy="1562.9617" r="37.7942"/><rect class="cls-1" x="13.0669" y="1631.4486" width="53.424" height="53.424" transform="translate(1184.1476 457.5361) rotate(45)"/><circle class="cls-2" cx="39.7789" cy="1658.1606" r="37.7942"/><rect class="cls-1" x="108.2659" y="1631.4486" width="53.424" height="53.424" transform="translate(1212.0307 390.2203) rotate(45)"/><circle class="cls-2" cx="134.9778" cy="1658.1606" r="37.7942"/><rect class="cls-1" x="203.4648" y="1536.2497" width="53.424" height="53.424" transform="translate(1172.598 295.0213) rotate(45)"/><circle class="cls-2" cx="230.1768" cy="1562.9617" r="37.7942"/><rect class="cls-1" x="298.6637" y="1536.2497" width="53.424" height="53.424" transform="translate(1200.4811 227.7055) rotate(45)"/><circle class="cls-2" cx="325.3757" cy="1562.9617" r="37.7942"/><rect class="cls-1" x="203.4648" y="1631.4486" width="53.424" height="53.424" transform="translate(1239.9138 322.9045) rotate(45)"/><circle class="cls-2" cx="230.1768" cy="1658.1606" r="37.7942"/><rect class="cls-1" x="298.6637" y="1631.4486" width="53.424" height="53.424" transform="translate(1267.7969 255.5886) rotate(45)"/><circle class="cls-2" cx="325.3757" cy="1658.1606" r="37.7942"/><rect class="cls-1" x="393.8626" y="1536.2497" width="53.424" height="53.424" transform="translate(1228.3643 160.3897) rotate(45)"/><circle class="cls-2" cx="420.5746" cy="1562.9617" r="37.7942"/><rect class="cls-1" x="393.8626" y="1631.4486" width="53.424" height="53.424" transform="translate(1295.6801 188.2728) rotate(45)"/><circle class="cls-2" cx="420.5746" cy="1658.1606" r="37.7942"/><rect class="cls-1" x="489.0615" y="1345.8519" width="53.424" height="53.424" transform="translate(1121.6158 37.3077) rotate(45)"/><circle class="cls-2" cx="515.7735" cy="1372.5638" r="37.7942"/><rect class="cls-1" x="584.2605" y="1345.8519" width="53.424" height="53.424" transform="translate(1149.4989 -30.0081) rotate(45)"/><circle class="cls-2" cx="610.9725" cy="1372.5638" r="37.7942"/><rect class="cls-1" x="489.0615" y="1441.0508" width="53.424" height="53.424" transform="translate(1188.9316 65.1908) rotate(45)"/><circle class="cls-2" cx="515.7735" cy="1467.7628" r="37.7942"/><rect class="cls-1" x="584.2605" y="1441.0508" width="53.424" height="53.424" transform="translate(1216.8147 -2.125) rotate(45)"/><circle class="cls-2" cx="610.9725" cy="1467.7628" r="37.7942"/><rect class="cls-1" x="489.0615" y="1536.2497" width="53.424" height="53.424" transform="translate(1256.2474 93.0739) rotate(45)"/><circle class="cls-2" cx="515.7735" cy="1562.9617" r="37.7942"/><rect class="cls-1" x="584.2605" y="1536.2497" width="53.424" height="53.424" transform="translate(1284.1305 25.7581) rotate(45)"/><circle class="cls-2" cx="610.9725" cy="1562.9617" r="37.7942"/><rect class="cls-1" x="489.0615" y="1631.4486" width="53.424" height="53.424" transform="translate(1323.5632 120.957) rotate(45)"/><circle class="cls-2" cx="515.7735" cy="1658.1606" r="37.7942"/><rect class="cls-1" x="584.2605" y="1631.4486" width="53.424" height="53.424" transform="translate(1351.4463 53.6412) rotate(45)"/><circle class="cls-2" cx="610.9725" cy="1658.1606" r="37.7942"/><rect class="cls-1" x="679.4594" y="869.8572" width="53.424" height="53.424" transform="translate(840.803 -236.7395) rotate(45)"/><circle class="cls-2" cx="706.1714" cy="896.5692" r="37.7942"/><rect class="cls-1" x="774.6583" y="869.8572" width="53.424" height="53.424" transform="translate(868.6861 -304.0553) rotate(45)"/><circle class="cls-2" cx="801.3703" cy="896.5692" r="37.7942"/><rect class="cls-1" x="679.4594" y="965.0562" width="53.424" height="53.424" transform="translate(908.1188 -208.8564) rotate(45)"/><circle class="cls-2" cx="706.1714" cy="991.7681" r="37.7942"/><rect class="cls-1" x="774.6583" y="965.0562" width="53.424" height="53.424" transform="translate(936.0019 -276.1722) rotate(45)"/><circle class="cls-2" cx="801.3703" cy="991.7681" r="37.7942"/><rect class="cls-1" x="869.8572" y="869.8572" width="53.424" height="53.424" transform="translate(896.5692 -371.3711) rotate(45)"/><circle class="cls-2" cx="896.5692" cy="896.5692" r="37.7942"/><rect class="cls-1" x="965.0562" y="869.8572" width="53.424" height="53.424" transform="translate(924.4523 -438.6869) rotate(45)"/><circle class="cls-2" cx="991.7681" cy="896.5692" r="37.7942"/><rect class="cls-1" x="869.8572" y="965.0562" width="53.424" height="53.424" transform="translate(963.885 -343.488) rotate(45)"/><circle class="cls-2" cx="896.5692" cy="991.7681" r="37.7942"/><rect class="cls-1" x="965.0562" y="965.0562" width="53.424" height="53.424" transform="translate(991.7681 -410.8038) rotate(45)"/><circle class="cls-2" cx="991.7681" cy="991.7681" r="37.7942"/><rect class="cls-1" x="1060.2551" y="869.8572" width="53.424" height="53.424" transform="translate(952.3355 -506.0027) rotate(45)"/><circle class="cls-2" cx="1086.9671" cy="896.5692" r="37.7942"/><rect class="cls-1" x="1060.2551" y="965.0562" width="53.424" height="53.424" transform="translate(1019.6513 -478.1196) rotate(45)"/><circle class="cls-2" cx="1086.9671" cy="991.7681" r="37.7942"/><rect class="cls-1" x="679.4594" y="1060.2551" width="53.424" height="53.424" transform="translate(975.4346 -180.9733) rotate(45)"/><circle class="cls-2" cx="706.1714" cy="1086.9671" r="37.7942"/><rect class="cls-1" x="774.6583" y="1060.2551" width="53.424" height="53.424" transform="translate(1003.3177 -248.2891) rotate(45)"/><circle class="cls-2" cx="801.3703" cy="1086.9671" r="37.7942"/><rect class="cls-1" x="679.4594" y="1155.454" width="53.424" height="53.424" transform="translate(1042.7504 -153.0902) rotate(45)"/><circle class="cls-2" cx="706.1714" cy="1182.166" r="37.7942"/><rect class="cls-1" x="774.6583" y="1155.454" width="53.424" height="53.424" transform="translate(1070.6335 -220.406) rotate(45)"/><circle class="cls-2" cx="801.3703" cy="1182.166" r="37.7942"/><rect class="cls-1" x="869.8572" y="1060.2551" width="53.424" height="53.424" transform="translate(1031.2008 -315.6049) rotate(45)"/><circle class="cls-2" cx="896.5692" cy="1086.9671" r="37.7942"/><rect class="cls-1" x="965.0562" y="1060.2551" width="53.424" height="53.424" transform="translate(1059.084 -382.9207) rotate(45)"/><circle class="cls-2" cx="991.7681" cy="1086.9671" r="37.7942"/><rect class="cls-1" x="869.8572" y="1155.454" width="53.424" height="53.424" transform="translate(1098.5166 -287.7218) rotate(45)"/><circle class="cls-2" cx="896.5692" cy="1182.166" r="37.7942"/><rect class="cls-1" x="965.0562" y="1155.454" width="53.424" height="53.424" transform="translate(1126.3998 -355.0376) rotate(45)"/><circle class="cls-2" cx="991.7681" cy="1182.166" r="37.7942"/><rect class="cls-1" x="1060.2551" y="1060.2551" width="53.424" height="53.424" transform="translate(1086.9671 -450.2365) rotate(45)"/><circle class="cls-2" cx="1086.9671" cy="1086.9671" r="37.7942"/><rect class="cls-1" x="1060.2551" y="1155.454" width="53.424" height="53.424" transform="translate(1154.2829 -422.3534) rotate(45)"/><circle class="cls-2" cx="1086.9671" cy="1182.166" r="37.7942"/><rect class="cls-1" x="1155.454" y="869.8572" width="53.424" height="53.424" transform="translate(980.2186 -573.3185) rotate(45)"/><circle class="cls-2" cx="1182.166" cy="896.5692" r="37.7942"/><rect class="cls-1" x="1155.454" y="965.0562" width="53.424" height="53.424" transform="translate(1047.5344 -545.4354) rotate(45)"/><circle class="cls-2" cx="1182.166" cy="991.7681" r="37.7942"/><rect class="cls-1" x="1155.454" y="1060.2551" width="53.424" height="53.424" transform="translate(1114.8502 -517.5523) rotate(45)"/><circle class="cls-2" cx="1182.166" cy="1086.9671" r="37.7942"/><rect class="cls-1" x="1155.454" y="1155.454" width="53.424" height="53.424" transform="translate(1182.166 -489.6692) rotate(45)"/><circle class="cls-2" cx="1182.166" cy="1182.166" r="37.7942"/><rect class="cls-1" x="679.4594" y="1250.6885" width="53.424" height="53.424" transform="translate(1110.0913 -125.1966) rotate(45)"/><circle class="cls-2" cx="706.1714" cy="1277.4005" r="37.7942"/><rect class="cls-1" x="774.6583" y="1250.6885" width="53.424" height="53.424" transform="translate(1137.9744 -192.5124) rotate(45)"/><circle class="cls-2" cx="801.3703" cy="1277.4005" r="37.7942"/><rect class="cls-1" x="869.8572" y="1250.6885" width="53.424" height="53.424" transform="translate(1165.8576 -259.8282) rotate(45)"/><circle class="cls-2" cx="896.5692" cy="1277.4005" r="37.7942"/><rect class="cls-1" x="965.0562" y="1250.6885" width="53.424" height="53.424" transform="translate(1193.7407 -327.1441) rotate(45)"/><circle class="cls-2" cx="991.7681" cy="1277.4005" r="37.7942"/><rect class="cls-1" x="1060.2551" y="1250.6885" width="53.424" height="53.424" transform="translate(1221.6238 -394.4599) rotate(45)"/><circle class="cls-2" cx="1086.9671" cy="1277.4005" r="37.7942"/><rect class="cls-1" x="1155.454" y="1250.6885" width="53.424" height="53.424" transform="translate(1249.5069 -461.7757) rotate(45)"/><circle class="cls-2" cx="1182.166" cy="1277.4005" r="37.7942"/><rect class="cls-1" x="679.4594" y="1345.8519" width="53.424" height="53.424" transform="translate(1177.382 -97.3239) rotate(45)"/><circle class="cls-2" cx="706.1714" cy="1372.5638" r="37.7942"/><rect class="cls-1" x="774.6583" y="1345.8519" width="53.424" height="53.424" transform="translate(1205.2651 -164.6397) rotate(45)"/><circle class="cls-2" cx="801.3703" cy="1372.5638" r="37.7942"/><rect class="cls-1" x="679.4594" y="1441.0508" width="53.424" height="53.424" transform="translate(1244.6978 -69.4408) rotate(45)"/><circle class="cls-2" cx="706.1714" cy="1467.7628" r="37.7942"/><rect class="cls-1" x="774.6583" y="1441.0508" width="53.424" height="53.424" transform="translate(1272.5809 -136.7566) rotate(45)"/><circle class="cls-2" cx="801.3703" cy="1467.7628" r="37.7942"/><rect class="cls-1" x="869.8572" y="1345.8519" width="53.424" height="53.424" transform="translate(1233.1482 -231.9555) rotate(45)"/><circle class="cls-2" cx="896.5692" cy="1372.5638" r="37.7942"/><rect class="cls-1" x="965.0562" y="1345.8519" width="53.424" height="53.424" transform="translate(1261.0314 -299.2713) rotate(45)"/><circle class="cls-2" cx="991.7681" cy="1372.5638" r="37.7942"/><rect class="cls-1" x="869.8572" y="1441.0508" width="53.424" height="53.424" transform="translate(1300.4641 -204.0724) rotate(45)"/><circle class="cls-2" cx="896.5692" cy="1467.7628" r="37.7942"/><rect class="cls-1" x="965.0562" y="1441.0508" width="53.424" height="53.424" transform="translate(1328.3472 -271.3882) rotate(45)"/><circle class="cls-2" cx="991.7681" cy="1467.7628" r="37.7942"/><rect class="cls-1" x="1060.2551" y="1345.8519" width="53.424" height="53.424" transform="translate(1288.9145 -366.5871) rotate(45)"/><circle class="cls-2" cx="1086.9671" cy="1372.5638" r="37.7942"/><rect class="cls-1" x="1060.2551" y="1441.0508" width="53.424" height="53.424" transform="translate(1356.2303 -338.704) rotate(45)"/><circle class="cls-2" cx="1086.9671" cy="1467.7628" r="37.7942"/><rect class="cls-1" x="679.4594" y="1536.2497" width="53.424" height="53.424" transform="translate(1312.0136 -41.5577) rotate(45)"/><circle class="cls-2" cx="706.1714" cy="1562.9617" r="37.7942"/><rect class="cls-1" x="774.6583" y="1536.2497" width="53.424" height="53.424" transform="translate(1339.8967 -108.8735) rotate(45)"/><circle class="cls-2" cx="801.3703" cy="1562.9617" r="37.7942"/><rect class="cls-1" x="679.4594" y="1631.4486" width="53.424" height="53.424" transform="translate(1379.3294 -13.6746) rotate(45)"/><circle class="cls-2" cx="706.1714" cy="1658.1606" r="37.7942"/><rect class="cls-1" x="774.6583" y="1631.4486" width="53.424" height="53.424" transform="translate(1407.2125 -80.9904) rotate(45)"/><circle class="cls-2" cx="801.3703" cy="1658.1606" r="37.7942"/><rect class="cls-1" x="869.8572" y="1536.2497" width="53.424" height="53.424" transform="translate(1367.7799 -176.1893) rotate(45)"/><circle class="cls-2" cx="896.5692" cy="1562.9617" r="37.7942"/><rect class="cls-1" x="965.0562" y="1536.2497" width="53.424" height="53.424" transform="translate(1395.663 -243.5051) rotate(45)"/><circle class="cls-2" cx="991.7681" cy="1562.9617" r="37.7942"/><rect class="cls-1" x="869.8572" y="1631.4486" width="53.424" height="53.424" transform="translate(1435.0957 -148.3062) rotate(45)"/><circle class="cls-2" cx="896.5692" cy="1658.1606" r="37.7942"/><rect class="cls-1" x="965.0562" y="1631.4486" width="53.424" height="53.424" transform="translate(1462.9788 -215.622) rotate(45)"/><circle class="cls-2" cx="991.7681" cy="1658.1606" r="37.7942"/><rect class="cls-1" x="1060.2551" y="1536.2497" width="53.424" height="53.424" transform="translate(1423.5461 -310.8209) rotate(45)"/><circle class="cls-2" cx="1086.9671" cy="1562.9617" r="37.7942"/><rect class="cls-1" x="1060.2551" y="1631.4486" width="53.424" height="53.424" transform="translate(1490.8619 -282.9378) rotate(45)"/><circle class="cls-2" cx="1086.9671" cy="1658.1606" r="37.7942"/><rect class="cls-1" x="1155.454" y="1345.8519" width="53.424" height="53.424" transform="translate(1316.7976 -433.9029) rotate(45)"/><circle class="cls-2" cx="1182.166" cy="1372.5638" r="37.7942"/><rect class="cls-1" x="1155.454" y="1441.0508" width="53.424" height="53.424" transform="translate(1384.1134 -406.0198) rotate(45)"/><circle class="cls-2" cx="1182.166" cy="1467.7628" r="37.7942"/><rect class="cls-1" x="1155.454" y="1536.2497" width="53.424" height="53.424" transform="translate(1451.4292 -378.1367) rotate(45)"/><circle class="cls-2" cx="1182.166" cy="1562.9617" r="37.7942"/><rect class="cls-1" x="1155.454" y="1631.4486" width="53.424" height="53.424" transform="translate(1518.745 -350.2536) rotate(45)"/><circle class="cls-2" cx="1182.166" cy="1658.1606" r="37.7942"/><rect class="cls-1" x="1250.6885" y="13.0669" width="53.424" height="53.424" transform="translate(402.2699 -891.6076) rotate(45)"/><circle class="cls-2" cx="1277.4005" cy="39.7789" r="37.7942"/><rect class="cls-1" x="1345.8874" y="13.0669" width="53.424" height="53.424" transform="translate(430.153 -958.9234) rotate(45)"/><circle class="cls-2" cx="1372.5994" cy="39.7789" r="37.7942"/><rect class="cls-1" x="1250.6885" y="108.2659" width="53.424" height="53.424" transform="translate(469.5857 -863.7244) rotate(45)"/><circle class="cls-2" cx="1277.4005" cy="134.9778" r="37.7942"/><rect class="cls-1" x="1345.8874" y="108.2659" width="53.424" height="53.424" transform="translate(497.4688 -931.0402) rotate(45)"/><circle class="cls-2" cx="1372.5994" cy="134.9778" r="37.7942"/><rect class="cls-1" x="1441.0863" y="13.0669" width="53.424" height="53.424" transform="translate(458.0361 -1026.2392) rotate(45)"/><circle class="cls-2" cx="1467.7983" cy="39.7789" r="37.7942"/><rect class="cls-1" x="1536.2852" y="13.0669" width="53.424" height="53.424" transform="translate(485.9192 -1093.555) rotate(45)"/><circle class="cls-2" cx="1562.9972" cy="39.7789" r="37.7942"/><rect class="cls-1" x="1441.0863" y="108.2659" width="53.424" height="53.424" transform="translate(525.3519 -998.356) rotate(45)"/><circle class="cls-2" cx="1467.7983" cy="134.9778" r="37.7942"/><rect class="cls-1" x="1536.2852" y="108.2659" width="53.424" height="53.424" transform="translate(553.235 -1065.6718) rotate(45)"/><circle class="cls-2" cx="1562.9972" cy="134.9778" r="37.7942"/><rect class="cls-1" x="1631.4842" y="13.0669" width="53.424" height="53.424" transform="translate(513.8023 -1160.8708) rotate(45)"/><circle class="cls-2" cx="1658.1961" cy="39.7789" r="37.7942"/><rect class="cls-1" x="1631.4842" y="108.2659" width="53.424" height="53.424" transform="translate(581.1181 -1132.9876) rotate(45)"/><circle class="cls-2" cx="1658.1961" cy="134.9778" r="37.7942"/><rect class="cls-1" x="1250.6885" y="203.4648" width="53.424" height="53.424" transform="translate(536.9015 -835.8413) rotate(45)"/><circle class="cls-2" cx="1277.4005" cy="230.1768" r="37.7942"/><rect class="cls-1" x="1345.8874" y="203.4648" width="53.424" height="53.424" transform="translate(564.7846 -903.1571) rotate(45)"/><circle class="cls-2" cx="1372.5994" cy="230.1768" r="37.7942"/><rect class="cls-1" x="1250.6885" y="298.6637" width="53.424" height="53.424" transform="translate(604.2173 -807.9582) rotate(45)"/><circle class="cls-2" cx="1277.4005" cy="325.3757" r="37.7942"/><rect class="cls-1" x="1345.8874" y="298.6637" width="53.424" height="53.424" transform="translate(632.1004 -875.274) rotate(45)"/><circle class="cls-2" cx="1372.5994" cy="325.3757" r="37.7942"/><rect class="cls-1" x="1441.0863" y="203.4648" width="53.424" height="53.424" transform="translate(592.6677 -970.4729) rotate(45)"/><circle class="cls-2" cx="1467.7983" cy="230.1768" r="37.7942"/><rect class="cls-1" x="1536.2852" y="203.4648" width="53.424" height="53.424" transform="translate(620.5508 -1037.7887) rotate(45)"/><circle class="cls-2" cx="1562.9972" cy="230.1768" r="37.7942"/><rect class="cls-1" x="1441.0863" y="298.6637" width="53.424" height="53.424" transform="translate(659.9835 -942.5898) rotate(45)"/><circle class="cls-2" cx="1467.7983" cy="325.3757" r="37.7942"/><rect class="cls-1" x="1536.2852" y="298.6637" width="53.424" height="53.424" transform="translate(687.8666 -1009.9056) rotate(45)"/><circle class="cls-2" cx="1562.9972" cy="325.3757" r="37.7942"/><rect class="cls-1" x="1631.4842" y="203.4648" width="53.424" height="53.424" transform="translate(648.434 -1105.1045) rotate(45)"/><circle class="cls-2" cx="1658.1961" cy="230.1768" r="37.7942"/><rect class="cls-1" x="1631.4842" y="298.6637" width="53.424" height="53.424" transform="translate(715.7498 -1077.2214) rotate(45)"/><circle class="cls-2" cx="1658.1961" cy="325.3757" r="37.7942"/><rect class="cls-1" x="1726.6831" y="13.0669" width="53.424" height="53.424" transform="translate(541.6855 -1228.1866) rotate(45)"/><circle class="cls-2" cx="1753.3951" cy="39.7789" r="37.7942"/><rect class="cls-1" x="1821.882" y="13.0669" width="53.424" height="53.424" transform="translate(569.5686 -1295.5024) rotate(45)"/><circle class="cls-2" cx="1848.594" cy="39.7789" r="37.7942"/><rect class="cls-1" x="1726.6831" y="108.2659" width="53.424" height="53.424" transform="translate(609.0013 -1200.3035) rotate(45)"/><circle class="cls-2" cx="1753.3951" cy="134.9778" r="37.7942"/><rect class="cls-1" x="1821.882" y="108.2659" width="53.424" height="53.424" transform="translate(636.8844 -1267.6193) rotate(45)"/><circle class="cls-2" cx="1848.594" cy="134.9778" r="37.7942"/><rect class="cls-1" x="1726.6831" y="203.4648" width="53.424" height="53.424" transform="translate(676.3171 -1172.4203) rotate(45)"/><circle class="cls-2" cx="1753.3951" cy="230.1768" r="37.7942"/><rect class="cls-1" x="1821.882" y="203.4648" width="53.424" height="53.424" transform="translate(704.2002 -1239.7361) rotate(45)"/><circle class="cls-2" cx="1848.594" cy="230.1768" r="37.7942"/><rect class="cls-1" x="1726.6831" y="298.6637" width="53.424" height="53.424" transform="translate(743.6329 -1144.5372) rotate(45)"/><circle class="cls-2" cx="1753.3951" cy="325.3757" r="37.7942"/><rect class="cls-1" x="1821.882" y="298.6637" width="53.424" height="53.424" transform="translate(771.516 -1211.853) rotate(45)"/><circle class="cls-2" cx="1848.594" cy="325.3757" r="37.7942"/><rect class="cls-1" x="1250.6885" y="393.8982" width="53.424" height="53.424" transform="translate(671.5582 -780.0647) rotate(45)"/><circle class="cls-2" cx="1277.4005" cy="420.6101" r="37.7942"/><rect class="cls-1" x="1345.8874" y="393.8982" width="53.424" height="53.424" transform="translate(699.4413 -847.3805) rotate(45)"/><circle class="cls-2" cx="1372.5994" cy="420.6101" r="37.7942"/><rect class="cls-1" x="1441.0863" y="393.8982" width="53.424" height="53.424" transform="translate(727.3245 -914.6963) rotate(45)"/><circle class="cls-2" cx="1467.7983" cy="420.6101" r="37.7942"/><rect class="cls-1" x="1536.2852" y="393.8982" width="53.424" height="53.424" transform="translate(755.2076 -982.0121) rotate(45)"/><circle class="cls-2" cx="1562.9972" cy="420.6101" r="37.7942"/><rect class="cls-1" x="1631.4842" y="393.8982" width="53.424" height="53.424" transform="translate(783.0907 -1049.3279) rotate(45)"/><circle class="cls-2" cx="1658.1961" cy="420.6101" r="37.7942"/><rect class="cls-1" x="1726.6831" y="393.8982" width="53.424" height="53.424" transform="translate(810.9738 -1116.6437) rotate(45)"/><circle class="cls-2" cx="1753.3951" cy="420.6101" r="37.7942"/><rect class="cls-1" x="1821.882" y="393.8982" width="53.424" height="53.424" transform="translate(838.8569 -1183.9595) rotate(45)"/><circle class="cls-2" cx="1848.594" cy="420.6101" r="37.7942"/><rect class="cls-1" x="1250.6885" y="489.0615" width="53.424" height="53.424" transform="translate(738.8489 -752.192) rotate(45)"/><circle class="cls-2" cx="1277.4005" cy="515.7735" r="37.7942"/><rect class="cls-1" x="1345.8874" y="489.0615" width="53.424" height="53.424" transform="translate(766.732 -819.5078) rotate(45)"/><circle class="cls-2" cx="1372.5994" cy="515.7735" r="37.7942"/><rect class="cls-1" x="1250.6885" y="584.2605" width="53.424" height="53.424" transform="translate(806.1647 -724.3088) rotate(45)"/><circle class="cls-2" cx="1277.4005" cy="610.9725" r="37.7942"/><rect class="cls-1" x="1345.8874" y="584.2605" width="53.424" height="53.424" transform="translate(834.0478 -791.6246) rotate(45)"/><circle class="cls-2" cx="1372.5994" cy="610.9725" r="37.7942"/><rect class="cls-1" x="1441.0863" y="489.0615" width="53.424" height="53.424" transform="translate(794.6151 -886.8236) rotate(45)"/><circle class="cls-2" cx="1467.7983" cy="515.7735" r="37.7942"/><rect class="cls-1" x="1536.2852" y="489.0615" width="53.424" height="53.424" transform="translate(822.4982 -954.1394) rotate(45)"/><circle class="cls-2" cx="1562.9972" cy="515.7735" r="37.7942"/><rect class="cls-1" x="1441.0863" y="584.2605" width="53.424" height="53.424" transform="translate(861.9309 -858.9404) rotate(45)"/><circle class="cls-2" cx="1467.7983" cy="610.9725" r="37.7942"/><rect class="cls-1" x="1536.2852" y="584.2605" width="53.424" height="53.424" transform="translate(889.8141 -926.2562) rotate(45)"/><circle class="cls-2" cx="1562.9972" cy="610.9725" r="37.7942"/><rect class="cls-1" x="1631.4842" y="489.0615" width="53.424" height="53.424" transform="translate(850.3814 -1021.4552) rotate(45)"/><circle class="cls-2" cx="1658.1961" cy="515.7735" r="37.7942"/><rect class="cls-1" x="1631.4842" y="584.2605" width="53.424" height="53.424" transform="translate(917.6972 -993.5721) rotate(45)"/><circle class="cls-2" cx="1658.1961" cy="610.9725" r="37.7942"/><rect class="cls-1" x="1250.6885" y="679.4594" width="53.424" height="53.424" transform="translate(873.4805 -696.4257) rotate(45)"/><circle class="cls-2" cx="1277.4005" cy="706.1714" r="37.7942"/><rect class="cls-1" x="1345.8874" y="679.4594" width="53.424" height="53.424" transform="translate(901.3636 -763.7415) rotate(45)"/><circle class="cls-2" cx="1372.5994" cy="706.1714" r="37.7942"/><rect class="cls-1" x="1250.6885" y="774.6583" width="53.424" height="53.424" transform="translate(940.7963 -668.5426) rotate(45)"/><circle class="cls-2" cx="1277.4005" cy="801.3703" r="37.7942"/><rect class="cls-1" x="1345.8874" y="774.6583" width="53.424" height="53.424" transform="translate(968.6794 -735.8584) rotate(45)"/><circle class="cls-2" cx="1372.5994" cy="801.3703" r="37.7942"/><rect class="cls-1" x="1441.0863" y="679.4594" width="53.424" height="53.424" transform="translate(929.2467 -831.0573) rotate(45)"/><circle class="cls-2" cx="1467.7983" cy="706.1714" r="37.7942"/><rect class="cls-1" x="1536.2852" y="679.4594" width="53.424" height="53.424" transform="translate(957.1299 -898.3731) rotate(45)"/><circle class="cls-2" cx="1562.9972" cy="706.1714" r="37.7942"/><rect class="cls-1" x="1441.0863" y="774.6583" width="53.424" height="53.424" transform="translate(996.5625 -803.1742) rotate(45)"/><circle class="cls-2" cx="1467.7983" cy="801.3703" r="37.7942"/><rect class="cls-1" x="1536.2852" y="774.6583" width="53.424" height="53.424" transform="translate(1024.4457 -870.49) rotate(45)"/><circle class="cls-2" cx="1562.9972" cy="801.3703" r="37.7942"/><rect class="cls-1" x="1631.4842" y="679.4594" width="53.424" height="53.424" transform="translate(985.013 -965.6889) rotate(45)"/><circle class="cls-2" cx="1658.1961" cy="706.1714" r="37.7942"/><rect class="cls-1" x="1631.4842" y="774.6583" width="53.424" height="53.424" transform="translate(1052.3288 -937.8058) rotate(45)"/><circle class="cls-2" cx="1658.1961" cy="801.3703" r="37.7942"/><rect class="cls-1" x="1726.6831" y="489.0615" width="53.424" height="53.424" transform="translate(878.2645 -1088.771) rotate(45)"/><circle class="cls-2" cx="1753.3951" cy="515.7735" r="37.7942"/><rect class="cls-1" x="1821.882" y="489.0615" width="53.424" height="53.424" transform="translate(906.1476 -1156.0868) rotate(45)"/><circle class="cls-2" cx="1848.594" cy="515.7735" r="37.7942"/><rect class="cls-1" x="1726.6831" y="584.2605" width="53.424" height="53.424" transform="translate(945.5803 -1060.8879) rotate(45)"/><circle class="cls-2" cx="1753.3951" cy="610.9725" r="37.7942"/><rect class="cls-1" x="1821.882" y="584.2605" width="53.424" height="53.424" transform="translate(973.4634 -1128.2037) rotate(45)"/><circle class="cls-2" cx="1848.594" cy="610.9725" r="37.7942"/><rect class="cls-1" x="1726.6831" y="679.4594" width="53.424" height="53.424" transform="translate(1012.8961 -1033.0047) rotate(45)"/><circle class="cls-2" cx="1753.3951" cy="706.1714" r="37.7942"/><rect class="cls-1" x="1821.882" y="679.4594" width="53.424" height="53.424" transform="translate(1040.7792 -1100.3205) rotate(45)"/><circle class="cls-2" cx="1848.594" cy="706.1714" r="37.7942"/><rect class="cls-1" x="1726.6831" y="774.6583" width="53.424" height="53.424" transform="translate(1080.2119 -1005.1216) rotate(45)"/><circle class="cls-2" cx="1753.3951" cy="801.3703" r="37.7942"/><rect class="cls-1" x="1821.882" y="774.6583" width="53.424" height="53.424" transform="translate(1108.095 -1072.4374) rotate(45)"/><circle class="cls-2" cx="1848.594" cy="801.3703" r="37.7942"/><rect class="cls-1" x="1917.0809" y="13.0669" width="53.424" height="53.424" transform="translate(597.4517 -1362.8182) rotate(45)"/><circle class="cls-2" cx="1943.7929" cy="39.7789" r="37.7942"/><rect class="cls-1" x="2012.2799" y="13.0669" width="53.424" height="53.424" transform="translate(625.3348 -1430.134) rotate(45)"/><circle class="cls-2" cx="2038.9918" cy="39.7789" r="37.7942"/><rect class="cls-1" x="1917.0809" y="108.2659" width="53.424" height="53.424" transform="translate(664.7675 -1334.9351) rotate(45)"/><circle class="cls-2" cx="1943.7929" cy="134.9778" r="37.7942"/><rect class="cls-1" x="2012.2799" y="108.2659" width="53.424" height="53.424" transform="translate(692.6506 -1402.2509) rotate(45)"/><circle class="cls-2" cx="2038.9918" cy="134.9778" r="37.7942"/><rect class="cls-1" x="2107.4788" y="13.0669" width="53.424" height="53.424" transform="translate(653.2179 -1497.4498) rotate(45)"/><circle class="cls-2" cx="2134.1908" cy="39.7789" r="37.7942"/><rect class="cls-1" x="2202.6777" y="13.0669" width="53.424" height="53.424" transform="translate(681.1011 -1564.7656) rotate(45)"/><circle class="cls-2" cx="2229.3897" cy="39.7789" r="37.7942"/><rect class="cls-1" x="2107.4788" y="108.2659" width="53.424" height="53.424" transform="translate(720.5337 -1469.5667) rotate(45)"/><circle class="cls-2" cx="2134.1908" cy="134.9778" r="37.7942"/><rect class="cls-1" x="2202.6777" y="108.2659" width="53.424" height="53.424" transform="translate(748.4169 -1536.8825) rotate(45)"/><circle class="cls-2" cx="2229.3897" cy="134.9778" r="37.7942"/><rect class="cls-1" x="2297.8766" y="13.0669" width="53.424" height="53.424" transform="translate(708.9842 -1632.0814) rotate(45)"/><circle class="cls-2" cx="2324.5886" cy="39.7789" r="37.7942"/><rect class="cls-1" x="2297.8766" y="108.2659" width="53.424" height="53.424" transform="translate(776.3 -1604.1983) rotate(45)"/><circle class="cls-2" cx="2324.5886" cy="134.9778" r="37.7942"/><rect class="cls-1" x="1917.0809" y="203.4648" width="53.424" height="53.424" transform="translate(732.0833 -1307.0519) rotate(45)"/><circle class="cls-2" cx="1943.7929" cy="230.1768" r="37.7942"/><rect class="cls-1" x="2012.2799" y="203.4648" width="53.424" height="53.424" transform="translate(759.9664 -1374.3677) rotate(45)"/><circle class="cls-2" cx="2038.9918" cy="230.1768" r="37.7942"/><rect class="cls-1" x="1917.0809" y="298.6637" width="53.424" height="53.424" transform="translate(799.3991 -1279.1688) rotate(45)"/><circle class="cls-2" cx="1943.7929" cy="325.3757" r="37.7942"/><rect class="cls-1" x="2012.2799" y="298.6637" width="53.424" height="53.424" transform="translate(827.2822 -1346.4846) rotate(45)"/><circle class="cls-2" cx="2038.9918" cy="325.3757" r="37.7942"/><rect class="cls-1" x="2107.4788" y="203.4648" width="53.424" height="53.424" transform="translate(787.8495 -1441.6836) rotate(45)"/><circle class="cls-2" cx="2134.1908" cy="230.1768" r="37.7942"/><rect class="cls-1" x="2202.6777" y="203.4648" width="53.424" height="53.424" transform="translate(815.7327 -1508.9994) rotate(45)"/><circle class="cls-2" cx="2229.3897" cy="230.1768" r="37.7942"/><rect class="cls-1" x="2107.4788" y="298.6637" width="53.424" height="53.424" transform="translate(855.1654 -1413.8004) rotate(45)"/><circle class="cls-2" cx="2134.1908" cy="325.3757" r="37.7942"/><rect class="cls-1" x="2202.6777" y="298.6637" width="53.424" height="53.424" transform="translate(883.0485 -1481.1162) rotate(45)"/><circle class="cls-2" cx="2229.3897" cy="325.3757" r="37.7942"/><rect class="cls-1" x="2297.8766" y="203.4648" width="53.424" height="53.424" transform="translate(843.6158 -1576.3152) rotate(45)"/><circle class="cls-2" cx="2324.5886" cy="230.1768" r="37.7942"/><rect class="cls-1" x="2297.8766" y="298.6637" width="53.424" height="53.424" transform="translate(910.9316 -1548.432) rotate(45)"/><circle class="cls-2" cx="2324.5886" cy="325.3757" r="37.7942"/><rect class="cls-1" x="2393.0756" y="13.0669" width="53.424" height="53.424" transform="translate(736.8673 -1699.3972) rotate(45)"/><circle class="cls-2" cx="2419.7875" cy="39.7789" r="37.7942"/><rect class="cls-1" x="2393.0756" y="108.2659" width="53.424" height="53.424" transform="translate(804.1831 -1671.5141) rotate(45)"/><circle class="cls-2" cx="2419.7875" cy="134.9778" r="37.7942"/><rect class="cls-1" x="2393.0756" y="203.4648" width="53.424" height="53.424" transform="translate(871.4989 -1643.631) rotate(45)"/><circle class="cls-2" cx="2419.7875" cy="230.1768" r="37.7942"/><rect class="cls-1" x="2393.0756" y="298.6637" width="53.424" height="53.424" transform="translate(938.8147 -1615.7478) rotate(45)"/><circle class="cls-2" cx="2419.7875" cy="325.3757" r="37.7942"/><rect class="cls-1" x="1917.0809" y="393.8982" width="53.424" height="53.424" transform="translate(866.74 -1251.2753) rotate(45)"/><circle class="cls-2" cx="1943.7929" cy="420.6101" r="37.7942"/><rect class="cls-1" x="2012.2799" y="393.8982" width="53.424" height="53.424" transform="translate(894.6232 -1318.5911) rotate(45)"/><circle class="cls-2" cx="2038.9918" cy="420.6101" r="37.7942"/><rect class="cls-1" x="2107.4788" y="393.8982" width="53.424" height="53.424" transform="translate(922.5063 -1385.9069) rotate(45)"/><circle class="cls-2" cx="2134.1908" cy="420.6101" r="37.7942"/><rect class="cls-1" x="2202.6777" y="393.8982" width="53.424" height="53.424" transform="translate(950.3894 -1453.2227) rotate(45)"/><circle class="cls-2" cx="2229.3897" cy="420.6101" r="37.7942"/><rect class="cls-1" x="2297.8766" y="393.8982" width="53.424" height="53.424" transform="translate(978.2725 -1520.5385) rotate(45)"/><circle class="cls-2" cx="2324.5886" cy="420.6101" r="37.7942"/><rect class="cls-1" x="2393.0756" y="393.8982" width="53.424" height="53.424" transform="translate(1006.1556 -1587.8543) rotate(45)"/><circle class="cls-2" cx="2419.7875" cy="420.6101" r="37.7942"/><rect class="cls-1" x="1917.0809" y="489.0615" width="53.424" height="53.424" transform="translate(934.0307 -1223.4026) rotate(45)"/><circle class="cls-2" cx="1943.7929" cy="515.7735" r="37.7942"/><rect class="cls-1" x="2012.2799" y="489.0615" width="53.424" height="53.424" transform="translate(961.9138 -1290.7184) rotate(45)"/><circle class="cls-2" cx="2038.9918" cy="515.7735" r="37.7942"/><rect class="cls-1" x="1917.0809" y="584.2605" width="53.424" height="53.424" transform="translate(1001.3465 -1195.5195) rotate(45)"/><circle class="cls-2" cx="1943.7929" cy="610.9725" r="37.7942"/><rect class="cls-1" x="2012.2799" y="584.2605" width="53.424" height="53.424" transform="translate(1029.2296 -1262.8353) rotate(45)"/><circle class="cls-2" cx="2038.9918" cy="610.9725" r="37.7942"/><rect class="cls-1" x="2107.4788" y="489.0615" width="53.424" height="53.424" transform="translate(989.797 -1358.0342) rotate(45)"/><circle class="cls-2" cx="2134.1908" cy="515.7735" r="37.7942"/><rect class="cls-1" x="2202.6777" y="489.0615" width="53.424" height="53.424" transform="translate(1017.6801 -1425.35) rotate(45)"/><circle class="cls-2" cx="2229.3897" cy="515.7735" r="37.7942"/><rect class="cls-1" x="2107.4788" y="584.2605" width="53.424" height="53.424" transform="translate(1057.1128 -1330.1511) rotate(45)"/><circle class="cls-2" cx="2134.1908" cy="610.9725" r="37.7942"/><rect class="cls-1" x="2202.6777" y="584.2605" width="53.424" height="53.424" transform="translate(1084.9959 -1397.4669) rotate(45)"/><circle class="cls-2" cx="2229.3897" cy="610.9725" r="37.7942"/><rect class="cls-1" x="2297.8766" y="489.0615" width="53.424" height="53.424" transform="translate(1045.5632 -1492.6658) rotate(45)"/><circle class="cls-2" cx="2324.5886" cy="515.7735" r="37.7942"/><rect class="cls-1" x="2297.8766" y="584.2605" width="53.424" height="53.424" transform="translate(1112.879 -1464.7827) rotate(45)"/><circle class="cls-2" cx="2324.5886" cy="610.9725" r="37.7942"/><rect class="cls-1" x="1917.0809" y="679.4594" width="53.424" height="53.424" transform="translate(1068.6623 -1167.6363) rotate(45)"/><circle class="cls-2" cx="1943.7929" cy="706.1714" r="37.7942"/><rect class="cls-1" x="2012.2799" y="679.4594" width="53.424" height="53.424" transform="translate(1096.5455 -1234.9522) rotate(45)"/><circle class="cls-2" cx="2038.9918" cy="706.1714" r="37.7942"/><rect class="cls-1" x="1917.0809" y="774.6583" width="53.424" height="53.424" transform="translate(1135.9781 -1139.7532) rotate(45)"/><circle class="cls-2" cx="1943.7929" cy="801.3703" r="37.7942"/><rect class="cls-1" x="2012.2799" y="774.6583" width="53.424" height="53.424" transform="translate(1163.8613 -1207.069) rotate(45)"/><circle class="cls-2" cx="2038.9918" cy="801.3703" r="37.7942"/><rect class="cls-1" x="2107.4788" y="679.4594" width="53.424" height="53.424" transform="translate(1124.4286 -1302.268) rotate(45)"/><circle class="cls-2" cx="2134.1908" cy="706.1714" r="37.7942"/><rect class="cls-1" x="2202.6777" y="679.4594" width="53.424" height="53.424" transform="translate(1152.3117 -1369.5838) rotate(45)"/><circle class="cls-2" cx="2229.3897" cy="706.1714" r="37.7942"/><rect class="cls-1" x="2107.4788" y="774.6583" width="53.424" height="53.424" transform="translate(1191.7444 -1274.3848) rotate(45)"/><circle class="cls-2" cx="2134.1908" cy="801.3703" r="37.7942"/><rect class="cls-1" x="2202.6777" y="774.6583" width="53.424" height="53.424" transform="translate(1219.6275 -1341.7006) rotate(45)"/><circle class="cls-2" cx="2229.3897" cy="801.3703" r="37.7942"/><rect class="cls-1" x="2297.8766" y="679.4594" width="53.424" height="53.424" transform="translate(1180.1948 -1436.8996) rotate(45)"/><circle class="cls-2" cx="2324.5886" cy="706.1714" r="37.7942"/><rect class="cls-1" x="2297.8766" y="774.6583" width="53.424" height="53.424" transform="translate(1247.5106 -1409.0164) rotate(45)"/><circle class="cls-2" cx="2324.5886" cy="801.3703" r="37.7942"/><rect class="cls-1" x="2393.0756" y="489.0615" width="53.424" height="53.424" transform="translate(1073.4463 -1559.9816) rotate(45)"/><circle class="cls-2" cx="2419.7875" cy="515.7735" r="37.7942"/><rect class="cls-1" x="2393.0756" y="584.2605" width="53.424" height="53.424" transform="translate(1140.7621 -1532.0985) rotate(45)"/><circle class="cls-2" cx="2419.7875" cy="610.9725" r="37.7942"/><rect class="cls-1" x="2393.0756" y="679.4594" width="53.424" height="53.424" transform="translate(1208.0779 -1504.2154) rotate(45)"/><circle class="cls-2" cx="2419.7875" cy="706.1714" r="37.7942"/><rect class="cls-1" x="2393.0756" y="774.6583" width="53.424" height="53.424" transform="translate(1275.3937 -1476.3323) rotate(45)"/><circle class="cls-2" cx="2419.7875" cy="801.3703" r="37.7942"/><rect class="cls-1" x="1250.6885" y="869.8572" width="53.424" height="53.424" transform="translate(1008.1121 -640.6595) rotate(45)"/><circle class="cls-2" cx="1277.4005" cy="896.5692" r="37.7942"/><rect class="cls-1" x="1345.8874" y="869.8572" width="53.424" height="53.424" transform="translate(1035.9952 -707.9753) rotate(45)"/><circle class="cls-2" cx="1372.5994" cy="896.5692" r="37.7942"/><rect class="cls-1" x="1250.6885" y="965.0562" width="53.424" height="53.424" transform="translate(1075.4279 -612.7764) rotate(45)"/><circle class="cls-2" cx="1277.4005" cy="991.7681" r="37.7942"/><rect class="cls-1" x="1345.8874" y="965.0562" width="53.424" height="53.424" transform="translate(1103.311 -680.0922) rotate(45)"/><circle class="cls-2" cx="1372.5994" cy="991.7681" r="37.7942"/><rect class="cls-1" x="1441.0863" y="869.8572" width="53.424" height="53.424" transform="translate(1063.8783 -775.2911) rotate(45)"/><circle class="cls-2" cx="1467.7983" cy="896.5692" r="37.7942"/><rect class="cls-1" x="1536.2852" y="869.8572" width="53.424" height="53.424" transform="translate(1091.7615 -842.6069) rotate(45)"/><circle class="cls-2" cx="1562.9972" cy="896.5692" r="37.7942"/><rect class="cls-1" x="1441.0863" y="965.0562" width="53.424" height="53.424" transform="translate(1131.1942 -747.408) rotate(45)"/><circle class="cls-2" cx="1467.7983" cy="991.7681" r="37.7942"/><rect class="cls-1" x="1536.2852" y="965.0562" width="53.424" height="53.424" transform="translate(1159.0773 -814.7238) rotate(45)"/><circle class="cls-2" cx="1562.9972" cy="991.7681" r="37.7942"/><rect class="cls-1" x="1631.4842" y="869.8572" width="53.424" height="53.424" transform="translate(1119.6446 -909.9227) rotate(45)"/><circle class="cls-2" cx="1658.1961" cy="896.5692" r="37.7942"/><rect class="cls-1" x="1631.4842" y="965.0562" width="53.424" height="53.424" transform="translate(1186.9604 -882.0396) rotate(45)"/><circle class="cls-2" cx="1658.1961" cy="991.7681" r="37.7942"/><rect class="cls-1" x="1250.6885" y="1060.2551" width="53.424" height="53.424" transform="translate(1142.7437 -584.8932) rotate(45)"/><circle class="cls-2" cx="1277.4005" cy="1086.9671" r="37.7942"/><rect class="cls-1" x="1345.8874" y="1060.2551" width="53.424" height="53.424" transform="translate(1170.6268 -652.209) rotate(45)"/><circle class="cls-2" cx="1372.5994" cy="1086.9671" r="37.7942"/><rect class="cls-1" x="1250.6885" y="1155.454" width="53.424" height="53.424" transform="translate(1210.0595 -557.0101) rotate(45)"/><circle class="cls-2" cx="1277.4005" cy="1182.166" r="37.7942"/><rect class="cls-1" x="1345.8874" y="1155.454" width="53.424" height="53.424" transform="translate(1237.9426 -624.3259) rotate(45)"/><circle class="cls-2" cx="1372.5994" cy="1182.166" r="37.7942"/><rect class="cls-1" x="1441.0863" y="1060.2551" width="53.424" height="53.424" transform="translate(1198.51 -719.5248) rotate(45)"/><circle class="cls-2" cx="1467.7983" cy="1086.9671" r="37.7942"/><rect class="cls-1" x="1536.2852" y="1060.2551" width="53.424" height="53.424" transform="translate(1226.3931 -786.8407) rotate(45)"/><circle class="cls-2" cx="1562.9972" cy="1086.9671" r="37.7942"/><rect class="cls-1" x="1441.0863" y="1155.454" width="53.424" height="53.424" transform="translate(1265.8258 -691.6417) rotate(45)"/><circle class="cls-2" cx="1467.7983" cy="1182.166" r="37.7942"/><rect class="cls-1" x="1536.2852" y="1155.454" width="53.424" height="53.424" transform="translate(1293.7089 -758.9575) rotate(45)"/><circle class="cls-2" cx="1562.9972" cy="1182.166" r="37.7942"/><rect class="cls-1" x="1631.4842" y="1060.2551" width="53.424" height="53.424" transform="translate(1254.2762 -854.1565) rotate(45)"/><circle class="cls-2" cx="1658.1961" cy="1086.9671" r="37.7942"/><rect class="cls-1" x="1631.4842" y="1155.454" width="53.424" height="53.424" transform="translate(1321.592 -826.2733) rotate(45)"/><circle class="cls-2" cx="1658.1961" cy="1182.166" r="37.7942"/><rect class="cls-1" x="1726.6831" y="869.8572" width="53.424" height="53.424" transform="translate(1147.5277 -977.2385) rotate(45)"/><circle class="cls-2" cx="1753.3951" cy="896.5692" r="37.7942"/><rect class="cls-1" x="1821.882" y="869.8572" width="53.424" height="53.424" transform="translate(1175.4108 -1044.5543) rotate(45)"/><circle class="cls-2" cx="1848.594" cy="896.5692" r="37.7942"/><rect class="cls-1" x="1726.6831" y="965.0562" width="53.424" height="53.424" transform="translate(1214.8435 -949.3554) rotate(45)"/><circle class="cls-2" cx="1753.3951" cy="991.7681" r="37.7942"/><rect class="cls-1" x="1821.882" y="965.0562" width="53.424" height="53.424" transform="translate(1242.7266 -1016.6712) rotate(45)"/><circle class="cls-2" cx="1848.594" cy="991.7681" r="37.7942"/><rect class="cls-1" x="1726.6831" y="1060.2551" width="53.424" height="53.424" transform="translate(1282.1593 -921.4723) rotate(45)"/><circle class="cls-2" cx="1753.3951" cy="1086.9671" r="37.7942"/><rect class="cls-1" x="1821.882" y="1060.2551" width="53.424" height="53.424" transform="translate(1310.0424 -988.7881) rotate(45)"/><circle class="cls-2" cx="1848.594" cy="1086.9671" r="37.7942"/><rect class="cls-1" x="1726.6831" y="1155.454" width="53.424" height="53.424" transform="translate(1349.4751 -893.5891) rotate(45)"/><circle class="cls-2" cx="1753.3951" cy="1182.166" r="37.7942"/><rect class="cls-1" x="1821.882" y="1155.454" width="53.424" height="53.424" transform="translate(1377.3582 -960.9049) rotate(45)"/><circle class="cls-2" cx="1848.594" cy="1182.166" r="37.7942"/><rect class="cls-1" x="1250.6885" y="1250.6885" width="53.424" height="53.424" transform="translate(1277.4005 -529.1166) rotate(45)"/><circle class="cls-2" cx="1277.4005" cy="1277.4005" r="37.7942"/><rect class="cls-1" x="1345.8874" y="1250.6885" width="53.424" height="53.424" transform="translate(1305.2836 -596.4324) rotate(45)"/><circle class="cls-2" cx="1372.5994" cy="1277.4005" r="37.7942"/><rect class="cls-1" x="1441.0863" y="1250.6885" width="53.424" height="53.424" transform="translate(1333.1667 -663.7482) rotate(45)"/><circle class="cls-2" cx="1467.7983" cy="1277.4005" r="37.7942"/><rect class="cls-1" x="1536.2852" y="1250.6885" width="53.424" height="53.424" transform="translate(1361.0498 -731.064) rotate(45)"/><circle class="cls-2" cx="1562.9972" cy="1277.4005" r="37.7942"/><rect class="cls-1" x="1631.4842" y="1250.6885" width="53.424" height="53.424" transform="translate(1388.9329 -798.3798) rotate(45)"/><circle class="cls-2" cx="1658.1961" cy="1277.4005" r="37.7942"/><rect class="cls-1" x="1726.6831" y="1250.6885" width="53.424" height="53.424" transform="translate(1416.816 -865.6956) rotate(45)"/><circle class="cls-2" cx="1753.3951" cy="1277.4005" r="37.7942"/><rect class="cls-1" x="1821.882" y="1250.6885" width="53.424" height="53.424" transform="translate(1444.6992 -933.0114) rotate(45)"/><circle class="cls-2" cx="1848.594" cy="1277.4005" r="37.7942"/><rect class="cls-1" x="1250.6885" y="1345.8519" width="53.424" height="53.424" transform="translate(1344.6911 -501.2439) rotate(45)"/><circle class="cls-2" cx="1277.4005" cy="1372.5638" r="37.7942"/><rect class="cls-1" x="1345.8874" y="1345.8519" width="53.424" height="53.424" transform="translate(1372.5743 -568.5597) rotate(45)"/><circle class="cls-2" cx="1372.5994" cy="1372.5638" r="37.7942"/><rect class="cls-1" x="1250.6885" y="1441.0508" width="53.424" height="53.424" transform="translate(1412.0069 -473.3608) rotate(45)"/><circle class="cls-2" cx="1277.4005" cy="1467.7628" r="37.7942"/><rect class="cls-1" x="1345.8874" y="1441.0508" width="53.424" height="53.424" transform="translate(1439.8901 -540.6766) rotate(45)"/><circle class="cls-2" cx="1372.5994" cy="1467.7628" r="37.7942"/><rect class="cls-1" x="1441.0863" y="1345.8519" width="53.424" height="53.424" transform="translate(1400.4574 -635.8755) rotate(45)"/><circle class="cls-2" cx="1467.7983" cy="1372.5638" r="37.7942"/><rect class="cls-1" x="1536.2852" y="1345.8519" width="53.424" height="53.424" transform="translate(1428.3405 -703.1913) rotate(45)"/><circle class="cls-2" cx="1562.9972" cy="1372.5638" r="37.7942"/><rect class="cls-1" x="1441.0863" y="1441.0508" width="53.424" height="53.424" transform="translate(1467.7732 -607.9924) rotate(45)"/><circle class="cls-2" cx="1467.7983" cy="1467.7628" r="37.7942"/><rect class="cls-1" x="1536.2852" y="1441.0508" width="53.424" height="53.424" transform="translate(1495.6563 -675.3082) rotate(45)"/><circle class="cls-2" cx="1562.9972" cy="1467.7628" r="37.7942"/><rect class="cls-1" x="1631.4842" y="1345.8519" width="53.424" height="53.424" transform="translate(1456.2236 -770.5071) rotate(45)"/><circle class="cls-2" cx="1658.1961" cy="1372.5638" r="37.7942"/><rect class="cls-1" x="1631.4842" y="1441.0508" width="53.424" height="53.424" transform="translate(1523.5394 -742.624) rotate(45)"/><circle class="cls-2" cx="1658.1961" cy="1467.7628" r="37.7942"/><rect class="cls-1" x="1250.6885" y="1536.2497" width="53.424" height="53.424" transform="translate(1479.3227 -445.4776) rotate(45)"/><circle class="cls-2" cx="1277.4005" cy="1562.9617" r="37.7942"/><rect class="cls-1" x="1345.8874" y="1536.2497" width="53.424" height="53.424" transform="translate(1507.2059 -512.7934) rotate(45)"/><circle class="cls-2" cx="1372.5994" cy="1562.9617" r="37.7942"/><rect class="cls-1" x="1250.6885" y="1631.4486" width="53.424" height="53.424" transform="translate(1546.6385 -417.5945) rotate(45)"/><circle class="cls-2" cx="1277.4005" cy="1658.1606" r="37.7942"/><rect class="cls-1" x="1345.8874" y="1631.4486" width="53.424" height="53.424" transform="translate(1574.5217 -484.9103) rotate(45)"/><circle class="cls-2" cx="1372.5994" cy="1658.1606" r="37.7942"/><rect class="cls-1" x="1441.0863" y="1536.2497" width="53.424" height="53.424" transform="translate(1535.089 -580.1093) rotate(45)"/><circle class="cls-2" cx="1467.7983" cy="1562.9617" r="37.7942"/><rect class="cls-1" x="1536.2852" y="1536.2497" width="53.424" height="53.424" transform="translate(1562.9721 -647.4251) rotate(45)"/><circle class="cls-2" cx="1562.9972" cy="1562.9617" r="37.7942"/><rect class="cls-1" x="1441.0863" y="1631.4486" width="53.424" height="53.424" transform="translate(1602.4048 -552.2261) rotate(45)"/><circle class="cls-2" cx="1467.7983" cy="1658.1606" r="37.7942"/><rect class="cls-1" x="1536.2852" y="1631.4486" width="53.424" height="53.424" transform="translate(1630.2879 -619.5419) rotate(45)"/><circle class="cls-2" cx="1562.9972" cy="1658.1606" r="37.7942"/><rect class="cls-1" x="1631.4842" y="1536.2497" width="53.424" height="53.424" transform="translate(1590.8552 -714.7409) rotate(45)"/><circle class="cls-2" cx="1658.1961" cy="1562.9617" r="37.7942"/><rect class="cls-1" x="1631.4842" y="1631.4486" width="53.424" height="53.424" transform="translate(1658.171 -686.8577) rotate(45)"/><circle class="cls-2" cx="1658.1961" cy="1658.1606" r="37.7942"/><rect class="cls-1" x="1726.6831" y="1345.8519" width="53.424" height="53.424" transform="translate(1484.1067 -837.8229) rotate(45)"/><circle class="cls-2" cx="1753.3951" cy="1372.5638" r="37.7942"/><rect class="cls-1" x="1821.882" y="1345.8519" width="53.424" height="53.424" transform="translate(1511.9898 -905.1387) rotate(45)"/><circle class="cls-2" cx="1848.594" cy="1372.5638" r="37.7942"/><rect class="cls-1" x="1726.6831" y="1441.0508" width="53.424" height="53.424" transform="translate(1551.4225 -809.9398) rotate(45)"/><circle class="cls-2" cx="1753.3951" cy="1467.7628" r="37.7942"/><rect class="cls-1" x="1821.882" y="1441.0508" width="53.424" height="53.424" transform="translate(1579.3057 -877.2556) rotate(45)"/><circle class="cls-2" cx="1848.594" cy="1467.7628" r="37.7942"/><rect class="cls-1" x="1726.6831" y="1536.2497" width="53.424" height="53.424" transform="translate(1618.7383 -782.0567) rotate(45)"/><circle class="cls-2" cx="1753.3951" cy="1562.9617" r="37.7942"/><rect class="cls-1" x="1821.882" y="1536.2497" width="53.424" height="53.424" transform="translate(1646.6215 -849.3725) rotate(45)"/><circle class="cls-2" cx="1848.594" cy="1562.9617" r="37.7942"/><rect class="cls-1" x="1726.6831" y="1631.4486" width="53.424" height="53.424" transform="translate(1686.0541 -754.1735) rotate(45)"/><circle class="cls-2" cx="1753.3951" cy="1658.1606" r="37.7942"/><rect class="cls-1" x="1821.882" y="1631.4486" width="53.424" height="53.424" transform="translate(1713.9373 -821.4894) rotate(45)"/><circle class="cls-2" cx="1848.594" cy="1658.1606" r="37.7942"/><rect class="cls-1" x="1917.0809" y="869.8572" width="53.424" height="53.424" transform="translate(1203.2939 -1111.8701) rotate(45)"/><circle class="cls-2" cx="1943.7929" cy="896.5692" r="37.7942"/><rect class="cls-1" x="2012.2799" y="869.8572" width="53.424" height="53.424" transform="translate(1231.1771 -1179.1859) rotate(45)"/><circle class="cls-2" cx="2038.9918" cy="896.5692" r="37.7942"/><rect class="cls-1" x="1917.0809" y="965.0562" width="53.424" height="53.424" transform="translate(1270.6097 -1083.987) rotate(45)"/><circle class="cls-2" cx="1943.7929" cy="991.7681" r="37.7942"/><rect class="cls-1" x="2012.2799" y="965.0562" width="53.424" height="53.424" transform="translate(1298.4929 -1151.3028) rotate(45)"/><circle class="cls-2" cx="2038.9918" cy="991.7681" r="37.7942"/><rect class="cls-1" x="2107.4788" y="869.8572" width="53.424" height="53.424" transform="translate(1259.0602 -1246.5017) rotate(45)"/><circle class="cls-2" cx="2134.1908" cy="896.5692" r="37.7942"/><rect class="cls-1" x="2202.6777" y="869.8572" width="53.424" height="53.424" transform="translate(1286.9433 -1313.8175) rotate(45)"/><circle class="cls-2" cx="2229.3897" cy="896.5692" r="37.7942"/><rect class="cls-1" x="2107.4788" y="965.0562" width="53.424" height="53.424" transform="translate(1326.376 -1218.6186) rotate(45)"/><circle class="cls-2" cx="2134.1908" cy="991.7681" r="37.7942"/><rect class="cls-1" x="2202.6777" y="965.0562" width="53.424" height="53.424" transform="translate(1354.2591 -1285.9344) rotate(45)"/><circle class="cls-2" cx="2229.3897" cy="991.7681" r="37.7942"/><rect class="cls-1" x="2297.8766" y="869.8572" width="53.424" height="53.424" transform="translate(1314.8264 -1381.1333) rotate(45)"/><circle class="cls-2" cx="2324.5886" cy="896.5692" r="37.7942"/><rect class="cls-1" x="2297.8766" y="965.0562" width="53.424" height="53.424" transform="translate(1382.1422 -1353.2502) rotate(45)"/><circle class="cls-2" cx="2324.5886" cy="991.7681" r="37.7942"/><rect class="cls-1" x="1917.0809" y="1060.2551" width="53.424" height="53.424" transform="translate(1337.9256 -1056.1039) rotate(45)"/><circle class="cls-2" cx="1943.7929" cy="1086.9671" r="37.7942"/><rect class="cls-1" x="2012.2799" y="1060.2551" width="53.424" height="53.424" transform="translate(1365.8087 -1123.4197) rotate(45)"/><circle class="cls-2" cx="2038.9918" cy="1086.9671" r="37.7942"/><rect class="cls-1" x="1917.0809" y="1155.454" width="53.424" height="53.424" transform="translate(1405.2414 -1028.2208) rotate(45)"/><circle class="cls-2" cx="1943.7929" cy="1182.166" r="37.7942"/><rect class="cls-1" x="2012.2799" y="1155.454" width="53.424" height="53.424" transform="translate(1433.1245 -1095.5366) rotate(45)"/><circle class="cls-2" cx="2038.9918" cy="1182.166" r="37.7942"/><rect class="cls-1" x="2107.4788" y="1060.2551" width="53.424" height="53.424" transform="translate(1393.6918 -1190.7355) rotate(45)"/><circle class="cls-2" cx="2134.1908" cy="1086.9671" r="37.7942"/><rect class="cls-1" x="2202.6777" y="1060.2551" width="53.424" height="53.424" transform="translate(1421.5749 -1258.0513) rotate(45)"/><circle class="cls-2" cx="2229.3897" cy="1086.9671" r="37.7942"/><rect class="cls-1" x="2107.4788" y="1155.454" width="53.424" height="53.424" transform="translate(1461.0076 -1162.8524) rotate(45)"/><circle class="cls-2" cx="2134.1908" cy="1182.166" r="37.7942"/><rect class="cls-1" x="2202.6777" y="1155.454" width="53.424" height="53.424" transform="translate(1488.8907 -1230.1682) rotate(45)"/><circle class="cls-2" cx="2229.3897" cy="1182.166" r="37.7942"/><rect class="cls-1" x="2297.8766" y="1060.2551" width="53.424" height="53.424" transform="translate(1449.458 -1325.3671) rotate(45)"/><circle class="cls-2" cx="2324.5886" cy="1086.9671" r="37.7942"/><rect class="cls-1" x="2297.8766" y="1155.454" width="53.424" height="53.424" transform="translate(1516.7738 -1297.484) rotate(45)"/><circle class="cls-2" cx="2324.5886" cy="1182.166" r="37.7942"/><rect class="cls-1" x="2393.0756" y="869.8572" width="53.424" height="53.424" transform="translate(1342.7095 -1448.4491) rotate(45)"/><circle class="cls-2" cx="2419.7875" cy="896.5692" r="37.7942"/><rect class="cls-1" x="2393.0756" y="965.0562" width="53.424" height="53.424" transform="translate(1410.0253 -1420.566) rotate(45)"/><circle class="cls-2" cx="2419.7875" cy="991.7681" r="37.7942"/><rect class="cls-1" x="2393.0756" y="1060.2551" width="53.424" height="53.424" transform="translate(1477.3411 -1392.6829) rotate(45)"/><circle class="cls-2" cx="2419.7875" cy="1086.9671" r="37.7942"/><rect class="cls-1" x="2393.0756" y="1155.454" width="53.424" height="53.424" transform="translate(1544.657 -1364.7998) rotate(45)"/><circle class="cls-2" cx="2419.7875" cy="1182.166" r="37.7942"/><rect class="cls-1" x="1917.0809" y="1250.6885" width="53.424" height="53.424" transform="translate(1472.5823 -1000.3272) rotate(45)"/><circle class="cls-2" cx="1943.7929" cy="1277.4005" r="37.7942"/><rect class="cls-1" x="2012.2799" y="1250.6885" width="53.424" height="53.424" transform="translate(1500.4654 -1067.643) rotate(45)"/><circle class="cls-2" cx="2038.9918" cy="1277.4005" r="37.7942"/><rect class="cls-1" x="2107.4788" y="1250.6885" width="53.424" height="53.424" transform="translate(1528.3485 -1134.9588) rotate(45)"/><circle class="cls-2" cx="2134.1908" cy="1277.4005" r="37.7942"/><rect class="cls-1" x="2202.6777" y="1250.6885" width="53.424" height="53.424" transform="translate(1556.2316 -1202.2746) rotate(45)"/><circle class="cls-2" cx="2229.3897" cy="1277.4005" r="37.7942"/><rect class="cls-1" x="2297.8766" y="1250.6885" width="53.424" height="53.424" transform="translate(1584.1148 -1269.5904) rotate(45)"/><circle class="cls-2" cx="2324.5886" cy="1277.4005" r="37.7942"/><rect class="cls-1" x="2393.0756" y="1250.6885" width="53.424" height="53.424" transform="translate(1611.9979 -1336.9062) rotate(45)"/><circle class="cls-2" cx="2419.7875" cy="1277.4005" r="37.7942"/><rect class="cls-1" x="1917.0809" y="1345.8519" width="53.424" height="53.424" transform="translate(1539.873 -972.4545) rotate(45)"/><circle class="cls-2" cx="1943.7929" cy="1372.5638" r="37.7942"/><rect class="cls-1" x="2012.2799" y="1345.8519" width="53.424" height="53.424" transform="translate(1567.7561 -1039.7703) rotate(45)"/><circle class="cls-2" cx="2038.9918" cy="1372.5638" r="37.7942"/><rect class="cls-1" x="1917.0809" y="1441.0508" width="53.424" height="53.424" transform="translate(1607.1888 -944.5714) rotate(45)"/><circle class="cls-2" cx="1943.7929" cy="1467.7628" r="37.7942"/><rect class="cls-1" x="2012.2799" y="1441.0508" width="53.424" height="53.424" transform="translate(1635.0719 -1011.8872) rotate(45)"/><circle class="cls-2" cx="2038.9918" cy="1467.7628" r="37.7942"/><rect class="cls-1" x="2107.4788" y="1345.8519" width="53.424" height="53.424" transform="translate(1595.6392 -1107.0861) rotate(45)"/><circle class="cls-2" cx="2134.1908" cy="1372.5638" r="37.7942"/><rect class="cls-1" x="2202.6777" y="1345.8519" width="53.424" height="53.424" transform="translate(1623.5223 -1174.4019) rotate(45)"/><circle class="cls-2" cx="2229.3897" cy="1372.5638" r="37.7942"/><rect class="cls-1" x="2107.4788" y="1441.0508" width="53.424" height="53.424" transform="translate(1662.955 -1079.203) rotate(45)"/><circle class="cls-2" cx="2134.1908" cy="1467.7628" r="37.7942"/><rect class="cls-1" x="2202.6777" y="1441.0508" width="53.424" height="53.424" transform="translate(1690.8381 -1146.5188) rotate(45)"/><circle class="cls-2" cx="2229.3897" cy="1467.7628" r="37.7942"/><rect class="cls-1" x="2297.8766" y="1345.8519" width="53.424" height="53.424" transform="translate(1651.4054 -1241.7177) rotate(45)"/><circle class="cls-2" cx="2324.5886" cy="1372.5638" r="37.7942"/><rect class="cls-1" x="2297.8766" y="1441.0508" width="53.424" height="53.424" transform="translate(1718.7212 -1213.8346) rotate(45)"/><circle class="cls-2" cx="2324.5886" cy="1467.7628" r="37.7942"/><rect class="cls-1" x="1917.0809" y="1536.2497" width="53.424" height="53.424" transform="translate(1674.5046 -916.6883) rotate(45)"/><circle class="cls-2" cx="1943.7929" cy="1562.9617" r="37.7942"/><rect class="cls-1" x="2012.2799" y="1536.2497" width="53.424" height="53.424" transform="translate(1702.3877 -984.0041) rotate(45)"/><circle class="cls-2" cx="2038.9918" cy="1562.9617" r="37.7942"/><rect class="cls-1" x="1917.0809" y="1631.4486" width="53.424" height="53.424" transform="translate(1741.8204 -888.8052) rotate(45)"/><circle class="cls-2" cx="1943.7929" cy="1658.1606" r="37.7942"/><rect class="cls-1" x="2012.2799" y="1631.4486" width="53.424" height="53.424" transform="translate(1769.7035 -956.121) rotate(45)"/><circle class="cls-2" cx="2038.9918" cy="1658.1606" r="37.7942"/><rect class="cls-1" x="2107.4788" y="1536.2497" width="53.424" height="53.424" transform="translate(1730.2708 -1051.3199) rotate(45)"/><circle class="cls-2" cx="2134.1908" cy="1562.9617" r="37.7942"/><rect class="cls-1" x="2202.6777" y="1536.2497" width="53.424" height="53.424" transform="translate(1758.1539 -1118.6357) rotate(45)"/><circle class="cls-2" cx="2229.3897" cy="1562.9617" r="37.7942"/><rect class="cls-1" x="2107.4788" y="1631.4486" width="53.424" height="53.424" transform="translate(1797.5866 -1023.4368) rotate(45)"/><circle class="cls-2" cx="2134.1908" cy="1658.1606" r="37.7942"/><rect class="cls-1" x="2202.6777" y="1631.4486" width="53.424" height="53.424" transform="translate(1825.4697 -1090.7526) rotate(45)"/><circle class="cls-2" cx="2229.3897" cy="1658.1606" r="37.7942"/><rect class="cls-1" x="2297.8766" y="1536.2497" width="53.424" height="53.424" transform="translate(1786.0371 -1185.9515) rotate(45)"/><circle class="cls-2" cx="2324.5886" cy="1562.9617" r="37.7942"/><rect class="cls-1" x="2297.8766" y="1631.4486" width="53.424" height="53.424" transform="translate(1853.3529 -1158.0684) rotate(45)"/><circle class="cls-2" cx="2324.5886" cy="1658.1606" r="37.7942"/><rect class="cls-1" x="2393.0756" y="1345.8519" width="53.424" height="53.424" transform="translate(1679.2886 -1309.0335) rotate(45)"/><circle class="cls-2" cx="2419.7875" cy="1372.5638" r="37.7942"/><rect class="cls-1" x="2393.0756" y="1441.0508" width="53.424" height="53.424" transform="translate(1746.6044 -1281.1504) rotate(45)"/><circle class="cls-2" cx="2419.7875" cy="1467.7628" r="37.7942"/><rect class="cls-1" x="2393.0756" y="1536.2497" width="53.424" height="53.424" transform="translate(1813.9202 -1253.2673) rotate(45)"/><circle class="cls-2" cx="2419.7875" cy="1562.9617" r="37.7942"/><rect class="cls-1" x="2393.0756" y="1631.4486" width="53.424" height="53.424" transform="translate(1881.236 -1225.3842) rotate(45)"/><circle class="cls-2" cx="2419.7875" cy="1658.1606" r="37.7942"/><rect class="cls-1" x="2488.2745" y="13.0669" width="53.424" height="53.424" transform="translate(764.7504 -1766.713) rotate(45)"/><circle class="cls-2" cx="2514.9865" cy="39.7789" r="37.7942"/><rect class="cls-1" x="2488.2745" y="108.2659" width="53.424" height="53.424" transform="translate(832.0662 -1738.8299) rotate(45)"/><circle class="cls-2" cx="2514.9865" cy="134.9778" r="37.7942"/><rect class="cls-1" x="2488.2745" y="203.4648" width="53.424" height="53.424" transform="translate(899.382 -1710.9468) rotate(45)"/><circle class="cls-2" cx="2514.9865" cy="230.1768" r="37.7942"/><rect class="cls-1" x="2488.2745" y="298.6637" width="53.424" height="53.424" transform="translate(966.6978 -1683.0637) rotate(45)"/><circle class="cls-2" cx="2514.9865" cy="325.3757" r="37.7942"/><rect class="cls-1" x="2488.2745" y="393.8982" width="53.424" height="53.424" transform="translate(1034.0388 -1655.1701) rotate(45)"/><circle class="cls-2" cx="2514.9865" cy="420.6101" r="37.7942"/><rect class="cls-1" x="2488.2745" y="489.0615" width="53.424" height="53.424" transform="translate(1101.3294 -1627.2974) rotate(45)"/><circle class="cls-2" cx="2514.9865" cy="515.7735" r="37.7942"/><rect class="cls-1" x="2488.2745" y="584.2605" width="53.424" height="53.424" transform="translate(1168.6452 -1599.4143) rotate(45)"/><circle class="cls-2" cx="2514.9865" cy="610.9725" r="37.7942"/><rect class="cls-1" x="2488.2745" y="679.4594" width="53.424" height="53.424" transform="translate(1235.961 -1571.5312) rotate(45)"/><circle class="cls-2" cx="2514.9865" cy="706.1714" r="37.7942"/><rect class="cls-1" x="2488.2745" y="774.6583" width="53.424" height="53.424" transform="translate(1303.2769 -1543.6481) rotate(45)"/><circle class="cls-2" cx="2514.9865" cy="801.3703" r="37.7942"/><rect class="cls-1" x="2488.2745" y="869.8572" width="53.424" height="53.424" transform="translate(1370.5927 -1515.7649) rotate(45)"/><circle class="cls-2" cx="2514.9865" cy="896.5692" r="37.7942"/><rect class="cls-1" x="2488.2745" y="965.0562" width="53.424" height="53.424" transform="translate(1437.9085 -1487.8818) rotate(45)"/><circle class="cls-2" cx="2514.9865" cy="991.7681" r="37.7942"/><rect class="cls-1" x="2488.2745" y="1060.2551" width="53.424" height="53.424" transform="translate(1505.2243 -1459.9987) rotate(45)"/><circle class="cls-2" cx="2514.9865" cy="1086.9671" r="37.7942"/><rect class="cls-1" x="2488.2745" y="1155.454" width="53.424" height="53.424" transform="translate(1572.5401 -1432.1156) rotate(45)"/><circle class="cls-2" cx="2514.9865" cy="1182.166" r="37.7942"/><rect class="cls-1" x="2488.2745" y="1250.6885" width="53.424" height="53.424" transform="translate(1639.881 -1404.2221) rotate(45)"/><circle class="cls-2" cx="2514.9865" cy="1277.4005" r="37.7942"/><rect class="cls-1" x="2488.2745" y="1345.8519" width="53.424" height="53.424" transform="translate(1707.1717 -1376.3493) rotate(45)"/><circle class="cls-2" cx="2514.9865" cy="1372.5638" r="37.7942"/><rect class="cls-1" x="2488.2745" y="1441.0508" width="53.424" height="53.424" transform="translate(1774.4875 -1348.4662) rotate(45)"/><circle class="cls-2" cx="2514.9865" cy="1467.7628" r="37.7942"/><rect class="cls-1" x="2488.2745" y="1536.2497" width="53.424" height="53.424" transform="translate(1841.8033 -1320.5831) rotate(45)"/><circle class="cls-2" cx="2514.9865" cy="1562.9617" r="37.7942"/><rect class="cls-1" x="2488.2745" y="1631.4486" width="53.424" height="53.424" transform="translate(1909.1191 -1292.7) rotate(45)"/><circle class="cls-2" cx="2514.9865" cy="1658.1606" r="37.7942"/></svg>