<?xml version="1.0" encoding="UTF-8"?><svg id="Layer_1" xmlns="http://www.w3.org/2000/svg" viewBox="0 0 2484.888 1625.0715"><defs><style>.cls-1{fill:none;stroke:#000;stroke-miterlimit:10;stroke-width:4px;}</style></defs><ellipse class="cls-1" cx="88.7255" cy="203.1339" rx="88.7255" ry="35.4527"/><ellipse class="cls-1" cx="88.7255" cy="67.7113" rx="88.7255" ry="35.4527"/><ellipse class="cls-1" cx="88.7255" cy="135.4226" rx="121.0415" ry="67.7113"/><ellipse class="cls-1" cx="88.7255" cy="135.4226" rx="72.6249" ry="67.7113"/><ellipse class="cls-1" cx="88.7255" cy="135.4226" rx="24.2083" ry="67.7113"/><line class="cls-1" x1="-32.3159" y1="135.4226" x2="209.767" y2="135.4226"/><path class="cls-1" d="M387.2181,270.8453c0-19.58-39.7238-35.4527-88.7255-35.4527s-88.7255,15.8727-88.7255,35.4527"/><ellipse class="cls-1" cx="298.4925" cy="135.4226" rx="88.7255" ry="35.4527"/><ellipse class="cls-1" cx="298.4925" cy="203.1339" rx="121.0415" ry="67.7113"/><ellipse class="cls-1" cx="298.4925" cy="203.1339" rx="72.6249" ry="67.7113"/><ellipse class="cls-1" cx="298.4925" cy="203.1339" rx="24.2083" ry="67.7113"/><line class="cls-1" x1="177.4511" y1="203.1339" x2="419.534" y2="203.1339"/><path class="cls-1" d="M209.767,0c0,19.58,39.7238,35.4527,88.7255,35.4527S387.2181,19.58,387.2181,0"/><ellipse class="cls-1" cx="298.4925" cy="67.7113" rx="121.0415" ry="67.7113"/><ellipse class="cls-1" cx="298.4925" cy="67.7113" rx="72.6249" ry="67.7113"/><ellipse class="cls-1" cx="298.4925" cy="67.7113" rx="24.2083" ry="67.7113"/><line class="cls-1" x1="177.4511" y1="67.7113" x2="419.534" y2="67.7113"/><path class="cls-1" d="M-32.3159,270.8453c0-37.3959,54.1921-67.7113,121.0415-67.7113s121.0415,30.3154,121.0415,67.7113"/><path class="cls-1" d="M16.1007,270.8453c0-37.3959,32.5153-67.7113,72.6249-67.7113s72.6249,30.3154,72.6249,67.7113"/><path class="cls-1" d="M64.5172,270.8453c0-37.3959,10.8384-67.7113,24.2083-67.7113s24.2083,30.3154,24.2083,67.7113"/><path class="cls-1" d="M177.4511,67.7113c0-19.58-39.7238-35.4527-88.7255-35.4527S0,48.1313,0,67.7113"/><path class="cls-1" d="M209.767,0c0,37.3959-54.1921,67.7113-121.0415,67.7113S-32.3159,37.3959-32.3159,0"/><path class="cls-1" d="M161.3504,0c0,37.3959-32.5153,67.7113-72.6249,67.7113S16.1007,37.3959,16.1007,0"/><path class="cls-1" d="M112.9338,0c0,37.3959-10.8384,67.7113-24.2083,67.7113S64.5172,37.3959,64.5172,0"/><line class="cls-1" x1="-32.3159" x2="209.767"/><ellipse class="cls-1" cx="88.7255" cy="473.9792" rx="88.7255" ry="35.4527"/><ellipse class="cls-1" cx="88.7255" cy="338.5566" rx="88.7255" ry="35.4527"/><ellipse class="cls-1" cx="88.7255" cy="406.2679" rx="121.0415" ry="67.7113"/><ellipse class="cls-1" cx="88.7255" cy="406.2679" rx="72.6249" ry="67.7113"/><ellipse class="cls-1" cx="88.7255" cy="406.2679" rx="24.2083" ry="67.7113"/><line class="cls-1" x1="-32.3159" y1="406.2679" x2="209.767" y2="406.2679"/><path class="cls-1" d="M387.2181,541.6905c0-19.58-39.7238-35.4527-88.7255-35.4527s-88.7255,15.8727-88.7255,35.4527"/><ellipse class="cls-1" cx="298.4925" cy="406.2679" rx="88.7255" ry="35.4527"/><ellipse class="cls-1" cx="298.4925" cy="473.9792" rx="121.0415" ry="67.7113"/><ellipse class="cls-1" cx="298.4925" cy="473.9792" rx="72.6249" ry="67.7113"/><ellipse class="cls-1" cx="298.4925" cy="473.9792" rx="24.2083" ry="67.7113"/><line class="cls-1" x1="177.4511" y1="473.9792" x2="419.534" y2="473.9792"/><path class="cls-1" d="M209.767,270.8453c0,19.58,39.7238,35.4527,88.7255,35.4527s88.7255-15.8727,88.7255-35.4527"/><ellipse class="cls-1" cx="298.4925" cy="338.5566" rx="121.0415" ry="67.7113"/><ellipse class="cls-1" cx="298.4925" cy="338.5566" rx="72.6249" ry="67.7113"/><ellipse class="cls-1" cx="298.4925" cy="338.5566" rx="24.2083" ry="67.7113"/><line class="cls-1" x1="177.4511" y1="338.5566" x2="419.534" y2="338.5566"/><path class="cls-1" d="M-32.3159,541.6905c0-37.3959,54.1921-67.7113,121.0415-67.7113s121.0415,30.3154,121.0415,67.7113"/><path class="cls-1" d="M16.1007,541.6905c0-37.3959,32.5153-67.7113,72.6249-67.7113s72.6249,30.3154,72.6249,67.7113"/><path class="cls-1" d="M64.5172,541.6905c0-37.3959,10.8384-67.7113,24.2083-67.7113s24.2083,30.3154,24.2083,67.7113"/><path class="cls-1" d="M177.4511,338.5566c0-19.58-39.7238-35.4527-88.7255-35.4527S0,318.9766,0,338.5566"/><path class="cls-1" d="M209.767,270.8453c0,37.3959-54.1921,67.7113-121.0415,67.7113s-121.0415-30.3154-121.0415-67.7113"/><path class="cls-1" d="M161.3504,270.8453c0,37.3959-32.5153,67.7113-72.6249,67.7113s-72.6249-30.3154-72.6249-67.7113"/><path class="cls-1" d="M112.9338,270.8453c0,37.3959-10.8384,67.7113-24.2083,67.7113s-24.2083-30.3154-24.2083-67.7113"/><line class="cls-1" x1="-32.3159" y1="270.8453" x2="209.767" y2="270.8453"/><ellipse class="cls-1" cx="508.2595" cy="203.1339" rx="88.7255" ry="35.4527"/><ellipse class="cls-1" cx="508.2595" cy="67.7113" rx="88.7255" ry="35.4527"/><ellipse class="cls-1" cx="508.2595" cy="135.4226" rx="121.0415" ry="67.7113"/><ellipse class="cls-1" cx="508.2595" cy="135.4226" rx="72.6249" ry="67.7113"/><ellipse class="cls-1" cx="508.2595" cy="135.4226" rx="24.2083" ry="67.7113"/><line class="cls-1" x1="387.2181" y1="135.4226" x2="629.301" y2="135.4226"/><path class="cls-1" d="M806.7521,270.8453c0-19.58-39.7238-35.4527-88.7255-35.4527s-88.7255,15.8727-88.7255,35.4527"/><ellipse class="cls-1" cx="718.0265" cy="135.4226" rx="88.7255" ry="35.4527"/><ellipse class="cls-1" cx="718.0265" cy="203.1339" rx="121.0415" ry="67.7113"/><ellipse class="cls-1" cx="718.0265" cy="203.1339" rx="72.6249" ry="67.7113"/><ellipse class="cls-1" cx="718.0265" cy="203.1339" rx="24.2083" ry="67.7113"/><line class="cls-1" x1="596.9851" y1="203.1339" x2="839.068" y2="203.1339"/><path class="cls-1" d="M629.301,0c0,19.58,39.7238,35.4527,88.7255,35.4527s88.7255-15.8727,88.7255-35.4527"/><ellipse class="cls-1" cx="718.0265" cy="67.7113" rx="121.0415" ry="67.7113"/><ellipse class="cls-1" cx="718.0265" cy="67.7113" rx="72.6249" ry="67.7113"/><ellipse class="cls-1" cx="718.0265" cy="67.7113" rx="24.2083" ry="67.7113"/><line class="cls-1" x1="596.9851" y1="67.7113" x2="839.068" y2="67.7113"/><path class="cls-1" d="M387.2181,270.8453c0-37.3959,54.1921-67.7113,121.0415-67.7113s121.0415,30.3154,121.0415,67.7113"/><path class="cls-1" d="M435.6347,270.8453c0-37.3959,32.5153-67.7113,72.6249-67.7113s72.6249,30.3154,72.6249,67.7113"/><path class="cls-1" d="M484.0512,270.8453c0-37.3959,10.8384-67.7113,24.2083-67.7113s24.2083,30.3154,24.2083,67.7113"/><path class="cls-1" d="M596.9851,67.7113c0-19.58-39.7238-35.4527-88.7255-35.4527s-88.7255,15.8727-88.7255,35.4527"/><path class="cls-1" d="M629.301,0c0,37.3959-54.1921,67.7113-121.0415,67.7113S387.2181,37.3959,387.2181,0"/><path class="cls-1" d="M580.8844,0c0,37.3959-32.5153,67.7113-72.6249,67.7113S435.6347,37.3959,435.6347,0"/><path class="cls-1" d="M532.4678,0c0,37.3959-10.8384,67.7113-24.2083,67.7113s-24.2083-30.3154-24.2083-67.7113"/><line class="cls-1" x1="387.2181" x2="629.301"/><ellipse class="cls-1" cx="508.2595" cy="473.9792" rx="88.7255" ry="35.4527"/><ellipse class="cls-1" cx="508.2595" cy="338.5566" rx="88.7255" ry="35.4527"/><ellipse class="cls-1" cx="508.2595" cy="406.2679" rx="121.0415" ry="67.7113"/><ellipse class="cls-1" cx="508.2595" cy="406.2679" rx="72.6249" ry="67.7113"/><ellipse class="cls-1" cx="508.2595" cy="406.2679" rx="24.2083" ry="67.7113"/><line class="cls-1" x1="387.2181" y1="406.2679" x2="629.301" y2="406.2679"/><path class="cls-1" d="M806.7521,541.6905c0-19.58-39.7238-35.4527-88.7255-35.4527s-88.7255,15.8727-88.7255,35.4527"/><ellipse class="cls-1" cx="718.0265" cy="406.2679" rx="88.7255" ry="35.4527"/><ellipse class="cls-1" cx="718.0265" cy="473.9792" rx="121.0415" ry="67.7113"/><ellipse class="cls-1" cx="718.0265" cy="473.9792" rx="72.6249" ry="67.7113"/><ellipse class="cls-1" cx="718.0265" cy="473.9792" rx="24.2083" ry="67.7113"/><line class="cls-1" x1="596.9851" y1="473.9792" x2="839.068" y2="473.9792"/><path class="cls-1" d="M629.301,270.8453c0,19.58,39.7238,35.4527,88.7255,35.4527s88.7255-15.8727,88.7255-35.4527"/><ellipse class="cls-1" cx="718.0265" cy="338.5566" rx="121.0415" ry="67.7113"/><ellipse class="cls-1" cx="718.0265" cy="338.5566" rx="72.6249" ry="67.7113"/><ellipse class="cls-1" cx="718.0265" cy="338.5566" rx="24.2083" ry="67.7113"/><line class="cls-1" x1="596.9851" y1="338.5566" x2="839.068" y2="338.5566"/><path class="cls-1" d="M387.2181,541.6905c0-37.3959,54.1921-67.7113,121.0415-67.7113s121.0415,30.3154,121.0415,67.7113"/><path class="cls-1" d="M435.6347,541.6905c0-37.3959,32.5153-67.7113,72.6249-67.7113s72.6249,30.3154,72.6249,67.7113"/><path class="cls-1" d="M484.0512,541.6905c0-37.3959,10.8384-67.7113,24.2083-67.7113s24.2083,30.3154,24.2083,67.7113"/><path class="cls-1" d="M596.9851,338.5566c0-19.58-39.7238-35.4527-88.7255-35.4527s-88.7255,15.8727-88.7255,35.4527"/><path class="cls-1" d="M629.301,270.8453c0,37.3959-54.1921,67.7113-121.0415,67.7113s-121.0415-30.3154-121.0415-67.7113"/><path class="cls-1" d="M580.8844,270.8453c0,37.3959-32.5153,67.7113-72.6249,67.7113s-72.6249-30.3154-72.6249-67.7113"/><path class="cls-1" d="M532.4678,270.8453c0,37.3959-10.8384,67.7113-24.2083,67.7113s-24.2083-30.3154-24.2083-67.7113"/><line class="cls-1" x1="387.2181" y1="270.8453" x2="629.301" y2="270.8453"/><ellipse class="cls-1" cx="927.7935" cy="203.1339" rx="88.7255" ry="35.4527"/><ellipse class="cls-1" cx="927.7935" cy="67.7113" rx="88.7255" ry="35.4527"/><ellipse class="cls-1" cx="927.7935" cy="135.4226" rx="121.0415" ry="67.7113"/><ellipse class="cls-1" cx="927.7935" cy="135.4226" rx="72.6249" ry="67.7113"/><ellipse class="cls-1" cx="927.7935" cy="135.4226" rx="24.2083" ry="67.7113"/><line class="cls-1" x1="806.7521" y1="135.4226" x2="1048.835" y2="135.4226"/><path class="cls-1" d="M1226.2861,270.8453c0-19.58-39.7238-35.4527-88.7255-35.4527s-88.7255,15.8727-88.7255,35.4527"/><ellipse class="cls-1" cx="1137.5605" cy="135.4226" rx="88.7255" ry="35.4527"/><ellipse class="cls-1" cx="1137.5605" cy="203.1339" rx="121.0415" ry="67.7113"/><ellipse class="cls-1" cx="1137.5605" cy="203.1339" rx="72.6249" ry="67.7113"/><ellipse class="cls-1" cx="1137.5605" cy="203.1339" rx="24.2083" ry="67.7113"/><line class="cls-1" x1="1016.5191" y1="203.1339" x2="1258.602" y2="203.1339"/><path class="cls-1" d="M1048.835,0c0,19.58,39.7238,35.4527,88.7255,35.4527s88.7255-15.8727,88.7255-35.4527"/><ellipse class="cls-1" cx="1137.5605" cy="67.7113" rx="121.0415" ry="67.7113"/><ellipse class="cls-1" cx="1137.5605" cy="67.7113" rx="72.6249" ry="67.7113"/><ellipse class="cls-1" cx="1137.5605" cy="67.7113" rx="24.2083" ry="67.7113"/><line class="cls-1" x1="1016.5191" y1="67.7113" x2="1258.602" y2="67.7113"/><path class="cls-1" d="M806.7521,270.8453c0-37.3959,54.1921-67.7113,121.0415-67.7113s121.0415,30.3154,121.0415,67.7113"/><path class="cls-1" d="M855.1686,270.8453c0-37.3959,32.5153-67.7113,72.6249-67.7113s72.6249,30.3154,72.6249,67.7113"/><path class="cls-1" d="M903.5852,270.8453c0-37.3959,10.8384-67.7113,24.2083-67.7113s24.2083,30.3154,24.2083,67.7113"/><path class="cls-1" d="M1016.5191,67.7113c0-19.58-39.7238-35.4527-88.7255-35.4527s-88.7255,15.8727-88.7255,35.4527"/><path class="cls-1" d="M1048.835,0c0,37.3959-54.1921,67.7113-121.0415,67.7113s-121.0415-30.3154-121.0415-67.7113"/><path class="cls-1" d="M1000.4184,0c0,37.3959-32.5153,67.7113-72.6249,67.7113s-72.6249-30.3154-72.6249-67.7113"/><path class="cls-1" d="M952.0018,0c0,37.3959-10.8384,67.7113-24.2083,67.7113s-24.2083-30.3154-24.2083-67.7113"/><line class="cls-1" x1="806.7521" x2="1048.835"/><ellipse class="cls-1" cx="927.7935" cy="473.9792" rx="88.7255" ry="35.4527"/><ellipse class="cls-1" cx="927.7935" cy="338.5566" rx="88.7255" ry="35.4527"/><ellipse class="cls-1" cx="927.7935" cy="406.2679" rx="121.0415" ry="67.7113"/><ellipse class="cls-1" cx="927.7935" cy="406.2679" rx="72.6249" ry="67.7113"/><ellipse class="cls-1" cx="927.7935" cy="406.2679" rx="24.2083" ry="67.7113"/><line class="cls-1" x1="806.7521" y1="406.2679" x2="1048.835" y2="406.2679"/><path class="cls-1" d="M1226.2861,541.6905c0-19.58-39.7238-35.4527-88.7255-35.4527s-88.7255,15.8727-88.7255,35.4527"/><ellipse class="cls-1" cx="1137.5605" cy="406.2679" rx="88.7255" ry="35.4527"/><ellipse class="cls-1" cx="1137.5605" cy="473.9792" rx="121.0415" ry="67.7113"/><ellipse class="cls-1" cx="1137.5605" cy="473.9792" rx="72.6249" ry="67.7113"/><ellipse class="cls-1" cx="1137.5605" cy="473.9792" rx="24.2083" ry="67.7113"/><line class="cls-1" x1="1016.5191" y1="473.9792" x2="1258.602" y2="473.9792"/><path class="cls-1" d="M1048.835,270.8453c0,19.58,39.7238,35.4527,88.7255,35.4527s88.7255-15.8727,88.7255-35.4527"/><ellipse class="cls-1" cx="1137.5605" cy="338.5566" rx="121.0415" ry="67.7113"/><ellipse class="cls-1" cx="1137.5605" cy="338.5566" rx="72.6249" ry="67.7113"/><ellipse class="cls-1" cx="1137.5605" cy="338.5566" rx="24.2083" ry="67.7113"/><line class="cls-1" x1="1016.5191" y1="338.5566" x2="1258.602" y2="338.5566"/><path class="cls-1" d="M806.7521,541.6905c0-37.3959,54.1921-67.7113,121.0415-67.7113s121.0415,30.3154,121.0415,67.7113"/><path class="cls-1" d="M855.1686,541.6905c0-37.3959,32.5153-67.7113,72.6249-67.7113s72.6249,30.3154,72.6249,67.7113"/><path class="cls-1" d="M903.5852,541.6905c0-37.3959,10.8384-67.7113,24.2083-67.7113s24.2083,30.3154,24.2083,67.7113"/><path class="cls-1" d="M1016.5191,338.5566c0-19.58-39.7238-35.4527-88.7255-35.4527s-88.7255,15.8727-88.7255,35.4527"/><path class="cls-1" d="M1048.835,270.8453c0,37.3959-54.1921,67.7113-121.0415,67.7113s-121.0415-30.3154-121.0415-67.7113"/><path class="cls-1" d="M1000.4184,270.8453c0,37.3959-32.5153,67.7113-72.6249,67.7113s-72.6249-30.3154-72.6249-67.7113"/><path class="cls-1" d="M952.0018,270.8453c0,37.3959-10.8384,67.7113-24.2083,67.7113s-24.2083-30.3154-24.2083-67.7113"/><line class="cls-1" x1="806.7521" y1="270.8453" x2="1048.835" y2="270.8453"/><ellipse class="cls-1" cx="88.7255" cy="744.8244" rx="88.7255" ry="35.4527"/><ellipse class="cls-1" cx="88.7255" cy="609.4018" rx="88.7255" ry="35.4527"/><ellipse class="cls-1" cx="88.7255" cy="677.1131" rx="121.0415" ry="67.7113"/><ellipse class="cls-1" cx="88.7255" cy="677.1131" rx="72.6249" ry="67.7113"/><ellipse class="cls-1" cx="88.7255" cy="677.1131" rx="24.2083" ry="67.7113"/><line class="cls-1" x1="-32.3159" y1="677.1131" x2="209.767" y2="677.1131"/><path class="cls-1" d="M387.2181,812.5358c0-19.58-39.7238-35.4527-88.7255-35.4527s-88.7255,15.8727-88.7255,35.4527"/><ellipse class="cls-1" cx="298.4925" cy="677.1131" rx="88.7255" ry="35.4527"/><ellipse class="cls-1" cx="298.4925" cy="744.8244" rx="121.0415" ry="67.7113"/><ellipse class="cls-1" cx="298.4925" cy="744.8244" rx="72.6249" ry="67.7113"/><ellipse class="cls-1" cx="298.4925" cy="744.8244" rx="24.2083" ry="67.7113"/><line class="cls-1" x1="177.4511" y1="744.8244" x2="419.534" y2="744.8244"/><path class="cls-1" d="M209.767,541.6905c0,19.58,39.7238,35.4527,88.7255,35.4527s88.7255-15.8727,88.7255-35.4527"/><ellipse class="cls-1" cx="298.4925" cy="609.4018" rx="121.0415" ry="67.7113"/><ellipse class="cls-1" cx="298.4925" cy="609.4018" rx="72.6249" ry="67.7113"/><ellipse class="cls-1" cx="298.4925" cy="609.4018" rx="24.2083" ry="67.7113"/><line class="cls-1" x1="177.4511" y1="609.4018" x2="419.534" y2="609.4018"/><path class="cls-1" d="M-32.3159,812.5358c0-37.3959,54.1921-67.7113,121.0415-67.7113s121.0415,30.3154,121.0415,67.7113"/><path class="cls-1" d="M16.1007,812.5358c0-37.3959,32.5153-67.7113,72.6249-67.7113s72.6249,30.3154,72.6249,67.7113"/><path class="cls-1" d="M64.5172,812.5358c0-37.3959,10.8384-67.7113,24.2083-67.7113s24.2083,30.3154,24.2083,67.7113"/><path class="cls-1" d="M177.4511,609.4018c0-19.58-39.7238-35.4527-88.7255-35.4527S0,589.8218,0,609.4018"/><path class="cls-1" d="M209.767,541.6905c0,37.3959-54.1921,67.7113-121.0415,67.7113s-121.0415-30.3154-121.0415-67.7113"/><path class="cls-1" d="M161.3504,541.6905c0,37.3959-32.5153,67.7113-72.6249,67.7113s-72.6249-30.3154-72.6249-67.7113"/><path class="cls-1" d="M112.9338,541.6905c0,37.3959-10.8384,67.7113-24.2083,67.7113s-24.2083-30.3154-24.2083-67.7113"/><line class="cls-1" x1="-32.3159" y1="541.6905" x2="209.767" y2="541.6905"/><line class="cls-1" x1="-32.3159" y1="812.5358" x2="209.767" y2="812.5358"/><ellipse class="cls-1" cx="508.2595" cy="744.8244" rx="88.7255" ry="35.4527"/><ellipse class="cls-1" cx="508.2595" cy="609.4018" rx="88.7255" ry="35.4527"/><ellipse class="cls-1" cx="508.2595" cy="677.1131" rx="121.0415" ry="67.7113"/><ellipse class="cls-1" cx="508.2595" cy="677.1131" rx="72.6249" ry="67.7113"/><ellipse class="cls-1" cx="508.2595" cy="677.1131" rx="24.2083" ry="67.7113"/><line class="cls-1" x1="387.2181" y1="677.1131" x2="629.301" y2="677.1131"/><path class="cls-1" d="M806.7521,812.5358c0-19.58-39.7238-35.4527-88.7255-35.4527s-88.7255,15.8727-88.7255,35.4527"/><ellipse class="cls-1" cx="718.0265" cy="677.1131" rx="88.7255" ry="35.4527"/><ellipse class="cls-1" cx="718.0265" cy="744.8244" rx="121.0415" ry="67.7113"/><ellipse class="cls-1" cx="718.0265" cy="744.8244" rx="72.6249" ry="67.7113"/><ellipse class="cls-1" cx="718.0265" cy="744.8244" rx="24.2083" ry="67.7113"/><line class="cls-1" x1="596.9851" y1="744.8244" x2="839.068" y2="744.8244"/><path class="cls-1" d="M629.301,541.6905c0,19.58,39.7238,35.4527,88.7255,35.4527s88.7255-15.8727,88.7255-35.4527"/><ellipse class="cls-1" cx="718.0265" cy="609.4018" rx="121.0415" ry="67.7113"/><ellipse class="cls-1" cx="718.0265" cy="609.4018" rx="72.6249" ry="67.7113"/><ellipse class="cls-1" cx="718.0265" cy="609.4018" rx="24.2083" ry="67.7113"/><line class="cls-1" x1="596.9851" y1="609.4018" x2="839.068" y2="609.4018"/><path class="cls-1" d="M387.2181,812.5358c0-37.3959,54.1921-67.7113,121.0415-67.7113s121.0415,30.3154,121.0415,67.7113"/><path class="cls-1" d="M435.6347,812.5358c0-37.3959,32.5153-67.7113,72.6249-67.7113s72.6249,30.3154,72.6249,67.7113"/><path class="cls-1" d="M484.0512,812.5358c0-37.3959,10.8384-67.7113,24.2083-67.7113s24.2083,30.3154,24.2083,67.7113"/><path class="cls-1" d="M596.9851,609.4018c0-19.58-39.7238-35.4527-88.7255-35.4527s-88.7255,15.8727-88.7255,35.4527"/><path class="cls-1" d="M629.301,541.6905c0,37.3959-54.1921,67.7113-121.0415,67.7113s-121.0415-30.3154-121.0415-67.7113"/><path class="cls-1" d="M580.8844,541.6905c0,37.3959-32.5153,67.7113-72.6249,67.7113s-72.6249-30.3154-72.6249-67.7113"/><path class="cls-1" d="M532.4678,541.6905c0,37.3959-10.8384,67.7113-24.2083,67.7113s-24.2083-30.3154-24.2083-67.7113"/><line class="cls-1" x1="387.2181" y1="541.6905" x2="629.301" y2="541.6905"/><line class="cls-1" x1="387.2181" y1="812.5358" x2="629.301" y2="812.5358"/><ellipse class="cls-1" cx="927.7935" cy="744.8244" rx="88.7255" ry="35.4527"/><ellipse class="cls-1" cx="927.7935" cy="609.4018" rx="88.7255" ry="35.4527"/><ellipse class="cls-1" cx="927.7935" cy="677.1131" rx="121.0415" ry="67.7113"/><ellipse class="cls-1" cx="927.7935" cy="677.1131" rx="72.6249" ry="67.7113"/><ellipse class="cls-1" cx="927.7935" cy="677.1131" rx="24.2083" ry="67.7113"/><line class="cls-1" x1="806.7521" y1="677.1131" x2="1048.835" y2="677.1131"/><path class="cls-1" d="M1226.2861,812.5358c0-19.58-39.7238-35.4527-88.7255-35.4527s-88.7255,15.8727-88.7255,35.4527"/><ellipse class="cls-1" cx="1137.5605" cy="677.1131" rx="88.7255" ry="35.4527"/><ellipse class="cls-1" cx="1137.5605" cy="744.8244" rx="121.0415" ry="67.7113"/><ellipse class="cls-1" cx="1137.5605" cy="744.8244" rx="72.6249" ry="67.7113"/><ellipse class="cls-1" cx="1137.5605" cy="744.8244" rx="24.2083" ry="67.7113"/><line class="cls-1" x1="1016.5191" y1="744.8244" x2="1258.602" y2="744.8244"/><path class="cls-1" d="M1048.835,541.6905c0,19.58,39.7238,35.4527,88.7255,35.4527s88.7255-15.8727,88.7255-35.4527"/><ellipse class="cls-1" cx="1137.5605" cy="609.4018" rx="121.0415" ry="67.7113"/><ellipse class="cls-1" cx="1137.5605" cy="609.4018" rx="72.6249" ry="67.7113"/><ellipse class="cls-1" cx="1137.5605" cy="609.4018" rx="24.2083" ry="67.7113"/><line class="cls-1" x1="1016.5191" y1="609.4018" x2="1258.602" y2="609.4018"/><path class="cls-1" d="M806.7521,812.5358c0-37.3959,54.1921-67.7113,121.0415-67.7113s121.0415,30.3154,121.0415,67.7113"/><path class="cls-1" d="M855.1686,812.5358c0-37.3959,32.5153-67.7113,72.6249-67.7113s72.6249,30.3154,72.6249,67.7113"/><path class="cls-1" d="M903.5852,812.5358c0-37.3959,10.8384-67.7113,24.2083-67.7113s24.2083,30.3154,24.2083,67.7113"/><path class="cls-1" d="M1016.5191,609.4018c0-19.58-39.7238-35.4527-88.7255-35.4527s-88.7255,15.8727-88.7255,35.4527"/><path class="cls-1" d="M1048.835,541.6905c0,37.3959-54.1921,67.7113-121.0415,67.7113s-121.0415-30.3154-121.0415-67.7113"/><path class="cls-1" d="M1000.4184,541.6905c0,37.3959-32.5153,67.7113-72.6249,67.7113s-72.6249-30.3154-72.6249-67.7113"/><path class="cls-1" d="M952.0018,541.6905c0,37.3959-10.8384,67.7113-24.2083,67.7113s-24.2083-30.3154-24.2083-67.7113"/><line class="cls-1" x1="806.7521" y1="541.6905" x2="1048.835" y2="541.6905"/><line class="cls-1" x1="806.7521" y1="812.5358" x2="1048.835" y2="812.5358"/><ellipse class="cls-1" cx="1347.3275" cy="203.1339" rx="88.7255" ry="35.4527"/><ellipse class="cls-1" cx="1347.3275" cy="67.7113" rx="88.7255" ry="35.4527"/><ellipse class="cls-1" cx="1347.3275" cy="135.4226" rx="121.0415" ry="67.7113"/><ellipse class="cls-1" cx="1347.3275" cy="135.4226" rx="72.6249" ry="67.7113"/><ellipse class="cls-1" cx="1347.3275" cy="135.4226" rx="24.2083" ry="67.7113"/><line class="cls-1" x1="1226.2861" y1="135.4226" x2="1468.369" y2="135.4226"/><path class="cls-1" d="M1645.8201,270.8453c0-19.58-39.7238-35.4527-88.7255-35.4527s-88.7255,15.8727-88.7255,35.4527"/><ellipse class="cls-1" cx="1557.0945" cy="135.4226" rx="88.7255" ry="35.4527"/><ellipse class="cls-1" cx="1557.0945" cy="203.1339" rx="121.0415" ry="67.7113"/><ellipse class="cls-1" cx="1557.0945" cy="203.1339" rx="72.6249" ry="67.7113"/><ellipse class="cls-1" cx="1557.0945" cy="203.1339" rx="24.2083" ry="67.7113"/><line class="cls-1" x1="1436.0531" y1="203.1339" x2="1678.136" y2="203.1339"/><path class="cls-1" d="M1468.369,0c0,19.58,39.7238,35.4527,88.7255,35.4527s88.7255-15.8727,88.7255-35.4527"/><ellipse class="cls-1" cx="1557.0945" cy="67.7113" rx="121.0415" ry="67.7113"/><ellipse class="cls-1" cx="1557.0945" cy="67.7113" rx="72.6249" ry="67.7113"/><ellipse class="cls-1" cx="1557.0945" cy="67.7113" rx="24.2083" ry="67.7113"/><line class="cls-1" x1="1436.0531" y1="67.7113" x2="1678.136" y2="67.7113"/><path class="cls-1" d="M1226.2861,270.8453c0-37.3959,54.1921-67.7113,121.0415-67.7113s121.0415,30.3154,121.0415,67.7113"/><path class="cls-1" d="M1274.7026,270.8453c0-37.3959,32.5153-67.7113,72.6249-67.7113s72.6249,30.3154,72.6249,67.7113"/><path class="cls-1" d="M1323.1192,270.8453c0-37.3959,10.8384-67.7113,24.2083-67.7113s24.2083,30.3154,24.2083,67.7113"/><path class="cls-1" d="M1436.0531,67.7113c0-19.58-39.7238-35.4527-88.7255-35.4527s-88.7255,15.8727-88.7255,35.4527"/><path class="cls-1" d="M1468.369,0c0,37.3959-54.1921,67.7113-121.0415,67.7113s-121.0415-30.3154-121.0415-67.7113"/><path class="cls-1" d="M1419.9524,0c0,37.3959-32.5153,67.7113-72.6249,67.7113s-72.6249-30.3154-72.6249-67.7113"/><path class="cls-1" d="M1371.5358,0c0,37.3959-10.8384,67.7113-24.2083,67.7113s-24.2083-30.3154-24.2083-67.7113"/><line class="cls-1" x1="1226.2861" x2="1468.369"/><ellipse class="cls-1" cx="1347.3275" cy="473.9792" rx="88.7255" ry="35.4527"/><ellipse class="cls-1" cx="1347.3275" cy="338.5566" rx="88.7255" ry="35.4527"/><ellipse class="cls-1" cx="1347.3275" cy="406.2679" rx="121.0415" ry="67.7113"/><ellipse class="cls-1" cx="1347.3275" cy="406.2679" rx="72.6249" ry="67.7113"/><ellipse class="cls-1" cx="1347.3275" cy="406.2679" rx="24.2083" ry="67.7113"/><line class="cls-1" x1="1226.2861" y1="406.2679" x2="1468.369" y2="406.2679"/><path class="cls-1" d="M1645.8201,541.6905c0-19.58-39.7238-35.4527-88.7255-35.4527s-88.7255,15.8727-88.7255,35.4527"/><ellipse class="cls-1" cx="1557.0945" cy="406.2679" rx="88.7255" ry="35.4527"/><ellipse class="cls-1" cx="1557.0945" cy="473.9792" rx="121.0415" ry="67.7113"/><ellipse class="cls-1" cx="1557.0945" cy="473.9792" rx="72.6249" ry="67.7113"/><ellipse class="cls-1" cx="1557.0945" cy="473.9792" rx="24.2083" ry="67.7113"/><line class="cls-1" x1="1436.0531" y1="473.9792" x2="1678.136" y2="473.9792"/><path class="cls-1" d="M1468.369,270.8453c0,19.58,39.7238,35.4527,88.7255,35.4527s88.7255-15.8727,88.7255-35.4527"/><ellipse class="cls-1" cx="1557.0945" cy="338.5566" rx="121.0415" ry="67.7113"/><ellipse class="cls-1" cx="1557.0945" cy="338.5566" rx="72.6249" ry="67.7113"/><ellipse class="cls-1" cx="1557.0945" cy="338.5566" rx="24.2083" ry="67.7113"/><line class="cls-1" x1="1436.0531" y1="338.5566" x2="1678.136" y2="338.5566"/><path class="cls-1" d="M1226.2861,541.6905c0-37.3959,54.1921-67.7113,121.0415-67.7113s121.0415,30.3154,121.0415,67.7113"/><path class="cls-1" d="M1274.7026,541.6905c0-37.3959,32.5153-67.7113,72.6249-67.7113s72.6249,30.3154,72.6249,67.7113"/><path class="cls-1" d="M1323.1192,541.6905c0-37.3959,10.8384-67.7113,24.2083-67.7113s24.2083,30.3154,24.2083,67.7113"/><path class="cls-1" d="M1436.0531,338.5566c0-19.58-39.7238-35.4527-88.7255-35.4527s-88.7255,15.8727-88.7255,35.4527"/><path class="cls-1" d="M1468.369,270.8453c0,37.3959-54.1921,67.7113-121.0415,67.7113s-121.0415-30.3154-121.0415-67.7113"/><path class="cls-1" d="M1419.9524,270.8453c0,37.3959-32.5153,67.7113-72.6249,67.7113s-72.6249-30.3154-72.6249-67.7113"/><path class="cls-1" d="M1371.5358,270.8453c0,37.3959-10.8384,67.7113-24.2083,67.7113s-24.2083-30.3154-24.2083-67.7113"/><line class="cls-1" x1="1226.2861" y1="270.8453" x2="1468.369" y2="270.8453"/><ellipse class="cls-1" cx="1766.8615" cy="203.1339" rx="88.7255" ry="35.4527"/><ellipse class="cls-1" cx="1766.8615" cy="67.7113" rx="88.7255" ry="35.4527"/><ellipse class="cls-1" cx="1766.8615" cy="135.4226" rx="121.0415" ry="67.7113"/><ellipse class="cls-1" cx="1766.8615" cy="135.4226" rx="72.6249" ry="67.7113"/><ellipse class="cls-1" cx="1766.8615" cy="135.4226" rx="24.2083" ry="67.7113"/><line class="cls-1" x1="1645.8201" y1="135.4226" x2="1887.903" y2="135.4226"/><path class="cls-1" d="M2065.354,270.8453c0-19.58-39.7238-35.4527-88.7255-35.4527s-88.7255,15.8727-88.7255,35.4527"/><ellipse class="cls-1" cx="1976.6285" cy="135.4226" rx="88.7255" ry="35.4527"/><ellipse class="cls-1" cx="1976.6285" cy="203.1339" rx="121.0415" ry="67.7113"/><ellipse class="cls-1" cx="1976.6285" cy="203.1339" rx="72.6249" ry="67.7113"/><ellipse class="cls-1" cx="1976.6285" cy="203.1339" rx="24.2083" ry="67.7113"/><line class="cls-1" x1="1855.587" y1="203.1339" x2="2097.67" y2="203.1339"/><path class="cls-1" d="M1887.903,0c0,19.58,39.7238,35.4527,88.7255,35.4527s88.7255-15.8727,88.7255-35.4527"/><ellipse class="cls-1" cx="1976.6285" cy="67.7113" rx="121.0415" ry="67.7113"/><ellipse class="cls-1" cx="1976.6285" cy="67.7113" rx="72.6249" ry="67.7113"/><ellipse class="cls-1" cx="1976.6285" cy="67.7113" rx="24.2083" ry="67.7113"/><line class="cls-1" x1="1855.587" y1="67.7113" x2="2097.67" y2="67.7113"/><path class="cls-1" d="M1645.8201,270.8453c0-37.3959,54.1921-67.7113,121.0415-67.7113s121.0415,30.3154,121.0415,67.7113"/><path class="cls-1" d="M1694.2366,270.8453c0-37.3959,32.5153-67.7113,72.6249-67.7113s72.6249,30.3154,72.6249,67.7113"/><path class="cls-1" d="M1742.6532,270.8453c0-37.3959,10.8384-67.7113,24.2083-67.7113s24.2083,30.3154,24.2083,67.7113"/><path class="cls-1" d="M1855.587,67.7113c0-19.58-39.7238-35.4527-88.7255-35.4527s-88.7255,15.8727-88.7255,35.4527"/><path class="cls-1" d="M1887.903,0c0,37.3959-54.1921,67.7113-121.0415,67.7113s-121.0415-30.3154-121.0415-67.7113"/><path class="cls-1" d="M1839.4864,0c0,37.3959-32.5153,67.7113-72.6249,67.7113s-72.6249-30.3154-72.6249-67.7113"/><path class="cls-1" d="M1791.0698,0c0,37.3959-10.8384,67.7113-24.2083,67.7113s-24.2083-30.3154-24.2083-67.7113"/><line class="cls-1" x1="1645.8201" x2="1887.903"/><ellipse class="cls-1" cx="1766.8615" cy="473.9792" rx="88.7255" ry="35.4527"/><ellipse class="cls-1" cx="1766.8615" cy="338.5566" rx="88.7255" ry="35.4527"/><ellipse class="cls-1" cx="1766.8615" cy="406.2679" rx="121.0415" ry="67.7113"/><ellipse class="cls-1" cx="1766.8615" cy="406.2679" rx="72.6249" ry="67.7113"/><ellipse class="cls-1" cx="1766.8615" cy="406.2679" rx="24.2083" ry="67.7113"/><line class="cls-1" x1="1645.8201" y1="406.2679" x2="1887.903" y2="406.2679"/><path class="cls-1" d="M2065.354,541.6905c0-19.58-39.7238-35.4527-88.7255-35.4527s-88.7255,15.8727-88.7255,35.4527"/><ellipse class="cls-1" cx="1976.6285" cy="406.2679" rx="88.7255" ry="35.4527"/><ellipse class="cls-1" cx="1976.6285" cy="473.9792" rx="121.0415" ry="67.7113"/><ellipse class="cls-1" cx="1976.6285" cy="473.9792" rx="72.6249" ry="67.7113"/><ellipse class="cls-1" cx="1976.6285" cy="473.9792" rx="24.2083" ry="67.7113"/><line class="cls-1" x1="1855.587" y1="473.9792" x2="2097.67" y2="473.9792"/><path class="cls-1" d="M1887.903,270.8453c0,19.58,39.7238,35.4527,88.7255,35.4527s88.7255-15.8727,88.7255-35.4527"/><ellipse class="cls-1" cx="1976.6285" cy="338.5566" rx="121.0415" ry="67.7113"/><ellipse class="cls-1" cx="1976.6285" cy="338.5566" rx="72.6249" ry="67.7113"/><ellipse class="cls-1" cx="1976.6285" cy="338.5566" rx="24.2083" ry="67.7113"/><line class="cls-1" x1="1855.587" y1="338.5566" x2="2097.67" y2="338.5566"/><path class="cls-1" d="M1645.8201,541.6905c0-37.3959,54.1921-67.7113,121.0415-67.7113s121.0415,30.3154,121.0415,67.7113"/><path class="cls-1" d="M1694.2366,541.6905c0-37.3959,32.5153-67.7113,72.6249-67.7113s72.6249,30.3154,72.6249,67.7113"/><path class="cls-1" d="M1742.6532,541.6905c0-37.3959,10.8384-67.7113,24.2083-67.7113s24.2083,30.3154,24.2083,67.7113"/><path class="cls-1" d="M1855.587,338.5566c0-19.58-39.7238-35.4527-88.7255-35.4527s-88.7255,15.8727-88.7255,35.4527"/><path class="cls-1" d="M1887.903,270.8453c0,37.3959-54.1921,67.7113-121.0415,67.7113s-121.0415-30.3154-121.0415-67.7113"/><path class="cls-1" d="M1839.4864,270.8453c0,37.3959-32.5153,67.7113-72.6249,67.7113s-72.6249-30.3154-72.6249-67.7113"/><path class="cls-1" d="M1791.0698,270.8453c0,37.3959-10.8384,67.7113-24.2083,67.7113s-24.2083-30.3154-24.2083-67.7113"/><line class="cls-1" x1="1645.8201" y1="270.8453" x2="1887.903" y2="270.8453"/><ellipse class="cls-1" cx="2186.3955" cy="203.1339" rx="88.7255" ry="35.4527"/><ellipse class="cls-1" cx="2186.3955" cy="67.7113" rx="88.7255" ry="35.4527"/><ellipse class="cls-1" cx="2186.3955" cy="135.4226" rx="121.0415" ry="67.7113"/><ellipse class="cls-1" cx="2186.3955" cy="135.4226" rx="72.6249" ry="67.7113"/><ellipse class="cls-1" cx="2186.3955" cy="135.4226" rx="24.2083" ry="67.7113"/><line class="cls-1" x1="2065.354" y1="135.4226" x2="2307.437" y2="135.4226"/><path class="cls-1" d="M2484.888,270.8453c0-19.58-39.7238-35.4527-88.7255-35.4527s-88.7255,15.8727-88.7255,35.4527"/><ellipse class="cls-1" cx="2396.1625" cy="135.4226" rx="88.7255" ry="35.4527"/><ellipse class="cls-1" cx="2396.1625" cy="203.1339" rx="121.0415" ry="67.7113"/><ellipse class="cls-1" cx="2396.1625" cy="203.1339" rx="72.6249" ry="67.7113"/><ellipse class="cls-1" cx="2396.1625" cy="203.1339" rx="24.2083" ry="67.7113"/><line class="cls-1" x1="2275.121" y1="203.1339" x2="2517.204" y2="203.1339"/><path class="cls-1" d="M2307.437,0c0,19.58,39.7238,35.4527,88.7255,35.4527s88.7255-15.8727,88.7255-35.4527"/><ellipse class="cls-1" cx="2396.1625" cy="67.7113" rx="121.0415" ry="67.7113"/><ellipse class="cls-1" cx="2396.1625" cy="67.7113" rx="72.6249" ry="67.7113"/><ellipse class="cls-1" cx="2396.1625" cy="67.7113" rx="24.2083" ry="67.7113"/><line class="cls-1" x1="2275.121" y1="67.7113" x2="2517.204" y2="67.7113"/><path class="cls-1" d="M2065.354,270.8453c0-37.3959,54.1921-67.7113,121.0415-67.7113s121.0415,30.3154,121.0415,67.7113"/><path class="cls-1" d="M2113.7706,270.8453c0-37.3959,32.5153-67.7113,72.6249-67.7113s72.6249,30.3154,72.6249,67.7113"/><path class="cls-1" d="M2162.1872,270.8453c0-37.3959,10.8384-67.7113,24.2083-67.7113s24.2083,30.3154,24.2083,67.7113"/><path class="cls-1" d="M2275.121,67.7113c0-19.58-39.7238-35.4527-88.7255-35.4527s-88.7255,15.8727-88.7255,35.4527"/><path class="cls-1" d="M2307.437,0c0,37.3959-54.1921,67.7113-121.0415,67.7113s-121.0415-30.3154-121.0415-67.7113"/><path class="cls-1" d="M2259.0204,0c0,37.3959-32.5153,67.7113-72.6249,67.7113s-72.6249-30.3154-72.6249-67.7113"/><path class="cls-1" d="M2210.6038,0c0,37.3959-10.8384,67.7113-24.2083,67.7113s-24.2083-30.3154-24.2083-67.7113"/><line class="cls-1" x1="2065.354" x2="2307.437"/><ellipse class="cls-1" cx="2186.3955" cy="473.9792" rx="88.7255" ry="35.4527"/><ellipse class="cls-1" cx="2186.3955" cy="338.5566" rx="88.7255" ry="35.4527"/><ellipse class="cls-1" cx="2186.3955" cy="406.2679" rx="121.0415" ry="67.7113"/><ellipse class="cls-1" cx="2186.3955" cy="406.2679" rx="72.6249" ry="67.7113"/><ellipse class="cls-1" cx="2186.3955" cy="406.2679" rx="24.2083" ry="67.7113"/><line class="cls-1" x1="2065.354" y1="406.2679" x2="2307.437" y2="406.2679"/><path class="cls-1" d="M2484.888,541.6905c0-19.58-39.7238-35.4527-88.7255-35.4527s-88.7255,15.8727-88.7255,35.4527"/><ellipse class="cls-1" cx="2396.1625" cy="406.2679" rx="88.7255" ry="35.4527"/><ellipse class="cls-1" cx="2396.1625" cy="473.9792" rx="121.0415" ry="67.7113"/><ellipse class="cls-1" cx="2396.1625" cy="473.9792" rx="72.6249" ry="67.7113"/><ellipse class="cls-1" cx="2396.1625" cy="473.9792" rx="24.2083" ry="67.7113"/><line class="cls-1" x1="2275.121" y1="473.9792" x2="2517.204" y2="473.9792"/><path class="cls-1" d="M2307.437,270.8453c0,19.58,39.7238,35.4527,88.7255,35.4527s88.7255-15.8727,88.7255-35.4527"/><ellipse class="cls-1" cx="2396.1625" cy="338.5566" rx="121.0415" ry="67.7113"/><ellipse class="cls-1" cx="2396.1625" cy="338.5566" rx="72.6249" ry="67.7113"/><ellipse class="cls-1" cx="2396.1625" cy="338.5566" rx="24.2083" ry="67.7113"/><line class="cls-1" x1="2275.121" y1="338.5566" x2="2517.204" y2="338.5566"/><path class="cls-1" d="M2065.354,541.6905c0-37.3959,54.1921-67.7113,121.0415-67.7113s121.0415,30.3154,121.0415,67.7113"/><path class="cls-1" d="M2113.7706,541.6905c0-37.3959,32.5153-67.7113,72.6249-67.7113s72.6249,30.3154,72.6249,67.7113"/><path class="cls-1" d="M2162.1872,541.6905c0-37.3959,10.8384-67.7113,24.2083-67.7113s24.2083,30.3154,24.2083,67.7113"/><path class="cls-1" d="M2275.121,338.5566c0-19.58-39.7238-35.4527-88.7255-35.4527s-88.7255,15.8727-88.7255,35.4527"/><path class="cls-1" d="M2307.437,270.8453c0,37.3959-54.1921,67.7113-121.0415,67.7113s-121.0415-30.3154-121.0415-67.7113"/><path class="cls-1" d="M2259.0204,270.8453c0,37.3959-32.5153,67.7113-72.6249,67.7113s-72.6249-30.3154-72.6249-67.7113"/><path class="cls-1" d="M2210.6038,270.8453c0,37.3959-10.8384,67.7113-24.2083,67.7113s-24.2083-30.3154-24.2083-67.7113"/><line class="cls-1" x1="2065.354" y1="270.8453" x2="2307.437" y2="270.8453"/><ellipse class="cls-1" cx="1347.3275" cy="744.8244" rx="88.7255" ry="35.4527"/><ellipse class="cls-1" cx="1347.3275" cy="609.4018" rx="88.7255" ry="35.4527"/><ellipse class="cls-1" cx="1347.3275" cy="677.1131" rx="121.0415" ry="67.7113"/><ellipse class="cls-1" cx="1347.3275" cy="677.1131" rx="72.6249" ry="67.7113"/><ellipse class="cls-1" cx="1347.3275" cy="677.1131" rx="24.2083" ry="67.7113"/><line class="cls-1" x1="1226.2861" y1="677.1131" x2="1468.369" y2="677.1131"/><path class="cls-1" d="M1645.8201,812.5358c0-19.58-39.7238-35.4527-88.7255-35.4527s-88.7255,15.8727-88.7255,35.4527"/><ellipse class="cls-1" cx="1557.0945" cy="677.1131" rx="88.7255" ry="35.4527"/><ellipse class="cls-1" cx="1557.0945" cy="744.8244" rx="121.0415" ry="67.7113"/><ellipse class="cls-1" cx="1557.0945" cy="744.8244" rx="72.6249" ry="67.7113"/><ellipse class="cls-1" cx="1557.0945" cy="744.8244" rx="24.2083" ry="67.7113"/><line class="cls-1" x1="1436.0531" y1="744.8244" x2="1678.136" y2="744.8244"/><path class="cls-1" d="M1468.369,541.6905c0,19.58,39.7238,35.4527,88.7255,35.4527s88.7255-15.8727,88.7255-35.4527"/><ellipse class="cls-1" cx="1557.0945" cy="609.4018" rx="121.0415" ry="67.7113"/><ellipse class="cls-1" cx="1557.0945" cy="609.4018" rx="72.6249" ry="67.7113"/><ellipse class="cls-1" cx="1557.0945" cy="609.4018" rx="24.2083" ry="67.7113"/><line class="cls-1" x1="1436.0531" y1="609.4018" x2="1678.136" y2="609.4018"/><path class="cls-1" d="M1226.2861,812.5358c0-37.3959,54.1921-67.7113,121.0415-67.7113s121.0415,30.3154,121.0415,67.7113"/><path class="cls-1" d="M1274.7026,812.5358c0-37.3959,32.5153-67.7113,72.6249-67.7113s72.6249,30.3154,72.6249,67.7113"/><path class="cls-1" d="M1323.1192,812.5358c0-37.3959,10.8384-67.7113,24.2083-67.7113s24.2083,30.3154,24.2083,67.7113"/><path class="cls-1" d="M1436.0531,609.4018c0-19.58-39.7238-35.4527-88.7255-35.4527s-88.7255,15.8727-88.7255,35.4527"/><path class="cls-1" d="M1468.369,541.6905c0,37.3959-54.1921,67.7113-121.0415,67.7113s-121.0415-30.3154-121.0415-67.7113"/><path class="cls-1" d="M1419.9524,541.6905c0,37.3959-32.5153,67.7113-72.6249,67.7113s-72.6249-30.3154-72.6249-67.7113"/><path class="cls-1" d="M1371.5358,541.6905c0,37.3959-10.8384,67.7113-24.2083,67.7113s-24.2083-30.3154-24.2083-67.7113"/><line class="cls-1" x1="1226.2861" y1="541.6905" x2="1468.369" y2="541.6905"/><line class="cls-1" x1="1226.2861" y1="812.5358" x2="1468.369" y2="812.5358"/><ellipse class="cls-1" cx="1766.8615" cy="744.8244" rx="88.7255" ry="35.4527"/><ellipse class="cls-1" cx="1766.8615" cy="609.4018" rx="88.7255" ry="35.4527"/><ellipse class="cls-1" cx="1766.8615" cy="677.1131" rx="121.0415" ry="67.7113"/><ellipse class="cls-1" cx="1766.8615" cy="677.1131" rx="72.6249" ry="67.7113"/><ellipse class="cls-1" cx="1766.8615" cy="677.1131" rx="24.2083" ry="67.7113"/><line class="cls-1" x1="1645.8201" y1="677.1131" x2="1887.903" y2="677.1131"/><path class="cls-1" d="M2065.354,812.5358c0-19.58-39.7238-35.4527-88.7255-35.4527s-88.7255,15.8727-88.7255,35.4527"/><ellipse class="cls-1" cx="1976.6285" cy="677.1131" rx="88.7255" ry="35.4527"/><ellipse class="cls-1" cx="1976.6285" cy="744.8244" rx="121.0415" ry="67.7113"/><ellipse class="cls-1" cx="1976.6285" cy="744.8244" rx="72.6249" ry="67.7113"/><ellipse class="cls-1" cx="1976.6285" cy="744.8244" rx="24.2083" ry="67.7113"/><line class="cls-1" x1="1855.587" y1="744.8244" x2="2097.67" y2="744.8244"/><path class="cls-1" d="M1887.903,541.6905c0,19.58,39.7238,35.4527,88.7255,35.4527s88.7255-15.8727,88.7255-35.4527"/><ellipse class="cls-1" cx="1976.6285" cy="609.4018" rx="121.0415" ry="67.7113"/><ellipse class="cls-1" cx="1976.6285" cy="609.4018" rx="72.6249" ry="67.7113"/><ellipse class="cls-1" cx="1976.6285" cy="609.4018" rx="24.2083" ry="67.7113"/><line class="cls-1" x1="1855.587" y1="609.4018" x2="2097.67" y2="609.4018"/><path class="cls-1" d="M1645.8201,812.5358c0-37.3959,54.1921-67.7113,121.0415-67.7113s121.0415,30.3154,121.0415,67.7113"/><path class="cls-1" d="M1694.2366,812.5358c0-37.3959,32.5153-67.7113,72.6249-67.7113s72.6249,30.3154,72.6249,67.7113"/><path class="cls-1" d="M1742.6532,812.5358c0-37.3959,10.8384-67.7113,24.2083-67.7113s24.2083,30.3154,24.2083,67.7113"/><path class="cls-1" d="M1855.587,609.4018c0-19.58-39.7238-35.4527-88.7255-35.4527s-88.7255,15.8727-88.7255,35.4527"/><path class="cls-1" d="M1887.903,541.6905c0,37.3959-54.1921,67.7113-121.0415,67.7113s-121.0415-30.3154-121.0415-67.7113"/><path class="cls-1" d="M1839.4864,541.6905c0,37.3959-32.5153,67.7113-72.6249,67.7113s-72.6249-30.3154-72.6249-67.7113"/><path class="cls-1" d="M1791.0698,541.6905c0,37.3959-10.8384,67.7113-24.2083,67.7113s-24.2083-30.3154-24.2083-67.7113"/><line class="cls-1" x1="1645.8201" y1="541.6905" x2="1887.903" y2="541.6905"/><line class="cls-1" x1="1645.8201" y1="812.5358" x2="1887.903" y2="812.5358"/><ellipse class="cls-1" cx="2186.3955" cy="744.8244" rx="88.7255" ry="35.4527"/><ellipse class="cls-1" cx="2186.3955" cy="609.4018" rx="88.7255" ry="35.4527"/><ellipse class="cls-1" cx="2186.3955" cy="677.1131" rx="121.0415" ry="67.7113"/><ellipse class="cls-1" cx="2186.3955" cy="677.1131" rx="72.6249" ry="67.7113"/><ellipse class="cls-1" cx="2186.3955" cy="677.1131" rx="24.2083" ry="67.7113"/><line class="cls-1" x1="2065.354" y1="677.1131" x2="2307.437" y2="677.1131"/><path class="cls-1" d="M2484.888,812.5358c0-19.58-39.7238-35.4527-88.7255-35.4527s-88.7255,15.8727-88.7255,35.4527"/><ellipse class="cls-1" cx="2396.1625" cy="677.1131" rx="88.7255" ry="35.4527"/><ellipse class="cls-1" cx="2396.1625" cy="744.8244" rx="121.0415" ry="67.7113"/><ellipse class="cls-1" cx="2396.1625" cy="744.8244" rx="72.6249" ry="67.7113"/><ellipse class="cls-1" cx="2396.1625" cy="744.8244" rx="24.2083" ry="67.7113"/><line class="cls-1" x1="2275.121" y1="744.8244" x2="2517.204" y2="744.8244"/><path class="cls-1" d="M2307.437,541.6905c0,19.58,39.7238,35.4527,88.7255,35.4527s88.7255-15.8727,88.7255-35.4527"/><ellipse class="cls-1" cx="2396.1625" cy="609.4018" rx="121.0415" ry="67.7113"/><ellipse class="cls-1" cx="2396.1625" cy="609.4018" rx="72.6249" ry="67.7113"/><ellipse class="cls-1" cx="2396.1625" cy="609.4018" rx="24.2083" ry="67.7113"/><line class="cls-1" x1="2275.121" y1="609.4018" x2="2517.204" y2="609.4018"/><path class="cls-1" d="M2065.354,812.5358c0-37.3959,54.1921-67.7113,121.0415-67.7113s121.0415,30.3154,121.0415,67.7113"/><path class="cls-1" d="M2113.7706,812.5358c0-37.3959,32.5153-67.7113,72.6249-67.7113s72.6249,30.3154,72.6249,67.7113"/><path class="cls-1" d="M2162.1872,812.5358c0-37.3959,10.8384-67.7113,24.2083-67.7113s24.2083,30.3154,24.2083,67.7113"/><path class="cls-1" d="M2275.121,609.4018c0-19.58-39.7238-35.4527-88.7255-35.4527s-88.7255,15.8727-88.7255,35.4527"/><path class="cls-1" d="M2307.437,541.6905c0,37.3959-54.1921,67.7113-121.0415,67.7113s-121.0415-30.3154-121.0415-67.7113"/><path class="cls-1" d="M2259.0204,541.6905c0,37.3959-32.5153,67.7113-72.6249,67.7113s-72.6249-30.3154-72.6249-67.7113"/><path class="cls-1" d="M2210.6038,541.6905c0,37.3959-10.8384,67.7113-24.2083,67.7113s-24.2083-30.3154-24.2083-67.7113"/><line class="cls-1" x1="2065.354" y1="541.6905" x2="2307.437" y2="541.6905"/><line class="cls-1" x1="2065.354" y1="812.5358" x2="2307.437" y2="812.5358"/><ellipse class="cls-1" cx="88.7255" cy="1015.6697" rx="88.7255" ry="35.4527"/><ellipse class="cls-1" cx="88.7255" cy="880.2471" rx="88.7255" ry="35.4527"/><ellipse class="cls-1" cx="88.7255" cy="947.9584" rx="121.0415" ry="67.7113"/><ellipse class="cls-1" cx="88.7255" cy="947.9584" rx="72.6249" ry="67.7113"/><ellipse class="cls-1" cx="88.7255" cy="947.9584" rx="24.2083" ry="67.7113"/><line class="cls-1" x1="-32.3159" y1="947.9584" x2="209.767" y2="947.9584"/><path class="cls-1" d="M387.2181,1083.381c0-19.58-39.7238-35.4527-88.7255-35.4527s-88.7255,15.8727-88.7255,35.4527"/><ellipse class="cls-1" cx="298.4925" cy="947.9584" rx="88.7255" ry="35.4527"/><ellipse class="cls-1" cx="298.4925" cy="1015.6697" rx="121.0415" ry="67.7113"/><ellipse class="cls-1" cx="298.4925" cy="1015.6697" rx="72.6249" ry="67.7113"/><ellipse class="cls-1" cx="298.4925" cy="1015.6697" rx="24.2083" ry="67.7113"/><line class="cls-1" x1="177.4511" y1="1015.6697" x2="419.534" y2="1015.6697"/><path class="cls-1" d="M209.767,812.5358c0,19.58,39.7238,35.4527,88.7255,35.4527s88.7255-15.8727,88.7255-35.4527"/><ellipse class="cls-1" cx="298.4925" cy="880.2471" rx="121.0415" ry="67.7113"/><ellipse class="cls-1" cx="298.4925" cy="880.2471" rx="72.6249" ry="67.7113"/><ellipse class="cls-1" cx="298.4925" cy="880.2471" rx="24.2083" ry="67.7113"/><line class="cls-1" x1="177.4511" y1="880.2471" x2="419.534" y2="880.2471"/><path class="cls-1" d="M-32.3159,1083.381c0-37.3959,54.1921-67.7113,121.0415-67.7113s121.0415,30.3154,121.0415,67.7113"/><path class="cls-1" d="M16.1007,1083.381c0-37.3959,32.5153-67.7113,72.6249-67.7113s72.6249,30.3154,72.6249,67.7113"/><path class="cls-1" d="M64.5172,1083.381c0-37.3959,10.8384-67.7113,24.2083-67.7113s24.2083,30.3154,24.2083,67.7113"/><path class="cls-1" d="M177.4511,880.2471c0-19.58-39.7238-35.4527-88.7255-35.4527S0,860.6671,0,880.2471"/><path class="cls-1" d="M209.767,812.5358c0,37.3959-54.1921,67.7113-121.0415,67.7113s-121.0415-30.3154-121.0415-67.7113"/><path class="cls-1" d="M161.3504,812.5358c0,37.3959-32.5153,67.7113-72.6249,67.7113s-72.6249-30.3154-72.6249-67.7113"/><path class="cls-1" d="M112.9338,812.5358c0,37.3959-10.8384,67.7113-24.2083,67.7113s-24.2083-30.3154-24.2083-67.7113"/><line class="cls-1" x1="-32.3159" y1="812.5358" x2="209.767" y2="812.5358"/><ellipse class="cls-1" cx="88.7255" cy="1286.5149" rx="88.7255" ry="35.4527"/><ellipse class="cls-1" cx="88.7255" cy="1151.0923" rx="88.7255" ry="35.4527"/><ellipse class="cls-1" cx="88.7255" cy="1218.8036" rx="121.0415" ry="67.7113"/><ellipse class="cls-1" cx="88.7255" cy="1218.8036" rx="72.6249" ry="67.7113"/><ellipse class="cls-1" cx="88.7255" cy="1218.8036" rx="24.2083" ry="67.7113"/><line class="cls-1" x1="-32.3159" y1="1218.8036" x2="209.767" y2="1218.8036"/><path class="cls-1" d="M387.2181,1354.2263c0-19.58-39.7238-35.4527-88.7255-35.4527s-88.7255,15.8727-88.7255,35.4527"/><ellipse class="cls-1" cx="298.4925" cy="1218.8036" rx="88.7255" ry="35.4527"/><ellipse class="cls-1" cx="298.4925" cy="1286.5149" rx="121.0415" ry="67.7113"/><ellipse class="cls-1" cx="298.4925" cy="1286.5149" rx="72.6249" ry="67.7113"/><ellipse class="cls-1" cx="298.4925" cy="1286.5149" rx="24.2083" ry="67.7113"/><line class="cls-1" x1="177.4511" y1="1286.5149" x2="419.534" y2="1286.5149"/><path class="cls-1" d="M209.767,1083.381c0,19.58,39.7238,35.4527,88.7255,35.4527s88.7255-15.8727,88.7255-35.4527"/><ellipse class="cls-1" cx="298.4925" cy="1151.0923" rx="121.0415" ry="67.7113"/><ellipse class="cls-1" cx="298.4925" cy="1151.0923" rx="72.6249" ry="67.7113"/><ellipse class="cls-1" cx="298.4925" cy="1151.0923" rx="24.2083" ry="67.7113"/><line class="cls-1" x1="177.4511" y1="1151.0923" x2="419.534" y2="1151.0923"/><path class="cls-1" d="M-32.3159,1354.2263c0-37.3959,54.1921-67.7113,121.0415-67.7113s121.0415,30.3154,121.0415,67.7113"/><path class="cls-1" d="M16.1007,1354.2263c0-37.3959,32.5153-67.7113,72.6249-67.7113s72.6249,30.3154,72.6249,67.7113"/><path class="cls-1" d="M64.5172,1354.2263c0-37.3959,10.8384-67.7113,24.2083-67.7113s24.2083,30.3154,24.2083,67.7113"/><path class="cls-1" d="M177.4511,1151.0923c0-19.58-39.7238-35.4527-88.7255-35.4527S0,1131.5123,0,1151.0923"/><path class="cls-1" d="M209.767,1083.381c0,37.3959-54.1921,67.7113-121.0415,67.7113s-121.0415-30.3154-121.0415-67.7113"/><path class="cls-1" d="M161.3504,1083.381c0,37.3959-32.5153,67.7113-72.6249,67.7113s-72.6249-30.3154-72.6249-67.7113"/><path class="cls-1" d="M112.9338,1083.381c0,37.3959-10.8384,67.7113-24.2083,67.7113s-24.2083-30.3154-24.2083-67.7113"/><line class="cls-1" x1="-32.3159" y1="1083.381" x2="209.767" y2="1083.381"/><ellipse class="cls-1" cx="508.2595" cy="1015.6697" rx="88.7255" ry="35.4527"/><ellipse class="cls-1" cx="508.2595" cy="880.2471" rx="88.7255" ry="35.4527"/><ellipse class="cls-1" cx="508.2595" cy="947.9584" rx="121.0415" ry="67.7113"/><ellipse class="cls-1" cx="508.2595" cy="947.9584" rx="72.6249" ry="67.7113"/><ellipse class="cls-1" cx="508.2595" cy="947.9584" rx="24.2083" ry="67.7113"/><line class="cls-1" x1="387.2181" y1="947.9584" x2="629.301" y2="947.9584"/><path class="cls-1" d="M806.7521,1083.381c0-19.58-39.7238-35.4527-88.7255-35.4527s-88.7255,15.8727-88.7255,35.4527"/><ellipse class="cls-1" cx="718.0265" cy="947.9584" rx="88.7255" ry="35.4527"/><ellipse class="cls-1" cx="718.0265" cy="1015.6697" rx="121.0415" ry="67.7113"/><ellipse class="cls-1" cx="718.0265" cy="1015.6697" rx="72.6249" ry="67.7113"/><ellipse class="cls-1" cx="718.0265" cy="1015.6697" rx="24.2083" ry="67.7113"/><line class="cls-1" x1="596.9851" y1="1015.6697" x2="839.068" y2="1015.6697"/><path class="cls-1" d="M629.301,812.5358c0,19.58,39.7238,35.4527,88.7255,35.4527s88.7255-15.8727,88.7255-35.4527"/><ellipse class="cls-1" cx="718.0265" cy="880.2471" rx="121.0415" ry="67.7113"/><ellipse class="cls-1" cx="718.0265" cy="880.2471" rx="72.6249" ry="67.7113"/><ellipse class="cls-1" cx="718.0265" cy="880.2471" rx="24.2083" ry="67.7113"/><line class="cls-1" x1="596.9851" y1="880.2471" x2="839.068" y2="880.2471"/><path class="cls-1" d="M387.2181,1083.381c0-37.3959,54.1921-67.7113,121.0415-67.7113s121.0415,30.3154,121.0415,67.7113"/><path class="cls-1" d="M435.6347,1083.381c0-37.3959,32.5153-67.7113,72.6249-67.7113s72.6249,30.3154,72.6249,67.7113"/><path class="cls-1" d="M484.0512,1083.381c0-37.3959,10.8384-67.7113,24.2083-67.7113s24.2083,30.3154,24.2083,67.7113"/><path class="cls-1" d="M596.9851,880.2471c0-19.58-39.7238-35.4527-88.7255-35.4527s-88.7255,15.8727-88.7255,35.4527"/><path class="cls-1" d="M629.301,812.5358c0,37.3959-54.1921,67.7113-121.0415,67.7113s-121.0415-30.3154-121.0415-67.7113"/><path class="cls-1" d="M580.8844,812.5358c0,37.3959-32.5153,67.7113-72.6249,67.7113s-72.6249-30.3154-72.6249-67.7113"/><path class="cls-1" d="M532.4678,812.5358c0,37.3959-10.8384,67.7113-24.2083,67.7113s-24.2083-30.3154-24.2083-67.7113"/><line class="cls-1" x1="387.2181" y1="812.5358" x2="629.301" y2="812.5358"/><ellipse class="cls-1" cx="508.2595" cy="1286.5149" rx="88.7255" ry="35.4527"/><ellipse class="cls-1" cx="508.2595" cy="1151.0923" rx="88.7255" ry="35.4527"/><ellipse class="cls-1" cx="508.2595" cy="1218.8036" rx="121.0415" ry="67.7113"/><ellipse class="cls-1" cx="508.2595" cy="1218.8036" rx="72.6249" ry="67.7113"/><ellipse class="cls-1" cx="508.2595" cy="1218.8036" rx="24.2083" ry="67.7113"/><line class="cls-1" x1="387.2181" y1="1218.8036" x2="629.301" y2="1218.8036"/><path class="cls-1" d="M806.7521,1354.2263c0-19.58-39.7238-35.4527-88.7255-35.4527s-88.7255,15.8727-88.7255,35.4527"/><ellipse class="cls-1" cx="718.0265" cy="1218.8036" rx="88.7255" ry="35.4527"/><ellipse class="cls-1" cx="718.0265" cy="1286.5149" rx="121.0415" ry="67.7113"/><ellipse class="cls-1" cx="718.0265" cy="1286.5149" rx="72.6249" ry="67.7113"/><ellipse class="cls-1" cx="718.0265" cy="1286.5149" rx="24.2083" ry="67.7113"/><line class="cls-1" x1="596.9851" y1="1286.5149" x2="839.068" y2="1286.5149"/><path class="cls-1" d="M629.301,1083.381c0,19.58,39.7238,35.4527,88.7255,35.4527s88.7255-15.8727,88.7255-35.4527"/><ellipse class="cls-1" cx="718.0265" cy="1151.0923" rx="121.0415" ry="67.7113"/><ellipse class="cls-1" cx="718.0265" cy="1151.0923" rx="72.6249" ry="67.7113"/><ellipse class="cls-1" cx="718.0265" cy="1151.0923" rx="24.2083" ry="67.7113"/><line class="cls-1" x1="596.9851" y1="1151.0923" x2="839.068" y2="1151.0923"/><path class="cls-1" d="M387.2181,1354.2263c0-37.3959,54.1921-67.7113,121.0415-67.7113s121.0415,30.3154,121.0415,67.7113"/><path class="cls-1" d="M435.6347,1354.2263c0-37.3959,32.5153-67.7113,72.6249-67.7113s72.6249,30.3154,72.6249,67.7113"/><path class="cls-1" d="M484.0512,1354.2263c0-37.3959,10.8384-67.7113,24.2083-67.7113s24.2083,30.3154,24.2083,67.7113"/><path class="cls-1" d="M596.9851,1151.0923c0-19.58-39.7238-35.4527-88.7255-35.4527s-88.7255,15.8727-88.7255,35.4527"/><path class="cls-1" d="M629.301,1083.381c0,37.3959-54.1921,67.7113-121.0415,67.7113s-121.0415-30.3154-121.0415-67.7113"/><path class="cls-1" d="M580.8844,1083.381c0,37.3959-32.5153,67.7113-72.6249,67.7113s-72.6249-30.3154-72.6249-67.7113"/><path class="cls-1" d="M532.4678,1083.381c0,37.3959-10.8384,67.7113-24.2083,67.7113s-24.2083-30.3154-24.2083-67.7113"/><line class="cls-1" x1="387.2181" y1="1083.381" x2="629.301" y2="1083.381"/><ellipse class="cls-1" cx="927.7935" cy="1015.6697" rx="88.7255" ry="35.4527"/><ellipse class="cls-1" cx="927.7935" cy="880.2471" rx="88.7255" ry="35.4527"/><ellipse class="cls-1" cx="927.7935" cy="947.9584" rx="121.0415" ry="67.7113"/><ellipse class="cls-1" cx="927.7935" cy="947.9584" rx="72.6249" ry="67.7113"/><ellipse class="cls-1" cx="927.7935" cy="947.9584" rx="24.2083" ry="67.7113"/><line class="cls-1" x1="806.7521" y1="947.9584" x2="1048.835" y2="947.9584"/><path class="cls-1" d="M1226.2861,1083.381c0-19.58-39.7238-35.4527-88.7255-35.4527s-88.7255,15.8727-88.7255,35.4527"/><ellipse class="cls-1" cx="1137.5605" cy="947.9584" rx="88.7255" ry="35.4527"/><ellipse class="cls-1" cx="1137.5605" cy="1015.6697" rx="121.0415" ry="67.7113"/><ellipse class="cls-1" cx="1137.5605" cy="1015.6697" rx="72.6249" ry="67.7113"/><ellipse class="cls-1" cx="1137.5605" cy="1015.6697" rx="24.2083" ry="67.7113"/><line class="cls-1" x1="1016.5191" y1="1015.6697" x2="1258.602" y2="1015.6697"/><path class="cls-1" d="M1048.835,812.5358c0,19.58,39.7238,35.4527,88.7255,35.4527s88.7255-15.8727,88.7255-35.4527"/><ellipse class="cls-1" cx="1137.5605" cy="880.2471" rx="121.0415" ry="67.7113"/><ellipse class="cls-1" cx="1137.5605" cy="880.2471" rx="72.6249" ry="67.7113"/><ellipse class="cls-1" cx="1137.5605" cy="880.2471" rx="24.2083" ry="67.7113"/><line class="cls-1" x1="1016.5191" y1="880.2471" x2="1258.602" y2="880.2471"/><path class="cls-1" d="M806.7521,1083.381c0-37.3959,54.1921-67.7113,121.0415-67.7113s121.0415,30.3154,121.0415,67.7113"/><path class="cls-1" d="M855.1686,1083.381c0-37.3959,32.5153-67.7113,72.6249-67.7113s72.6249,30.3154,72.6249,67.7113"/><path class="cls-1" d="M903.5852,1083.381c0-37.3959,10.8384-67.7113,24.2083-67.7113s24.2083,30.3154,24.2083,67.7113"/><path class="cls-1" d="M1016.5191,880.2471c0-19.58-39.7238-35.4527-88.7255-35.4527s-88.7255,15.8727-88.7255,35.4527"/><path class="cls-1" d="M1048.835,812.5358c0,37.3959-54.1921,67.7113-121.0415,67.7113s-121.0415-30.3154-121.0415-67.7113"/><path class="cls-1" d="M1000.4184,812.5358c0,37.3959-32.5153,67.7113-72.6249,67.7113s-72.6249-30.3154-72.6249-67.7113"/><path class="cls-1" d="M952.0018,812.5358c0,37.3959-10.8384,67.7113-24.2083,67.7113s-24.2083-30.3154-24.2083-67.7113"/><line class="cls-1" x1="806.7521" y1="812.5358" x2="1048.835" y2="812.5358"/><ellipse class="cls-1" cx="927.7935" cy="1286.5149" rx="88.7255" ry="35.4527"/><ellipse class="cls-1" cx="927.7935" cy="1151.0923" rx="88.7255" ry="35.4527"/><ellipse class="cls-1" cx="927.7935" cy="1218.8036" rx="121.0415" ry="67.7113"/><ellipse class="cls-1" cx="927.7935" cy="1218.8036" rx="72.6249" ry="67.7113"/><ellipse class="cls-1" cx="927.7935" cy="1218.8036" rx="24.2083" ry="67.7113"/><line class="cls-1" x1="806.7521" y1="1218.8036" x2="1048.835" y2="1218.8036"/><path class="cls-1" d="M1226.2861,1354.2263c0-19.58-39.7238-35.4527-88.7255-35.4527s-88.7255,15.8727-88.7255,35.4527"/><ellipse class="cls-1" cx="1137.5605" cy="1218.8036" rx="88.7255" ry="35.4527"/><ellipse class="cls-1" cx="1137.5605" cy="1286.5149" rx="121.0415" ry="67.7113"/><ellipse class="cls-1" cx="1137.5605" cy="1286.5149" rx="72.6249" ry="67.7113"/><ellipse class="cls-1" cx="1137.5605" cy="1286.5149" rx="24.2083" ry="67.7113"/><line class="cls-1" x1="1016.5191" y1="1286.5149" x2="1258.602" y2="1286.5149"/><path class="cls-1" d="M1048.835,1083.381c0,19.58,39.7238,35.4527,88.7255,35.4527s88.7255-15.8727,88.7255-35.4527"/><ellipse class="cls-1" cx="1137.5605" cy="1151.0923" rx="121.0415" ry="67.7113"/><ellipse class="cls-1" cx="1137.5605" cy="1151.0923" rx="72.6249" ry="67.7113"/><ellipse class="cls-1" cx="1137.5605" cy="1151.0923" rx="24.2083" ry="67.7113"/><line class="cls-1" x1="1016.5191" y1="1151.0923" x2="1258.602" y2="1151.0923"/><path class="cls-1" d="M806.7521,1354.2263c0-37.3959,54.1921-67.7113,121.0415-67.7113s121.0415,30.3154,121.0415,67.7113"/><path class="cls-1" d="M855.1686,1354.2263c0-37.3959,32.5153-67.7113,72.6249-67.7113s72.6249,30.3154,72.6249,67.7113"/><path class="cls-1" d="M903.5852,1354.2263c0-37.3959,10.8384-67.7113,24.2083-67.7113s24.2083,30.3154,24.2083,67.7113"/><path class="cls-1" d="M1016.5191,1151.0923c0-19.58-39.7238-35.4527-88.7255-35.4527s-88.7255,15.8727-88.7255,35.4527"/><path class="cls-1" d="M1048.835,1083.381c0,37.3959-54.1921,67.7113-121.0415,67.7113s-121.0415-30.3154-121.0415-67.7113"/><path class="cls-1" d="M1000.4184,1083.381c0,37.3959-32.5153,67.7113-72.6249,67.7113s-72.6249-30.3154-72.6249-67.7113"/><path class="cls-1" d="M952.0018,1083.381c0,37.3959-10.8384,67.7113-24.2083,67.7113s-24.2083-30.3154-24.2083-67.7113"/><line class="cls-1" x1="806.7521" y1="1083.381" x2="1048.835" y2="1083.381"/><ellipse class="cls-1" cx="88.7255" cy="1557.3602" rx="88.7255" ry="35.4527"/><ellipse class="cls-1" cx="88.7255" cy="1421.9376" rx="88.7255" ry="35.4527"/><ellipse class="cls-1" cx="88.7255" cy="1489.6489" rx="121.0415" ry="67.7113"/><ellipse class="cls-1" cx="88.7255" cy="1489.6489" rx="72.6249" ry="67.7113"/><ellipse class="cls-1" cx="88.7255" cy="1489.6489" rx="24.2083" ry="67.7113"/><line class="cls-1" x1="-32.3159" y1="1489.6489" x2="209.767" y2="1489.6489"/><path class="cls-1" d="M387.2181,1625.0715c0-19.58-39.7238-35.4527-88.7255-35.4527s-88.7255,15.8727-88.7255,35.4527"/><ellipse class="cls-1" cx="298.4925" cy="1489.6489" rx="88.7255" ry="35.4527"/><ellipse class="cls-1" cx="298.4925" cy="1557.3602" rx="121.0415" ry="67.7113"/><ellipse class="cls-1" cx="298.4925" cy="1557.3602" rx="72.6249" ry="67.7113"/><ellipse class="cls-1" cx="298.4925" cy="1557.3602" rx="24.2083" ry="67.7113"/><line class="cls-1" x1="177.4511" y1="1557.3602" x2="419.534" y2="1557.3602"/><path class="cls-1" d="M209.767,1354.2263c0,19.58,39.7238,35.4527,88.7255,35.4527s88.7255-15.8727,88.7255-35.4527"/><ellipse class="cls-1" cx="298.4925" cy="1421.9376" rx="121.0415" ry="67.7113"/><ellipse class="cls-1" cx="298.4925" cy="1421.9376" rx="72.6249" ry="67.7113"/><ellipse class="cls-1" cx="298.4925" cy="1421.9376" rx="24.2083" ry="67.7113"/><line class="cls-1" x1="177.4511" y1="1421.9376" x2="419.534" y2="1421.9376"/><path class="cls-1" d="M-32.3159,1625.0715c0-37.3959,54.1921-67.7113,121.0415-67.7113s121.0415,30.3154,121.0415,67.7113"/><path class="cls-1" d="M16.1007,1625.0715c0-37.3959,32.5153-67.7113,72.6249-67.7113s72.6249,30.3154,72.6249,67.7113"/><path class="cls-1" d="M64.5172,1625.0715c0-37.3959,10.8384-67.7113,24.2083-67.7113s24.2083,30.3154,24.2083,67.7113"/><path class="cls-1" d="M177.4511,1421.9376c0-19.58-39.7238-35.4527-88.7255-35.4527S0,1402.3576,0,1421.9376"/><path class="cls-1" d="M209.767,1354.2263c0,37.3959-54.1921,67.7113-121.0415,67.7113s-121.0415-30.3154-121.0415-67.7113"/><path class="cls-1" d="M161.3504,1354.2263c0,37.3959-32.5153,67.7113-72.6249,67.7113s-72.6249-30.3154-72.6249-67.7113"/><path class="cls-1" d="M112.9338,1354.2263c0,37.3959-10.8384,67.7113-24.2083,67.7113s-24.2083-30.3154-24.2083-67.7113"/><line class="cls-1" x1="-32.3159" y1="1354.2263" x2="209.767" y2="1354.2263"/><line class="cls-1" x1="-32.3159" y1="1625.0715" x2="209.767" y2="1625.0715"/><ellipse class="cls-1" cx="508.2595" cy="1557.3602" rx="88.7255" ry="35.4527"/><ellipse class="cls-1" cx="508.2595" cy="1421.9376" rx="88.7255" ry="35.4527"/><ellipse class="cls-1" cx="508.2595" cy="1489.6489" rx="121.0415" ry="67.7113"/><ellipse class="cls-1" cx="508.2595" cy="1489.6489" rx="72.6249" ry="67.7113"/><ellipse class="cls-1" cx="508.2595" cy="1489.6489" rx="24.2083" ry="67.7113"/><line class="cls-1" x1="387.2181" y1="1489.6489" x2="629.301" y2="1489.6489"/><path class="cls-1" d="M806.7521,1625.0715c0-19.58-39.7238-35.4527-88.7255-35.4527s-88.7255,15.8727-88.7255,35.4527"/><ellipse class="cls-1" cx="718.0265" cy="1489.6489" rx="88.7255" ry="35.4527"/><ellipse class="cls-1" cx="718.0265" cy="1557.3602" rx="121.0415" ry="67.7113"/><ellipse class="cls-1" cx="718.0265" cy="1557.3602" rx="72.6249" ry="67.7113"/><ellipse class="cls-1" cx="718.0265" cy="1557.3602" rx="24.2083" ry="67.7113"/><line class="cls-1" x1="596.9851" y1="1557.3602" x2="839.068" y2="1557.3602"/><path class="cls-1" d="M629.301,1354.2263c0,19.58,39.7238,35.4527,88.7255,35.4527s88.7255-15.8727,88.7255-35.4527"/><ellipse class="cls-1" cx="718.0265" cy="1421.9376" rx="121.0415" ry="67.7113"/><ellipse class="cls-1" cx="718.0265" cy="1421.9376" rx="72.6249" ry="67.7113"/><ellipse class="cls-1" cx="718.0265" cy="1421.9376" rx="24.2083" ry="67.7113"/><line class="cls-1" x1="596.9851" y1="1421.9376" x2="839.068" y2="1421.9376"/><path class="cls-1" d="M387.2181,1625.0715c0-37.3959,54.1921-67.7113,121.0415-67.7113s121.0415,30.3154,121.0415,67.7113"/><path class="cls-1" d="M435.6347,1625.0715c0-37.3959,32.5153-67.7113,72.6249-67.7113s72.6249,30.3154,72.6249,67.7113"/><path class="cls-1" d="M484.0512,1625.0715c0-37.3959,10.8384-67.7113,24.2083-67.7113s24.2083,30.3154,24.2083,67.7113"/><path class="cls-1" d="M596.9851,1421.9376c0-19.58-39.7238-35.4527-88.7255-35.4527s-88.7255,15.8727-88.7255,35.4527"/><path class="cls-1" d="M629.301,1354.2263c0,37.3959-54.1921,67.7113-121.0415,67.7113s-121.0415-30.3154-121.0415-67.7113"/><path class="cls-1" d="M580.8844,1354.2263c0,37.3959-32.5153,67.7113-72.6249,67.7113s-72.6249-30.3154-72.6249-67.7113"/><path class="cls-1" d="M532.4678,1354.2263c0,37.3959-10.8384,67.7113-24.2083,67.7113s-24.2083-30.3154-24.2083-67.7113"/><line class="cls-1" x1="387.2181" y1="1354.2263" x2="629.301" y2="1354.2263"/><line class="cls-1" x1="387.2181" y1="1625.0715" x2="629.301" y2="1625.0715"/><ellipse class="cls-1" cx="927.7935" cy="1557.3602" rx="88.7255" ry="35.4527"/><ellipse class="cls-1" cx="927.7935" cy="1421.9376" rx="88.7255" ry="35.4527"/><ellipse class="cls-1" cx="927.7935" cy="1489.6489" rx="121.0415" ry="67.7113"/><ellipse class="cls-1" cx="927.7935" cy="1489.6489" rx="72.6249" ry="67.7113"/><ellipse class="cls-1" cx="927.7935" cy="1489.6489" rx="24.2083" ry="67.7113"/><line class="cls-1" x1="806.7521" y1="1489.6489" x2="1048.835" y2="1489.6489"/><path class="cls-1" d="M1226.2861,1625.0715c0-19.58-39.7238-35.4527-88.7255-35.4527s-88.7255,15.8727-88.7255,35.4527"/><ellipse class="cls-1" cx="1137.5605" cy="1489.6489" rx="88.7255" ry="35.4527"/><ellipse class="cls-1" cx="1137.5605" cy="1557.3602" rx="121.0415" ry="67.7113"/><ellipse class="cls-1" cx="1137.5605" cy="1557.3602" rx="72.6249" ry="67.7113"/><ellipse class="cls-1" cx="1137.5605" cy="1557.3602" rx="24.2083" ry="67.7113"/><line class="cls-1" x1="1016.5191" y1="1557.3602" x2="1258.602" y2="1557.3602"/><path class="cls-1" d="M1048.835,1354.2263c0,19.58,39.7238,35.4527,88.7255,35.4527s88.7255-15.8727,88.7255-35.4527"/><ellipse class="cls-1" cx="1137.5605" cy="1421.9376" rx="121.0415" ry="67.7113"/><ellipse class="cls-1" cx="1137.5605" cy="1421.9376" rx="72.6249" ry="67.7113"/><ellipse class="cls-1" cx="1137.5605" cy="1421.9376" rx="24.2083" ry="67.7113"/><line class="cls-1" x1="1016.5191" y1="1421.9376" x2="1258.602" y2="1421.9376"/><path class="cls-1" d="M806.7521,1625.0715c0-37.3959,54.1921-67.7113,121.0415-67.7113s121.0415,30.3154,121.0415,67.7113"/><path class="cls-1" d="M855.1686,1625.0715c0-37.3959,32.5153-67.7113,72.6249-67.7113s72.6249,30.3154,72.6249,67.7113"/><path class="cls-1" d="M903.5852,1625.0715c0-37.3959,10.8384-67.7113,24.2083-67.7113s24.2083,30.3154,24.2083,67.7113"/><path class="cls-1" d="M1016.5191,1421.9376c0-19.58-39.7238-35.4527-88.7255-35.4527s-88.7255,15.8727-88.7255,35.4527"/><path class="cls-1" d="M1048.835,1354.2263c0,37.3959-54.1921,67.7113-121.0415,67.7113s-121.0415-30.3154-121.0415-67.7113"/><path class="cls-1" d="M1000.4184,1354.2263c0,37.3959-32.5153,67.7113-72.6249,67.7113s-72.6249-30.3154-72.6249-67.7113"/><path class="cls-1" d="M952.0018,1354.2263c0,37.3959-10.8384,67.7113-24.2083,67.7113s-24.2083-30.3154-24.2083-67.7113"/><line class="cls-1" x1="806.7521" y1="1354.2263" x2="1048.835" y2="1354.2263"/><line class="cls-1" x1="806.7521" y1="1625.0715" x2="1048.835" y2="1625.0715"/><ellipse class="cls-1" cx="1347.3275" cy="1015.6697" rx="88.7255" ry="35.4527"/><ellipse class="cls-1" cx="1347.3275" cy="880.2471" rx="88.7255" ry="35.4527"/><ellipse class="cls-1" cx="1347.3275" cy="947.9584" rx="121.0415" ry="67.7113"/><ellipse class="cls-1" cx="1347.3275" cy="947.9584" rx="72.6249" ry="67.7113"/><ellipse class="cls-1" cx="1347.3275" cy="947.9584" rx="24.2083" ry="67.7113"/><line class="cls-1" x1="1226.2861" y1="947.9584" x2="1468.369" y2="947.9584"/><path class="cls-1" d="M1645.8201,1083.381c0-19.58-39.7238-35.4527-88.7255-35.4527s-88.7255,15.8727-88.7255,35.4527"/><ellipse class="cls-1" cx="1557.0945" cy="947.9584" rx="88.7255" ry="35.4527"/><ellipse class="cls-1" cx="1557.0945" cy="1015.6697" rx="121.0415" ry="67.7113"/><ellipse class="cls-1" cx="1557.0945" cy="1015.6697" rx="72.6249" ry="67.7113"/><ellipse class="cls-1" cx="1557.0945" cy="1015.6697" rx="24.2083" ry="67.7113"/><line class="cls-1" x1="1436.0531" y1="1015.6697" x2="1678.136" y2="1015.6697"/><path class="cls-1" d="M1468.369,812.5358c0,19.58,39.7238,35.4527,88.7255,35.4527s88.7255-15.8727,88.7255-35.4527"/><ellipse class="cls-1" cx="1557.0945" cy="880.2471" rx="121.0415" ry="67.7113"/><ellipse class="cls-1" cx="1557.0945" cy="880.2471" rx="72.6249" ry="67.7113"/><ellipse class="cls-1" cx="1557.0945" cy="880.2471" rx="24.2083" ry="67.7113"/><line class="cls-1" x1="1436.0531" y1="880.2471" x2="1678.136" y2="880.2471"/><path class="cls-1" d="M1226.2861,1083.381c0-37.3959,54.1921-67.7113,121.0415-67.7113s121.0415,30.3154,121.0415,67.7113"/><path class="cls-1" d="M1274.7026,1083.381c0-37.3959,32.5153-67.7113,72.6249-67.7113s72.6249,30.3154,72.6249,67.7113"/><path class="cls-1" d="M1323.1192,1083.381c0-37.3959,10.8384-67.7113,24.2083-67.7113s24.2083,30.3154,24.2083,67.7113"/><path class="cls-1" d="M1436.0531,880.2471c0-19.58-39.7238-35.4527-88.7255-35.4527s-88.7255,15.8727-88.7255,35.4527"/><path class="cls-1" d="M1468.369,812.5358c0,37.3959-54.1921,67.7113-121.0415,67.7113s-121.0415-30.3154-121.0415-67.7113"/><path class="cls-1" d="M1419.9524,812.5358c0,37.3959-32.5153,67.7113-72.6249,67.7113s-72.6249-30.3154-72.6249-67.7113"/><path class="cls-1" d="M1371.5358,812.5358c0,37.3959-10.8384,67.7113-24.2083,67.7113s-24.2083-30.3154-24.2083-67.7113"/><line class="cls-1" x1="1226.2861" y1="812.5358" x2="1468.369" y2="812.5358"/><ellipse class="cls-1" cx="1347.3275" cy="1286.5149" rx="88.7255" ry="35.4527"/><ellipse class="cls-1" cx="1347.3275" cy="1151.0923" rx="88.7255" ry="35.4527"/><ellipse class="cls-1" cx="1347.3275" cy="1218.8036" rx="121.0415" ry="67.7113"/><ellipse class="cls-1" cx="1347.3275" cy="1218.8036" rx="72.6249" ry="67.7113"/><ellipse class="cls-1" cx="1347.3275" cy="1218.8036" rx="24.2083" ry="67.7113"/><line class="cls-1" x1="1226.2861" y1="1218.8036" x2="1468.369" y2="1218.8036"/><path class="cls-1" d="M1645.8201,1354.2263c0-19.58-39.7238-35.4527-88.7255-35.4527s-88.7255,15.8727-88.7255,35.4527"/><ellipse class="cls-1" cx="1557.0945" cy="1218.8036" rx="88.7255" ry="35.4527"/><ellipse class="cls-1" cx="1557.0945" cy="1286.5149" rx="121.0415" ry="67.7113"/><ellipse class="cls-1" cx="1557.0945" cy="1286.5149" rx="72.6249" ry="67.7113"/><ellipse class="cls-1" cx="1557.0945" cy="1286.5149" rx="24.2083" ry="67.7113"/><line class="cls-1" x1="1436.0531" y1="1286.5149" x2="1678.136" y2="1286.5149"/><path class="cls-1" d="M1468.369,1083.381c0,19.58,39.7238,35.4527,88.7255,35.4527s88.7255-15.8727,88.7255-35.4527"/><ellipse class="cls-1" cx="1557.0945" cy="1151.0923" rx="121.0415" ry="67.7113"/><ellipse class="cls-1" cx="1557.0945" cy="1151.0923" rx="72.6249" ry="67.7113"/><ellipse class="cls-1" cx="1557.0945" cy="1151.0923" rx="24.2083" ry="67.7113"/><line class="cls-1" x1="1436.0531" y1="1151.0923" x2="1678.136" y2="1151.0923"/><path class="cls-1" d="M1226.2861,1354.2263c0-37.3959,54.1921-67.7113,121.0415-67.7113s121.0415,30.3154,121.0415,67.7113"/><path class="cls-1" d="M1274.7026,1354.2263c0-37.3959,32.5153-67.7113,72.6249-67.7113s72.6249,30.3154,72.6249,67.7113"/><path class="cls-1" d="M1323.1192,1354.2263c0-37.3959,10.8384-67.7113,24.2083-67.7113s24.2083,30.3154,24.2083,67.7113"/><path class="cls-1" d="M1436.0531,1151.0923c0-19.58-39.7238-35.4527-88.7255-35.4527s-88.7255,15.8727-88.7255,35.4527"/><path class="cls-1" d="M1468.369,1083.381c0,37.3959-54.1921,67.7113-121.0415,67.7113s-121.0415-30.3154-121.0415-67.7113"/><path class="cls-1" d="M1419.9524,1083.381c0,37.3959-32.5153,67.7113-72.6249,67.7113s-72.6249-30.3154-72.6249-67.7113"/><path class="cls-1" d="M1371.5358,1083.381c0,37.3959-10.8384,67.7113-24.2083,67.7113s-24.2083-30.3154-24.2083-67.7113"/><line class="cls-1" x1="1226.2861" y1="1083.381" x2="1468.369" y2="1083.381"/><ellipse class="cls-1" cx="1766.8615" cy="1015.6697" rx="88.7255" ry="35.4527"/><ellipse class="cls-1" cx="1766.8615" cy="880.2471" rx="88.7255" ry="35.4527"/><ellipse class="cls-1" cx="1766.8615" cy="947.9584" rx="121.0415" ry="67.7113"/><ellipse class="cls-1" cx="1766.8615" cy="947.9584" rx="72.6249" ry="67.7113"/><ellipse class="cls-1" cx="1766.8615" cy="947.9584" rx="24.2083" ry="67.7113"/><line class="cls-1" x1="1645.8201" y1="947.9584" x2="1887.903" y2="947.9584"/><path class="cls-1" d="M2065.354,1083.381c0-19.58-39.7238-35.4527-88.7255-35.4527s-88.7255,15.8727-88.7255,35.4527"/><ellipse class="cls-1" cx="1976.6285" cy="947.9584" rx="88.7255" ry="35.4527"/><ellipse class="cls-1" cx="1976.6285" cy="1015.6697" rx="121.0415" ry="67.7113"/><ellipse class="cls-1" cx="1976.6285" cy="1015.6697" rx="72.6249" ry="67.7113"/><ellipse class="cls-1" cx="1976.6285" cy="1015.6697" rx="24.2083" ry="67.7113"/><line class="cls-1" x1="1855.587" y1="1015.6697" x2="2097.67" y2="1015.6697"/><path class="cls-1" d="M1887.903,812.5358c0,19.58,39.7238,35.4527,88.7255,35.4527s88.7255-15.8727,88.7255-35.4527"/><ellipse class="cls-1" cx="1976.6285" cy="880.2471" rx="121.0415" ry="67.7113"/><ellipse class="cls-1" cx="1976.6285" cy="880.2471" rx="72.6249" ry="67.7113"/><ellipse class="cls-1" cx="1976.6285" cy="880.2471" rx="24.2083" ry="67.7113"/><line class="cls-1" x1="1855.587" y1="880.2471" x2="2097.67" y2="880.2471"/><path class="cls-1" d="M1645.8201,1083.381c0-37.3959,54.1921-67.7113,121.0415-67.7113s121.0415,30.3154,121.0415,67.7113"/><path class="cls-1" d="M1694.2366,1083.381c0-37.3959,32.5153-67.7113,72.6249-67.7113s72.6249,30.3154,72.6249,67.7113"/><path class="cls-1" d="M1742.6532,1083.381c0-37.3959,10.8384-67.7113,24.2083-67.7113s24.2083,30.3154,24.2083,67.7113"/><path class="cls-1" d="M1855.587,880.2471c0-19.58-39.7238-35.4527-88.7255-35.4527s-88.7255,15.8727-88.7255,35.4527"/><path class="cls-1" d="M1887.903,812.5358c0,37.3959-54.1921,67.7113-121.0415,67.7113s-121.0415-30.3154-121.0415-67.7113"/><path class="cls-1" d="M1839.4864,812.5358c0,37.3959-32.5153,67.7113-72.6249,67.7113s-72.6249-30.3154-72.6249-67.7113"/><path class="cls-1" d="M1791.0698,812.5358c0,37.3959-10.8384,67.7113-24.2083,67.7113s-24.2083-30.3154-24.2083-67.7113"/><line class="cls-1" x1="1645.8201" y1="812.5358" x2="1887.903" y2="812.5358"/><ellipse class="cls-1" cx="1766.8615" cy="1286.5149" rx="88.7255" ry="35.4527"/><ellipse class="cls-1" cx="1766.8615" cy="1151.0923" rx="88.7255" ry="35.4527"/><ellipse class="cls-1" cx="1766.8615" cy="1218.8036" rx="121.0415" ry="67.7113"/><ellipse class="cls-1" cx="1766.8615" cy="1218.8036" rx="72.6249" ry="67.7113"/><ellipse class="cls-1" cx="1766.8615" cy="1218.8036" rx="24.2083" ry="67.7113"/><line class="cls-1" x1="1645.8201" y1="1218.8036" x2="1887.903" y2="1218.8036"/><path class="cls-1" d="M2065.354,1354.2263c0-19.58-39.7238-35.4527-88.7255-35.4527s-88.7255,15.8727-88.7255,35.4527"/><ellipse class="cls-1" cx="1976.6285" cy="1218.8036" rx="88.7255" ry="35.4527"/><ellipse class="cls-1" cx="1976.6285" cy="1286.5149" rx="121.0415" ry="67.7113"/><ellipse class="cls-1" cx="1976.6285" cy="1286.5149" rx="72.6249" ry="67.7113"/><ellipse class="cls-1" cx="1976.6285" cy="1286.5149" rx="24.2083" ry="67.7113"/><line class="cls-1" x1="1855.587" y1="1286.5149" x2="2097.67" y2="1286.5149"/><path class="cls-1" d="M1887.903,1083.381c0,19.58,39.7238,35.4527,88.7255,35.4527s88.7255-15.8727,88.7255-35.4527"/><ellipse class="cls-1" cx="1976.6285" cy="1151.0923" rx="121.0415" ry="67.7113"/><ellipse class="cls-1" cx="1976.6285" cy="1151.0923" rx="72.6249" ry="67.7113"/><ellipse class="cls-1" cx="1976.6285" cy="1151.0923" rx="24.2083" ry="67.7113"/><line class="cls-1" x1="1855.587" y1="1151.0923" x2="2097.67" y2="1151.0923"/><path class="cls-1" d="M1645.8201,1354.2263c0-37.3959,54.1921-67.7113,121.0415-67.7113s121.0415,30.3154,121.0415,67.7113"/><path class="cls-1" d="M1694.2366,1354.2263c0-37.3959,32.5153-67.7113,72.6249-67.7113s72.6249,30.3154,72.6249,67.7113"/><path class="cls-1" d="M1742.6532,1354.2263c0-37.3959,10.8384-67.7113,24.2083-67.7113s24.2083,30.3154,24.2083,67.7113"/><path class="cls-1" d="M1855.587,1151.0923c0-19.58-39.7238-35.4527-88.7255-35.4527s-88.7255,15.8727-88.7255,35.4527"/><path class="cls-1" d="M1887.903,1083.381c0,37.3959-54.1921,67.7113-121.0415,67.7113s-121.0415-30.3154-121.0415-67.7113"/><path class="cls-1" d="M1839.4864,1083.381c0,37.3959-32.5153,67.7113-72.6249,67.7113s-72.6249-30.3154-72.6249-67.7113"/><path class="cls-1" d="M1791.0698,1083.381c0,37.3959-10.8384,67.7113-24.2083,67.7113s-24.2083-30.3154-24.2083-67.7113"/><line class="cls-1" x1="1645.8201" y1="1083.381" x2="1887.903" y2="1083.381"/><ellipse class="cls-1" cx="2186.3955" cy="1015.6697" rx="88.7255" ry="35.4527"/><ellipse class="cls-1" cx="2186.3955" cy="880.2471" rx="88.7255" ry="35.4527"/><ellipse class="cls-1" cx="2186.3955" cy="947.9584" rx="121.0415" ry="67.7113"/><ellipse class="cls-1" cx="2186.3955" cy="947.9584" rx="72.6249" ry="67.7113"/><ellipse class="cls-1" cx="2186.3955" cy="947.9584" rx="24.2083" ry="67.7113"/><line class="cls-1" x1="2065.354" y1="947.9584" x2="2307.437" y2="947.9584"/><path class="cls-1" d="M2484.888,1083.381c0-19.58-39.7238-35.4527-88.7255-35.4527s-88.7255,15.8727-88.7255,35.4527"/><ellipse class="cls-1" cx="2396.1625" cy="947.9584" rx="88.7255" ry="35.4527"/><ellipse class="cls-1" cx="2396.1625" cy="1015.6697" rx="121.0415" ry="67.7113"/><ellipse class="cls-1" cx="2396.1625" cy="1015.6697" rx="72.6249" ry="67.7113"/><ellipse class="cls-1" cx="2396.1625" cy="1015.6697" rx="24.2083" ry="67.7113"/><line class="cls-1" x1="2275.121" y1="1015.6697" x2="2517.204" y2="1015.6697"/><path class="cls-1" d="M2307.437,812.5358c0,19.58,39.7238,35.4527,88.7255,35.4527s88.7255-15.8727,88.7255-35.4527"/><ellipse class="cls-1" cx="2396.1625" cy="880.2471" rx="121.0415" ry="67.7113"/><ellipse class="cls-1" cx="2396.1625" cy="880.2471" rx="72.6249" ry="67.7113"/><ellipse class="cls-1" cx="2396.1625" cy="880.2471" rx="24.2083" ry="67.7113"/><line class="cls-1" x1="2275.121" y1="880.2471" x2="2517.204" y2="880.2471"/><path class="cls-1" d="M2065.354,1083.381c0-37.3959,54.1921-67.7113,121.0415-67.7113s121.0415,30.3154,121.0415,67.7113"/><path class="cls-1" d="M2113.7706,1083.381c0-37.3959,32.5153-67.7113,72.6249-67.7113s72.6249,30.3154,72.6249,67.7113"/><path class="cls-1" d="M2162.1872,1083.381c0-37.3959,10.8384-67.7113,24.2083-67.7113s24.2083,30.3154,24.2083,67.7113"/><path class="cls-1" d="M2275.121,880.2471c0-19.58-39.7238-35.4527-88.7255-35.4527s-88.7255,15.8727-88.7255,35.4527"/><path class="cls-1" d="M2307.437,812.5358c0,37.3959-54.1921,67.7113-121.0415,67.7113s-121.0415-30.3154-121.0415-67.7113"/><path class="cls-1" d="M2259.0204,812.5358c0,37.3959-32.5153,67.7113-72.6249,67.7113s-72.6249-30.3154-72.6249-67.7113"/><path class="cls-1" d="M2210.6038,812.5358c0,37.3959-10.8384,67.7113-24.2083,67.7113s-24.2083-30.3154-24.2083-67.7113"/><line class="cls-1" x1="2065.354" y1="812.5358" x2="2307.437" y2="812.5358"/><ellipse class="cls-1" cx="2186.3955" cy="1286.5149" rx="88.7255" ry="35.4527"/><ellipse class="cls-1" cx="2186.3955" cy="1151.0923" rx="88.7255" ry="35.4527"/><ellipse class="cls-1" cx="2186.3955" cy="1218.8036" rx="121.0415" ry="67.7113"/><ellipse class="cls-1" cx="2186.3955" cy="1218.8036" rx="72.6249" ry="67.7113"/><ellipse class="cls-1" cx="2186.3955" cy="1218.8036" rx="24.2083" ry="67.7113"/><line class="cls-1" x1="2065.354" y1="1218.8036" x2="2307.437" y2="1218.8036"/><path class="cls-1" d="M2484.888,1354.2263c0-19.58-39.7238-35.4527-88.7255-35.4527s-88.7255,15.8727-88.7255,35.4527"/><ellipse class="cls-1" cx="2396.1625" cy="1218.8036" rx="88.7255" ry="35.4527"/><ellipse class="cls-1" cx="2396.1625" cy="1286.5149" rx="121.0415" ry="67.7113"/><ellipse class="cls-1" cx="2396.1625" cy="1286.5149" rx="72.6249" ry="67.7113"/><ellipse class="cls-1" cx="2396.1625" cy="1286.5149" rx="24.2083" ry="67.7113"/><line class="cls-1" x1="2275.121" y1="1286.5149" x2="2517.204" y2="1286.5149"/><path class="cls-1" d="M2307.437,1083.381c0,19.58,39.7238,35.4527,88.7255,35.4527s88.7255-15.8727,88.7255-35.4527"/><ellipse class="cls-1" cx="2396.1625" cy="1151.0923" rx="121.0415" ry="67.7113"/><ellipse class="cls-1" cx="2396.1625" cy="1151.0923" rx="72.6249" ry="67.7113"/><ellipse class="cls-1" cx="2396.1625" cy="1151.0923" rx="24.2083" ry="67.7113"/><line class="cls-1" x1="2275.121" y1="1151.0923" x2="2517.204" y2="1151.0923"/><path class="cls-1" d="M2065.354,1354.2263c0-37.3959,54.1921-67.7113,121.0415-67.7113s121.0415,30.3154,121.0415,67.7113"/><path class="cls-1" d="M2113.7706,1354.2263c0-37.3959,32.5153-67.7113,72.6249-67.7113s72.6249,30.3154,72.6249,67.7113"/><path class="cls-1" d="M2162.1872,1354.2263c0-37.3959,10.8384-67.7113,24.2083-67.7113s24.2083,30.3154,24.2083,67.7113"/><path class="cls-1" d="M2275.121,1151.0923c0-19.58-39.7238-35.4527-88.7255-35.4527s-88.7255,15.8727-88.7255,35.4527"/><path class="cls-1" d="M2307.437,1083.381c0,37.3959-54.1921,67.7113-121.0415,67.7113s-121.0415-30.3154-121.0415-67.7113"/><path class="cls-1" d="M2259.0204,1083.381c0,37.3959-32.5153,67.7113-72.6249,67.7113s-72.6249-30.3154-72.6249-67.7113"/><path class="cls-1" d="M2210.6038,1083.381c0,37.3959-10.8384,67.7113-24.2083,67.7113s-24.2083-30.3154-24.2083-67.7113"/><line class="cls-1" x1="2065.354" y1="1083.381" x2="2307.437" y2="1083.381"/><ellipse class="cls-1" cx="1347.3275" cy="1557.3602" rx="88.7255" ry="35.4527"/><ellipse class="cls-1" cx="1347.3275" cy="1421.9376" rx="88.7255" ry="35.4527"/><ellipse class="cls-1" cx="1347.3275" cy="1489.6489" rx="121.0415" ry="67.7113"/><ellipse class="cls-1" cx="1347.3275" cy="1489.6489" rx="72.6249" ry="67.7113"/><ellipse class="cls-1" cx="1347.3275" cy="1489.6489" rx="24.2083" ry="67.7113"/><line class="cls-1" x1="1226.2861" y1="1489.6489" x2="1468.369" y2="1489.6489"/><path class="cls-1" d="M1645.8201,1625.0715c0-19.58-39.7238-35.4527-88.7255-35.4527s-88.7255,15.8727-88.7255,35.4527"/><ellipse class="cls-1" cx="1557.0945" cy="1489.6489" rx="88.7255" ry="35.4527"/><ellipse class="cls-1" cx="1557.0945" cy="1557.3602" rx="121.0415" ry="67.7113"/><ellipse class="cls-1" cx="1557.0945" cy="1557.3602" rx="72.6249" ry="67.7113"/><ellipse class="cls-1" cx="1557.0945" cy="1557.3602" rx="24.2083" ry="67.7113"/><line class="cls-1" x1="1436.0531" y1="1557.3602" x2="1678.136" y2="1557.3602"/><path class="cls-1" d="M1468.369,1354.2263c0,19.58,39.7238,35.4527,88.7255,35.4527s88.7255-15.8727,88.7255-35.4527"/><ellipse class="cls-1" cx="1557.0945" cy="1421.9376" rx="121.0415" ry="67.7113"/><ellipse class="cls-1" cx="1557.0945" cy="1421.9376" rx="72.6249" ry="67.7113"/><ellipse class="cls-1" cx="1557.0945" cy="1421.9376" rx="24.2083" ry="67.7113"/><line class="cls-1" x1="1436.0531" y1="1421.9376" x2="1678.136" y2="1421.9376"/><path class="cls-1" d="M1226.2861,1625.0715c0-37.3959,54.1921-67.7113,121.0415-67.7113s121.0415,30.3154,121.0415,67.7113"/><path class="cls-1" d="M1274.7026,1625.0715c0-37.3959,32.5153-67.7113,72.6249-67.7113s72.6249,30.3154,72.6249,67.7113"/><path class="cls-1" d="M1323.1192,1625.0715c0-37.3959,10.8384-67.7113,24.2083-67.7113s24.2083,30.3154,24.2083,67.7113"/><path class="cls-1" d="M1436.0531,1421.9376c0-19.58-39.7238-35.4527-88.7255-35.4527s-88.7255,15.8727-88.7255,35.4527"/><path class="cls-1" d="M1468.369,1354.2263c0,37.3959-54.1921,67.7113-121.0415,67.7113s-121.0415-30.3154-121.0415-67.7113"/><path class="cls-1" d="M1419.9524,1354.2263c0,37.3959-32.5153,67.7113-72.6249,67.7113s-72.6249-30.3154-72.6249-67.7113"/><path class="cls-1" d="M1371.5358,1354.2263c0,37.3959-10.8384,67.7113-24.2083,67.7113s-24.2083-30.3154-24.2083-67.7113"/><line class="cls-1" x1="1226.2861" y1="1354.2263" x2="1468.369" y2="1354.2263"/><line class="cls-1" x1="1226.2861" y1="1625.0715" x2="1468.369" y2="1625.0715"/><ellipse class="cls-1" cx="1766.8615" cy="1557.3602" rx="88.7255" ry="35.4527"/><ellipse class="cls-1" cx="1766.8615" cy="1421.9376" rx="88.7255" ry="35.4527"/><ellipse class="cls-1" cx="1766.8615" cy="1489.6489" rx="121.0415" ry="67.7113"/><ellipse class="cls-1" cx="1766.8615" cy="1489.6489" rx="72.6249" ry="67.7113"/><ellipse class="cls-1" cx="1766.8615" cy="1489.6489" rx="24.2083" ry="67.7113"/><line class="cls-1" x1="1645.8201" y1="1489.6489" x2="1887.903" y2="1489.6489"/><path class="cls-1" d="M2065.354,1625.0715c0-19.58-39.7238-35.4527-88.7255-35.4527s-88.7255,15.8727-88.7255,35.4527"/><ellipse class="cls-1" cx="1976.6285" cy="1489.6489" rx="88.7255" ry="35.4527"/><ellipse class="cls-1" cx="1976.6285" cy="1557.3602" rx="121.0415" ry="67.7113"/><ellipse class="cls-1" cx="1976.6285" cy="1557.3602" rx="72.6249" ry="67.7113"/><ellipse class="cls-1" cx="1976.6285" cy="1557.3602" rx="24.2083" ry="67.7113"/><line class="cls-1" x1="1855.587" y1="1557.3602" x2="2097.67" y2="1557.3602"/><path class="cls-1" d="M1887.903,1354.2263c0,19.58,39.7238,35.4527,88.7255,35.4527s88.7255-15.8727,88.7255-35.4527"/><ellipse class="cls-1" cx="1976.6285" cy="1421.9376" rx="121.0415" ry="67.7113"/><ellipse class="cls-1" cx="1976.6285" cy="1421.9376" rx="72.6249" ry="67.7113"/><ellipse class="cls-1" cx="1976.6285" cy="1421.9376" rx="24.2083" ry="67.7113"/><line class="cls-1" x1="1855.587" y1="1421.9376" x2="2097.67" y2="1421.9376"/><path class="cls-1" d="M1645.8201,1625.0715c0-37.3959,54.1921-67.7113,121.0415-67.7113s121.0415,30.3154,121.0415,67.7113"/><path class="cls-1" d="M1694.2366,1625.0715c0-37.3959,32.5153-67.7113,72.6249-67.7113s72.6249,30.3154,72.6249,67.7113"/><path class="cls-1" d="M1742.6532,1625.0715c0-37.3959,10.8384-67.7113,24.2083-67.7113s24.2083,30.3154,24.2083,67.7113"/><path class="cls-1" d="M1855.587,1421.9376c0-19.58-39.7238-35.4527-88.7255-35.4527s-88.7255,15.8727-88.7255,35.4527"/><path class="cls-1" d="M1887.903,1354.2263c0,37.3959-54.1921,67.7113-121.0415,67.7113s-121.0415-30.3154-121.0415-67.7113"/><path class="cls-1" d="M1839.4864,1354.2263c0,37.3959-32.5153,67.7113-72.6249,67.7113s-72.6249-30.3154-72.6249-67.7113"/><path class="cls-1" d="M1791.0698,1354.2263c0,37.3959-10.8384,67.7113-24.2083,67.7113s-24.2083-30.3154-24.2083-67.7113"/><line class="cls-1" x1="1645.8201" y1="1354.2263" x2="1887.903" y2="1354.2263"/><line class="cls-1" x1="1645.8201" y1="1625.0715" x2="1887.903" y2="1625.0715"/><ellipse class="cls-1" cx="2186.3955" cy="1557.3602" rx="88.7255" ry="35.4527"/><ellipse class="cls-1" cx="2186.3955" cy="1421.9376" rx="88.7255" ry="35.4527"/><ellipse class="cls-1" cx="2186.3955" cy="1489.6489" rx="121.0415" ry="67.7113"/><ellipse class="cls-1" cx="2186.3955" cy="1489.6489" rx="72.6249" ry="67.7113"/><ellipse class="cls-1" cx="2186.3955" cy="1489.6489" rx="24.2083" ry="67.7113"/><line class="cls-1" x1="2065.354" y1="1489.6489" x2="2307.437" y2="1489.6489"/><path class="cls-1" d="M2484.888,1625.0715c0-19.58-39.7238-35.4527-88.7255-35.4527s-88.7255,15.8727-88.7255,35.4527"/><ellipse class="cls-1" cx="2396.1625" cy="1489.6489" rx="88.7255" ry="35.4527"/><ellipse class="cls-1" cx="2396.1625" cy="1557.3602" rx="121.0415" ry="67.7113"/><ellipse class="cls-1" cx="2396.1625" cy="1557.3602" rx="72.6249" ry="67.7113"/><ellipse class="cls-1" cx="2396.1625" cy="1557.3602" rx="24.2083" ry="67.7113"/><line class="cls-1" x1="2275.121" y1="1557.3602" x2="2517.204" y2="1557.3602"/><path class="cls-1" d="M2307.437,1354.2263c0,19.58,39.7238,35.4527,88.7255,35.4527s88.7255-15.8727,88.7255-35.4527"/><ellipse class="cls-1" cx="2396.1625" cy="1421.9376" rx="121.0415" ry="67.7113"/><ellipse class="cls-1" cx="2396.1625" cy="1421.9376" rx="72.6249" ry="67.7113"/><ellipse class="cls-1" cx="2396.1625" cy="1421.9376" rx="24.2083" ry="67.7113"/><line class="cls-1" x1="2275.121" y1="1421.9376" x2="2517.204" y2="1421.9376"/><path class="cls-1" d="M2065.354,1625.0715c0-37.3959,54.1921-67.7113,121.0415-67.7113s121.0415,30.3154,121.0415,67.7113"/><path class="cls-1" d="M2113.7706,1625.0715c0-37.3959,32.5153-67.7113,72.6249-67.7113s72.6249,30.3154,72.6249,67.7113"/><path class="cls-1" d="M2162.1872,1625.0715c0-37.3959,10.8384-67.7113,24.2083-67.7113s24.2083,30.3154,24.2083,67.7113"/><path class="cls-1" d="M2275.121,1421.9376c0-19.58-39.7238-35.4527-88.7255-35.4527s-88.7255,15.8727-88.7255,35.4527"/><path class="cls-1" d="M2307.437,1354.2263c0,37.3959-54.1921,67.7113-121.0415,67.7113s-121.0415-30.3154-121.0415-67.7113"/><path class="cls-1" d="M2259.0204,1354.2263c0,37.3959-32.5153,67.7113-72.6249,67.7113s-72.6249-30.3154-72.6249-67.7113"/><path class="cls-1" d="M2210.6038,1354.2263c0,37.3959-10.8384,67.7113-24.2083,67.7113s-24.2083-30.3154-24.2083-67.7113"/><line class="cls-1" x1="2065.354" y1="1354.2263" x2="2307.437" y2="1354.2263"/><line class="cls-1" x1="2065.354" y1="1625.0715" x2="2307.437" y2="1625.0715"/></svg>