<?xml version="1.0" encoding="UTF-8"?><svg id="Layer_1" xmlns="http://www.w3.org/2000/svg" viewBox="0 0 2645.4051 1627.9416"><defs><style>.cls-1{fill:none;stroke:#000;stroke-linecap:round;stroke-miterlimit:10;stroke-width:5px;}</style></defs><circle class="cls-1" cx="101.7463" cy="101.7463" r="51.768"/><circle class="cls-1" cx="101.7463" cy="101.7463" r="82.4757"/><line class="cls-1" x1="80.6861" y1="101.7463" y2="101.7463"/><line class="cls-1" x1="203.4927" y1="101.7463" x2="122.8066" y2="101.7463"/><line class="cls-1" x1="101.7463" y1="122.8066" x2="101.7463" y2="203.4927"/><line class="cls-1" x1="101.7463" x2="101.7463" y2="80.6861"/><line class="cls-1" x1="86.8545" y1="116.6382" x2="0" y2="203.4927"/><line class="cls-1" x1="203.4927" y1="0" x2="116.6382" y2="86.8545"/><line class="cls-1" x1="116.6382" y1="116.6382" x2="203.4927" y2="203.4927"/><line class="cls-1" x2="86.8545" y2="86.8545"/><circle class="cls-1" cx="101.7463" cy="101.7463" r="21.0603"/><circle class="cls-1" cx="305.239" cy="101.7463" r="51.768"/><circle class="cls-1" cx="305.239" cy="101.7463" r="82.4757"/><line class="cls-1" x1="284.1788" y1="101.7463" x2="203.4927" y2="101.7463"/><line class="cls-1" x1="406.9854" y1="101.7463" x2="326.2993" y2="101.7463"/><line class="cls-1" x1="305.239" y1="122.8066" x2="305.239" y2="203.4927"/><line class="cls-1" x1="305.239" x2="305.239" y2="80.6861"/><line class="cls-1" x1="290.3472" y1="116.6382" x2="203.4927" y2="203.4927"/><line class="cls-1" x1="406.9854" y1="0" x2="320.1309" y2="86.8545"/><line class="cls-1" x1="320.1309" y1="116.6382" x2="406.9854" y2="203.4927"/><line class="cls-1" x1="203.4927" x2="290.3472" y2="86.8545"/><circle class="cls-1" cx="305.239" cy="101.7463" r="21.0603"/><circle class="cls-1" cx="508.7317" cy="101.7463" r="51.768"/><circle class="cls-1" cx="508.7317" cy="101.7463" r="82.4757"/><line class="cls-1" x1="487.6715" y1="101.7463" x2="406.9854" y2="101.7463"/><line class="cls-1" x1="610.4781" y1="101.7463" x2="529.792" y2="101.7463"/><line class="cls-1" x1="508.7317" y1="122.8066" x2="508.7317" y2="203.4927"/><line class="cls-1" x1="508.7317" x2="508.7317" y2="80.6861"/><line class="cls-1" x1="493.8399" y1="116.6382" x2="406.9854" y2="203.4927"/><line class="cls-1" x1="610.4781" y1="0" x2="523.6236" y2="86.8545"/><line class="cls-1" x1="523.6236" y1="116.6382" x2="610.4781" y2="203.4927"/><line class="cls-1" x1="406.9854" x2="493.8399" y2="86.8545"/><circle class="cls-1" cx="508.7317" cy="101.7463" r="21.0603"/><circle class="cls-1" cx="712.2244" cy="101.7463" r="51.768"/><circle class="cls-1" cx="712.2244" cy="101.7463" r="82.4757"/><line class="cls-1" x1="691.1642" y1="101.7463" x2="610.4781" y2="101.7463"/><line class="cls-1" x1="813.9708" y1="101.7463" x2="733.2847" y2="101.7463"/><line class="cls-1" x1="712.2244" y1="122.8066" x2="712.2244" y2="203.4927"/><line class="cls-1" x1="712.2244" x2="712.2244" y2="80.6861"/><line class="cls-1" x1="697.3326" y1="116.6382" x2="610.4781" y2="203.4927"/><line class="cls-1" x1="813.9708" y1="0" x2="727.1163" y2="86.8545"/><line class="cls-1" x1="727.1163" y1="116.6382" x2="813.9708" y2="203.4927"/><line class="cls-1" x1="610.4781" x2="697.3326" y2="86.8545"/><circle class="cls-1" cx="712.2244" cy="101.7463" r="21.0603"/><circle class="cls-1" cx="915.7171" cy="101.7463" r="51.768"/><circle class="cls-1" cx="915.7171" cy="101.7463" r="82.4757"/><line class="cls-1" x1="894.6569" y1="101.7463" x2="813.9708" y2="101.7463"/><line class="cls-1" x1="1017.4635" y1="101.7463" x2="936.7774" y2="101.7463"/><line class="cls-1" x1="915.7171" y1="122.8066" x2="915.7171" y2="203.4927"/><line class="cls-1" x1="915.7171" x2="915.7171" y2="80.6861"/><line class="cls-1" x1="900.8253" y1="116.6382" x2="813.9708" y2="203.4927"/><line class="cls-1" x1="1017.4635" y1="0" x2="930.609" y2="86.8545"/><line class="cls-1" x1="930.609" y1="116.6382" x2="1017.4635" y2="203.4927"/><line class="cls-1" x1="813.9708" x2="900.8253" y2="86.8545"/><circle class="cls-1" cx="915.7171" cy="101.7463" r="21.0603"/><circle class="cls-1" cx="1119.2098" cy="101.7463" r="51.768"/><circle class="cls-1" cx="1119.2098" cy="101.7463" r="82.4757"/><line class="cls-1" x1="1098.1496" y1="101.7463" x2="1017.4635" y2="101.7463"/><line class="cls-1" x1="1220.9562" y1="101.7463" x2="1140.2701" y2="101.7463"/><line class="cls-1" x1="1119.2098" y1="122.8066" x2="1119.2098" y2="203.4927"/><line class="cls-1" x1="1119.2098" x2="1119.2098" y2="80.6861"/><line class="cls-1" x1="1104.318" y1="116.6382" x2="1017.4635" y2="203.4927"/><line class="cls-1" x1="1220.9562" y1="0" x2="1134.1017" y2="86.8545"/><line class="cls-1" x1="1134.1017" y1="116.6382" x2="1220.9562" y2="203.4927"/><line class="cls-1" x1="1017.4635" x2="1104.318" y2="86.8545"/><circle class="cls-1" cx="1119.2098" cy="101.7463" r="21.0603"/><circle class="cls-1" cx="1322.7025" cy="101.7463" r="51.768"/><circle class="cls-1" cx="1322.7025" cy="101.7463" r="82.4757"/><line class="cls-1" x1="1301.6423" y1="101.7463" x2="1220.9562" y2="101.7463"/><line class="cls-1" x1="1424.4489" y1="101.7463" x2="1343.7628" y2="101.7463"/><line class="cls-1" x1="1322.7025" y1="122.8066" x2="1322.7025" y2="203.4927"/><line class="cls-1" x1="1322.7025" x2="1322.7025" y2="80.6861"/><line class="cls-1" x1="1307.8107" y1="116.6382" x2="1220.9562" y2="203.4927"/><line class="cls-1" x1="1424.4489" y1="0" x2="1337.5944" y2="86.8545"/><line class="cls-1" x1="1337.5944" y1="116.6382" x2="1424.4489" y2="203.4927"/><line class="cls-1" x1="1220.9562" x2="1307.8107" y2="86.8545"/><circle class="cls-1" cx="1322.7025" cy="101.7463" r="21.0603"/><circle class="cls-1" cx="1526.1952" cy="101.7463" r="51.768"/><circle class="cls-1" cx="1526.1952" cy="101.7463" r="82.4757"/><line class="cls-1" x1="1505.135" y1="101.7463" x2="1424.4489" y2="101.7463"/><line class="cls-1" x1="1627.9416" y1="101.7463" x2="1547.2555" y2="101.7463"/><line class="cls-1" x1="1526.1952" y1="122.8066" x2="1526.1952" y2="203.4927"/><line class="cls-1" x1="1526.1952" x2="1526.1952" y2="80.6861"/><line class="cls-1" x1="1511.3034" y1="116.6382" x2="1424.4489" y2="203.4927"/><line class="cls-1" x1="1627.9416" y1="0" x2="1541.0871" y2="86.8545"/><line class="cls-1" x1="1541.0871" y1="116.6382" x2="1627.9416" y2="203.4927"/><line class="cls-1" x1="1424.4489" x2="1511.3034" y2="86.8545"/><circle class="cls-1" cx="1526.1952" cy="101.7463" r="21.0603"/><circle class="cls-1" cx="1729.6879" cy="101.7463" r="51.768"/><circle class="cls-1" cx="1729.6879" cy="101.7463" r="82.4757"/><line class="cls-1" x1="1708.6276" y1="101.7463" x2="1627.9416" y2="101.7463"/><line class="cls-1" x1="1831.4343" y1="101.7463" x2="1750.7482" y2="101.7463"/><line class="cls-1" x1="1729.6879" y1="122.8066" x2="1729.6879" y2="203.4927"/><line class="cls-1" x1="1729.6879" x2="1729.6879" y2="80.6861"/><line class="cls-1" x1="1714.7961" y1="116.6382" x2="1627.9416" y2="203.4927"/><line class="cls-1" x1="1831.4343" y1="0" x2="1744.5798" y2="86.8545"/><line class="cls-1" x1="1744.5798" y1="116.6382" x2="1831.4343" y2="203.4927"/><line class="cls-1" x1="1627.9416" x2="1714.7961" y2="86.8545"/><circle class="cls-1" cx="1729.6879" cy="101.7463" r="21.0603"/><circle class="cls-1" cx="1933.1806" cy="101.7463" r="51.768"/><circle class="cls-1" cx="1933.1806" cy="101.7463" r="82.4757"/><line class="cls-1" x1="1912.1203" y1="101.7463" x2="1831.4343" y2="101.7463"/><line class="cls-1" x1="2034.927" y1="101.7463" x2="1954.2409" y2="101.7463"/><line class="cls-1" x1="1933.1806" y1="122.8066" x2="1933.1806" y2="203.4927"/><line class="cls-1" x1="1933.1806" x2="1933.1806" y2="80.6861"/><line class="cls-1" x1="1918.2888" y1="116.6382" x2="1831.4343" y2="203.4927"/><line class="cls-1" x1="2034.927" y1="0" x2="1948.0725" y2="86.8545"/><line class="cls-1" x1="1948.0725" y1="116.6382" x2="2034.927" y2="203.4927"/><line class="cls-1" x1="1831.4343" x2="1918.2888" y2="86.8545"/><circle class="cls-1" cx="1933.1806" cy="101.7463" r="21.0603"/><circle class="cls-1" cx="2136.6733" cy="101.7463" r="51.768"/><circle class="cls-1" cx="2136.6733" cy="101.7463" r="82.4757"/><line class="cls-1" x1="2115.613" y1="101.7463" x2="2034.927" y2="101.7463"/><line class="cls-1" x1="2238.4197" y1="101.7463" x2="2157.7336" y2="101.7463"/><line class="cls-1" x1="2136.6733" y1="122.8066" x2="2136.6733" y2="203.4927"/><line class="cls-1" x1="2136.6733" x2="2136.6733" y2="80.6861"/><line class="cls-1" x1="2121.7815" y1="116.6382" x2="2034.927" y2="203.4927"/><line class="cls-1" x1="2238.4197" y1="0" x2="2151.5652" y2="86.8545"/><line class="cls-1" x1="2151.5652" y1="116.6382" x2="2238.4197" y2="203.4927"/><line class="cls-1" x1="2034.927" x2="2121.7815" y2="86.8545"/><circle class="cls-1" cx="2136.6733" cy="101.7463" r="21.0603"/><circle class="cls-1" cx="2340.166" cy="101.7463" r="51.768"/><circle class="cls-1" cx="2340.166" cy="101.7463" r="82.4757"/><line class="cls-1" x1="2319.1057" y1="101.7463" x2="2238.4197" y2="101.7463"/><line class="cls-1" x1="2441.9124" y1="101.7463" x2="2361.2263" y2="101.7463"/><line class="cls-1" x1="2340.166" y1="122.8066" x2="2340.166" y2="203.4927"/><line class="cls-1" x1="2340.166" x2="2340.166" y2="80.6861"/><line class="cls-1" x1="2325.2742" y1="116.6382" x2="2238.4197" y2="203.4927"/><line class="cls-1" x1="2441.9124" y1="0" x2="2355.0579" y2="86.8545"/><line class="cls-1" x1="2355.0579" y1="116.6382" x2="2441.9124" y2="203.4927"/><line class="cls-1" x1="2238.4197" x2="2325.2742" y2="86.8545"/><circle class="cls-1" cx="2340.166" cy="101.7463" r="21.0603"/><circle class="cls-1" cx="2543.6587" cy="101.7463" r="51.768"/><circle class="cls-1" cx="2543.6587" cy="101.7463" r="82.4757"/><line class="cls-1" x1="2522.5984" y1="101.7463" x2="2441.9124" y2="101.7463"/><line class="cls-1" x1="2645.4051" y1="101.7463" x2="2564.719" y2="101.7463"/><line class="cls-1" x1="2543.6587" y1="122.8066" x2="2543.6587" y2="203.4927"/><line class="cls-1" x1="2543.6587" x2="2543.6587" y2="80.6861"/><line class="cls-1" x1="2528.7668" y1="116.6382" x2="2441.9124" y2="203.4927"/><line class="cls-1" x1="2645.4051" y1="0" x2="2558.5506" y2="86.8545"/><line class="cls-1" x1="2558.5506" y1="116.6382" x2="2645.4051" y2="203.4927"/><line class="cls-1" x1="2441.9124" x2="2528.7668" y2="86.8545"/><circle class="cls-1" cx="2543.6587" cy="101.7463" r="21.0603"/><circle class="cls-1" cx="101.7463" cy="305.239" r="51.768"/><circle class="cls-1" cx="101.7463" cy="305.239" r="82.4757"/><line class="cls-1" x1="80.6861" y1="305.239" y2="305.239"/><line class="cls-1" x1="203.4927" y1="305.239" x2="122.8066" y2="305.239"/><line class="cls-1" x1="101.7463" y1="326.2993" x2="101.7463" y2="406.9854"/><line class="cls-1" x1="101.7463" y1="203.4927" x2="101.7463" y2="284.1788"/><line class="cls-1" x1="86.8545" y1="320.1309" x2="0" y2="406.9854"/><line class="cls-1" x1="203.4927" y1="203.4927" x2="116.6382" y2="290.3472"/><line class="cls-1" x1="116.6382" y1="320.1309" x2="203.4927" y2="406.9854"/><line class="cls-1" y1="203.4927" x2="86.8545" y2="290.3472"/><circle class="cls-1" cx="101.7463" cy="305.239" r="21.0603"/><circle class="cls-1" cx="305.239" cy="305.239" r="51.768"/><circle class="cls-1" cx="305.239" cy="305.239" r="82.4757"/><line class="cls-1" x1="284.1788" y1="305.239" x2="203.4927" y2="305.239"/><line class="cls-1" x1="406.9854" y1="305.239" x2="326.2993" y2="305.239"/><line class="cls-1" x1="305.239" y1="326.2993" x2="305.239" y2="406.9854"/><line class="cls-1" x1="305.239" y1="203.4927" x2="305.239" y2="284.1788"/><line class="cls-1" x1="290.3472" y1="320.1309" x2="203.4927" y2="406.9854"/><line class="cls-1" x1="406.9854" y1="203.4927" x2="320.1309" y2="290.3472"/><line class="cls-1" x1="320.1309" y1="320.1309" x2="406.9854" y2="406.9854"/><line class="cls-1" x1="203.4927" y1="203.4927" x2="290.3472" y2="290.3472"/><circle class="cls-1" cx="305.239" cy="305.239" r="21.0603"/><circle class="cls-1" cx="508.7317" cy="305.239" r="51.768"/><circle class="cls-1" cx="508.7317" cy="305.239" r="82.4757"/><line class="cls-1" x1="487.6715" y1="305.239" x2="406.9854" y2="305.239"/><line class="cls-1" x1="610.4781" y1="305.239" x2="529.792" y2="305.239"/><line class="cls-1" x1="508.7317" y1="326.2993" x2="508.7317" y2="406.9854"/><line class="cls-1" x1="508.7317" y1="203.4927" x2="508.7317" y2="284.1788"/><line class="cls-1" x1="493.8399" y1="320.1309" x2="406.9854" y2="406.9854"/><line class="cls-1" x1="610.4781" y1="203.4927" x2="523.6236" y2="290.3472"/><line class="cls-1" x1="523.6236" y1="320.1309" x2="610.4781" y2="406.9854"/><line class="cls-1" x1="406.9854" y1="203.4927" x2="493.8399" y2="290.3472"/><circle class="cls-1" cx="508.7317" cy="305.239" r="21.0603"/><circle class="cls-1" cx="712.2244" cy="305.239" r="51.768"/><circle class="cls-1" cx="712.2244" cy="305.239" r="82.4757"/><line class="cls-1" x1="691.1642" y1="305.239" x2="610.4781" y2="305.239"/><line class="cls-1" x1="813.9708" y1="305.239" x2="733.2847" y2="305.239"/><line class="cls-1" x1="712.2244" y1="326.2993" x2="712.2244" y2="406.9854"/><line class="cls-1" x1="712.2244" y1="203.4927" x2="712.2244" y2="284.1788"/><line class="cls-1" x1="697.3326" y1="320.1309" x2="610.4781" y2="406.9854"/><line class="cls-1" x1="813.9708" y1="203.4927" x2="727.1163" y2="290.3472"/><line class="cls-1" x1="727.1163" y1="320.1309" x2="813.9708" y2="406.9854"/><line class="cls-1" x1="610.4781" y1="203.4927" x2="697.3326" y2="290.3472"/><circle class="cls-1" cx="712.2244" cy="305.239" r="21.0603"/><circle class="cls-1" cx="915.7171" cy="305.239" r="51.768"/><circle class="cls-1" cx="915.7171" cy="305.239" r="82.4757"/><line class="cls-1" x1="894.6569" y1="305.239" x2="813.9708" y2="305.239"/><line class="cls-1" x1="1017.4635" y1="305.239" x2="936.7774" y2="305.239"/><line class="cls-1" x1="915.7171" y1="326.2993" x2="915.7171" y2="406.9854"/><line class="cls-1" x1="915.7171" y1="203.4927" x2="915.7171" y2="284.1788"/><line class="cls-1" x1="900.8253" y1="320.1309" x2="813.9708" y2="406.9854"/><line class="cls-1" x1="1017.4635" y1="203.4927" x2="930.609" y2="290.3472"/><line class="cls-1" x1="930.609" y1="320.1309" x2="1017.4635" y2="406.9854"/><line class="cls-1" x1="813.9708" y1="203.4927" x2="900.8253" y2="290.3472"/><circle class="cls-1" cx="915.7171" cy="305.239" r="21.0603"/><circle class="cls-1" cx="1119.2098" cy="305.239" r="51.768"/><circle class="cls-1" cx="1119.2098" cy="305.239" r="82.4757"/><line class="cls-1" x1="1098.1496" y1="305.239" x2="1017.4635" y2="305.239"/><line class="cls-1" x1="1220.9562" y1="305.239" x2="1140.2701" y2="305.239"/><line class="cls-1" x1="1119.2098" y1="326.2993" x2="1119.2098" y2="406.9854"/><line class="cls-1" x1="1119.2098" y1="203.4927" x2="1119.2098" y2="284.1788"/><line class="cls-1" x1="1104.318" y1="320.1309" x2="1017.4635" y2="406.9854"/><line class="cls-1" x1="1220.9562" y1="203.4927" x2="1134.1017" y2="290.3472"/><line class="cls-1" x1="1134.1017" y1="320.1309" x2="1220.9562" y2="406.9854"/><line class="cls-1" x1="1017.4635" y1="203.4927" x2="1104.318" y2="290.3472"/><circle class="cls-1" cx="1119.2098" cy="305.239" r="21.0603"/><circle class="cls-1" cx="1322.7025" cy="305.239" r="51.768"/><circle class="cls-1" cx="1322.7025" cy="305.239" r="82.4757"/><line class="cls-1" x1="1301.6423" y1="305.239" x2="1220.9562" y2="305.239"/><line class="cls-1" x1="1424.4489" y1="305.239" x2="1343.7628" y2="305.239"/><line class="cls-1" x1="1322.7025" y1="326.2993" x2="1322.7025" y2="406.9854"/><line class="cls-1" x1="1322.7025" y1="203.4927" x2="1322.7025" y2="284.1788"/><line class="cls-1" x1="1307.8107" y1="320.1309" x2="1220.9562" y2="406.9854"/><line class="cls-1" x1="1424.4489" y1="203.4927" x2="1337.5944" y2="290.3472"/><line class="cls-1" x1="1337.5944" y1="320.1309" x2="1424.4489" y2="406.9854"/><line class="cls-1" x1="1220.9562" y1="203.4927" x2="1307.8107" y2="290.3472"/><circle class="cls-1" cx="1322.7025" cy="305.239" r="21.0603"/><circle class="cls-1" cx="1526.1952" cy="305.239" r="51.768"/><circle class="cls-1" cx="1526.1952" cy="305.239" r="82.4757"/><line class="cls-1" x1="1505.135" y1="305.239" x2="1424.4489" y2="305.239"/><line class="cls-1" x1="1627.9416" y1="305.239" x2="1547.2555" y2="305.239"/><line class="cls-1" x1="1526.1952" y1="326.2993" x2="1526.1952" y2="406.9854"/><line class="cls-1" x1="1526.1952" y1="203.4927" x2="1526.1952" y2="284.1788"/><line class="cls-1" x1="1511.3034" y1="320.1309" x2="1424.4489" y2="406.9854"/><line class="cls-1" x1="1627.9416" y1="203.4927" x2="1541.0871" y2="290.3472"/><line class="cls-1" x1="1541.0871" y1="320.1309" x2="1627.9416" y2="406.9854"/><line class="cls-1" x1="1424.4489" y1="203.4927" x2="1511.3034" y2="290.3472"/><circle class="cls-1" cx="1526.1952" cy="305.239" r="21.0603"/><circle class="cls-1" cx="1729.6879" cy="305.239" r="51.768"/><circle class="cls-1" cx="1729.6879" cy="305.239" r="82.4757"/><line class="cls-1" x1="1708.6276" y1="305.239" x2="1627.9416" y2="305.239"/><line class="cls-1" x1="1831.4343" y1="305.239" x2="1750.7482" y2="305.239"/><line class="cls-1" x1="1729.6879" y1="326.2993" x2="1729.6879" y2="406.9854"/><line class="cls-1" x1="1729.6879" y1="203.4927" x2="1729.6879" y2="284.1788"/><line class="cls-1" x1="1714.7961" y1="320.1309" x2="1627.9416" y2="406.9854"/><line class="cls-1" x1="1831.4343" y1="203.4927" x2="1744.5798" y2="290.3472"/><line class="cls-1" x1="1744.5798" y1="320.1309" x2="1831.4343" y2="406.9854"/><line class="cls-1" x1="1627.9416" y1="203.4927" x2="1714.7961" y2="290.3472"/><circle class="cls-1" cx="1729.6879" cy="305.239" r="21.0603"/><circle class="cls-1" cx="1933.1806" cy="305.239" r="51.768"/><circle class="cls-1" cx="1933.1806" cy="305.239" r="82.4757"/><line class="cls-1" x1="1912.1203" y1="305.239" x2="1831.4343" y2="305.239"/><line class="cls-1" x1="2034.927" y1="305.239" x2="1954.2409" y2="305.239"/><line class="cls-1" x1="1933.1806" y1="326.2993" x2="1933.1806" y2="406.9854"/><line class="cls-1" x1="1933.1806" y1="203.4927" x2="1933.1806" y2="284.1788"/><line class="cls-1" x1="1918.2888" y1="320.1309" x2="1831.4343" y2="406.9854"/><line class="cls-1" x1="2034.927" y1="203.4927" x2="1948.0725" y2="290.3472"/><line class="cls-1" x1="1948.0725" y1="320.1309" x2="2034.927" y2="406.9854"/><line class="cls-1" x1="1831.4343" y1="203.4927" x2="1918.2888" y2="290.3472"/><circle class="cls-1" cx="1933.1806" cy="305.239" r="21.0603"/><circle class="cls-1" cx="2136.6733" cy="305.239" r="51.768"/><circle class="cls-1" cx="2136.6733" cy="305.239" r="82.4757"/><line class="cls-1" x1="2115.613" y1="305.239" x2="2034.927" y2="305.239"/><line class="cls-1" x1="2238.4197" y1="305.239" x2="2157.7336" y2="305.239"/><line class="cls-1" x1="2136.6733" y1="326.2993" x2="2136.6733" y2="406.9854"/><line class="cls-1" x1="2136.6733" y1="203.4927" x2="2136.6733" y2="284.1788"/><line class="cls-1" x1="2121.7815" y1="320.1309" x2="2034.927" y2="406.9854"/><line class="cls-1" x1="2238.4197" y1="203.4927" x2="2151.5652" y2="290.3472"/><line class="cls-1" x1="2151.5652" y1="320.1309" x2="2238.4197" y2="406.9854"/><line class="cls-1" x1="2034.927" y1="203.4927" x2="2121.7815" y2="290.3472"/><circle class="cls-1" cx="2136.6733" cy="305.239" r="21.0603"/><circle class="cls-1" cx="2340.166" cy="305.239" r="51.768"/><circle class="cls-1" cx="2340.166" cy="305.239" r="82.4757"/><line class="cls-1" x1="2319.1057" y1="305.239" x2="2238.4197" y2="305.239"/><line class="cls-1" x1="2441.9124" y1="305.239" x2="2361.2263" y2="305.239"/><line class="cls-1" x1="2340.166" y1="326.2993" x2="2340.166" y2="406.9854"/><line class="cls-1" x1="2340.166" y1="203.4927" x2="2340.166" y2="284.1788"/><line class="cls-1" x1="2325.2742" y1="320.1309" x2="2238.4197" y2="406.9854"/><line class="cls-1" x1="2441.9124" y1="203.4927" x2="2355.0579" y2="290.3472"/><line class="cls-1" x1="2355.0579" y1="320.1309" x2="2441.9124" y2="406.9854"/><line class="cls-1" x1="2238.4197" y1="203.4927" x2="2325.2742" y2="290.3472"/><circle class="cls-1" cx="2340.166" cy="305.239" r="21.0603"/><circle class="cls-1" cx="2543.6587" cy="305.239" r="51.768"/><circle class="cls-1" cx="2543.6587" cy="305.239" r="82.4757"/><line class="cls-1" x1="2522.5984" y1="305.239" x2="2441.9124" y2="305.239"/><line class="cls-1" x1="2645.4051" y1="305.239" x2="2564.719" y2="305.239"/><line class="cls-1" x1="2543.6587" y1="326.2993" x2="2543.6587" y2="406.9854"/><line class="cls-1" x1="2543.6587" y1="203.4927" x2="2543.6587" y2="284.1788"/><line class="cls-1" x1="2528.7668" y1="320.1309" x2="2441.9124" y2="406.9854"/><line class="cls-1" x1="2645.4051" y1="203.4927" x2="2558.5506" y2="290.3472"/><line class="cls-1" x1="2558.5506" y1="320.1309" x2="2645.4051" y2="406.9854"/><line class="cls-1" x1="2441.9124" y1="203.4927" x2="2528.7668" y2="290.3472"/><circle class="cls-1" cx="2543.6587" cy="305.239" r="21.0603"/><circle class="cls-1" cx="101.7463" cy="508.7317" r="51.768"/><circle class="cls-1" cx="101.7463" cy="508.7317" r="82.4757"/><line class="cls-1" x1="80.6861" y1="508.7317" y2="508.7317"/><line class="cls-1" x1="203.4927" y1="508.7317" x2="122.8066" y2="508.7317"/><line class="cls-1" x1="101.7463" y1="529.792" x2="101.7463" y2="610.4781"/><line class="cls-1" x1="101.7463" y1="406.9854" x2="101.7463" y2="487.6715"/><line class="cls-1" x1="86.8545" y1="523.6236" x2="0" y2="610.4781"/><line class="cls-1" x1="203.4927" y1="406.9854" x2="116.6382" y2="493.8399"/><line class="cls-1" x1="116.6382" y1="523.6236" x2="203.4927" y2="610.4781"/><line class="cls-1" y1="406.9854" x2="86.8545" y2="493.8399"/><circle class="cls-1" cx="101.7463" cy="508.7317" r="21.0603"/><circle class="cls-1" cx="305.239" cy="508.7317" r="51.768"/><circle class="cls-1" cx="305.239" cy="508.7317" r="82.4757"/><line class="cls-1" x1="284.1788" y1="508.7317" x2="203.4927" y2="508.7317"/><line class="cls-1" x1="406.9854" y1="508.7317" x2="326.2993" y2="508.7317"/><line class="cls-1" x1="305.239" y1="529.792" x2="305.239" y2="610.4781"/><line class="cls-1" x1="305.239" y1="406.9854" x2="305.239" y2="487.6715"/><line class="cls-1" x1="290.3472" y1="523.6236" x2="203.4927" y2="610.4781"/><line class="cls-1" x1="406.9854" y1="406.9854" x2="320.1309" y2="493.8399"/><line class="cls-1" x1="320.1309" y1="523.6236" x2="406.9854" y2="610.4781"/><line class="cls-1" x1="203.4927" y1="406.9854" x2="290.3472" y2="493.8399"/><circle class="cls-1" cx="305.239" cy="508.7317" r="21.0603"/><circle class="cls-1" cx="508.7317" cy="508.7317" r="51.768"/><circle class="cls-1" cx="508.7317" cy="508.7317" r="82.4757"/><line class="cls-1" x1="487.6715" y1="508.7317" x2="406.9854" y2="508.7317"/><line class="cls-1" x1="610.4781" y1="508.7317" x2="529.792" y2="508.7317"/><line class="cls-1" x1="508.7317" y1="529.792" x2="508.7317" y2="610.4781"/><line class="cls-1" x1="508.7317" y1="406.9854" x2="508.7317" y2="487.6715"/><line class="cls-1" x1="493.8399" y1="523.6236" x2="406.9854" y2="610.4781"/><line class="cls-1" x1="610.4781" y1="406.9854" x2="523.6236" y2="493.8399"/><line class="cls-1" x1="523.6236" y1="523.6236" x2="610.4781" y2="610.4781"/><line class="cls-1" x1="406.9854" y1="406.9854" x2="493.8399" y2="493.8399"/><circle class="cls-1" cx="508.7317" cy="508.7317" r="21.0603"/><circle class="cls-1" cx="712.2244" cy="508.7317" r="51.768"/><circle class="cls-1" cx="712.2244" cy="508.7317" r="82.4757"/><line class="cls-1" x1="691.1642" y1="508.7317" x2="610.4781" y2="508.7317"/><line class="cls-1" x1="813.9708" y1="508.7317" x2="733.2847" y2="508.7317"/><line class="cls-1" x1="712.2244" y1="529.792" x2="712.2244" y2="610.4781"/><line class="cls-1" x1="712.2244" y1="406.9854" x2="712.2244" y2="487.6715"/><line class="cls-1" x1="697.3326" y1="523.6236" x2="610.4781" y2="610.4781"/><line class="cls-1" x1="813.9708" y1="406.9854" x2="727.1163" y2="493.8399"/><line class="cls-1" x1="727.1163" y1="523.6236" x2="813.9708" y2="610.4781"/><line class="cls-1" x1="610.4781" y1="406.9854" x2="697.3326" y2="493.8399"/><circle class="cls-1" cx="712.2244" cy="508.7317" r="21.0603"/><circle class="cls-1" cx="915.7171" cy="508.7317" r="51.768"/><circle class="cls-1" cx="915.7171" cy="508.7317" r="82.4757"/><line class="cls-1" x1="894.6569" y1="508.7317" x2="813.9708" y2="508.7317"/><line class="cls-1" x1="1017.4635" y1="508.7317" x2="936.7774" y2="508.7317"/><line class="cls-1" x1="915.7171" y1="529.792" x2="915.7171" y2="610.4781"/><line class="cls-1" x1="915.7171" y1="406.9854" x2="915.7171" y2="487.6715"/><line class="cls-1" x1="900.8253" y1="523.6236" x2="813.9708" y2="610.4781"/><line class="cls-1" x1="1017.4635" y1="406.9854" x2="930.609" y2="493.8399"/><line class="cls-1" x1="930.609" y1="523.6236" x2="1017.4635" y2="610.4781"/><line class="cls-1" x1="813.9708" y1="406.9854" x2="900.8253" y2="493.8399"/><circle class="cls-1" cx="915.7171" cy="508.7317" r="21.0603"/><circle class="cls-1" cx="1119.2098" cy="508.7317" r="51.768"/><circle class="cls-1" cx="1119.2098" cy="508.7317" r="82.4757"/><line class="cls-1" x1="1098.1496" y1="508.7317" x2="1017.4635" y2="508.7317"/><line class="cls-1" x1="1220.9562" y1="508.7317" x2="1140.2701" y2="508.7317"/><line class="cls-1" x1="1119.2098" y1="529.792" x2="1119.2098" y2="610.4781"/><line class="cls-1" x1="1119.2098" y1="406.9854" x2="1119.2098" y2="487.6715"/><line class="cls-1" x1="1104.318" y1="523.6236" x2="1017.4635" y2="610.4781"/><line class="cls-1" x1="1220.9562" y1="406.9854" x2="1134.1017" y2="493.8399"/><line class="cls-1" x1="1134.1017" y1="523.6236" x2="1220.9562" y2="610.4781"/><line class="cls-1" x1="1017.4635" y1="406.9854" x2="1104.318" y2="493.8399"/><circle class="cls-1" cx="1119.2098" cy="508.7317" r="21.0603"/><circle class="cls-1" cx="1322.7025" cy="508.7317" r="51.768"/><circle class="cls-1" cx="1322.7025" cy="508.7317" r="82.4757"/><line class="cls-1" x1="1301.6423" y1="508.7317" x2="1220.9562" y2="508.7317"/><line class="cls-1" x1="1424.4489" y1="508.7317" x2="1343.7628" y2="508.7317"/><line class="cls-1" x1="1322.7025" y1="529.792" x2="1322.7025" y2="610.4781"/><line class="cls-1" x1="1322.7025" y1="406.9854" x2="1322.7025" y2="487.6715"/><line class="cls-1" x1="1307.8107" y1="523.6236" x2="1220.9562" y2="610.4781"/><line class="cls-1" x1="1424.4489" y1="406.9854" x2="1337.5944" y2="493.8399"/><line class="cls-1" x1="1337.5944" y1="523.6236" x2="1424.4489" y2="610.4781"/><line class="cls-1" x1="1220.9562" y1="406.9854" x2="1307.8107" y2="493.8399"/><circle class="cls-1" cx="1322.7025" cy="508.7317" r="21.0603"/><circle class="cls-1" cx="1526.1952" cy="508.7317" r="51.768"/><circle class="cls-1" cx="1526.1952" cy="508.7317" r="82.4757"/><line class="cls-1" x1="1505.135" y1="508.7317" x2="1424.4489" y2="508.7317"/><line class="cls-1" x1="1627.9416" y1="508.7317" x2="1547.2555" y2="508.7317"/><line class="cls-1" x1="1526.1952" y1="529.792" x2="1526.1952" y2="610.4781"/><line class="cls-1" x1="1526.1952" y1="406.9854" x2="1526.1952" y2="487.6715"/><line class="cls-1" x1="1511.3034" y1="523.6236" x2="1424.4489" y2="610.4781"/><line class="cls-1" x1="1627.9416" y1="406.9854" x2="1541.0871" y2="493.8399"/><line class="cls-1" x1="1541.0871" y1="523.6236" x2="1627.9416" y2="610.4781"/><line class="cls-1" x1="1424.4489" y1="406.9854" x2="1511.3034" y2="493.8399"/><circle class="cls-1" cx="1526.1952" cy="508.7317" r="21.0603"/><circle class="cls-1" cx="1729.6879" cy="508.7317" r="51.768"/><circle class="cls-1" cx="1729.6879" cy="508.7317" r="82.4757"/><line class="cls-1" x1="1708.6276" y1="508.7317" x2="1627.9416" y2="508.7317"/><line class="cls-1" x1="1831.4343" y1="508.7317" x2="1750.7482" y2="508.7317"/><line class="cls-1" x1="1729.6879" y1="529.792" x2="1729.6879" y2="610.4781"/><line class="cls-1" x1="1729.6879" y1="406.9854" x2="1729.6879" y2="487.6715"/><line class="cls-1" x1="1714.7961" y1="523.6236" x2="1627.9416" y2="610.4781"/><line class="cls-1" x1="1831.4343" y1="406.9854" x2="1744.5798" y2="493.8399"/><line class="cls-1" x1="1744.5798" y1="523.6236" x2="1831.4343" y2="610.4781"/><line class="cls-1" x1="1627.9416" y1="406.9854" x2="1714.7961" y2="493.8399"/><circle class="cls-1" cx="1729.6879" cy="508.7317" r="21.0603"/><circle class="cls-1" cx="1933.1806" cy="508.7317" r="51.768"/><circle class="cls-1" cx="1933.1806" cy="508.7317" r="82.4757"/><line class="cls-1" x1="1912.1203" y1="508.7317" x2="1831.4343" y2="508.7317"/><line class="cls-1" x1="2034.927" y1="508.7317" x2="1954.2409" y2="508.7317"/><line class="cls-1" x1="1933.1806" y1="529.792" x2="1933.1806" y2="610.4781"/><line class="cls-1" x1="1933.1806" y1="406.9854" x2="1933.1806" y2="487.6715"/><line class="cls-1" x1="1918.2888" y1="523.6236" x2="1831.4343" y2="610.4781"/><line class="cls-1" x1="2034.927" y1="406.9854" x2="1948.0725" y2="493.8399"/><line class="cls-1" x1="1948.0725" y1="523.6236" x2="2034.927" y2="610.4781"/><line class="cls-1" x1="1831.4343" y1="406.9854" x2="1918.2888" y2="493.8399"/><circle class="cls-1" cx="1933.1806" cy="508.7317" r="21.0603"/><circle class="cls-1" cx="2136.6733" cy="508.7317" r="51.768"/><circle class="cls-1" cx="2136.6733" cy="508.7317" r="82.4757"/><line class="cls-1" x1="2115.613" y1="508.7317" x2="2034.927" y2="508.7317"/><line class="cls-1" x1="2238.4197" y1="508.7317" x2="2157.7336" y2="508.7317"/><line class="cls-1" x1="2136.6733" y1="529.792" x2="2136.6733" y2="610.4781"/><line class="cls-1" x1="2136.6733" y1="406.9854" x2="2136.6733" y2="487.6715"/><line class="cls-1" x1="2121.7815" y1="523.6236" x2="2034.927" y2="610.4781"/><line class="cls-1" x1="2238.4197" y1="406.9854" x2="2151.5652" y2="493.8399"/><line class="cls-1" x1="2151.5652" y1="523.6236" x2="2238.4197" y2="610.4781"/><line class="cls-1" x1="2034.927" y1="406.9854" x2="2121.7815" y2="493.8399"/><circle class="cls-1" cx="2136.6733" cy="508.7317" r="21.0603"/><circle class="cls-1" cx="2340.166" cy="508.7317" r="51.768"/><circle class="cls-1" cx="2340.166" cy="508.7317" r="82.4757"/><line class="cls-1" x1="2319.1057" y1="508.7317" x2="2238.4197" y2="508.7317"/><line class="cls-1" x1="2441.9124" y1="508.7317" x2="2361.2263" y2="508.7317"/><line class="cls-1" x1="2340.166" y1="529.792" x2="2340.166" y2="610.4781"/><line class="cls-1" x1="2340.166" y1="406.9854" x2="2340.166" y2="487.6715"/><line class="cls-1" x1="2325.2742" y1="523.6236" x2="2238.4197" y2="610.4781"/><line class="cls-1" x1="2441.9124" y1="406.9854" x2="2355.0579" y2="493.8399"/><line class="cls-1" x1="2355.0579" y1="523.6236" x2="2441.9124" y2="610.4781"/><line class="cls-1" x1="2238.4197" y1="406.9854" x2="2325.2742" y2="493.8399"/><circle class="cls-1" cx="2340.166" cy="508.7317" r="21.0603"/><circle class="cls-1" cx="2543.6587" cy="508.7317" r="51.768"/><circle class="cls-1" cx="2543.6587" cy="508.7317" r="82.4757"/><line class="cls-1" x1="2522.5984" y1="508.7317" x2="2441.9124" y2="508.7317"/><line class="cls-1" x1="2645.4051" y1="508.7317" x2="2564.719" y2="508.7317"/><line class="cls-1" x1="2543.6587" y1="529.792" x2="2543.6587" y2="610.4781"/><line class="cls-1" x1="2543.6587" y1="406.9854" x2="2543.6587" y2="487.6715"/><line class="cls-1" x1="2528.7668" y1="523.6236" x2="2441.9124" y2="610.4781"/><line class="cls-1" x1="2645.4051" y1="406.9854" x2="2558.5506" y2="493.8399"/><line class="cls-1" x1="2558.5506" y1="523.6236" x2="2645.4051" y2="610.4781"/><line class="cls-1" x1="2441.9124" y1="406.9854" x2="2528.7668" y2="493.8399"/><circle class="cls-1" cx="2543.6587" cy="508.7317" r="21.0603"/><circle class="cls-1" cx="101.7463" cy="712.2244" r="51.768"/><circle class="cls-1" cx="101.7463" cy="712.2244" r="82.4757"/><line class="cls-1" x1="80.6861" y1="712.2244" y2="712.2244"/><line class="cls-1" x1="203.4927" y1="712.2244" x2="122.8066" y2="712.2244"/><line class="cls-1" x1="101.7463" y1="733.2847" x2="101.7463" y2="813.9708"/><line class="cls-1" x1="101.7463" y1="610.4781" x2="101.7463" y2="691.1642"/><line class="cls-1" x1="86.8545" y1="727.1163" x2="0" y2="813.9708"/><line class="cls-1" x1="203.4927" y1="610.4781" x2="116.6382" y2="697.3326"/><line class="cls-1" x1="116.6382" y1="727.1163" x2="203.4927" y2="813.9708"/><line class="cls-1" y1="610.4781" x2="86.8545" y2="697.3326"/><circle class="cls-1" cx="101.7463" cy="712.2244" r="21.0603"/><circle class="cls-1" cx="305.239" cy="712.2244" r="51.768"/><circle class="cls-1" cx="305.239" cy="712.2244" r="82.4757"/><line class="cls-1" x1="284.1788" y1="712.2244" x2="203.4927" y2="712.2244"/><line class="cls-1" x1="406.9854" y1="712.2244" x2="326.2993" y2="712.2244"/><line class="cls-1" x1="305.239" y1="733.2847" x2="305.239" y2="813.9708"/><line class="cls-1" x1="305.239" y1="610.4781" x2="305.239" y2="691.1642"/><line class="cls-1" x1="290.3472" y1="727.1163" x2="203.4927" y2="813.9708"/><line class="cls-1" x1="406.9854" y1="610.4781" x2="320.1309" y2="697.3326"/><line class="cls-1" x1="320.1309" y1="727.1163" x2="406.9854" y2="813.9708"/><line class="cls-1" x1="203.4927" y1="610.4781" x2="290.3472" y2="697.3326"/><circle class="cls-1" cx="305.239" cy="712.2244" r="21.0603"/><circle class="cls-1" cx="508.7317" cy="712.2244" r="51.768"/><circle class="cls-1" cx="508.7317" cy="712.2244" r="82.4757"/><line class="cls-1" x1="487.6715" y1="712.2244" x2="406.9854" y2="712.2244"/><line class="cls-1" x1="610.4781" y1="712.2244" x2="529.792" y2="712.2244"/><line class="cls-1" x1="508.7317" y1="733.2847" x2="508.7317" y2="813.9708"/><line class="cls-1" x1="508.7317" y1="610.4781" x2="508.7317" y2="691.1642"/><line class="cls-1" x1="493.8399" y1="727.1163" x2="406.9854" y2="813.9708"/><line class="cls-1" x1="610.4781" y1="610.4781" x2="523.6236" y2="697.3326"/><line class="cls-1" x1="523.6236" y1="727.1163" x2="610.4781" y2="813.9708"/><line class="cls-1" x1="406.9854" y1="610.4781" x2="493.8399" y2="697.3326"/><circle class="cls-1" cx="508.7317" cy="712.2244" r="21.0603"/><circle class="cls-1" cx="712.2244" cy="712.2244" r="51.768"/><circle class="cls-1" cx="712.2244" cy="712.2244" r="82.4757"/><line class="cls-1" x1="691.1642" y1="712.2244" x2="610.4781" y2="712.2244"/><line class="cls-1" x1="813.9708" y1="712.2244" x2="733.2847" y2="712.2244"/><line class="cls-1" x1="712.2244" y1="733.2847" x2="712.2244" y2="813.9708"/><line class="cls-1" x1="712.2244" y1="610.4781" x2="712.2244" y2="691.1642"/><line class="cls-1" x1="697.3326" y1="727.1163" x2="610.4781" y2="813.9708"/><line class="cls-1" x1="813.9708" y1="610.4781" x2="727.1163" y2="697.3326"/><line class="cls-1" x1="727.1163" y1="727.1163" x2="813.9708" y2="813.9708"/><line class="cls-1" x1="610.4781" y1="610.4781" x2="697.3326" y2="697.3326"/><circle class="cls-1" cx="712.2244" cy="712.2244" r="21.0603"/><circle class="cls-1" cx="915.7171" cy="712.2244" r="51.768"/><circle class="cls-1" cx="915.7171" cy="712.2244" r="82.4757"/><line class="cls-1" x1="894.6569" y1="712.2244" x2="813.9708" y2="712.2244"/><line class="cls-1" x1="1017.4635" y1="712.2244" x2="936.7774" y2="712.2244"/><line class="cls-1" x1="915.7171" y1="733.2847" x2="915.7171" y2="813.9708"/><line class="cls-1" x1="915.7171" y1="610.4781" x2="915.7171" y2="691.1642"/><line class="cls-1" x1="900.8253" y1="727.1163" x2="813.9708" y2="813.9708"/><line class="cls-1" x1="1017.4635" y1="610.4781" x2="930.609" y2="697.3326"/><line class="cls-1" x1="930.609" y1="727.1163" x2="1017.4635" y2="813.9708"/><line class="cls-1" x1="813.9708" y1="610.4781" x2="900.8253" y2="697.3326"/><circle class="cls-1" cx="915.7171" cy="712.2244" r="21.0603"/><circle class="cls-1" cx="1119.2098" cy="712.2244" r="51.768"/><circle class="cls-1" cx="1119.2098" cy="712.2244" r="82.4757"/><line class="cls-1" x1="1098.1496" y1="712.2244" x2="1017.4635" y2="712.2244"/><line class="cls-1" x1="1220.9562" y1="712.2244" x2="1140.2701" y2="712.2244"/><line class="cls-1" x1="1119.2098" y1="733.2847" x2="1119.2098" y2="813.9708"/><line class="cls-1" x1="1119.2098" y1="610.4781" x2="1119.2098" y2="691.1642"/><line class="cls-1" x1="1104.318" y1="727.1163" x2="1017.4635" y2="813.9708"/><line class="cls-1" x1="1220.9562" y1="610.4781" x2="1134.1017" y2="697.3326"/><line class="cls-1" x1="1134.1017" y1="727.1163" x2="1220.9562" y2="813.9708"/><line class="cls-1" x1="1017.4635" y1="610.4781" x2="1104.318" y2="697.3326"/><circle class="cls-1" cx="1119.2098" cy="712.2244" r="21.0603"/><circle class="cls-1" cx="1322.7025" cy="712.2244" r="51.768"/><circle class="cls-1" cx="1322.7025" cy="712.2244" r="82.4757"/><line class="cls-1" x1="1301.6423" y1="712.2244" x2="1220.9562" y2="712.2244"/><line class="cls-1" x1="1424.4489" y1="712.2244" x2="1343.7628" y2="712.2244"/><line class="cls-1" x1="1322.7025" y1="733.2847" x2="1322.7025" y2="813.9708"/><line class="cls-1" x1="1322.7025" y1="610.4781" x2="1322.7025" y2="691.1642"/><line class="cls-1" x1="1307.8107" y1="727.1163" x2="1220.9562" y2="813.9708"/><line class="cls-1" x1="1424.4489" y1="610.4781" x2="1337.5944" y2="697.3326"/><line class="cls-1" x1="1337.5944" y1="727.1163" x2="1424.4489" y2="813.9708"/><line class="cls-1" x1="1220.9562" y1="610.4781" x2="1307.8107" y2="697.3326"/><circle class="cls-1" cx="1322.7025" cy="712.2244" r="21.0603"/><circle class="cls-1" cx="1526.1952" cy="712.2244" r="51.768"/><circle class="cls-1" cx="1526.1952" cy="712.2244" r="82.4757"/><line class="cls-1" x1="1505.135" y1="712.2244" x2="1424.4489" y2="712.2244"/><line class="cls-1" x1="1627.9416" y1="712.2244" x2="1547.2555" y2="712.2244"/><line class="cls-1" x1="1526.1952" y1="733.2847" x2="1526.1952" y2="813.9708"/><line class="cls-1" x1="1526.1952" y1="610.4781" x2="1526.1952" y2="691.1642"/><line class="cls-1" x1="1511.3034" y1="727.1163" x2="1424.4489" y2="813.9708"/><line class="cls-1" x1="1627.9416" y1="610.4781" x2="1541.0871" y2="697.3326"/><line class="cls-1" x1="1541.0871" y1="727.1163" x2="1627.9416" y2="813.9708"/><line class="cls-1" x1="1424.4489" y1="610.4781" x2="1511.3034" y2="697.3326"/><circle class="cls-1" cx="1526.1952" cy="712.2244" r="21.0603"/><circle class="cls-1" cx="1729.6879" cy="712.2244" r="51.768"/><circle class="cls-1" cx="1729.6879" cy="712.2244" r="82.4757"/><line class="cls-1" x1="1708.6276" y1="712.2244" x2="1627.9416" y2="712.2244"/><line class="cls-1" x1="1831.4343" y1="712.2244" x2="1750.7482" y2="712.2244"/><line class="cls-1" x1="1729.6879" y1="733.2847" x2="1729.6879" y2="813.9708"/><line class="cls-1" x1="1729.6879" y1="610.4781" x2="1729.6879" y2="691.1642"/><line class="cls-1" x1="1714.7961" y1="727.1163" x2="1627.9416" y2="813.9708"/><line class="cls-1" x1="1831.4343" y1="610.4781" x2="1744.5798" y2="697.3326"/><line class="cls-1" x1="1744.5798" y1="727.1163" x2="1831.4343" y2="813.9708"/><line class="cls-1" x1="1627.9416" y1="610.4781" x2="1714.7961" y2="697.3326"/><circle class="cls-1" cx="1729.6879" cy="712.2244" r="21.0603"/><circle class="cls-1" cx="1933.1806" cy="712.2244" r="51.768"/><circle class="cls-1" cx="1933.1806" cy="712.2244" r="82.4757"/><line class="cls-1" x1="1912.1203" y1="712.2244" x2="1831.4343" y2="712.2244"/><line class="cls-1" x1="2034.927" y1="712.2244" x2="1954.2409" y2="712.2244"/><line class="cls-1" x1="1933.1806" y1="733.2847" x2="1933.1806" y2="813.9708"/><line class="cls-1" x1="1933.1806" y1="610.4781" x2="1933.1806" y2="691.1642"/><line class="cls-1" x1="1918.2888" y1="727.1163" x2="1831.4343" y2="813.9708"/><line class="cls-1" x1="2034.927" y1="610.4781" x2="1948.0725" y2="697.3326"/><line class="cls-1" x1="1948.0725" y1="727.1163" x2="2034.927" y2="813.9708"/><line class="cls-1" x1="1831.4343" y1="610.4781" x2="1918.2888" y2="697.3326"/><circle class="cls-1" cx="1933.1806" cy="712.2244" r="21.0603"/><circle class="cls-1" cx="2136.6733" cy="712.2244" r="51.768"/><circle class="cls-1" cx="2136.6733" cy="712.2244" r="82.4757"/><line class="cls-1" x1="2115.613" y1="712.2244" x2="2034.927" y2="712.2244"/><line class="cls-1" x1="2238.4197" y1="712.2244" x2="2157.7336" y2="712.2244"/><line class="cls-1" x1="2136.6733" y1="733.2847" x2="2136.6733" y2="813.9708"/><line class="cls-1" x1="2136.6733" y1="610.4781" x2="2136.6733" y2="691.1642"/><line class="cls-1" x1="2121.7815" y1="727.1163" x2="2034.927" y2="813.9708"/><line class="cls-1" x1="2238.4197" y1="610.4781" x2="2151.5652" y2="697.3326"/><line class="cls-1" x1="2151.5652" y1="727.1163" x2="2238.4197" y2="813.9708"/><line class="cls-1" x1="2034.927" y1="610.4781" x2="2121.7815" y2="697.3326"/><circle class="cls-1" cx="2136.6733" cy="712.2244" r="21.0603"/><circle class="cls-1" cx="2340.166" cy="712.2244" r="51.768"/><circle class="cls-1" cx="2340.166" cy="712.2244" r="82.4757"/><line class="cls-1" x1="2319.1057" y1="712.2244" x2="2238.4197" y2="712.2244"/><line class="cls-1" x1="2441.9124" y1="712.2244" x2="2361.2263" y2="712.2244"/><line class="cls-1" x1="2340.166" y1="733.2847" x2="2340.166" y2="813.9708"/><line class="cls-1" x1="2340.166" y1="610.4781" x2="2340.166" y2="691.1642"/><line class="cls-1" x1="2325.2742" y1="727.1163" x2="2238.4197" y2="813.9708"/><line class="cls-1" x1="2441.9124" y1="610.4781" x2="2355.0579" y2="697.3326"/><line class="cls-1" x1="2355.0579" y1="727.1163" x2="2441.9124" y2="813.9708"/><line class="cls-1" x1="2238.4197" y1="610.4781" x2="2325.2742" y2="697.3326"/><circle class="cls-1" cx="2340.166" cy="712.2244" r="21.0603"/><circle class="cls-1" cx="2543.6587" cy="712.2244" r="51.768"/><circle class="cls-1" cx="2543.6587" cy="712.2244" r="82.4757"/><line class="cls-1" x1="2522.5984" y1="712.2244" x2="2441.9124" y2="712.2244"/><line class="cls-1" x1="2645.4051" y1="712.2244" x2="2564.719" y2="712.2244"/><line class="cls-1" x1="2543.6587" y1="733.2847" x2="2543.6587" y2="813.9708"/><line class="cls-1" x1="2543.6587" y1="610.4781" x2="2543.6587" y2="691.1642"/><line class="cls-1" x1="2528.7668" y1="727.1163" x2="2441.9124" y2="813.9708"/><line class="cls-1" x1="2645.4051" y1="610.4781" x2="2558.5506" y2="697.3326"/><line class="cls-1" x1="2558.5506" y1="727.1163" x2="2645.4051" y2="813.9708"/><line class="cls-1" x1="2441.9124" y1="610.4781" x2="2528.7668" y2="697.3326"/><circle class="cls-1" cx="2543.6587" cy="712.2244" r="21.0603"/><circle class="cls-1" cx="101.7463" cy="915.7171" r="51.768"/><circle class="cls-1" cx="101.7463" cy="915.7171" r="82.4757"/><line class="cls-1" x1="80.6861" y1="915.7171" y2="915.7171"/><line class="cls-1" x1="203.4927" y1="915.7171" x2="122.8066" y2="915.7171"/><line class="cls-1" x1="101.7463" y1="936.7774" x2="101.7463" y2="1017.4635"/><line class="cls-1" x1="101.7463" y1="813.9708" x2="101.7463" y2="894.6569"/><line class="cls-1" x1="86.8545" y1="930.609" x2="0" y2="1017.4635"/><line class="cls-1" x1="203.4927" y1="813.9708" x2="116.6382" y2="900.8253"/><line class="cls-1" x1="116.6382" y1="930.609" x2="203.4927" y2="1017.4635"/><line class="cls-1" y1="813.9708" x2="86.8545" y2="900.8253"/><circle class="cls-1" cx="101.7463" cy="915.7171" r="21.0603"/><circle class="cls-1" cx="305.239" cy="915.7171" r="51.768"/><circle class="cls-1" cx="305.239" cy="915.7171" r="82.4757"/><line class="cls-1" x1="284.1788" y1="915.7171" x2="203.4927" y2="915.7171"/><line class="cls-1" x1="406.9854" y1="915.7171" x2="326.2993" y2="915.7171"/><line class="cls-1" x1="305.239" y1="936.7774" x2="305.239" y2="1017.4635"/><line class="cls-1" x1="305.239" y1="813.9708" x2="305.239" y2="894.6569"/><line class="cls-1" x1="290.3472" y1="930.609" x2="203.4927" y2="1017.4635"/><line class="cls-1" x1="406.9854" y1="813.9708" x2="320.1309" y2="900.8253"/><line class="cls-1" x1="320.1309" y1="930.609" x2="406.9854" y2="1017.4635"/><line class="cls-1" x1="203.4927" y1="813.9708" x2="290.3472" y2="900.8253"/><circle class="cls-1" cx="305.239" cy="915.7171" r="21.0603"/><circle class="cls-1" cx="508.7317" cy="915.7171" r="51.768"/><circle class="cls-1" cx="508.7317" cy="915.7171" r="82.4757"/><line class="cls-1" x1="487.6715" y1="915.7171" x2="406.9854" y2="915.7171"/><line class="cls-1" x1="610.4781" y1="915.7171" x2="529.792" y2="915.7171"/><line class="cls-1" x1="508.7317" y1="936.7774" x2="508.7317" y2="1017.4635"/><line class="cls-1" x1="508.7317" y1="813.9708" x2="508.7317" y2="894.6569"/><line class="cls-1" x1="493.8399" y1="930.609" x2="406.9854" y2="1017.4635"/><line class="cls-1" x1="610.4781" y1="813.9708" x2="523.6236" y2="900.8253"/><line class="cls-1" x1="523.6236" y1="930.609" x2="610.4781" y2="1017.4635"/><line class="cls-1" x1="406.9854" y1="813.9708" x2="493.8399" y2="900.8253"/><circle class="cls-1" cx="508.7317" cy="915.7171" r="21.0603"/><circle class="cls-1" cx="712.2244" cy="915.7171" r="51.768"/><circle class="cls-1" cx="712.2244" cy="915.7171" r="82.4757"/><line class="cls-1" x1="691.1642" y1="915.7171" x2="610.4781" y2="915.7171"/><line class="cls-1" x1="813.9708" y1="915.7171" x2="733.2847" y2="915.7171"/><line class="cls-1" x1="712.2244" y1="936.7774" x2="712.2244" y2="1017.4635"/><line class="cls-1" x1="712.2244" y1="813.9708" x2="712.2244" y2="894.6569"/><line class="cls-1" x1="697.3326" y1="930.609" x2="610.4781" y2="1017.4635"/><line class="cls-1" x1="813.9708" y1="813.9708" x2="727.1163" y2="900.8253"/><line class="cls-1" x1="727.1163" y1="930.609" x2="813.9708" y2="1017.4635"/><line class="cls-1" x1="610.4781" y1="813.9708" x2="697.3326" y2="900.8253"/><circle class="cls-1" cx="712.2244" cy="915.7171" r="21.0603"/><circle class="cls-1" cx="915.7171" cy="915.7171" r="51.768"/><circle class="cls-1" cx="915.7171" cy="915.7171" r="82.4757"/><line class="cls-1" x1="894.6569" y1="915.7171" x2="813.9708" y2="915.7171"/><line class="cls-1" x1="1017.4635" y1="915.7171" x2="936.7774" y2="915.7171"/><line class="cls-1" x1="915.7171" y1="936.7774" x2="915.7171" y2="1017.4635"/><line class="cls-1" x1="915.7171" y1="813.9708" x2="915.7171" y2="894.6569"/><line class="cls-1" x1="900.8253" y1="930.609" x2="813.9708" y2="1017.4635"/><line class="cls-1" x1="1017.4635" y1="813.9708" x2="930.609" y2="900.8253"/><line class="cls-1" x1="930.609" y1="930.609" x2="1017.4635" y2="1017.4635"/><line class="cls-1" x1="813.9708" y1="813.9708" x2="900.8253" y2="900.8253"/><circle class="cls-1" cx="915.7171" cy="915.7171" r="21.0603"/><circle class="cls-1" cx="1119.2098" cy="915.7171" r="51.768"/><circle class="cls-1" cx="1119.2098" cy="915.7171" r="82.4757"/><line class="cls-1" x1="1098.1496" y1="915.7171" x2="1017.4635" y2="915.7171"/><line class="cls-1" x1="1220.9562" y1="915.7171" x2="1140.2701" y2="915.7171"/><line class="cls-1" x1="1119.2098" y1="936.7774" x2="1119.2098" y2="1017.4635"/><line class="cls-1" x1="1119.2098" y1="813.9708" x2="1119.2098" y2="894.6569"/><line class="cls-1" x1="1104.318" y1="930.609" x2="1017.4635" y2="1017.4635"/><line class="cls-1" x1="1220.9562" y1="813.9708" x2="1134.1017" y2="900.8253"/><line class="cls-1" x1="1134.1017" y1="930.609" x2="1220.9562" y2="1017.4635"/><line class="cls-1" x1="1017.4635" y1="813.9708" x2="1104.318" y2="900.8253"/><circle class="cls-1" cx="1119.2098" cy="915.7171" r="21.0603"/><circle class="cls-1" cx="1322.7025" cy="915.7171" r="51.768"/><circle class="cls-1" cx="1322.7025" cy="915.7171" r="82.4757"/><line class="cls-1" x1="1301.6423" y1="915.7171" x2="1220.9562" y2="915.7171"/><line class="cls-1" x1="1424.4489" y1="915.7171" x2="1343.7628" y2="915.7171"/><line class="cls-1" x1="1322.7025" y1="936.7774" x2="1322.7025" y2="1017.4635"/><line class="cls-1" x1="1322.7025" y1="813.9708" x2="1322.7025" y2="894.6569"/><line class="cls-1" x1="1307.8107" y1="930.609" x2="1220.9562" y2="1017.4635"/><line class="cls-1" x1="1424.4489" y1="813.9708" x2="1337.5944" y2="900.8253"/><line class="cls-1" x1="1337.5944" y1="930.609" x2="1424.4489" y2="1017.4635"/><line class="cls-1" x1="1220.9562" y1="813.9708" x2="1307.8107" y2="900.8253"/><circle class="cls-1" cx="1322.7025" cy="915.7171" r="21.0603"/><circle class="cls-1" cx="1526.1952" cy="915.7171" r="51.768"/><circle class="cls-1" cx="1526.1952" cy="915.7171" r="82.4757"/><line class="cls-1" x1="1505.135" y1="915.7171" x2="1424.4489" y2="915.7171"/><line class="cls-1" x1="1627.9416" y1="915.7171" x2="1547.2555" y2="915.7171"/><line class="cls-1" x1="1526.1952" y1="936.7774" x2="1526.1952" y2="1017.4635"/><line class="cls-1" x1="1526.1952" y1="813.9708" x2="1526.1952" y2="894.6569"/><line class="cls-1" x1="1511.3034" y1="930.609" x2="1424.4489" y2="1017.4635"/><line class="cls-1" x1="1627.9416" y1="813.9708" x2="1541.0871" y2="900.8253"/><line class="cls-1" x1="1541.0871" y1="930.609" x2="1627.9416" y2="1017.4635"/><line class="cls-1" x1="1424.4489" y1="813.9708" x2="1511.3034" y2="900.8253"/><circle class="cls-1" cx="1526.1952" cy="915.7171" r="21.0603"/><circle class="cls-1" cx="1729.6879" cy="915.7171" r="51.768"/><circle class="cls-1" cx="1729.6879" cy="915.7171" r="82.4757"/><line class="cls-1" x1="1708.6276" y1="915.7171" x2="1627.9416" y2="915.7171"/><line class="cls-1" x1="1831.4343" y1="915.7171" x2="1750.7482" y2="915.7171"/><line class="cls-1" x1="1729.6879" y1="936.7774" x2="1729.6879" y2="1017.4635"/><line class="cls-1" x1="1729.6879" y1="813.9708" x2="1729.6879" y2="894.6569"/><line class="cls-1" x1="1714.7961" y1="930.609" x2="1627.9416" y2="1017.4635"/><line class="cls-1" x1="1831.4343" y1="813.9708" x2="1744.5798" y2="900.8253"/><line class="cls-1" x1="1744.5798" y1="930.609" x2="1831.4343" y2="1017.4635"/><line class="cls-1" x1="1627.9416" y1="813.9708" x2="1714.7961" y2="900.8253"/><circle class="cls-1" cx="1729.6879" cy="915.7171" r="21.0603"/><circle class="cls-1" cx="1933.1806" cy="915.7171" r="51.768"/><circle class="cls-1" cx="1933.1806" cy="915.7171" r="82.4757"/><line class="cls-1" x1="1912.1203" y1="915.7171" x2="1831.4343" y2="915.7171"/><line class="cls-1" x1="2034.927" y1="915.7171" x2="1954.2409" y2="915.7171"/><line class="cls-1" x1="1933.1806" y1="936.7774" x2="1933.1806" y2="1017.4635"/><line class="cls-1" x1="1933.1806" y1="813.9708" x2="1933.1806" y2="894.6569"/><line class="cls-1" x1="1918.2888" y1="930.609" x2="1831.4343" y2="1017.4635"/><line class="cls-1" x1="2034.927" y1="813.9708" x2="1948.0725" y2="900.8253"/><line class="cls-1" x1="1948.0725" y1="930.609" x2="2034.927" y2="1017.4635"/><line class="cls-1" x1="1831.4343" y1="813.9708" x2="1918.2888" y2="900.8253"/><circle class="cls-1" cx="1933.1806" cy="915.7171" r="21.0603"/><circle class="cls-1" cx="2136.6733" cy="915.7171" r="51.768"/><circle class="cls-1" cx="2136.6733" cy="915.7171" r="82.4757"/><line class="cls-1" x1="2115.613" y1="915.7171" x2="2034.927" y2="915.7171"/><line class="cls-1" x1="2238.4197" y1="915.7171" x2="2157.7336" y2="915.7171"/><line class="cls-1" x1="2136.6733" y1="936.7774" x2="2136.6733" y2="1017.4635"/><line class="cls-1" x1="2136.6733" y1="813.9708" x2="2136.6733" y2="894.6569"/><line class="cls-1" x1="2121.7815" y1="930.609" x2="2034.927" y2="1017.4635"/><line class="cls-1" x1="2238.4197" y1="813.9708" x2="2151.5652" y2="900.8253"/><line class="cls-1" x1="2151.5652" y1="930.609" x2="2238.4197" y2="1017.4635"/><line class="cls-1" x1="2034.927" y1="813.9708" x2="2121.7815" y2="900.8253"/><circle class="cls-1" cx="2136.6733" cy="915.7171" r="21.0603"/><circle class="cls-1" cx="2340.166" cy="915.7171" r="51.768"/><circle class="cls-1" cx="2340.166" cy="915.7171" r="82.4757"/><line class="cls-1" x1="2319.1057" y1="915.7171" x2="2238.4197" y2="915.7171"/><line class="cls-1" x1="2441.9124" y1="915.7171" x2="2361.2263" y2="915.7171"/><line class="cls-1" x1="2340.166" y1="936.7774" x2="2340.166" y2="1017.4635"/><line class="cls-1" x1="2340.166" y1="813.9708" x2="2340.166" y2="894.6569"/><line class="cls-1" x1="2325.2742" y1="930.609" x2="2238.4197" y2="1017.4635"/><line class="cls-1" x1="2441.9124" y1="813.9708" x2="2355.0579" y2="900.8253"/><line class="cls-1" x1="2355.0579" y1="930.609" x2="2441.9124" y2="1017.4635"/><line class="cls-1" x1="2238.4197" y1="813.9708" x2="2325.2742" y2="900.8253"/><circle class="cls-1" cx="2340.166" cy="915.7171" r="21.0603"/><circle class="cls-1" cx="2543.6587" cy="915.7171" r="51.768"/><circle class="cls-1" cx="2543.6587" cy="915.7171" r="82.4757"/><line class="cls-1" x1="2522.5984" y1="915.7171" x2="2441.9124" y2="915.7171"/><line class="cls-1" x1="2645.4051" y1="915.7171" x2="2564.719" y2="915.7171"/><line class="cls-1" x1="2543.6587" y1="936.7774" x2="2543.6587" y2="1017.4635"/><line class="cls-1" x1="2543.6587" y1="813.9708" x2="2543.6587" y2="894.6569"/><line class="cls-1" x1="2528.7668" y1="930.609" x2="2441.9124" y2="1017.4635"/><line class="cls-1" x1="2645.4051" y1="813.9708" x2="2558.5506" y2="900.8253"/><line class="cls-1" x1="2558.5506" y1="930.609" x2="2645.4051" y2="1017.4635"/><line class="cls-1" x1="2441.9124" y1="813.9708" x2="2528.7668" y2="900.8253"/><circle class="cls-1" cx="2543.6587" cy="915.7171" r="21.0603"/><circle class="cls-1" cx="101.7463" cy="1119.2098" r="51.768"/><circle class="cls-1" cx="101.7463" cy="1119.2098" r="82.4757"/><line class="cls-1" x1="80.6861" y1="1119.2098" y2="1119.2098"/><line class="cls-1" x1="203.4927" y1="1119.2098" x2="122.8066" y2="1119.2098"/><line class="cls-1" x1="101.7463" y1="1140.2701" x2="101.7463" y2="1220.9562"/><line class="cls-1" x1="101.7463" y1="1017.4635" x2="101.7463" y2="1098.1496"/><line class="cls-1" x1="86.8545" y1="1134.1017" x2="0" y2="1220.9562"/><line class="cls-1" x1="203.4927" y1="1017.4635" x2="116.6382" y2="1104.318"/><line class="cls-1" x1="116.6382" y1="1134.1017" x2="203.4927" y2="1220.9562"/><line class="cls-1" y1="1017.4635" x2="86.8545" y2="1104.318"/><circle class="cls-1" cx="101.7463" cy="1119.2098" r="21.0603"/><circle class="cls-1" cx="305.239" cy="1119.2098" r="51.768"/><circle class="cls-1" cx="305.239" cy="1119.2098" r="82.4757"/><line class="cls-1" x1="284.1788" y1="1119.2098" x2="203.4927" y2="1119.2098"/><line class="cls-1" x1="406.9854" y1="1119.2098" x2="326.2993" y2="1119.2098"/><line class="cls-1" x1="305.239" y1="1140.2701" x2="305.239" y2="1220.9562"/><line class="cls-1" x1="305.239" y1="1017.4635" x2="305.239" y2="1098.1496"/><line class="cls-1" x1="290.3472" y1="1134.1017" x2="203.4927" y2="1220.9562"/><line class="cls-1" x1="406.9854" y1="1017.4635" x2="320.1309" y2="1104.318"/><line class="cls-1" x1="320.1309" y1="1134.1017" x2="406.9854" y2="1220.9562"/><line class="cls-1" x1="203.4927" y1="1017.4635" x2="290.3472" y2="1104.318"/><circle class="cls-1" cx="305.239" cy="1119.2098" r="21.0603"/><circle class="cls-1" cx="508.7317" cy="1119.2098" r="51.768"/><circle class="cls-1" cx="508.7317" cy="1119.2098" r="82.4757"/><line class="cls-1" x1="487.6715" y1="1119.2098" x2="406.9854" y2="1119.2098"/><line class="cls-1" x1="610.4781" y1="1119.2098" x2="529.792" y2="1119.2098"/><line class="cls-1" x1="508.7317" y1="1140.2701" x2="508.7317" y2="1220.9562"/><line class="cls-1" x1="508.7317" y1="1017.4635" x2="508.7317" y2="1098.1496"/><line class="cls-1" x1="493.8399" y1="1134.1017" x2="406.9854" y2="1220.9562"/><line class="cls-1" x1="610.4781" y1="1017.4635" x2="523.6236" y2="1104.318"/><line class="cls-1" x1="523.6236" y1="1134.1017" x2="610.4781" y2="1220.9562"/><line class="cls-1" x1="406.9854" y1="1017.4635" x2="493.8399" y2="1104.318"/><circle class="cls-1" cx="508.7317" cy="1119.2098" r="21.0603"/><circle class="cls-1" cx="712.2244" cy="1119.2098" r="51.768"/><circle class="cls-1" cx="712.2244" cy="1119.2098" r="82.4757"/><line class="cls-1" x1="691.1642" y1="1119.2098" x2="610.4781" y2="1119.2098"/><line class="cls-1" x1="813.9708" y1="1119.2098" x2="733.2847" y2="1119.2098"/><line class="cls-1" x1="712.2244" y1="1140.2701" x2="712.2244" y2="1220.9562"/><line class="cls-1" x1="712.2244" y1="1017.4635" x2="712.2244" y2="1098.1496"/><line class="cls-1" x1="697.3326" y1="1134.1017" x2="610.4781" y2="1220.9562"/><line class="cls-1" x1="813.9708" y1="1017.4635" x2="727.1163" y2="1104.318"/><line class="cls-1" x1="727.1163" y1="1134.1017" x2="813.9708" y2="1220.9562"/><line class="cls-1" x1="610.4781" y1="1017.4635" x2="697.3326" y2="1104.318"/><circle class="cls-1" cx="712.2244" cy="1119.2098" r="21.0603"/><circle class="cls-1" cx="915.7171" cy="1119.2098" r="51.768"/><circle class="cls-1" cx="915.7171" cy="1119.2098" r="82.4757"/><line class="cls-1" x1="894.6569" y1="1119.2098" x2="813.9708" y2="1119.2098"/><line class="cls-1" x1="1017.4635" y1="1119.2098" x2="936.7774" y2="1119.2098"/><line class="cls-1" x1="915.7171" y1="1140.2701" x2="915.7171" y2="1220.9562"/><line class="cls-1" x1="915.7171" y1="1017.4635" x2="915.7171" y2="1098.1496"/><line class="cls-1" x1="900.8253" y1="1134.1017" x2="813.9708" y2="1220.9562"/><line class="cls-1" x1="1017.4635" y1="1017.4635" x2="930.609" y2="1104.318"/><line class="cls-1" x1="930.609" y1="1134.1017" x2="1017.4635" y2="1220.9562"/><line class="cls-1" x1="813.9708" y1="1017.4635" x2="900.8253" y2="1104.318"/><circle class="cls-1" cx="915.7171" cy="1119.2098" r="21.0603"/><circle class="cls-1" cx="1119.2098" cy="1119.2098" r="51.768"/><circle class="cls-1" cx="1119.2098" cy="1119.2098" r="82.4757"/><line class="cls-1" x1="1098.1496" y1="1119.2098" x2="1017.4635" y2="1119.2098"/><line class="cls-1" x1="1220.9562" y1="1119.2098" x2="1140.2701" y2="1119.2098"/><line class="cls-1" x1="1119.2098" y1="1140.2701" x2="1119.2098" y2="1220.9562"/><line class="cls-1" x1="1119.2098" y1="1017.4635" x2="1119.2098" y2="1098.1496"/><line class="cls-1" x1="1104.318" y1="1134.1017" x2="1017.4635" y2="1220.9562"/><line class="cls-1" x1="1220.9562" y1="1017.4635" x2="1134.1017" y2="1104.318"/><line class="cls-1" x1="1134.1017" y1="1134.1017" x2="1220.9562" y2="1220.9562"/><line class="cls-1" x1="1017.4635" y1="1017.4635" x2="1104.318" y2="1104.318"/><circle class="cls-1" cx="1119.2098" cy="1119.2098" r="21.0603"/><circle class="cls-1" cx="1322.7025" cy="1119.2098" r="51.768"/><circle class="cls-1" cx="1322.7025" cy="1119.2098" r="82.4757"/><line class="cls-1" x1="1301.6423" y1="1119.2098" x2="1220.9562" y2="1119.2098"/><line class="cls-1" x1="1424.4489" y1="1119.2098" x2="1343.7628" y2="1119.2098"/><line class="cls-1" x1="1322.7025" y1="1140.2701" x2="1322.7025" y2="1220.9562"/><line class="cls-1" x1="1322.7025" y1="1017.4635" x2="1322.7025" y2="1098.1496"/><line class="cls-1" x1="1307.8107" y1="1134.1017" x2="1220.9562" y2="1220.9562"/><line class="cls-1" x1="1424.4489" y1="1017.4635" x2="1337.5944" y2="1104.318"/><line class="cls-1" x1="1337.5944" y1="1134.1017" x2="1424.4489" y2="1220.9562"/><line class="cls-1" x1="1220.9562" y1="1017.4635" x2="1307.8107" y2="1104.318"/><circle class="cls-1" cx="1322.7025" cy="1119.2098" r="21.0603"/><circle class="cls-1" cx="1526.1952" cy="1119.2098" r="51.768"/><circle class="cls-1" cx="1526.1952" cy="1119.2098" r="82.4757"/><line class="cls-1" x1="1505.135" y1="1119.2098" x2="1424.4489" y2="1119.2098"/><line class="cls-1" x1="1627.9416" y1="1119.2098" x2="1547.2555" y2="1119.2098"/><line class="cls-1" x1="1526.1952" y1="1140.2701" x2="1526.1952" y2="1220.9562"/><line class="cls-1" x1="1526.1952" y1="1017.4635" x2="1526.1952" y2="1098.1496"/><line class="cls-1" x1="1511.3034" y1="1134.1017" x2="1424.4489" y2="1220.9562"/><line class="cls-1" x1="1627.9416" y1="1017.4635" x2="1541.0871" y2="1104.318"/><line class="cls-1" x1="1541.0871" y1="1134.1017" x2="1627.9416" y2="1220.9562"/><line class="cls-1" x1="1424.4489" y1="1017.4635" x2="1511.3034" y2="1104.318"/><circle class="cls-1" cx="1526.1952" cy="1119.2098" r="21.0603"/><circle class="cls-1" cx="1729.6879" cy="1119.2098" r="51.768"/><circle class="cls-1" cx="1729.6879" cy="1119.2098" r="82.4757"/><line class="cls-1" x1="1708.6276" y1="1119.2098" x2="1627.9416" y2="1119.2098"/><line class="cls-1" x1="1831.4343" y1="1119.2098" x2="1750.7482" y2="1119.2098"/><line class="cls-1" x1="1729.6879" y1="1140.2701" x2="1729.6879" y2="1220.9562"/><line class="cls-1" x1="1729.6879" y1="1017.4635" x2="1729.6879" y2="1098.1496"/><line class="cls-1" x1="1714.7961" y1="1134.1017" x2="1627.9416" y2="1220.9562"/><line class="cls-1" x1="1831.4343" y1="1017.4635" x2="1744.5798" y2="1104.318"/><line class="cls-1" x1="1744.5798" y1="1134.1017" x2="1831.4343" y2="1220.9562"/><line class="cls-1" x1="1627.9416" y1="1017.4635" x2="1714.7961" y2="1104.318"/><circle class="cls-1" cx="1729.6879" cy="1119.2098" r="21.0603"/><circle class="cls-1" cx="1933.1806" cy="1119.2098" r="51.768"/><circle class="cls-1" cx="1933.1806" cy="1119.2098" r="82.4757"/><line class="cls-1" x1="1912.1203" y1="1119.2098" x2="1831.4343" y2="1119.2098"/><line class="cls-1" x1="2034.927" y1="1119.2098" x2="1954.2409" y2="1119.2098"/><line class="cls-1" x1="1933.1806" y1="1140.2701" x2="1933.1806" y2="1220.9562"/><line class="cls-1" x1="1933.1806" y1="1017.4635" x2="1933.1806" y2="1098.1496"/><line class="cls-1" x1="1918.2888" y1="1134.1017" x2="1831.4343" y2="1220.9562"/><line class="cls-1" x1="2034.927" y1="1017.4635" x2="1948.0725" y2="1104.318"/><line class="cls-1" x1="1948.0725" y1="1134.1017" x2="2034.927" y2="1220.9562"/><line class="cls-1" x1="1831.4343" y1="1017.4635" x2="1918.2888" y2="1104.318"/><circle class="cls-1" cx="1933.1806" cy="1119.2098" r="21.0603"/><circle class="cls-1" cx="2136.6733" cy="1119.2098" r="51.768"/><circle class="cls-1" cx="2136.6733" cy="1119.2098" r="82.4757"/><line class="cls-1" x1="2115.613" y1="1119.2098" x2="2034.927" y2="1119.2098"/><line class="cls-1" x1="2238.4197" y1="1119.2098" x2="2157.7336" y2="1119.2098"/><line class="cls-1" x1="2136.6733" y1="1140.2701" x2="2136.6733" y2="1220.9562"/><line class="cls-1" x1="2136.6733" y1="1017.4635" x2="2136.6733" y2="1098.1496"/><line class="cls-1" x1="2121.7815" y1="1134.1017" x2="2034.927" y2="1220.9562"/><line class="cls-1" x1="2238.4197" y1="1017.4635" x2="2151.5652" y2="1104.318"/><line class="cls-1" x1="2151.5652" y1="1134.1017" x2="2238.4197" y2="1220.9562"/><line class="cls-1" x1="2034.927" y1="1017.4635" x2="2121.7815" y2="1104.318"/><circle class="cls-1" cx="2136.6733" cy="1119.2098" r="21.0603"/><circle class="cls-1" cx="2340.166" cy="1119.2098" r="51.768"/><circle class="cls-1" cx="2340.166" cy="1119.2098" r="82.4757"/><line class="cls-1" x1="2319.1057" y1="1119.2098" x2="2238.4197" y2="1119.2098"/><line class="cls-1" x1="2441.9124" y1="1119.2098" x2="2361.2263" y2="1119.2098"/><line class="cls-1" x1="2340.166" y1="1140.2701" x2="2340.166" y2="1220.9562"/><line class="cls-1" x1="2340.166" y1="1017.4635" x2="2340.166" y2="1098.1496"/><line class="cls-1" x1="2325.2742" y1="1134.1017" x2="2238.4197" y2="1220.9562"/><line class="cls-1" x1="2441.9124" y1="1017.4635" x2="2355.0579" y2="1104.318"/><line class="cls-1" x1="2355.0579" y1="1134.1017" x2="2441.9124" y2="1220.9562"/><line class="cls-1" x1="2238.4197" y1="1017.4635" x2="2325.2742" y2="1104.318"/><circle class="cls-1" cx="2340.166" cy="1119.2098" r="21.0603"/><circle class="cls-1" cx="2543.6587" cy="1119.2098" r="51.768"/><circle class="cls-1" cx="2543.6587" cy="1119.2098" r="82.4757"/><line class="cls-1" x1="2522.5984" y1="1119.2098" x2="2441.9124" y2="1119.2098"/><line class="cls-1" x1="2645.4051" y1="1119.2098" x2="2564.719" y2="1119.2098"/><line class="cls-1" x1="2543.6587" y1="1140.2701" x2="2543.6587" y2="1220.9562"/><line class="cls-1" x1="2543.6587" y1="1017.4635" x2="2543.6587" y2="1098.1496"/><line class="cls-1" x1="2528.7668" y1="1134.1017" x2="2441.9124" y2="1220.9562"/><line class="cls-1" x1="2645.4051" y1="1017.4635" x2="2558.5506" y2="1104.318"/><line class="cls-1" x1="2558.5506" y1="1134.1017" x2="2645.4051" y2="1220.9562"/><line class="cls-1" x1="2441.9124" y1="1017.4635" x2="2528.7668" y2="1104.318"/><circle class="cls-1" cx="2543.6587" cy="1119.2098" r="21.0603"/><circle class="cls-1" cx="101.7463" cy="1322.7025" r="51.768"/><circle class="cls-1" cx="101.7463" cy="1322.7025" r="82.4757"/><line class="cls-1" x1="80.6861" y1="1322.7025" y2="1322.7025"/><line class="cls-1" x1="203.4927" y1="1322.7025" x2="122.8066" y2="1322.7025"/><line class="cls-1" x1="101.7463" y1="1343.7628" x2="101.7463" y2="1424.4489"/><line class="cls-1" x1="101.7463" y1="1220.9562" x2="101.7463" y2="1301.6423"/><line class="cls-1" x1="86.8545" y1="1337.5944" x2="0" y2="1424.4489"/><line class="cls-1" x1="203.4927" y1="1220.9562" x2="116.6382" y2="1307.8107"/><line class="cls-1" x1="116.6382" y1="1337.5944" x2="203.4927" y2="1424.4489"/><line class="cls-1" y1="1220.9562" x2="86.8545" y2="1307.8107"/><circle class="cls-1" cx="101.7463" cy="1322.7025" r="21.0603"/><circle class="cls-1" cx="305.239" cy="1322.7025" r="51.768"/><circle class="cls-1" cx="305.239" cy="1322.7025" r="82.4757"/><line class="cls-1" x1="284.1788" y1="1322.7025" x2="203.4927" y2="1322.7025"/><line class="cls-1" x1="406.9854" y1="1322.7025" x2="326.2993" y2="1322.7025"/><line class="cls-1" x1="305.239" y1="1343.7628" x2="305.239" y2="1424.4489"/><line class="cls-1" x1="305.239" y1="1220.9562" x2="305.239" y2="1301.6423"/><line class="cls-1" x1="290.3472" y1="1337.5944" x2="203.4927" y2="1424.4489"/><line class="cls-1" x1="406.9854" y1="1220.9562" x2="320.1309" y2="1307.8107"/><line class="cls-1" x1="320.1309" y1="1337.5944" x2="406.9854" y2="1424.4489"/><line class="cls-1" x1="203.4927" y1="1220.9562" x2="290.3472" y2="1307.8107"/><circle class="cls-1" cx="305.239" cy="1322.7025" r="21.0603"/><circle class="cls-1" cx="508.7317" cy="1322.7025" r="51.768"/><circle class="cls-1" cx="508.7317" cy="1322.7025" r="82.4757"/><line class="cls-1" x1="487.6715" y1="1322.7025" x2="406.9854" y2="1322.7025"/><line class="cls-1" x1="610.4781" y1="1322.7025" x2="529.792" y2="1322.7025"/><line class="cls-1" x1="508.7317" y1="1343.7628" x2="508.7317" y2="1424.4489"/><line class="cls-1" x1="508.7317" y1="1220.9562" x2="508.7317" y2="1301.6423"/><line class="cls-1" x1="493.8399" y1="1337.5944" x2="406.9854" y2="1424.4489"/><line class="cls-1" x1="610.4781" y1="1220.9562" x2="523.6236" y2="1307.8107"/><line class="cls-1" x1="523.6236" y1="1337.5944" x2="610.4781" y2="1424.4489"/><line class="cls-1" x1="406.9854" y1="1220.9562" x2="493.8399" y2="1307.8107"/><circle class="cls-1" cx="508.7317" cy="1322.7025" r="21.0603"/><circle class="cls-1" cx="712.2244" cy="1322.7025" r="51.768"/><circle class="cls-1" cx="712.2244" cy="1322.7025" r="82.4757"/><line class="cls-1" x1="691.1642" y1="1322.7025" x2="610.4781" y2="1322.7025"/><line class="cls-1" x1="813.9708" y1="1322.7025" x2="733.2847" y2="1322.7025"/><line class="cls-1" x1="712.2244" y1="1343.7628" x2="712.2244" y2="1424.4489"/><line class="cls-1" x1="712.2244" y1="1220.9562" x2="712.2244" y2="1301.6423"/><line class="cls-1" x1="697.3326" y1="1337.5944" x2="610.4781" y2="1424.4489"/><line class="cls-1" x1="813.9708" y1="1220.9562" x2="727.1163" y2="1307.8107"/><line class="cls-1" x1="727.1163" y1="1337.5944" x2="813.9708" y2="1424.4489"/><line class="cls-1" x1="610.4781" y1="1220.9562" x2="697.3326" y2="1307.8107"/><circle class="cls-1" cx="712.2244" cy="1322.7025" r="21.0603"/><circle class="cls-1" cx="915.7171" cy="1322.7025" r="51.768"/><circle class="cls-1" cx="915.7171" cy="1322.7025" r="82.4757"/><line class="cls-1" x1="894.6569" y1="1322.7025" x2="813.9708" y2="1322.7025"/><line class="cls-1" x1="1017.4635" y1="1322.7025" x2="936.7774" y2="1322.7025"/><line class="cls-1" x1="915.7171" y1="1343.7628" x2="915.7171" y2="1424.4489"/><line class="cls-1" x1="915.7171" y1="1220.9562" x2="915.7171" y2="1301.6423"/><line class="cls-1" x1="900.8253" y1="1337.5944" x2="813.9708" y2="1424.4489"/><line class="cls-1" x1="1017.4635" y1="1220.9562" x2="930.609" y2="1307.8107"/><line class="cls-1" x1="930.609" y1="1337.5944" x2="1017.4635" y2="1424.4489"/><line class="cls-1" x1="813.9708" y1="1220.9562" x2="900.8253" y2="1307.8107"/><circle class="cls-1" cx="915.7171" cy="1322.7025" r="21.0603"/><circle class="cls-1" cx="1119.2098" cy="1322.7025" r="51.768"/><circle class="cls-1" cx="1119.2098" cy="1322.7025" r="82.4757"/><line class="cls-1" x1="1098.1496" y1="1322.7025" x2="1017.4635" y2="1322.7025"/><line class="cls-1" x1="1220.9562" y1="1322.7025" x2="1140.2701" y2="1322.7025"/><line class="cls-1" x1="1119.2098" y1="1343.7628" x2="1119.2098" y2="1424.4489"/><line class="cls-1" x1="1119.2098" y1="1220.9562" x2="1119.2098" y2="1301.6423"/><line class="cls-1" x1="1104.318" y1="1337.5944" x2="1017.4635" y2="1424.4489"/><line class="cls-1" x1="1220.9562" y1="1220.9562" x2="1134.1017" y2="1307.8107"/><line class="cls-1" x1="1134.1017" y1="1337.5944" x2="1220.9562" y2="1424.4489"/><line class="cls-1" x1="1017.4635" y1="1220.9562" x2="1104.318" y2="1307.8107"/><circle class="cls-1" cx="1119.2098" cy="1322.7025" r="21.0603"/><circle class="cls-1" cx="1322.7025" cy="1322.7025" r="51.768"/><circle class="cls-1" cx="1322.7025" cy="1322.7025" r="82.4757"/><line class="cls-1" x1="1301.6423" y1="1322.7025" x2="1220.9562" y2="1322.7025"/><line class="cls-1" x1="1424.4489" y1="1322.7025" x2="1343.7628" y2="1322.7025"/><line class="cls-1" x1="1322.7025" y1="1343.7628" x2="1322.7025" y2="1424.4489"/><line class="cls-1" x1="1322.7025" y1="1220.9562" x2="1322.7025" y2="1301.6423"/><line class="cls-1" x1="1307.8107" y1="1337.5944" x2="1220.9562" y2="1424.4489"/><line class="cls-1" x1="1424.4489" y1="1220.9562" x2="1337.5944" y2="1307.8107"/><line class="cls-1" x1="1337.5944" y1="1337.5944" x2="1424.4489" y2="1424.4489"/><line class="cls-1" x1="1220.9562" y1="1220.9562" x2="1307.8107" y2="1307.8107"/><circle class="cls-1" cx="1322.7025" cy="1322.7025" r="21.0603"/><circle class="cls-1" cx="1526.1952" cy="1322.7025" r="51.768"/><circle class="cls-1" cx="1526.1952" cy="1322.7025" r="82.4757"/><line class="cls-1" x1="1505.135" y1="1322.7025" x2="1424.4489" y2="1322.7025"/><line class="cls-1" x1="1627.9416" y1="1322.7025" x2="1547.2555" y2="1322.7025"/><line class="cls-1" x1="1526.1952" y1="1343.7628" x2="1526.1952" y2="1424.4489"/><line class="cls-1" x1="1526.1952" y1="1220.9562" x2="1526.1952" y2="1301.6423"/><line class="cls-1" x1="1511.3034" y1="1337.5944" x2="1424.4489" y2="1424.4489"/><line class="cls-1" x1="1627.9416" y1="1220.9562" x2="1541.0871" y2="1307.8107"/><line class="cls-1" x1="1541.0871" y1="1337.5944" x2="1627.9416" y2="1424.4489"/><line class="cls-1" x1="1424.4489" y1="1220.9562" x2="1511.3034" y2="1307.8107"/><circle class="cls-1" cx="1526.1952" cy="1322.7025" r="21.0603"/><circle class="cls-1" cx="1729.6879" cy="1322.7025" r="51.768"/><circle class="cls-1" cx="1729.6879" cy="1322.7025" r="82.4757"/><line class="cls-1" x1="1708.6276" y1="1322.7025" x2="1627.9416" y2="1322.7025"/><line class="cls-1" x1="1831.4343" y1="1322.7025" x2="1750.7482" y2="1322.7025"/><line class="cls-1" x1="1729.6879" y1="1343.7628" x2="1729.6879" y2="1424.4489"/><line class="cls-1" x1="1729.6879" y1="1220.9562" x2="1729.6879" y2="1301.6423"/><line class="cls-1" x1="1714.7961" y1="1337.5944" x2="1627.9416" y2="1424.4489"/><line class="cls-1" x1="1831.4343" y1="1220.9562" x2="1744.5798" y2="1307.8107"/><line class="cls-1" x1="1744.5798" y1="1337.5944" x2="1831.4343" y2="1424.4489"/><line class="cls-1" x1="1627.9416" y1="1220.9562" x2="1714.7961" y2="1307.8107"/><circle class="cls-1" cx="1729.6879" cy="1322.7025" r="21.0603"/><circle class="cls-1" cx="1933.1806" cy="1322.7025" r="51.768"/><circle class="cls-1" cx="1933.1806" cy="1322.7025" r="82.4757"/><line class="cls-1" x1="1912.1203" y1="1322.7025" x2="1831.4343" y2="1322.7025"/><line class="cls-1" x1="2034.927" y1="1322.7025" x2="1954.2409" y2="1322.7025"/><line class="cls-1" x1="1933.1806" y1="1343.7628" x2="1933.1806" y2="1424.4489"/><line class="cls-1" x1="1933.1806" y1="1220.9562" x2="1933.1806" y2="1301.6423"/><line class="cls-1" x1="1918.2888" y1="1337.5944" x2="1831.4343" y2="1424.4489"/><line class="cls-1" x1="2034.927" y1="1220.9562" x2="1948.0725" y2="1307.8107"/><line class="cls-1" x1="1948.0725" y1="1337.5944" x2="2034.927" y2="1424.4489"/><line class="cls-1" x1="1831.4343" y1="1220.9562" x2="1918.2888" y2="1307.8107"/><circle class="cls-1" cx="1933.1806" cy="1322.7025" r="21.0603"/><circle class="cls-1" cx="2136.6733" cy="1322.7025" r="51.768"/><circle class="cls-1" cx="2136.6733" cy="1322.7025" r="82.4757"/><line class="cls-1" x1="2115.613" y1="1322.7025" x2="2034.927" y2="1322.7025"/><line class="cls-1" x1="2238.4197" y1="1322.7025" x2="2157.7336" y2="1322.7025"/><line class="cls-1" x1="2136.6733" y1="1343.7628" x2="2136.6733" y2="1424.4489"/><line class="cls-1" x1="2136.6733" y1="1220.9562" x2="2136.6733" y2="1301.6423"/><line class="cls-1" x1="2121.7815" y1="1337.5944" x2="2034.927" y2="1424.4489"/><line class="cls-1" x1="2238.4197" y1="1220.9562" x2="2151.5652" y2="1307.8107"/><line class="cls-1" x1="2151.5652" y1="1337.5944" x2="2238.4197" y2="1424.4489"/><line class="cls-1" x1="2034.927" y1="1220.9562" x2="2121.7815" y2="1307.8107"/><circle class="cls-1" cx="2136.6733" cy="1322.7025" r="21.0603"/><circle class="cls-1" cx="2340.166" cy="1322.7025" r="51.768"/><circle class="cls-1" cx="2340.166" cy="1322.7025" r="82.4757"/><line class="cls-1" x1="2319.1057" y1="1322.7025" x2="2238.4197" y2="1322.7025"/><line class="cls-1" x1="2441.9124" y1="1322.7025" x2="2361.2263" y2="1322.7025"/><line class="cls-1" x1="2340.166" y1="1343.7628" x2="2340.166" y2="1424.4489"/><line class="cls-1" x1="2340.166" y1="1220.9562" x2="2340.166" y2="1301.6423"/><line class="cls-1" x1="2325.2742" y1="1337.5944" x2="2238.4197" y2="1424.4489"/><line class="cls-1" x1="2441.9124" y1="1220.9562" x2="2355.0579" y2="1307.8107"/><line class="cls-1" x1="2355.0579" y1="1337.5944" x2="2441.9124" y2="1424.4489"/><line class="cls-1" x1="2238.4197" y1="1220.9562" x2="2325.2742" y2="1307.8107"/><circle class="cls-1" cx="2340.166" cy="1322.7025" r="21.0603"/><circle class="cls-1" cx="2543.6587" cy="1322.7025" r="51.768"/><circle class="cls-1" cx="2543.6587" cy="1322.7025" r="82.4757"/><line class="cls-1" x1="2522.5984" y1="1322.7025" x2="2441.9124" y2="1322.7025"/><line class="cls-1" x1="2645.4051" y1="1322.7025" x2="2564.719" y2="1322.7025"/><line class="cls-1" x1="2543.6587" y1="1343.7628" x2="2543.6587" y2="1424.4489"/><line class="cls-1" x1="2543.6587" y1="1220.9562" x2="2543.6587" y2="1301.6423"/><line class="cls-1" x1="2528.7668" y1="1337.5944" x2="2441.9124" y2="1424.4489"/><line class="cls-1" x1="2645.4051" y1="1220.9562" x2="2558.5506" y2="1307.8107"/><line class="cls-1" x1="2558.5506" y1="1337.5944" x2="2645.4051" y2="1424.4489"/><line class="cls-1" x1="2441.9124" y1="1220.9562" x2="2528.7668" y2="1307.8107"/><circle class="cls-1" cx="2543.6587" cy="1322.7025" r="21.0603"/><circle class="cls-1" cx="101.7463" cy="1526.1952" r="51.768"/><circle class="cls-1" cx="101.7463" cy="1526.1952" r="82.4757"/><line class="cls-1" x1="80.6861" y1="1526.1952" y2="1526.1952"/><line class="cls-1" x1="203.4927" y1="1526.1952" x2="122.8066" y2="1526.1952"/><line class="cls-1" x1="101.7463" y1="1547.2555" x2="101.7463" y2="1627.9416"/><line class="cls-1" x1="101.7463" y1="1424.4489" x2="101.7463" y2="1505.135"/><line class="cls-1" x1="86.8545" y1="1541.0871" x2="0" y2="1627.9416"/><line class="cls-1" x1="203.4927" y1="1424.4489" x2="116.6382" y2="1511.3034"/><line class="cls-1" x1="116.6382" y1="1541.0871" x2="203.4927" y2="1627.9416"/><line class="cls-1" y1="1424.4489" x2="86.8545" y2="1511.3034"/><circle class="cls-1" cx="101.7463" cy="1526.1952" r="21.0603"/><circle class="cls-1" cx="305.239" cy="1526.1952" r="51.768"/><circle class="cls-1" cx="305.239" cy="1526.1952" r="82.4757"/><line class="cls-1" x1="284.1788" y1="1526.1952" x2="203.4927" y2="1526.1952"/><line class="cls-1" x1="406.9854" y1="1526.1952" x2="326.2993" y2="1526.1952"/><line class="cls-1" x1="305.239" y1="1547.2555" x2="305.239" y2="1627.9416"/><line class="cls-1" x1="305.239" y1="1424.4489" x2="305.239" y2="1505.135"/><line class="cls-1" x1="290.3472" y1="1541.0871" x2="203.4927" y2="1627.9416"/><line class="cls-1" x1="406.9854" y1="1424.4489" x2="320.1309" y2="1511.3034"/><line class="cls-1" x1="320.1309" y1="1541.0871" x2="406.9854" y2="1627.9416"/><line class="cls-1" x1="203.4927" y1="1424.4489" x2="290.3472" y2="1511.3034"/><circle class="cls-1" cx="305.239" cy="1526.1952" r="21.0603"/><circle class="cls-1" cx="508.7317" cy="1526.1952" r="51.768"/><circle class="cls-1" cx="508.7317" cy="1526.1952" r="82.4757"/><line class="cls-1" x1="487.6715" y1="1526.1952" x2="406.9854" y2="1526.1952"/><line class="cls-1" x1="610.4781" y1="1526.1952" x2="529.792" y2="1526.1952"/><line class="cls-1" x1="508.7317" y1="1547.2555" x2="508.7317" y2="1627.9416"/><line class="cls-1" x1="508.7317" y1="1424.4489" x2="508.7317" y2="1505.135"/><line class="cls-1" x1="493.8399" y1="1541.0871" x2="406.9854" y2="1627.9416"/><line class="cls-1" x1="610.4781" y1="1424.4489" x2="523.6236" y2="1511.3034"/><line class="cls-1" x1="523.6236" y1="1541.0871" x2="610.4781" y2="1627.9416"/><line class="cls-1" x1="406.9854" y1="1424.4489" x2="493.8399" y2="1511.3034"/><circle class="cls-1" cx="508.7317" cy="1526.1952" r="21.0603"/><circle class="cls-1" cx="712.2244" cy="1526.1952" r="51.768"/><circle class="cls-1" cx="712.2244" cy="1526.1952" r="82.4757"/><line class="cls-1" x1="691.1642" y1="1526.1952" x2="610.4781" y2="1526.1952"/><line class="cls-1" x1="813.9708" y1="1526.1952" x2="733.2847" y2="1526.1952"/><line class="cls-1" x1="712.2244" y1="1547.2555" x2="712.2244" y2="1627.9416"/><line class="cls-1" x1="712.2244" y1="1424.4489" x2="712.2244" y2="1505.135"/><line class="cls-1" x1="697.3326" y1="1541.0871" x2="610.4781" y2="1627.9416"/><line class="cls-1" x1="813.9708" y1="1424.4489" x2="727.1163" y2="1511.3034"/><line class="cls-1" x1="727.1163" y1="1541.0871" x2="813.9708" y2="1627.9416"/><line class="cls-1" x1="610.4781" y1="1424.4489" x2="697.3326" y2="1511.3034"/><circle class="cls-1" cx="712.2244" cy="1526.1952" r="21.0603"/><circle class="cls-1" cx="915.7171" cy="1526.1952" r="51.768"/><circle class="cls-1" cx="915.7171" cy="1526.1952" r="82.4757"/><line class="cls-1" x1="894.6569" y1="1526.1952" x2="813.9708" y2="1526.1952"/><line class="cls-1" x1="1017.4635" y1="1526.1952" x2="936.7774" y2="1526.1952"/><line class="cls-1" x1="915.7171" y1="1547.2555" x2="915.7171" y2="1627.9416"/><line class="cls-1" x1="915.7171" y1="1424.4489" x2="915.7171" y2="1505.135"/><line class="cls-1" x1="900.8253" y1="1541.0871" x2="813.9708" y2="1627.9416"/><line class="cls-1" x1="1017.4635" y1="1424.4489" x2="930.609" y2="1511.3034"/><line class="cls-1" x1="930.609" y1="1541.0871" x2="1017.4635" y2="1627.9416"/><line class="cls-1" x1="813.9708" y1="1424.4489" x2="900.8253" y2="1511.3034"/><circle class="cls-1" cx="915.7171" cy="1526.1952" r="21.0603"/><circle class="cls-1" cx="1119.2098" cy="1526.1952" r="51.768"/><circle class="cls-1" cx="1119.2098" cy="1526.1952" r="82.4757"/><line class="cls-1" x1="1098.1496" y1="1526.1952" x2="1017.4635" y2="1526.1952"/><line class="cls-1" x1="1220.9562" y1="1526.1952" x2="1140.2701" y2="1526.1952"/><line class="cls-1" x1="1119.2098" y1="1547.2555" x2="1119.2098" y2="1627.9416"/><line class="cls-1" x1="1119.2098" y1="1424.4489" x2="1119.2098" y2="1505.135"/><line class="cls-1" x1="1104.318" y1="1541.0871" x2="1017.4635" y2="1627.9416"/><line class="cls-1" x1="1220.9562" y1="1424.4489" x2="1134.1017" y2="1511.3034"/><line class="cls-1" x1="1134.1017" y1="1541.0871" x2="1220.9562" y2="1627.9416"/><line class="cls-1" x1="1017.4635" y1="1424.4489" x2="1104.318" y2="1511.3034"/><circle class="cls-1" cx="1119.2098" cy="1526.1952" r="21.0603"/><circle class="cls-1" cx="1322.7025" cy="1526.1952" r="51.768"/><circle class="cls-1" cx="1322.7025" cy="1526.1952" r="82.4757"/><line class="cls-1" x1="1301.6423" y1="1526.1952" x2="1220.9562" y2="1526.1952"/><line class="cls-1" x1="1424.4489" y1="1526.1952" x2="1343.7628" y2="1526.1952"/><line class="cls-1" x1="1322.7025" y1="1547.2555" x2="1322.7025" y2="1627.9416"/><line class="cls-1" x1="1322.7025" y1="1424.4489" x2="1322.7025" y2="1505.135"/><line class="cls-1" x1="1307.8107" y1="1541.0871" x2="1220.9562" y2="1627.9416"/><line class="cls-1" x1="1424.4489" y1="1424.4489" x2="1337.5944" y2="1511.3034"/><line class="cls-1" x1="1337.5944" y1="1541.0871" x2="1424.4489" y2="1627.9416"/><line class="cls-1" x1="1220.9562" y1="1424.4489" x2="1307.8107" y2="1511.3034"/><circle class="cls-1" cx="1322.7025" cy="1526.1952" r="21.0603"/><circle class="cls-1" cx="1526.1952" cy="1526.1952" r="51.768"/><circle class="cls-1" cx="1526.1952" cy="1526.1952" r="82.4757"/><line class="cls-1" x1="1505.135" y1="1526.1952" x2="1424.4489" y2="1526.1952"/><line class="cls-1" x1="1627.9416" y1="1526.1952" x2="1547.2555" y2="1526.1952"/><line class="cls-1" x1="1526.1952" y1="1547.2555" x2="1526.1952" y2="1627.9416"/><line class="cls-1" x1="1526.1952" y1="1424.4489" x2="1526.1952" y2="1505.135"/><line class="cls-1" x1="1511.3034" y1="1541.0871" x2="1424.4489" y2="1627.9416"/><line class="cls-1" x1="1627.9416" y1="1424.4489" x2="1541.0871" y2="1511.3034"/><line class="cls-1" x1="1541.0871" y1="1541.0871" x2="1627.9416" y2="1627.9416"/><line class="cls-1" x1="1424.4489" y1="1424.4489" x2="1511.3034" y2="1511.3034"/><circle class="cls-1" cx="1526.1952" cy="1526.1952" r="21.0603"/><circle class="cls-1" cx="1729.6879" cy="1526.1952" r="51.768"/><circle class="cls-1" cx="1729.6879" cy="1526.1952" r="82.4757"/><line class="cls-1" x1="1708.6276" y1="1526.1952" x2="1627.9416" y2="1526.1952"/><line class="cls-1" x1="1831.4343" y1="1526.1952" x2="1750.7482" y2="1526.1952"/><line class="cls-1" x1="1729.6879" y1="1547.2555" x2="1729.6879" y2="1627.9416"/><line class="cls-1" x1="1729.6879" y1="1424.4489" x2="1729.6879" y2="1505.135"/><line class="cls-1" x1="1714.7961" y1="1541.0871" x2="1627.9416" y2="1627.9416"/><line class="cls-1" x1="1831.4343" y1="1424.4489" x2="1744.5798" y2="1511.3034"/><line class="cls-1" x1="1744.5798" y1="1541.0871" x2="1831.4343" y2="1627.9416"/><line class="cls-1" x1="1627.9416" y1="1424.4489" x2="1714.7961" y2="1511.3034"/><circle class="cls-1" cx="1729.6879" cy="1526.1952" r="21.0603"/><circle class="cls-1" cx="1933.1806" cy="1526.1952" r="51.768"/><circle class="cls-1" cx="1933.1806" cy="1526.1952" r="82.4757"/><line class="cls-1" x1="1912.1203" y1="1526.1952" x2="1831.4343" y2="1526.1952"/><line class="cls-1" x1="2034.927" y1="1526.1952" x2="1954.2409" y2="1526.1952"/><line class="cls-1" x1="1933.1806" y1="1547.2555" x2="1933.1806" y2="1627.9416"/><line class="cls-1" x1="1933.1806" y1="1424.4489" x2="1933.1806" y2="1505.135"/><line class="cls-1" x1="1918.2888" y1="1541.0871" x2="1831.4343" y2="1627.9416"/><line class="cls-1" x1="2034.927" y1="1424.4489" x2="1948.0725" y2="1511.3034"/><line class="cls-1" x1="1948.0725" y1="1541.0871" x2="2034.927" y2="1627.9416"/><line class="cls-1" x1="1831.4343" y1="1424.4489" x2="1918.2888" y2="1511.3034"/><circle class="cls-1" cx="1933.1806" cy="1526.1952" r="21.0603"/><circle class="cls-1" cx="2136.6733" cy="1526.1952" r="51.768"/><circle class="cls-1" cx="2136.6733" cy="1526.1952" r="82.4757"/><line class="cls-1" x1="2115.613" y1="1526.1952" x2="2034.927" y2="1526.1952"/><line class="cls-1" x1="2238.4197" y1="1526.1952" x2="2157.7336" y2="1526.1952"/><line class="cls-1" x1="2136.6733" y1="1547.2555" x2="2136.6733" y2="1627.9416"/><line class="cls-1" x1="2136.6733" y1="1424.4489" x2="2136.6733" y2="1505.135"/><line class="cls-1" x1="2121.7815" y1="1541.0871" x2="2034.927" y2="1627.9416"/><line class="cls-1" x1="2238.4197" y1="1424.4489" x2="2151.5652" y2="1511.3034"/><line class="cls-1" x1="2151.5652" y1="1541.0871" x2="2238.4197" y2="1627.9416"/><line class="cls-1" x1="2034.927" y1="1424.4489" x2="2121.7815" y2="1511.3034"/><circle class="cls-1" cx="2136.6733" cy="1526.1952" r="21.0603"/><circle class="cls-1" cx="2340.166" cy="1526.1952" r="51.768"/><circle class="cls-1" cx="2340.166" cy="1526.1952" r="82.4757"/><line class="cls-1" x1="2319.1057" y1="1526.1952" x2="2238.4197" y2="1526.1952"/><line class="cls-1" x1="2441.9124" y1="1526.1952" x2="2361.2263" y2="1526.1952"/><line class="cls-1" x1="2340.166" y1="1547.2555" x2="2340.166" y2="1627.9416"/><line class="cls-1" x1="2340.166" y1="1424.4489" x2="2340.166" y2="1505.135"/><line class="cls-1" x1="2325.2742" y1="1541.0871" x2="2238.4197" y2="1627.9416"/><line class="cls-1" x1="2441.9124" y1="1424.4489" x2="2355.0579" y2="1511.3034"/><line class="cls-1" x1="2355.0579" y1="1541.0871" x2="2441.9124" y2="1627.9416"/><line class="cls-1" x1="2238.4197" y1="1424.4489" x2="2325.2742" y2="1511.3034"/><circle class="cls-1" cx="2340.166" cy="1526.1952" r="21.0603"/><circle class="cls-1" cx="2543.6587" cy="1526.1952" r="51.768"/><circle class="cls-1" cx="2543.6587" cy="1526.1952" r="82.4757"/><line class="cls-1" x1="2522.5984" y1="1526.1952" x2="2441.9124" y2="1526.1952"/><line class="cls-1" x1="2645.4051" y1="1526.1952" x2="2564.719" y2="1526.1952"/><line class="cls-1" x1="2543.6587" y1="1547.2555" x2="2543.6587" y2="1627.9416"/><line class="cls-1" x1="2543.6587" y1="1424.4489" x2="2543.6587" y2="1505.135"/><line class="cls-1" x1="2528.7668" y1="1541.0871" x2="2441.9124" y2="1627.9416"/><line class="cls-1" x1="2645.4051" y1="1424.4489" x2="2558.5506" y2="1511.3034"/><line class="cls-1" x1="2558.5506" y1="1541.0871" x2="2645.4051" y2="1627.9416"/><line class="cls-1" x1="2441.9124" y1="1424.4489" x2="2528.7668" y2="1511.3034"/><circle class="cls-1" cx="2543.6587" cy="1526.1952" r="21.0603"/></svg>