<?xml version="1.0" encoding="UTF-8"?>
<svg id="Layer_1" data-name="Layer 1" xmlns="http://www.w3.org/2000/svg" viewBox="0 0 2553.52 1629.07">
  <defs>
    <style>
      .cls-1 {
        fill: none;
        stroke: #000;
        stroke-miterlimit: 10;
        stroke-width: 4px;
      }
    </style>
  </defs>
  <g>
    <ellipse class="cls-1" cx="123.04" cy="205.13" rx="88.73" ry="35.45"/>
    <ellipse class="cls-1" cx="123.04" cy="69.71" rx="88.73" ry="35.45"/>
    <ellipse class="cls-1" cx="123.04" cy="137.42" rx="121.04" ry="67.71"/>
    <ellipse class="cls-1" cx="123.04" cy="137.42" rx="72.62" ry="67.71"/>
    <ellipse class="cls-1" cx="123.04" cy="137.42" rx="24.21" ry="67.71"/>
    <line class="cls-1" x1="2" y1="137.42" x2="244.08" y2="137.42"/>
    <path class="cls-1" d="M421.53,272.85c0-19.58-39.72-35.45-88.73-35.45s-88.73,15.87-88.73,35.45"/>
    <ellipse class="cls-1" cx="332.81" cy="137.42" rx="88.73" ry="35.45"/>
    <ellipse class="cls-1" cx="332.81" cy="205.13" rx="121.04" ry="67.71"/>
    <ellipse class="cls-1" cx="332.81" cy="205.13" rx="72.62" ry="67.71"/>
    <ellipse class="cls-1" cx="332.81" cy="205.13" rx="24.21" ry="67.71"/>
    <line class="cls-1" x1="211.77" y1="205.13" x2="453.85" y2="205.13"/>
    <path class="cls-1" d="M244.08,2c0,19.58,39.72,35.45,88.73,35.45s88.73-15.87,88.73-35.45"/>
    <ellipse class="cls-1" cx="332.81" cy="69.71" rx="121.04" ry="67.71"/>
    <ellipse class="cls-1" cx="332.81" cy="69.71" rx="72.62" ry="67.71"/>
    <ellipse class="cls-1" cx="332.81" cy="69.71" rx="24.21" ry="67.71"/>
    <line class="cls-1" x1="211.77" y1="69.71" x2="453.85" y2="69.71"/>
    <path class="cls-1" d="M2,272.85c0-37.4,54.19-67.71,121.04-67.71s121.04,30.32,121.04,67.71"/>
    <path class="cls-1" d="M50.42,272.85c0-37.4,32.52-67.71,72.62-67.71s72.62,30.32,72.62,67.71"/>
    <path class="cls-1" d="M98.83,272.85c0-37.4,10.84-67.71,24.21-67.71s24.21,30.32,24.21,67.71"/>
    <path class="cls-1" d="M211.77,69.71c0-19.58-39.72-35.45-88.73-35.45s-88.73,15.87-88.73,35.45"/>
    <path class="cls-1" d="M244.08,2c0,37.4-54.19,67.71-121.04,67.71S2,39.4,2,2"/>
    <path class="cls-1" d="M195.67,2c0,37.4-32.52,67.71-72.62,67.71S50.42,39.4,50.42,2"/>
    <path class="cls-1" d="M147.25,2c0,37.4-10.84,67.71-24.21,67.71s-24.21-30.32-24.21-67.71"/>
    <line class="cls-1" x1="2" y1="2" x2="244.08" y2="2"/>
    <ellipse class="cls-1" cx="123.04" cy="475.98" rx="88.73" ry="35.45"/>
    <ellipse class="cls-1" cx="123.04" cy="340.56" rx="88.73" ry="35.45"/>
    <ellipse class="cls-1" cx="123.04" cy="408.27" rx="121.04" ry="67.71"/>
    <ellipse class="cls-1" cx="123.04" cy="408.27" rx="72.62" ry="67.71"/>
    <ellipse class="cls-1" cx="123.04" cy="408.27" rx="24.21" ry="67.71"/>
    <line class="cls-1" x1="2" y1="408.27" x2="244.08" y2="408.27"/>
    <path class="cls-1" d="M421.53,543.69c0-19.58-39.72-35.45-88.73-35.45s-88.73,15.87-88.73,35.45"/>
    <ellipse class="cls-1" cx="332.81" cy="408.27" rx="88.73" ry="35.45"/>
    <ellipse class="cls-1" cx="332.81" cy="475.98" rx="121.04" ry="67.71"/>
    <ellipse class="cls-1" cx="332.81" cy="475.98" rx="72.62" ry="67.71"/>
    <ellipse class="cls-1" cx="332.81" cy="475.98" rx="24.21" ry="67.71"/>
    <line class="cls-1" x1="211.77" y1="475.98" x2="453.85" y2="475.98"/>
    <path class="cls-1" d="M244.08,272.85c0,19.58,39.72,35.45,88.73,35.45s88.73-15.87,88.73-35.45"/>
    <ellipse class="cls-1" cx="332.81" cy="340.56" rx="121.04" ry="67.71"/>
    <ellipse class="cls-1" cx="332.81" cy="340.56" rx="72.62" ry="67.71"/>
    <ellipse class="cls-1" cx="332.81" cy="340.56" rx="24.21" ry="67.71"/>
    <line class="cls-1" x1="211.77" y1="340.56" x2="453.85" y2="340.56"/>
    <path class="cls-1" d="M2,543.69c0-37.4,54.19-67.71,121.04-67.71s121.04,30.32,121.04,67.71"/>
    <path class="cls-1" d="M50.42,543.69c0-37.4,32.52-67.71,72.62-67.71s72.62,30.32,72.62,67.71"/>
    <path class="cls-1" d="M98.83,543.69c0-37.4,10.84-67.71,24.21-67.71s24.21,30.32,24.21,67.71"/>
    <path class="cls-1" d="M211.77,340.56c0-19.58-39.72-35.45-88.73-35.45s-88.73,15.87-88.73,35.45"/>
    <path class="cls-1" d="M244.08,272.85c0,37.4-54.19,67.71-121.04,67.71S2,310.24,2,272.85"/>
    <path class="cls-1" d="M195.67,272.85c0,37.4-32.52,67.71-72.62,67.71s-72.62-30.32-72.62-67.71"/>
    <path class="cls-1" d="M147.25,272.85c0,37.4-10.84,67.71-24.21,67.71s-24.21-30.32-24.21-67.71"/>
    <line class="cls-1" x1="2" y1="272.85" x2="244.08" y2="272.85"/>
    <ellipse class="cls-1" cx="542.58" cy="205.13" rx="88.73" ry="35.45"/>
    <ellipse class="cls-1" cx="542.58" cy="69.71" rx="88.73" ry="35.45"/>
    <ellipse class="cls-1" cx="542.58" cy="137.42" rx="121.04" ry="67.71"/>
    <ellipse class="cls-1" cx="542.58" cy="137.42" rx="72.62" ry="67.71"/>
    <ellipse class="cls-1" cx="542.58" cy="137.42" rx="24.21" ry="67.71"/>
    <line class="cls-1" x1="421.53" y1="137.42" x2="663.62" y2="137.42"/>
    <path class="cls-1" d="M841.07,272.85c0-19.58-39.72-35.45-88.73-35.45s-88.73,15.87-88.73,35.45"/>
    <ellipse class="cls-1" cx="752.34" cy="137.42" rx="88.73" ry="35.45"/>
    <ellipse class="cls-1" cx="752.34" cy="205.13" rx="121.04" ry="67.71"/>
    <ellipse class="cls-1" cx="752.34" cy="205.13" rx="72.62" ry="67.71"/>
    <ellipse class="cls-1" cx="752.34" cy="205.13" rx="24.21" ry="67.71"/>
    <line class="cls-1" x1="631.3" y1="205.13" x2="873.38" y2="205.13"/>
    <path class="cls-1" d="M663.62,2c0,19.58,39.72,35.45,88.73,35.45s88.73-15.87,88.73-35.45"/>
    <ellipse class="cls-1" cx="752.34" cy="69.71" rx="121.04" ry="67.71"/>
    <ellipse class="cls-1" cx="752.34" cy="69.71" rx="72.62" ry="67.71"/>
    <ellipse class="cls-1" cx="752.34" cy="69.71" rx="24.21" ry="67.71"/>
    <line class="cls-1" x1="631.3" y1="69.71" x2="873.38" y2="69.71"/>
    <path class="cls-1" d="M421.53,272.85c0-37.4,54.19-67.71,121.04-67.71s121.04,30.32,121.04,67.71"/>
    <path class="cls-1" d="M469.95,272.85c0-37.4,32.52-67.71,72.62-67.71s72.62,30.32,72.62,67.71"/>
    <path class="cls-1" d="M518.37,272.85c0-37.4,10.84-67.71,24.21-67.71s24.21,30.32,24.21,67.71"/>
    <path class="cls-1" d="M631.3,69.71c0-19.58-39.72-35.45-88.73-35.45s-88.73,15.87-88.73,35.45"/>
    <path class="cls-1" d="M663.62,2c0,37.4-54.19,67.71-121.04,67.71s-121.04-30.32-121.04-67.71"/>
    <path class="cls-1" d="M615.2,2c0,37.4-32.52,67.71-72.62,67.71s-72.62-30.32-72.62-67.71"/>
    <path class="cls-1" d="M566.78,2c0,37.4-10.84,67.71-24.21,67.71s-24.21-30.32-24.21-67.71"/>
    <line class="cls-1" x1="421.53" y1="2" x2="663.62" y2="2"/>
    <ellipse class="cls-1" cx="542.58" cy="475.98" rx="88.73" ry="35.45"/>
    <ellipse class="cls-1" cx="542.58" cy="340.56" rx="88.73" ry="35.45"/>
    <ellipse class="cls-1" cx="542.58" cy="408.27" rx="121.04" ry="67.71"/>
    <ellipse class="cls-1" cx="542.58" cy="408.27" rx="72.62" ry="67.71"/>
    <ellipse class="cls-1" cx="542.58" cy="408.27" rx="24.21" ry="67.71"/>
    <line class="cls-1" x1="421.53" y1="408.27" x2="663.62" y2="408.27"/>
    <path class="cls-1" d="M841.07,543.69c0-19.58-39.72-35.45-88.73-35.45s-88.73,15.87-88.73,35.45"/>
    <ellipse class="cls-1" cx="752.34" cy="408.27" rx="88.73" ry="35.45"/>
    <ellipse class="cls-1" cx="752.34" cy="475.98" rx="121.04" ry="67.71"/>
    <ellipse class="cls-1" cx="752.34" cy="475.98" rx="72.62" ry="67.71"/>
    <ellipse class="cls-1" cx="752.34" cy="475.98" rx="24.21" ry="67.71"/>
    <line class="cls-1" x1="631.3" y1="475.98" x2="873.38" y2="475.98"/>
    <path class="cls-1" d="M663.62,272.85c0,19.58,39.72,35.45,88.73,35.45s88.73-15.87,88.73-35.45"/>
    <ellipse class="cls-1" cx="752.34" cy="340.56" rx="121.04" ry="67.71"/>
    <ellipse class="cls-1" cx="752.34" cy="340.56" rx="72.62" ry="67.71"/>
    <ellipse class="cls-1" cx="752.34" cy="340.56" rx="24.21" ry="67.71"/>
    <line class="cls-1" x1="631.3" y1="340.56" x2="873.38" y2="340.56"/>
    <path class="cls-1" d="M421.53,543.69c0-37.4,54.19-67.71,121.04-67.71s121.04,30.32,121.04,67.71"/>
    <path class="cls-1" d="M469.95,543.69c0-37.4,32.52-67.71,72.62-67.71s72.62,30.32,72.62,67.71"/>
    <path class="cls-1" d="M518.37,543.69c0-37.4,10.84-67.71,24.21-67.71s24.21,30.32,24.21,67.71"/>
    <path class="cls-1" d="M631.3,340.56c0-19.58-39.72-35.45-88.73-35.45s-88.73,15.87-88.73,35.45"/>
    <path class="cls-1" d="M663.62,272.85c0,37.4-54.19,67.71-121.04,67.71s-121.04-30.32-121.04-67.71"/>
    <path class="cls-1" d="M615.2,272.85c0,37.4-32.52,67.71-72.62,67.71s-72.62-30.32-72.62-67.71"/>
    <path class="cls-1" d="M566.78,272.85c0,37.4-10.84,67.71-24.21,67.71s-24.21-30.32-24.21-67.71"/>
    <line class="cls-1" x1="421.53" y1="272.85" x2="663.62" y2="272.85"/>
    <ellipse class="cls-1" cx="962.11" cy="205.13" rx="88.73" ry="35.45"/>
    <ellipse class="cls-1" cx="962.11" cy="69.71" rx="88.73" ry="35.45"/>
    <ellipse class="cls-1" cx="962.11" cy="137.42" rx="121.04" ry="67.71"/>
    <ellipse class="cls-1" cx="962.11" cy="137.42" rx="72.62" ry="67.71"/>
    <ellipse class="cls-1" cx="962.11" cy="137.42" rx="24.21" ry="67.71"/>
    <line class="cls-1" x1="841.07" y1="137.42" x2="1083.15" y2="137.42"/>
    <path class="cls-1" d="M1260.6,272.85c0-19.58-39.72-35.45-88.73-35.45s-88.73,15.87-88.73,35.45"/>
    <ellipse class="cls-1" cx="1171.88" cy="137.42" rx="88.73" ry="35.45"/>
    <ellipse class="cls-1" cx="1171.88" cy="205.13" rx="121.04" ry="67.71"/>
    <ellipse class="cls-1" cx="1171.88" cy="205.13" rx="72.62" ry="67.71"/>
    <ellipse class="cls-1" cx="1171.88" cy="205.13" rx="24.21" ry="67.71"/>
    <line class="cls-1" x1="1050.83" y1="205.13" x2="1292.92" y2="205.13"/>
    <path class="cls-1" d="M1083.15,2c0,19.58,39.72,35.45,88.73,35.45s88.73-15.87,88.73-35.45"/>
    <ellipse class="cls-1" cx="1171.88" cy="69.71" rx="121.04" ry="67.71"/>
    <ellipse class="cls-1" cx="1171.88" cy="69.71" rx="72.62" ry="67.71"/>
    <ellipse class="cls-1" cx="1171.88" cy="69.71" rx="24.21" ry="67.71"/>
    <line class="cls-1" x1="1050.83" y1="69.71" x2="1292.92" y2="69.71"/>
    <path class="cls-1" d="M841.07,272.85c0-37.4,54.19-67.71,121.04-67.71s121.04,30.32,121.04,67.71"/>
    <path class="cls-1" d="M889.48,272.85c0-37.4,32.52-67.71,72.62-67.71s72.62,30.32,72.62,67.71"/>
    <path class="cls-1" d="M937.9,272.85c0-37.4,10.84-67.71,24.21-67.71s24.21,30.32,24.21,67.71"/>
    <path class="cls-1" d="M1050.83,69.71c0-19.58-39.72-35.45-88.73-35.45s-88.73,15.87-88.73,35.45"/>
    <path class="cls-1" d="M1083.15,2c0,37.4-54.19,67.71-121.04,67.71s-121.04-30.32-121.04-67.71"/>
    <path class="cls-1" d="M1034.73,2c0,37.4-32.52,67.71-72.62,67.71s-72.62-30.32-72.62-67.71"/>
    <path class="cls-1" d="M986.32,2c0,37.4-10.84,67.71-24.21,67.71s-24.21-30.32-24.21-67.71"/>
    <line class="cls-1" x1="841.07" y1="2" x2="1083.15" y2="2"/>
    <ellipse class="cls-1" cx="962.11" cy="475.98" rx="88.73" ry="35.45"/>
    <ellipse class="cls-1" cx="962.11" cy="340.56" rx="88.73" ry="35.45"/>
    <ellipse class="cls-1" cx="962.11" cy="408.27" rx="121.04" ry="67.71"/>
    <ellipse class="cls-1" cx="962.11" cy="408.27" rx="72.62" ry="67.71"/>
    <ellipse class="cls-1" cx="962.11" cy="408.27" rx="24.21" ry="67.71"/>
    <line class="cls-1" x1="841.07" y1="408.27" x2="1083.15" y2="408.27"/>
    <path class="cls-1" d="M1260.6,543.69c0-19.58-39.72-35.45-88.73-35.45s-88.73,15.87-88.73,35.45"/>
    <ellipse class="cls-1" cx="1171.88" cy="408.27" rx="88.73" ry="35.45"/>
    <ellipse class="cls-1" cx="1171.88" cy="475.98" rx="121.04" ry="67.71"/>
    <ellipse class="cls-1" cx="1171.88" cy="475.98" rx="72.62" ry="67.71"/>
    <ellipse class="cls-1" cx="1171.88" cy="475.98" rx="24.21" ry="67.71"/>
    <line class="cls-1" x1="1050.83" y1="475.98" x2="1292.92" y2="475.98"/>
    <path class="cls-1" d="M1083.15,272.85c0,19.58,39.72,35.45,88.73,35.45s88.73-15.87,88.73-35.45"/>
    <ellipse class="cls-1" cx="1171.88" cy="340.56" rx="121.04" ry="67.71"/>
    <ellipse class="cls-1" cx="1171.88" cy="340.56" rx="72.62" ry="67.71"/>
    <ellipse class="cls-1" cx="1171.88" cy="340.56" rx="24.21" ry="67.71"/>
    <line class="cls-1" x1="1050.83" y1="340.56" x2="1292.92" y2="340.56"/>
    <path class="cls-1" d="M841.07,543.69c0-37.4,54.19-67.71,121.04-67.71s121.04,30.32,121.04,67.71"/>
    <path class="cls-1" d="M889.48,543.69c0-37.4,32.52-67.71,72.62-67.71s72.62,30.32,72.62,67.71"/>
    <path class="cls-1" d="M937.9,543.69c0-37.4,10.84-67.71,24.21-67.71s24.21,30.32,24.21,67.71"/>
    <path class="cls-1" d="M1050.83,340.56c0-19.58-39.72-35.45-88.73-35.45s-88.73,15.87-88.73,35.45"/>
    <path class="cls-1" d="M1083.15,272.85c0,37.4-54.19,67.71-121.04,67.71s-121.04-30.32-121.04-67.71"/>
    <path class="cls-1" d="M1034.73,272.85c0,37.4-32.52,67.71-72.62,67.71s-72.62-30.32-72.62-67.71"/>
    <path class="cls-1" d="M986.32,272.85c0,37.4-10.84,67.71-24.21,67.71s-24.21-30.32-24.21-67.71"/>
    <line class="cls-1" x1="841.07" y1="272.85" x2="1083.15" y2="272.85"/>
    <ellipse class="cls-1" cx="123.04" cy="746.82" rx="88.73" ry="35.45"/>
    <ellipse class="cls-1" cx="123.04" cy="611.4" rx="88.73" ry="35.45"/>
    <ellipse class="cls-1" cx="123.04" cy="679.11" rx="121.04" ry="67.71"/>
    <ellipse class="cls-1" cx="123.04" cy="679.11" rx="72.62" ry="67.71"/>
    <ellipse class="cls-1" cx="123.04" cy="679.11" rx="24.21" ry="67.71"/>
    <line class="cls-1" x1="2" y1="679.11" x2="244.08" y2="679.11"/>
    <path class="cls-1" d="M421.53,814.54c0-19.58-39.72-35.45-88.73-35.45s-88.73,15.87-88.73,35.45"/>
    <ellipse class="cls-1" cx="332.81" cy="679.11" rx="88.73" ry="35.45"/>
    <ellipse class="cls-1" cx="332.81" cy="746.82" rx="121.04" ry="67.71"/>
    <ellipse class="cls-1" cx="332.81" cy="746.82" rx="72.62" ry="67.71"/>
    <ellipse class="cls-1" cx="332.81" cy="746.82" rx="24.21" ry="67.71"/>
    <line class="cls-1" x1="211.77" y1="746.82" x2="453.85" y2="746.82"/>
    <path class="cls-1" d="M244.08,543.69c0,19.58,39.72,35.45,88.73,35.45s88.73-15.87,88.73-35.45"/>
    <ellipse class="cls-1" cx="332.81" cy="611.4" rx="121.04" ry="67.71"/>
    <ellipse class="cls-1" cx="332.81" cy="611.4" rx="72.62" ry="67.71"/>
    <ellipse class="cls-1" cx="332.81" cy="611.4" rx="24.21" ry="67.71"/>
    <line class="cls-1" x1="211.77" y1="611.4" x2="453.85" y2="611.4"/>
    <path class="cls-1" d="M2,814.54c0-37.4,54.19-67.71,121.04-67.71s121.04,30.32,121.04,67.71"/>
    <path class="cls-1" d="M50.42,814.54c0-37.4,32.52-67.71,72.62-67.71s72.62,30.32,72.62,67.71"/>
    <path class="cls-1" d="M98.83,814.54c0-37.4,10.84-67.71,24.21-67.71s24.21,30.32,24.21,67.71"/>
    <path class="cls-1" d="M211.77,611.4c0-19.58-39.72-35.45-88.73-35.45s-88.73,15.87-88.73,35.45"/>
    <path class="cls-1" d="M244.08,543.69c0,37.4-54.19,67.71-121.04,67.71S2,581.09,2,543.69"/>
    <path class="cls-1" d="M195.67,543.69c0,37.4-32.52,67.71-72.62,67.71s-72.62-30.32-72.62-67.71"/>
    <path class="cls-1" d="M147.25,543.69c0,37.4-10.84,67.71-24.21,67.71s-24.21-30.32-24.21-67.71"/>
    <line class="cls-1" x1="2" y1="543.69" x2="244.08" y2="543.69"/>
    <line class="cls-1" x1="2" y1="814.54" x2="244.08" y2="814.54"/>
    <ellipse class="cls-1" cx="542.58" cy="746.82" rx="88.73" ry="35.45"/>
    <ellipse class="cls-1" cx="542.58" cy="611.4" rx="88.73" ry="35.45"/>
    <ellipse class="cls-1" cx="542.58" cy="679.11" rx="121.04" ry="67.71"/>
    <ellipse class="cls-1" cx="542.58" cy="679.11" rx="72.62" ry="67.71"/>
    <ellipse class="cls-1" cx="542.58" cy="679.11" rx="24.21" ry="67.71"/>
    <line class="cls-1" x1="421.53" y1="679.11" x2="663.62" y2="679.11"/>
    <path class="cls-1" d="M841.07,814.54c0-19.58-39.72-35.45-88.73-35.45s-88.73,15.87-88.73,35.45"/>
    <ellipse class="cls-1" cx="752.34" cy="679.11" rx="88.73" ry="35.45"/>
    <ellipse class="cls-1" cx="752.34" cy="746.82" rx="121.04" ry="67.71"/>
    <ellipse class="cls-1" cx="752.34" cy="746.82" rx="72.62" ry="67.71"/>
    <ellipse class="cls-1" cx="752.34" cy="746.82" rx="24.21" ry="67.71"/>
    <line class="cls-1" x1="631.3" y1="746.82" x2="873.38" y2="746.82"/>
    <path class="cls-1" d="M663.62,543.69c0,19.58,39.72,35.45,88.73,35.45s88.73-15.87,88.73-35.45"/>
    <ellipse class="cls-1" cx="752.34" cy="611.4" rx="121.04" ry="67.71"/>
    <ellipse class="cls-1" cx="752.34" cy="611.4" rx="72.62" ry="67.71"/>
    <ellipse class="cls-1" cx="752.34" cy="611.4" rx="24.21" ry="67.71"/>
    <line class="cls-1" x1="631.3" y1="611.4" x2="873.38" y2="611.4"/>
    <path class="cls-1" d="M421.53,814.54c0-37.4,54.19-67.71,121.04-67.71s121.04,30.32,121.04,67.71"/>
    <path class="cls-1" d="M469.95,814.54c0-37.4,32.52-67.71,72.62-67.71s72.62,30.32,72.62,67.71"/>
    <path class="cls-1" d="M518.37,814.54c0-37.4,10.84-67.71,24.21-67.71s24.21,30.32,24.21,67.71"/>
    <path class="cls-1" d="M631.3,611.4c0-19.58-39.72-35.45-88.73-35.45s-88.73,15.87-88.73,35.45"/>
    <path class="cls-1" d="M663.62,543.69c0,37.4-54.19,67.71-121.04,67.71s-121.04-30.32-121.04-67.71"/>
    <path class="cls-1" d="M615.2,543.69c0,37.4-32.52,67.71-72.62,67.71s-72.62-30.32-72.62-67.71"/>
    <path class="cls-1" d="M566.78,543.69c0,37.4-10.84,67.71-24.21,67.71s-24.21-30.32-24.21-67.71"/>
    <line class="cls-1" x1="421.53" y1="543.69" x2="663.62" y2="543.69"/>
    <line class="cls-1" x1="421.53" y1="814.54" x2="663.62" y2="814.54"/>
    <ellipse class="cls-1" cx="962.11" cy="746.82" rx="88.73" ry="35.45"/>
    <ellipse class="cls-1" cx="962.11" cy="611.4" rx="88.73" ry="35.45"/>
    <ellipse class="cls-1" cx="962.11" cy="679.11" rx="121.04" ry="67.71"/>
    <ellipse class="cls-1" cx="962.11" cy="679.11" rx="72.62" ry="67.71"/>
    <ellipse class="cls-1" cx="962.11" cy="679.11" rx="24.21" ry="67.71"/>
    <line class="cls-1" x1="841.07" y1="679.11" x2="1083.15" y2="679.11"/>
    <path class="cls-1" d="M1260.6,814.54c0-19.58-39.72-35.45-88.73-35.45s-88.73,15.87-88.73,35.45"/>
    <ellipse class="cls-1" cx="1171.88" cy="679.11" rx="88.73" ry="35.45"/>
    <ellipse class="cls-1" cx="1171.88" cy="746.82" rx="121.04" ry="67.71"/>
    <ellipse class="cls-1" cx="1171.88" cy="746.82" rx="72.62" ry="67.71"/>
    <ellipse class="cls-1" cx="1171.88" cy="746.82" rx="24.21" ry="67.71"/>
    <line class="cls-1" x1="1050.83" y1="746.82" x2="1292.92" y2="746.82"/>
    <path class="cls-1" d="M1083.15,543.69c0,19.58,39.72,35.45,88.73,35.45s88.73-15.87,88.73-35.45"/>
    <ellipse class="cls-1" cx="1171.88" cy="611.4" rx="121.04" ry="67.71"/>
    <ellipse class="cls-1" cx="1171.88" cy="611.4" rx="72.62" ry="67.71"/>
    <ellipse class="cls-1" cx="1171.88" cy="611.4" rx="24.21" ry="67.71"/>
    <line class="cls-1" x1="1050.83" y1="611.4" x2="1292.92" y2="611.4"/>
    <path class="cls-1" d="M841.07,814.54c0-37.4,54.19-67.71,121.04-67.71s121.04,30.32,121.04,67.71"/>
    <path class="cls-1" d="M889.48,814.54c0-37.4,32.52-67.71,72.62-67.71s72.62,30.32,72.62,67.71"/>
    <path class="cls-1" d="M937.9,814.54c0-37.4,10.84-67.71,24.21-67.71s24.21,30.32,24.21,67.71"/>
    <path class="cls-1" d="M1050.83,611.4c0-19.58-39.72-35.45-88.73-35.45s-88.73,15.87-88.73,35.45"/>
    <path class="cls-1" d="M1083.15,543.69c0,37.4-54.19,67.71-121.04,67.71s-121.04-30.32-121.04-67.71"/>
    <path class="cls-1" d="M1034.73,543.69c0,37.4-32.52,67.71-72.62,67.71s-72.62-30.32-72.62-67.71"/>
    <path class="cls-1" d="M986.32,543.69c0,37.4-10.84,67.71-24.21,67.71s-24.21-30.32-24.21-67.71"/>
    <line class="cls-1" x1="841.07" y1="543.69" x2="1083.15" y2="543.69"/>
    <line class="cls-1" x1="841.07" y1="814.54" x2="1083.15" y2="814.54"/>
  </g>
  <g>
    <ellipse class="cls-1" cx="1381.64" cy="205.13" rx="88.73" ry="35.45"/>
    <ellipse class="cls-1" cx="1381.64" cy="69.71" rx="88.73" ry="35.45"/>
    <ellipse class="cls-1" cx="1381.64" cy="137.42" rx="121.04" ry="67.71"/>
    <ellipse class="cls-1" cx="1381.64" cy="137.42" rx="72.62" ry="67.71"/>
    <ellipse class="cls-1" cx="1381.64" cy="137.42" rx="24.21" ry="67.71"/>
    <line class="cls-1" x1="1260.6" y1="137.42" x2="1502.68" y2="137.42"/>
    <path class="cls-1" d="M1680.14,272.85c0-19.58-39.72-35.45-88.73-35.45s-88.73,15.87-88.73,35.45"/>
    <ellipse class="cls-1" cx="1591.41" cy="137.42" rx="88.73" ry="35.45"/>
    <ellipse class="cls-1" cx="1591.41" cy="205.13" rx="121.04" ry="67.71"/>
    <ellipse class="cls-1" cx="1591.41" cy="205.13" rx="72.62" ry="67.71"/>
    <ellipse class="cls-1" cx="1591.41" cy="205.13" rx="24.21" ry="67.71"/>
    <line class="cls-1" x1="1470.37" y1="205.13" x2="1712.45" y2="205.13"/>
    <path class="cls-1" d="M1502.68,2c0,19.58,39.72,35.45,88.73,35.45s88.73-15.87,88.73-35.45"/>
    <ellipse class="cls-1" cx="1591.41" cy="69.71" rx="121.04" ry="67.71"/>
    <ellipse class="cls-1" cx="1591.41" cy="69.71" rx="72.62" ry="67.71"/>
    <ellipse class="cls-1" cx="1591.41" cy="69.71" rx="24.21" ry="67.71"/>
    <line class="cls-1" x1="1470.37" y1="69.71" x2="1712.45" y2="69.71"/>
    <path class="cls-1" d="M1260.6,272.85c0-37.4,54.19-67.71,121.04-67.71s121.04,30.32,121.04,67.71"/>
    <path class="cls-1" d="M1309.02,272.85c0-37.4,32.52-67.71,72.62-67.71s72.62,30.32,72.62,67.71"/>
    <path class="cls-1" d="M1357.44,272.85c0-37.4,10.84-67.71,24.21-67.71s24.21,30.32,24.21,67.71"/>
    <path class="cls-1" d="M1470.37,69.71c0-19.58-39.72-35.45-88.73-35.45s-88.73,15.87-88.73,35.45"/>
    <path class="cls-1" d="M1502.68,2c0,37.4-54.19,67.71-121.04,67.71s-121.04-30.32-121.04-67.71"/>
    <path class="cls-1" d="M1454.27,2c0,37.4-32.52,67.71-72.62,67.71s-72.62-30.32-72.62-67.71"/>
    <path class="cls-1" d="M1405.85,2c0,37.4-10.84,67.71-24.21,67.71s-24.21-30.32-24.21-67.71"/>
    <line class="cls-1" x1="1260.6" y1="2" x2="1502.68" y2="2"/>
    <ellipse class="cls-1" cx="1381.64" cy="475.98" rx="88.73" ry="35.45"/>
    <ellipse class="cls-1" cx="1381.64" cy="340.56" rx="88.73" ry="35.45"/>
    <ellipse class="cls-1" cx="1381.64" cy="408.27" rx="121.04" ry="67.71"/>
    <ellipse class="cls-1" cx="1381.64" cy="408.27" rx="72.62" ry="67.71"/>
    <ellipse class="cls-1" cx="1381.64" cy="408.27" rx="24.21" ry="67.71"/>
    <line class="cls-1" x1="1260.6" y1="408.27" x2="1502.68" y2="408.27"/>
    <path class="cls-1" d="M1680.14,543.69c0-19.58-39.72-35.45-88.73-35.45s-88.73,15.87-88.73,35.45"/>
    <ellipse class="cls-1" cx="1591.41" cy="408.27" rx="88.73" ry="35.45"/>
    <ellipse class="cls-1" cx="1591.41" cy="475.98" rx="121.04" ry="67.71"/>
    <ellipse class="cls-1" cx="1591.41" cy="475.98" rx="72.62" ry="67.71"/>
    <ellipse class="cls-1" cx="1591.41" cy="475.98" rx="24.21" ry="67.71"/>
    <line class="cls-1" x1="1470.37" y1="475.98" x2="1712.45" y2="475.98"/>
    <path class="cls-1" d="M1502.68,272.85c0,19.58,39.72,35.45,88.73,35.45s88.73-15.87,88.73-35.45"/>
    <ellipse class="cls-1" cx="1591.41" cy="340.56" rx="121.04" ry="67.71"/>
    <ellipse class="cls-1" cx="1591.41" cy="340.56" rx="72.62" ry="67.71"/>
    <ellipse class="cls-1" cx="1591.41" cy="340.56" rx="24.21" ry="67.71"/>
    <line class="cls-1" x1="1470.37" y1="340.56" x2="1712.45" y2="340.56"/>
    <path class="cls-1" d="M1260.6,543.69c0-37.4,54.19-67.71,121.04-67.71s121.04,30.32,121.04,67.71"/>
    <path class="cls-1" d="M1309.02,543.69c0-37.4,32.52-67.71,72.62-67.71s72.62,30.32,72.62,67.71"/>
    <path class="cls-1" d="M1357.44,543.69c0-37.4,10.84-67.71,24.21-67.71s24.21,30.32,24.21,67.71"/>
    <path class="cls-1" d="M1470.37,340.56c0-19.58-39.72-35.45-88.73-35.45s-88.73,15.87-88.73,35.45"/>
    <path class="cls-1" d="M1502.68,272.85c0,37.4-54.19,67.71-121.04,67.71s-121.04-30.32-121.04-67.71"/>
    <path class="cls-1" d="M1454.27,272.85c0,37.4-32.52,67.71-72.62,67.71s-72.62-30.32-72.62-67.71"/>
    <path class="cls-1" d="M1405.85,272.85c0,37.4-10.84,67.71-24.21,67.71s-24.21-30.32-24.21-67.71"/>
    <line class="cls-1" x1="1260.6" y1="272.85" x2="1502.68" y2="272.85"/>
    <ellipse class="cls-1" cx="1801.18" cy="205.13" rx="88.73" ry="35.45"/>
    <ellipse class="cls-1" cx="1801.18" cy="69.71" rx="88.73" ry="35.45"/>
    <ellipse class="cls-1" cx="1801.18" cy="137.42" rx="121.04" ry="67.71"/>
    <ellipse class="cls-1" cx="1801.18" cy="137.42" rx="72.62" ry="67.71"/>
    <ellipse class="cls-1" cx="1801.18" cy="137.42" rx="24.21" ry="67.71"/>
    <line class="cls-1" x1="1680.14" y1="137.42" x2="1922.22" y2="137.42"/>
    <path class="cls-1" d="M2099.67,272.85c0-19.58-39.72-35.45-88.73-35.45s-88.73,15.87-88.73,35.45"/>
    <ellipse class="cls-1" cx="2010.94" cy="137.42" rx="88.73" ry="35.45"/>
    <ellipse class="cls-1" cx="2010.94" cy="205.13" rx="121.04" ry="67.71"/>
    <ellipse class="cls-1" cx="2010.94" cy="205.13" rx="72.62" ry="67.71"/>
    <ellipse class="cls-1" cx="2010.94" cy="205.13" rx="24.21" ry="67.71"/>
    <line class="cls-1" x1="1889.9" y1="205.13" x2="2131.99" y2="205.13"/>
    <path class="cls-1" d="M1922.22,2c0,19.58,39.72,35.45,88.73,35.45s88.73-15.87,88.73-35.45"/>
    <ellipse class="cls-1" cx="2010.94" cy="69.71" rx="121.04" ry="67.71"/>
    <ellipse class="cls-1" cx="2010.94" cy="69.71" rx="72.62" ry="67.71"/>
    <ellipse class="cls-1" cx="2010.94" cy="69.71" rx="24.21" ry="67.71"/>
    <line class="cls-1" x1="1889.9" y1="69.71" x2="2131.99" y2="69.71"/>
    <path class="cls-1" d="M1680.14,272.85c0-37.4,54.19-67.71,121.04-67.71s121.04,30.32,121.04,67.71"/>
    <path class="cls-1" d="M1728.55,272.85c0-37.4,32.52-67.71,72.62-67.71s72.62,30.32,72.62,67.71"/>
    <path class="cls-1" d="M1776.97,272.85c0-37.4,10.84-67.71,24.21-67.71s24.21,30.32,24.21,67.71"/>
    <path class="cls-1" d="M1889.9,69.71c0-19.58-39.72-35.45-88.73-35.45s-88.73,15.87-88.73,35.45"/>
    <path class="cls-1" d="M1922.22,2c0,37.4-54.19,67.71-121.04,67.71s-121.04-30.32-121.04-67.71"/>
    <path class="cls-1" d="M1873.8,2c0,37.4-32.52,67.71-72.62,67.71s-72.62-30.32-72.62-67.71"/>
    <path class="cls-1" d="M1825.39,2c0,37.4-10.84,67.71-24.21,67.71s-24.21-30.32-24.21-67.71"/>
    <line class="cls-1" x1="1680.14" y1="2" x2="1922.22" y2="2"/>
    <ellipse class="cls-1" cx="1801.18" cy="475.98" rx="88.73" ry="35.45"/>
    <ellipse class="cls-1" cx="1801.18" cy="340.56" rx="88.73" ry="35.45"/>
    <ellipse class="cls-1" cx="1801.18" cy="408.27" rx="121.04" ry="67.71"/>
    <ellipse class="cls-1" cx="1801.18" cy="408.27" rx="72.62" ry="67.71"/>
    <ellipse class="cls-1" cx="1801.18" cy="408.27" rx="24.21" ry="67.71"/>
    <line class="cls-1" x1="1680.14" y1="408.27" x2="1922.22" y2="408.27"/>
    <path class="cls-1" d="M2099.67,543.69c0-19.58-39.72-35.45-88.73-35.45s-88.73,15.87-88.73,35.45"/>
    <ellipse class="cls-1" cx="2010.94" cy="408.27" rx="88.73" ry="35.45"/>
    <ellipse class="cls-1" cx="2010.94" cy="475.98" rx="121.04" ry="67.71"/>
    <ellipse class="cls-1" cx="2010.94" cy="475.98" rx="72.62" ry="67.71"/>
    <ellipse class="cls-1" cx="2010.94" cy="475.98" rx="24.21" ry="67.71"/>
    <line class="cls-1" x1="1889.9" y1="475.98" x2="2131.99" y2="475.98"/>
    <path class="cls-1" d="M1922.22,272.85c0,19.58,39.72,35.45,88.73,35.45s88.73-15.87,88.73-35.45"/>
    <ellipse class="cls-1" cx="2010.94" cy="340.56" rx="121.04" ry="67.71"/>
    <ellipse class="cls-1" cx="2010.94" cy="340.56" rx="72.62" ry="67.71"/>
    <ellipse class="cls-1" cx="2010.94" cy="340.56" rx="24.21" ry="67.71"/>
    <line class="cls-1" x1="1889.9" y1="340.56" x2="2131.99" y2="340.56"/>
    <path class="cls-1" d="M1680.14,543.69c0-37.4,54.19-67.71,121.04-67.71s121.04,30.32,121.04,67.71"/>
    <path class="cls-1" d="M1728.55,543.69c0-37.4,32.52-67.71,72.62-67.71s72.62,30.32,72.62,67.71"/>
    <path class="cls-1" d="M1776.97,543.69c0-37.4,10.84-67.71,24.21-67.71s24.21,30.32,24.21,67.71"/>
    <path class="cls-1" d="M1889.9,340.56c0-19.58-39.72-35.45-88.73-35.45s-88.73,15.87-88.73,35.45"/>
    <path class="cls-1" d="M1922.22,272.85c0,37.4-54.19,67.71-121.04,67.71s-121.04-30.32-121.04-67.71"/>
    <path class="cls-1" d="M1873.8,272.85c0,37.4-32.52,67.71-72.62,67.71s-72.62-30.32-72.62-67.71"/>
    <path class="cls-1" d="M1825.39,272.85c0,37.4-10.84,67.71-24.21,67.71s-24.21-30.32-24.21-67.71"/>
    <line class="cls-1" x1="1680.14" y1="272.85" x2="1922.22" y2="272.85"/>
    <ellipse class="cls-1" cx="2220.71" cy="205.13" rx="88.73" ry="35.45"/>
    <ellipse class="cls-1" cx="2220.71" cy="69.71" rx="88.73" ry="35.45"/>
    <ellipse class="cls-1" cx="2220.71" cy="137.42" rx="121.04" ry="67.71"/>
    <ellipse class="cls-1" cx="2220.71" cy="137.42" rx="72.62" ry="67.71"/>
    <ellipse class="cls-1" cx="2220.71" cy="137.42" rx="24.21" ry="67.71"/>
    <line class="cls-1" x1="2099.67" y1="137.42" x2="2341.75" y2="137.42"/>
    <path class="cls-1" d="M2519.2,272.85c0-19.58-39.72-35.45-88.73-35.45s-88.73,15.87-88.73,35.45"/>
    <ellipse class="cls-1" cx="2430.48" cy="137.42" rx="88.73" ry="35.45"/>
    <ellipse class="cls-1" cx="2430.48" cy="205.13" rx="121.04" ry="67.71"/>
    <ellipse class="cls-1" cx="2430.48" cy="205.13" rx="72.62" ry="67.71"/>
    <ellipse class="cls-1" cx="2430.48" cy="205.13" rx="24.21" ry="67.71"/>
    <line class="cls-1" x1="2309.44" y1="205.13" x2="2551.52" y2="205.13"/>
    <path class="cls-1" d="M2341.75,2c0,19.58,39.72,35.45,88.73,35.45s88.73-15.87,88.73-35.45"/>
    <ellipse class="cls-1" cx="2430.48" cy="69.71" rx="121.04" ry="67.71"/>
    <ellipse class="cls-1" cx="2430.48" cy="69.71" rx="72.62" ry="67.71"/>
    <ellipse class="cls-1" cx="2430.48" cy="69.71" rx="24.21" ry="67.71"/>
    <line class="cls-1" x1="2309.44" y1="69.71" x2="2551.52" y2="69.71"/>
    <path class="cls-1" d="M2099.67,272.85c0-37.4,54.19-67.71,121.04-67.71s121.04,30.32,121.04,67.71"/>
    <path class="cls-1" d="M2148.09,272.85c0-37.4,32.52-67.71,72.62-67.71s72.62,30.32,72.62,67.71"/>
    <path class="cls-1" d="M2196.5,272.85c0-37.4,10.84-67.71,24.21-67.71s24.21,30.32,24.21,67.71"/>
    <path class="cls-1" d="M2309.44,69.71c0-19.58-39.72-35.45-88.73-35.45s-88.73,15.87-88.73,35.45"/>
    <path class="cls-1" d="M2341.75,2c0,37.4-54.19,67.71-121.04,67.71s-121.04-30.32-121.04-67.71"/>
    <path class="cls-1" d="M2293.34,2c0,37.4-32.52,67.71-72.62,67.71s-72.62-30.32-72.62-67.71"/>
    <path class="cls-1" d="M2244.92,2c0,37.4-10.84,67.71-24.21,67.71s-24.21-30.32-24.21-67.71"/>
    <line class="cls-1" x1="2099.67" y1="2" x2="2341.75" y2="2"/>
    <ellipse class="cls-1" cx="2220.71" cy="475.98" rx="88.73" ry="35.45"/>
    <ellipse class="cls-1" cx="2220.71" cy="340.56" rx="88.73" ry="35.45"/>
    <ellipse class="cls-1" cx="2220.71" cy="408.27" rx="121.04" ry="67.71"/>
    <ellipse class="cls-1" cx="2220.71" cy="408.27" rx="72.62" ry="67.71"/>
    <ellipse class="cls-1" cx="2220.71" cy="408.27" rx="24.21" ry="67.71"/>
    <line class="cls-1" x1="2099.67" y1="408.27" x2="2341.75" y2="408.27"/>
    <path class="cls-1" d="M2519.2,543.69c0-19.58-39.72-35.45-88.73-35.45s-88.73,15.87-88.73,35.45"/>
    <ellipse class="cls-1" cx="2430.48" cy="408.27" rx="88.73" ry="35.45"/>
    <ellipse class="cls-1" cx="2430.48" cy="475.98" rx="121.04" ry="67.71"/>
    <ellipse class="cls-1" cx="2430.48" cy="475.98" rx="72.62" ry="67.71"/>
    <ellipse class="cls-1" cx="2430.48" cy="475.98" rx="24.21" ry="67.71"/>
    <line class="cls-1" x1="2309.44" y1="475.98" x2="2551.52" y2="475.98"/>
    <path class="cls-1" d="M2341.75,272.85c0,19.58,39.72,35.45,88.73,35.45s88.73-15.87,88.73-35.45"/>
    <ellipse class="cls-1" cx="2430.48" cy="340.56" rx="121.04" ry="67.71"/>
    <ellipse class="cls-1" cx="2430.48" cy="340.56" rx="72.62" ry="67.71"/>
    <ellipse class="cls-1" cx="2430.48" cy="340.56" rx="24.21" ry="67.71"/>
    <line class="cls-1" x1="2309.44" y1="340.56" x2="2551.52" y2="340.56"/>
    <path class="cls-1" d="M2099.67,543.69c0-37.4,54.19-67.71,121.04-67.71s121.04,30.32,121.04,67.71"/>
    <path class="cls-1" d="M2148.09,543.69c0-37.4,32.52-67.71,72.62-67.71s72.62,30.32,72.62,67.71"/>
    <path class="cls-1" d="M2196.5,543.69c0-37.4,10.84-67.71,24.21-67.71s24.21,30.32,24.21,67.71"/>
    <path class="cls-1" d="M2309.44,340.56c0-19.58-39.72-35.45-88.73-35.45s-88.73,15.87-88.73,35.45"/>
    <path class="cls-1" d="M2341.75,272.85c0,37.4-54.19,67.71-121.04,67.71s-121.04-30.32-121.04-67.71"/>
    <path class="cls-1" d="M2293.34,272.85c0,37.4-32.52,67.71-72.62,67.71s-72.62-30.32-72.62-67.71"/>
    <path class="cls-1" d="M2244.92,272.85c0,37.4-10.84,67.71-24.21,67.71s-24.21-30.32-24.21-67.71"/>
    <line class="cls-1" x1="2099.67" y1="272.85" x2="2341.75" y2="272.85"/>
    <ellipse class="cls-1" cx="1381.64" cy="746.82" rx="88.73" ry="35.45"/>
    <ellipse class="cls-1" cx="1381.64" cy="611.4" rx="88.73" ry="35.45"/>
    <ellipse class="cls-1" cx="1381.64" cy="679.11" rx="121.04" ry="67.71"/>
    <ellipse class="cls-1" cx="1381.64" cy="679.11" rx="72.62" ry="67.71"/>
    <ellipse class="cls-1" cx="1381.64" cy="679.11" rx="24.21" ry="67.71"/>
    <line class="cls-1" x1="1260.6" y1="679.11" x2="1502.68" y2="679.11"/>
    <path class="cls-1" d="M1680.14,814.54c0-19.58-39.72-35.45-88.73-35.45s-88.73,15.87-88.73,35.45"/>
    <ellipse class="cls-1" cx="1591.41" cy="679.11" rx="88.73" ry="35.45"/>
    <ellipse class="cls-1" cx="1591.41" cy="746.82" rx="121.04" ry="67.71"/>
    <ellipse class="cls-1" cx="1591.41" cy="746.82" rx="72.62" ry="67.71"/>
    <ellipse class="cls-1" cx="1591.41" cy="746.82" rx="24.21" ry="67.71"/>
    <line class="cls-1" x1="1470.37" y1="746.82" x2="1712.45" y2="746.82"/>
    <path class="cls-1" d="M1502.68,543.69c0,19.58,39.72,35.45,88.73,35.45s88.73-15.87,88.73-35.45"/>
    <ellipse class="cls-1" cx="1591.41" cy="611.4" rx="121.04" ry="67.71"/>
    <ellipse class="cls-1" cx="1591.41" cy="611.4" rx="72.62" ry="67.71"/>
    <ellipse class="cls-1" cx="1591.41" cy="611.4" rx="24.21" ry="67.71"/>
    <line class="cls-1" x1="1470.37" y1="611.4" x2="1712.45" y2="611.4"/>
    <path class="cls-1" d="M1260.6,814.54c0-37.4,54.19-67.71,121.04-67.71s121.04,30.32,121.04,67.71"/>
    <path class="cls-1" d="M1309.02,814.54c0-37.4,32.52-67.71,72.62-67.71s72.62,30.32,72.62,67.71"/>
    <path class="cls-1" d="M1357.44,814.54c0-37.4,10.84-67.71,24.21-67.71s24.21,30.32,24.21,67.71"/>
    <path class="cls-1" d="M1470.37,611.4c0-19.58-39.72-35.45-88.73-35.45s-88.73,15.87-88.73,35.45"/>
    <path class="cls-1" d="M1502.68,543.69c0,37.4-54.19,67.71-121.04,67.71s-121.04-30.32-121.04-67.71"/>
    <path class="cls-1" d="M1454.27,543.69c0,37.4-32.52,67.71-72.62,67.71s-72.62-30.32-72.62-67.71"/>
    <path class="cls-1" d="M1405.85,543.69c0,37.4-10.84,67.71-24.21,67.71s-24.21-30.32-24.21-67.71"/>
    <line class="cls-1" x1="1260.6" y1="543.69" x2="1502.68" y2="543.69"/>
    <line class="cls-1" x1="1260.6" y1="814.54" x2="1502.68" y2="814.54"/>
    <ellipse class="cls-1" cx="1801.18" cy="746.82" rx="88.73" ry="35.45"/>
    <ellipse class="cls-1" cx="1801.18" cy="611.4" rx="88.73" ry="35.45"/>
    <ellipse class="cls-1" cx="1801.18" cy="679.11" rx="121.04" ry="67.71"/>
    <ellipse class="cls-1" cx="1801.18" cy="679.11" rx="72.62" ry="67.71"/>
    <ellipse class="cls-1" cx="1801.18" cy="679.11" rx="24.21" ry="67.71"/>
    <line class="cls-1" x1="1680.14" y1="679.11" x2="1922.22" y2="679.11"/>
    <path class="cls-1" d="M2099.67,814.54c0-19.58-39.72-35.45-88.73-35.45s-88.73,15.87-88.73,35.45"/>
    <ellipse class="cls-1" cx="2010.94" cy="679.11" rx="88.73" ry="35.45"/>
    <ellipse class="cls-1" cx="2010.94" cy="746.82" rx="121.04" ry="67.71"/>
    <ellipse class="cls-1" cx="2010.94" cy="746.82" rx="72.62" ry="67.71"/>
    <ellipse class="cls-1" cx="2010.94" cy="746.82" rx="24.21" ry="67.71"/>
    <line class="cls-1" x1="1889.9" y1="746.82" x2="2131.99" y2="746.82"/>
    <path class="cls-1" d="M1922.22,543.69c0,19.58,39.72,35.45,88.73,35.45s88.73-15.87,88.73-35.45"/>
    <ellipse class="cls-1" cx="2010.94" cy="611.4" rx="121.04" ry="67.71"/>
    <ellipse class="cls-1" cx="2010.94" cy="611.4" rx="72.62" ry="67.71"/>
    <ellipse class="cls-1" cx="2010.94" cy="611.4" rx="24.21" ry="67.71"/>
    <line class="cls-1" x1="1889.9" y1="611.4" x2="2131.99" y2="611.4"/>
    <path class="cls-1" d="M1680.14,814.54c0-37.4,54.19-67.71,121.04-67.71s121.04,30.32,121.04,67.71"/>
    <path class="cls-1" d="M1728.55,814.54c0-37.4,32.52-67.71,72.62-67.71s72.62,30.32,72.62,67.71"/>
    <path class="cls-1" d="M1776.97,814.54c0-37.4,10.84-67.71,24.21-67.71s24.21,30.32,24.21,67.71"/>
    <path class="cls-1" d="M1889.9,611.4c0-19.58-39.72-35.45-88.73-35.45s-88.73,15.87-88.73,35.45"/>
    <path class="cls-1" d="M1922.22,543.69c0,37.4-54.19,67.71-121.04,67.71s-121.04-30.32-121.04-67.71"/>
    <path class="cls-1" d="M1873.8,543.69c0,37.4-32.52,67.71-72.62,67.71s-72.62-30.32-72.62-67.71"/>
    <path class="cls-1" d="M1825.39,543.69c0,37.4-10.84,67.71-24.21,67.71s-24.21-30.32-24.21-67.71"/>
    <line class="cls-1" x1="1680.14" y1="543.69" x2="1922.22" y2="543.69"/>
    <line class="cls-1" x1="1680.14" y1="814.54" x2="1922.22" y2="814.54"/>
    <ellipse class="cls-1" cx="2220.71" cy="746.82" rx="88.73" ry="35.45"/>
    <ellipse class="cls-1" cx="2220.71" cy="611.4" rx="88.73" ry="35.45"/>
    <ellipse class="cls-1" cx="2220.71" cy="679.11" rx="121.04" ry="67.71"/>
    <ellipse class="cls-1" cx="2220.71" cy="679.11" rx="72.62" ry="67.71"/>
    <ellipse class="cls-1" cx="2220.71" cy="679.11" rx="24.21" ry="67.71"/>
    <line class="cls-1" x1="2099.67" y1="679.11" x2="2341.75" y2="679.11"/>
    <path class="cls-1" d="M2519.2,814.54c0-19.58-39.72-35.45-88.73-35.45s-88.73,15.87-88.73,35.45"/>
    <ellipse class="cls-1" cx="2430.48" cy="679.11" rx="88.73" ry="35.45"/>
    <ellipse class="cls-1" cx="2430.48" cy="746.82" rx="121.04" ry="67.71"/>
    <ellipse class="cls-1" cx="2430.48" cy="746.82" rx="72.62" ry="67.71"/>
    <ellipse class="cls-1" cx="2430.48" cy="746.82" rx="24.21" ry="67.71"/>
    <line class="cls-1" x1="2309.44" y1="746.82" x2="2551.52" y2="746.82"/>
    <path class="cls-1" d="M2341.75,543.69c0,19.58,39.72,35.45,88.73,35.45s88.73-15.87,88.73-35.45"/>
    <ellipse class="cls-1" cx="2430.48" cy="611.4" rx="121.04" ry="67.71"/>
    <ellipse class="cls-1" cx="2430.48" cy="611.4" rx="72.62" ry="67.71"/>
    <ellipse class="cls-1" cx="2430.48" cy="611.4" rx="24.21" ry="67.71"/>
    <line class="cls-1" x1="2309.44" y1="611.4" x2="2551.52" y2="611.4"/>
    <path class="cls-1" d="M2099.67,814.54c0-37.4,54.19-67.71,121.04-67.71s121.04,30.32,121.04,67.71"/>
    <path class="cls-1" d="M2148.09,814.54c0-37.4,32.52-67.71,72.62-67.71s72.62,30.32,72.62,67.71"/>
    <path class="cls-1" d="M2196.5,814.54c0-37.4,10.84-67.71,24.21-67.71s24.21,30.32,24.21,67.71"/>
    <path class="cls-1" d="M2309.44,611.4c0-19.58-39.72-35.45-88.73-35.45s-88.73,15.87-88.73,35.45"/>
    <path class="cls-1" d="M2341.75,543.69c0,37.4-54.19,67.71-121.04,67.71s-121.04-30.32-121.04-67.71"/>
    <path class="cls-1" d="M2293.34,543.69c0,37.4-32.52,67.71-72.62,67.71s-72.62-30.32-72.62-67.71"/>
    <path class="cls-1" d="M2244.92,543.69c0,37.4-10.84,67.71-24.21,67.71s-24.21-30.32-24.21-67.71"/>
    <line class="cls-1" x1="2099.67" y1="543.69" x2="2341.75" y2="543.69"/>
    <line class="cls-1" x1="2099.67" y1="814.54" x2="2341.75" y2="814.54"/>
  </g>
  <g>
    <ellipse class="cls-1" cx="123.04" cy="1017.67" rx="88.73" ry="35.45"/>
    <ellipse class="cls-1" cx="123.04" cy="882.25" rx="88.73" ry="35.45"/>
    <ellipse class="cls-1" cx="123.04" cy="949.96" rx="121.04" ry="67.71"/>
    <ellipse class="cls-1" cx="123.04" cy="949.96" rx="72.62" ry="67.71"/>
    <ellipse class="cls-1" cx="123.04" cy="949.96" rx="24.21" ry="67.71"/>
    <line class="cls-1" x1="2" y1="949.96" x2="244.08" y2="949.96"/>
    <path class="cls-1" d="M421.53,1085.38c0-19.58-39.72-35.45-88.73-35.45s-88.73,15.87-88.73,35.45"/>
    <ellipse class="cls-1" cx="332.81" cy="949.96" rx="88.73" ry="35.45"/>
    <ellipse class="cls-1" cx="332.81" cy="1017.67" rx="121.04" ry="67.71"/>
    <ellipse class="cls-1" cx="332.81" cy="1017.67" rx="72.62" ry="67.71"/>
    <ellipse class="cls-1" cx="332.81" cy="1017.67" rx="24.21" ry="67.71"/>
    <line class="cls-1" x1="211.77" y1="1017.67" x2="453.85" y2="1017.67"/>
    <path class="cls-1" d="M244.08,814.54c0,19.58,39.72,35.45,88.73,35.45s88.73-15.87,88.73-35.45"/>
    <ellipse class="cls-1" cx="332.81" cy="882.25" rx="121.04" ry="67.71"/>
    <ellipse class="cls-1" cx="332.81" cy="882.25" rx="72.62" ry="67.71"/>
    <ellipse class="cls-1" cx="332.81" cy="882.25" rx="24.21" ry="67.71"/>
    <line class="cls-1" x1="211.77" y1="882.25" x2="453.85" y2="882.25"/>
    <path class="cls-1" d="M2,1085.38c0-37.4,54.19-67.71,121.04-67.71s121.04,30.32,121.04,67.71"/>
    <path class="cls-1" d="M50.42,1085.38c0-37.4,32.52-67.71,72.62-67.71s72.62,30.32,72.62,67.71"/>
    <path class="cls-1" d="M98.83,1085.38c0-37.4,10.84-67.71,24.21-67.71s24.21,30.32,24.21,67.71"/>
    <path class="cls-1" d="M211.77,882.25c0-19.58-39.72-35.45-88.73-35.45s-88.73,15.87-88.73,35.45"/>
    <path class="cls-1" d="M244.08,814.54c0,37.4-54.19,67.71-121.04,67.71S2,851.93,2,814.54"/>
    <path class="cls-1" d="M195.67,814.54c0,37.4-32.52,67.71-72.62,67.71s-72.62-30.32-72.62-67.71"/>
    <path class="cls-1" d="M147.25,814.54c0,37.4-10.84,67.71-24.21,67.71s-24.21-30.32-24.21-67.71"/>
    <line class="cls-1" x1="2" y1="814.54" x2="244.08" y2="814.54"/>
    <ellipse class="cls-1" cx="123.04" cy="1288.51" rx="88.73" ry="35.45"/>
    <ellipse class="cls-1" cx="123.04" cy="1153.09" rx="88.73" ry="35.45"/>
    <ellipse class="cls-1" cx="123.04" cy="1220.8" rx="121.04" ry="67.71"/>
    <ellipse class="cls-1" cx="123.04" cy="1220.8" rx="72.62" ry="67.71"/>
    <ellipse class="cls-1" cx="123.04" cy="1220.8" rx="24.21" ry="67.71"/>
    <line class="cls-1" x1="2" y1="1220.8" x2="244.08" y2="1220.8"/>
    <path class="cls-1" d="M421.53,1356.23c0-19.58-39.72-35.45-88.73-35.45s-88.73,15.87-88.73,35.45"/>
    <ellipse class="cls-1" cx="332.81" cy="1220.8" rx="88.73" ry="35.45"/>
    <ellipse class="cls-1" cx="332.81" cy="1288.51" rx="121.04" ry="67.71"/>
    <ellipse class="cls-1" cx="332.81" cy="1288.51" rx="72.62" ry="67.71"/>
    <ellipse class="cls-1" cx="332.81" cy="1288.51" rx="24.21" ry="67.71"/>
    <line class="cls-1" x1="211.77" y1="1288.51" x2="453.85" y2="1288.51"/>
    <path class="cls-1" d="M244.08,1085.38c0,19.58,39.72,35.45,88.73,35.45s88.73-15.87,88.73-35.45"/>
    <ellipse class="cls-1" cx="332.81" cy="1153.09" rx="121.04" ry="67.71"/>
    <ellipse class="cls-1" cx="332.81" cy="1153.09" rx="72.62" ry="67.71"/>
    <ellipse class="cls-1" cx="332.81" cy="1153.09" rx="24.21" ry="67.71"/>
    <line class="cls-1" x1="211.77" y1="1153.09" x2="453.85" y2="1153.09"/>
    <path class="cls-1" d="M2,1356.23c0-37.4,54.19-67.71,121.04-67.71s121.04,30.32,121.04,67.71"/>
    <path class="cls-1" d="M50.42,1356.23c0-37.4,32.52-67.71,72.62-67.71s72.62,30.32,72.62,67.71"/>
    <path class="cls-1" d="M98.83,1356.23c0-37.4,10.84-67.71,24.21-67.71s24.21,30.32,24.21,67.71"/>
    <path class="cls-1" d="M211.77,1153.09c0-19.58-39.72-35.45-88.73-35.45s-88.73,15.87-88.73,35.45"/>
    <path class="cls-1" d="M244.08,1085.38c0,37.4-54.19,67.71-121.04,67.71s-121.04-30.32-121.04-67.71"/>
    <path class="cls-1" d="M195.67,1085.38c0,37.4-32.52,67.71-72.62,67.71s-72.62-30.32-72.62-67.71"/>
    <path class="cls-1" d="M147.25,1085.38c0,37.4-10.84,67.71-24.21,67.71s-24.21-30.32-24.21-67.71"/>
    <line class="cls-1" x1="2" y1="1085.38" x2="244.08" y2="1085.38"/>
    <ellipse class="cls-1" cx="542.58" cy="1017.67" rx="88.73" ry="35.45"/>
    <ellipse class="cls-1" cx="542.58" cy="882.25" rx="88.73" ry="35.45"/>
    <ellipse class="cls-1" cx="542.58" cy="949.96" rx="121.04" ry="67.71"/>
    <ellipse class="cls-1" cx="542.58" cy="949.96" rx="72.62" ry="67.71"/>
    <ellipse class="cls-1" cx="542.58" cy="949.96" rx="24.21" ry="67.71"/>
    <line class="cls-1" x1="421.53" y1="949.96" x2="663.62" y2="949.96"/>
    <path class="cls-1" d="M841.07,1085.38c0-19.58-39.72-35.45-88.73-35.45s-88.73,15.87-88.73,35.45"/>
    <ellipse class="cls-1" cx="752.34" cy="949.96" rx="88.73" ry="35.45"/>
    <ellipse class="cls-1" cx="752.34" cy="1017.67" rx="121.04" ry="67.71"/>
    <ellipse class="cls-1" cx="752.34" cy="1017.67" rx="72.62" ry="67.71"/>
    <ellipse class="cls-1" cx="752.34" cy="1017.67" rx="24.21" ry="67.71"/>
    <line class="cls-1" x1="631.3" y1="1017.67" x2="873.38" y2="1017.67"/>
    <path class="cls-1" d="M663.62,814.54c0,19.58,39.72,35.45,88.73,35.45s88.73-15.87,88.73-35.45"/>
    <ellipse class="cls-1" cx="752.34" cy="882.25" rx="121.04" ry="67.71"/>
    <ellipse class="cls-1" cx="752.34" cy="882.25" rx="72.62" ry="67.71"/>
    <ellipse class="cls-1" cx="752.34" cy="882.25" rx="24.21" ry="67.71"/>
    <line class="cls-1" x1="631.3" y1="882.25" x2="873.38" y2="882.25"/>
    <path class="cls-1" d="M421.53,1085.38c0-37.4,54.19-67.71,121.04-67.71s121.04,30.32,121.04,67.71"/>
    <path class="cls-1" d="M469.95,1085.38c0-37.4,32.52-67.71,72.62-67.71s72.62,30.32,72.62,67.71"/>
    <path class="cls-1" d="M518.37,1085.38c0-37.4,10.84-67.71,24.21-67.71s24.21,30.32,24.21,67.71"/>
    <path class="cls-1" d="M631.3,882.25c0-19.58-39.72-35.45-88.73-35.45s-88.73,15.87-88.73,35.45"/>
    <path class="cls-1" d="M663.62,814.54c0,37.4-54.19,67.71-121.04,67.71s-121.04-30.32-121.04-67.71"/>
    <path class="cls-1" d="M615.2,814.54c0,37.4-32.52,67.71-72.62,67.71s-72.62-30.32-72.62-67.71"/>
    <path class="cls-1" d="M566.78,814.54c0,37.4-10.84,67.71-24.21,67.71s-24.21-30.32-24.21-67.71"/>
    <line class="cls-1" x1="421.53" y1="814.54" x2="663.62" y2="814.54"/>
    <ellipse class="cls-1" cx="542.58" cy="1288.51" rx="88.73" ry="35.45"/>
    <ellipse class="cls-1" cx="542.58" cy="1153.09" rx="88.73" ry="35.45"/>
    <ellipse class="cls-1" cx="542.58" cy="1220.8" rx="121.04" ry="67.71"/>
    <ellipse class="cls-1" cx="542.58" cy="1220.8" rx="72.62" ry="67.71"/>
    <ellipse class="cls-1" cx="542.58" cy="1220.8" rx="24.21" ry="67.71"/>
    <line class="cls-1" x1="421.53" y1="1220.8" x2="663.62" y2="1220.8"/>
    <path class="cls-1" d="M841.07,1356.23c0-19.58-39.72-35.45-88.73-35.45s-88.73,15.87-88.73,35.45"/>
    <ellipse class="cls-1" cx="752.34" cy="1220.8" rx="88.73" ry="35.45"/>
    <ellipse class="cls-1" cx="752.34" cy="1288.51" rx="121.04" ry="67.71"/>
    <ellipse class="cls-1" cx="752.34" cy="1288.51" rx="72.62" ry="67.71"/>
    <ellipse class="cls-1" cx="752.34" cy="1288.51" rx="24.21" ry="67.71"/>
    <line class="cls-1" x1="631.3" y1="1288.51" x2="873.38" y2="1288.51"/>
    <path class="cls-1" d="M663.62,1085.38c0,19.58,39.72,35.45,88.73,35.45s88.73-15.87,88.73-35.45"/>
    <ellipse class="cls-1" cx="752.34" cy="1153.09" rx="121.04" ry="67.71"/>
    <ellipse class="cls-1" cx="752.34" cy="1153.09" rx="72.62" ry="67.71"/>
    <ellipse class="cls-1" cx="752.34" cy="1153.09" rx="24.21" ry="67.71"/>
    <line class="cls-1" x1="631.3" y1="1153.09" x2="873.38" y2="1153.09"/>
    <path class="cls-1" d="M421.53,1356.23c0-37.4,54.19-67.71,121.04-67.71s121.04,30.32,121.04,67.71"/>
    <path class="cls-1" d="M469.95,1356.23c0-37.4,32.52-67.71,72.62-67.71s72.62,30.32,72.62,67.71"/>
    <path class="cls-1" d="M518.37,1356.23c0-37.4,10.84-67.71,24.21-67.71s24.21,30.32,24.21,67.71"/>
    <path class="cls-1" d="M631.3,1153.09c0-19.58-39.72-35.45-88.73-35.45s-88.73,15.87-88.73,35.45"/>
    <path class="cls-1" d="M663.62,1085.38c0,37.4-54.19,67.71-121.04,67.71s-121.04-30.32-121.04-67.71"/>
    <path class="cls-1" d="M615.2,1085.38c0,37.4-32.52,67.71-72.62,67.71s-72.62-30.32-72.62-67.71"/>
    <path class="cls-1" d="M566.78,1085.38c0,37.4-10.84,67.71-24.21,67.71s-24.21-30.32-24.21-67.71"/>
    <line class="cls-1" x1="421.53" y1="1085.38" x2="663.62" y2="1085.38"/>
    <ellipse class="cls-1" cx="962.11" cy="1017.67" rx="88.73" ry="35.45"/>
    <ellipse class="cls-1" cx="962.11" cy="882.25" rx="88.73" ry="35.45"/>
    <ellipse class="cls-1" cx="962.11" cy="949.96" rx="121.04" ry="67.71"/>
    <ellipse class="cls-1" cx="962.11" cy="949.96" rx="72.62" ry="67.71"/>
    <ellipse class="cls-1" cx="962.11" cy="949.96" rx="24.21" ry="67.71"/>
    <line class="cls-1" x1="841.07" y1="949.96" x2="1083.15" y2="949.96"/>
    <path class="cls-1" d="M1260.6,1085.38c0-19.58-39.72-35.45-88.73-35.45s-88.73,15.87-88.73,35.45"/>
    <ellipse class="cls-1" cx="1171.88" cy="949.96" rx="88.73" ry="35.45"/>
    <ellipse class="cls-1" cx="1171.88" cy="1017.67" rx="121.04" ry="67.71"/>
    <ellipse class="cls-1" cx="1171.88" cy="1017.67" rx="72.62" ry="67.71"/>
    <ellipse class="cls-1" cx="1171.88" cy="1017.67" rx="24.21" ry="67.71"/>
    <line class="cls-1" x1="1050.83" y1="1017.67" x2="1292.92" y2="1017.67"/>
    <path class="cls-1" d="M1083.15,814.54c0,19.58,39.72,35.45,88.73,35.45s88.73-15.87,88.73-35.45"/>
    <ellipse class="cls-1" cx="1171.88" cy="882.25" rx="121.04" ry="67.71"/>
    <ellipse class="cls-1" cx="1171.88" cy="882.25" rx="72.62" ry="67.71"/>
    <ellipse class="cls-1" cx="1171.88" cy="882.25" rx="24.21" ry="67.71"/>
    <line class="cls-1" x1="1050.83" y1="882.25" x2="1292.92" y2="882.25"/>
    <path class="cls-1" d="M841.07,1085.38c0-37.4,54.19-67.71,121.04-67.71s121.04,30.32,121.04,67.71"/>
    <path class="cls-1" d="M889.48,1085.38c0-37.4,32.52-67.71,72.62-67.71s72.62,30.32,72.62,67.71"/>
    <path class="cls-1" d="M937.9,1085.38c0-37.4,10.84-67.71,24.21-67.71s24.21,30.32,24.21,67.71"/>
    <path class="cls-1" d="M1050.83,882.25c0-19.58-39.72-35.45-88.73-35.45s-88.73,15.87-88.73,35.45"/>
    <path class="cls-1" d="M1083.15,814.54c0,37.4-54.19,67.71-121.04,67.71s-121.04-30.32-121.04-67.71"/>
    <path class="cls-1" d="M1034.73,814.54c0,37.4-32.52,67.71-72.62,67.71s-72.62-30.32-72.62-67.71"/>
    <path class="cls-1" d="M986.32,814.54c0,37.4-10.84,67.71-24.21,67.71s-24.21-30.32-24.21-67.71"/>
    <line class="cls-1" x1="841.07" y1="814.54" x2="1083.15" y2="814.54"/>
    <ellipse class="cls-1" cx="962.11" cy="1288.51" rx="88.73" ry="35.45"/>
    <ellipse class="cls-1" cx="962.11" cy="1153.09" rx="88.73" ry="35.45"/>
    <ellipse class="cls-1" cx="962.11" cy="1220.8" rx="121.04" ry="67.71"/>
    <ellipse class="cls-1" cx="962.11" cy="1220.8" rx="72.62" ry="67.71"/>
    <ellipse class="cls-1" cx="962.11" cy="1220.8" rx="24.21" ry="67.71"/>
    <line class="cls-1" x1="841.07" y1="1220.8" x2="1083.15" y2="1220.8"/>
    <path class="cls-1" d="M1260.6,1356.23c0-19.58-39.72-35.45-88.73-35.45s-88.73,15.87-88.73,35.45"/>
    <ellipse class="cls-1" cx="1171.88" cy="1220.8" rx="88.73" ry="35.45"/>
    <ellipse class="cls-1" cx="1171.88" cy="1288.51" rx="121.04" ry="67.71"/>
    <ellipse class="cls-1" cx="1171.88" cy="1288.51" rx="72.62" ry="67.71"/>
    <ellipse class="cls-1" cx="1171.88" cy="1288.51" rx="24.21" ry="67.71"/>
    <line class="cls-1" x1="1050.83" y1="1288.51" x2="1292.92" y2="1288.51"/>
    <path class="cls-1" d="M1083.15,1085.38c0,19.58,39.72,35.45,88.73,35.45s88.73-15.87,88.73-35.45"/>
    <ellipse class="cls-1" cx="1171.88" cy="1153.09" rx="121.04" ry="67.71"/>
    <ellipse class="cls-1" cx="1171.88" cy="1153.09" rx="72.62" ry="67.71"/>
    <ellipse class="cls-1" cx="1171.88" cy="1153.09" rx="24.21" ry="67.71"/>
    <line class="cls-1" x1="1050.83" y1="1153.09" x2="1292.92" y2="1153.09"/>
    <path class="cls-1" d="M841.07,1356.23c0-37.4,54.19-67.71,121.04-67.71s121.04,30.32,121.04,67.71"/>
    <path class="cls-1" d="M889.48,1356.23c0-37.4,32.52-67.71,72.62-67.71s72.62,30.32,72.62,67.71"/>
    <path class="cls-1" d="M937.9,1356.23c0-37.4,10.84-67.71,24.21-67.71s24.21,30.32,24.21,67.71"/>
    <path class="cls-1" d="M1050.83,1153.09c0-19.58-39.72-35.45-88.73-35.45s-88.73,15.87-88.73,35.45"/>
    <path class="cls-1" d="M1083.15,1085.38c0,37.4-54.19,67.71-121.04,67.71s-121.04-30.32-121.04-67.71"/>
    <path class="cls-1" d="M1034.73,1085.38c0,37.4-32.52,67.71-72.62,67.71s-72.62-30.32-72.62-67.71"/>
    <path class="cls-1" d="M986.32,1085.38c0,37.4-10.84,67.71-24.21,67.71s-24.21-30.32-24.21-67.71"/>
    <line class="cls-1" x1="841.07" y1="1085.38" x2="1083.15" y2="1085.38"/>
    <ellipse class="cls-1" cx="123.04" cy="1559.36" rx="88.73" ry="35.45"/>
    <ellipse class="cls-1" cx="123.04" cy="1423.94" rx="88.73" ry="35.45"/>
    <ellipse class="cls-1" cx="123.04" cy="1491.65" rx="121.04" ry="67.71"/>
    <ellipse class="cls-1" cx="123.04" cy="1491.65" rx="72.62" ry="67.71"/>
    <ellipse class="cls-1" cx="123.04" cy="1491.65" rx="24.21" ry="67.71"/>
    <line class="cls-1" x1="2" y1="1491.65" x2="244.08" y2="1491.65"/>
    <path class="cls-1" d="M421.53,1627.07c0-19.58-39.72-35.45-88.73-35.45s-88.73,15.87-88.73,35.45"/>
    <ellipse class="cls-1" cx="332.81" cy="1491.65" rx="88.73" ry="35.45"/>
    <ellipse class="cls-1" cx="332.81" cy="1559.36" rx="121.04" ry="67.71"/>
    <ellipse class="cls-1" cx="332.81" cy="1559.36" rx="72.62" ry="67.71"/>
    <ellipse class="cls-1" cx="332.81" cy="1559.36" rx="24.21" ry="67.71"/>
    <line class="cls-1" x1="211.77" y1="1559.36" x2="453.85" y2="1559.36"/>
    <path class="cls-1" d="M244.08,1356.23c0,19.58,39.72,35.45,88.73,35.45s88.73-15.87,88.73-35.45"/>
    <ellipse class="cls-1" cx="332.81" cy="1423.94" rx="121.04" ry="67.71"/>
    <ellipse class="cls-1" cx="332.81" cy="1423.94" rx="72.62" ry="67.71"/>
    <ellipse class="cls-1" cx="332.81" cy="1423.94" rx="24.21" ry="67.71"/>
    <line class="cls-1" x1="211.77" y1="1423.94" x2="453.85" y2="1423.94"/>
    <path class="cls-1" d="M2,1627.07c0-37.4,54.19-67.71,121.04-67.71s121.04,30.32,121.04,67.71"/>
    <path class="cls-1" d="M50.42,1627.07c0-37.4,32.52-67.71,72.62-67.71s72.62,30.32,72.62,67.71"/>
    <path class="cls-1" d="M98.83,1627.07c0-37.4,10.84-67.71,24.21-67.71s24.21,30.32,24.21,67.71"/>
    <path class="cls-1" d="M211.77,1423.94c0-19.58-39.72-35.45-88.73-35.45s-88.73,15.87-88.73,35.45"/>
    <path class="cls-1" d="M244.08,1356.23c0,37.4-54.19,67.71-121.04,67.71s-121.04-30.32-121.04-67.71"/>
    <path class="cls-1" d="M195.67,1356.23c0,37.4-32.52,67.71-72.62,67.71s-72.62-30.32-72.62-67.71"/>
    <path class="cls-1" d="M147.25,1356.23c0,37.4-10.84,67.71-24.21,67.71s-24.21-30.32-24.21-67.71"/>
    <line class="cls-1" x1="2" y1="1356.23" x2="244.08" y2="1356.23"/>
    <line class="cls-1" x1="2" y1="1627.07" x2="244.08" y2="1627.07"/>
    <ellipse class="cls-1" cx="542.58" cy="1559.36" rx="88.73" ry="35.45"/>
    <ellipse class="cls-1" cx="542.58" cy="1423.94" rx="88.73" ry="35.45"/>
    <ellipse class="cls-1" cx="542.58" cy="1491.65" rx="121.04" ry="67.71"/>
    <ellipse class="cls-1" cx="542.58" cy="1491.65" rx="72.62" ry="67.71"/>
    <ellipse class="cls-1" cx="542.58" cy="1491.65" rx="24.21" ry="67.71"/>
    <line class="cls-1" x1="421.53" y1="1491.65" x2="663.62" y2="1491.65"/>
    <path class="cls-1" d="M841.07,1627.07c0-19.58-39.72-35.45-88.73-35.45s-88.73,15.87-88.73,35.45"/>
    <ellipse class="cls-1" cx="752.34" cy="1491.65" rx="88.73" ry="35.45"/>
    <ellipse class="cls-1" cx="752.34" cy="1559.36" rx="121.04" ry="67.71"/>
    <ellipse class="cls-1" cx="752.34" cy="1559.36" rx="72.62" ry="67.71"/>
    <ellipse class="cls-1" cx="752.34" cy="1559.36" rx="24.21" ry="67.71"/>
    <line class="cls-1" x1="631.3" y1="1559.36" x2="873.38" y2="1559.36"/>
    <path class="cls-1" d="M663.62,1356.23c0,19.58,39.72,35.45,88.73,35.45s88.73-15.87,88.73-35.45"/>
    <ellipse class="cls-1" cx="752.34" cy="1423.94" rx="121.04" ry="67.71"/>
    <ellipse class="cls-1" cx="752.34" cy="1423.94" rx="72.62" ry="67.71"/>
    <ellipse class="cls-1" cx="752.34" cy="1423.94" rx="24.21" ry="67.71"/>
    <line class="cls-1" x1="631.3" y1="1423.94" x2="873.38" y2="1423.94"/>
    <path class="cls-1" d="M421.53,1627.07c0-37.4,54.19-67.71,121.04-67.71s121.04,30.32,121.04,67.71"/>
    <path class="cls-1" d="M469.95,1627.07c0-37.4,32.52-67.71,72.62-67.71s72.62,30.32,72.62,67.71"/>
    <path class="cls-1" d="M518.37,1627.07c0-37.4,10.84-67.71,24.21-67.71s24.21,30.32,24.21,67.71"/>
    <path class="cls-1" d="M631.3,1423.94c0-19.58-39.72-35.45-88.73-35.45s-88.73,15.87-88.73,35.45"/>
    <path class="cls-1" d="M663.62,1356.23c0,37.4-54.19,67.71-121.04,67.71s-121.04-30.32-121.04-67.71"/>
    <path class="cls-1" d="M615.2,1356.23c0,37.4-32.52,67.71-72.62,67.71s-72.62-30.32-72.62-67.71"/>
    <path class="cls-1" d="M566.78,1356.23c0,37.4-10.84,67.71-24.21,67.71s-24.21-30.32-24.21-67.71"/>
    <line class="cls-1" x1="421.53" y1="1356.23" x2="663.62" y2="1356.23"/>
    <line class="cls-1" x1="421.53" y1="1627.07" x2="663.62" y2="1627.07"/>
    <ellipse class="cls-1" cx="962.11" cy="1559.36" rx="88.73" ry="35.45"/>
    <ellipse class="cls-1" cx="962.11" cy="1423.94" rx="88.73" ry="35.45"/>
    <ellipse class="cls-1" cx="962.11" cy="1491.65" rx="121.04" ry="67.71"/>
    <ellipse class="cls-1" cx="962.11" cy="1491.65" rx="72.62" ry="67.71"/>
    <ellipse class="cls-1" cx="962.11" cy="1491.65" rx="24.21" ry="67.71"/>
    <line class="cls-1" x1="841.07" y1="1491.65" x2="1083.15" y2="1491.65"/>
    <path class="cls-1" d="M1260.6,1627.07c0-19.58-39.72-35.45-88.73-35.45s-88.73,15.87-88.73,35.45"/>
    <ellipse class="cls-1" cx="1171.88" cy="1491.65" rx="88.73" ry="35.45"/>
    <ellipse class="cls-1" cx="1171.88" cy="1559.36" rx="121.04" ry="67.71"/>
    <ellipse class="cls-1" cx="1171.88" cy="1559.36" rx="72.62" ry="67.71"/>
    <ellipse class="cls-1" cx="1171.88" cy="1559.36" rx="24.21" ry="67.71"/>
    <line class="cls-1" x1="1050.83" y1="1559.36" x2="1292.92" y2="1559.36"/>
    <path class="cls-1" d="M1083.15,1356.23c0,19.58,39.72,35.45,88.73,35.45s88.73-15.87,88.73-35.45"/>
    <ellipse class="cls-1" cx="1171.88" cy="1423.94" rx="121.04" ry="67.71"/>
    <ellipse class="cls-1" cx="1171.88" cy="1423.94" rx="72.62" ry="67.71"/>
    <ellipse class="cls-1" cx="1171.88" cy="1423.94" rx="24.21" ry="67.71"/>
    <line class="cls-1" x1="1050.83" y1="1423.94" x2="1292.92" y2="1423.94"/>
    <path class="cls-1" d="M841.07,1627.07c0-37.4,54.19-67.71,121.04-67.71s121.04,30.32,121.04,67.71"/>
    <path class="cls-1" d="M889.48,1627.07c0-37.4,32.52-67.71,72.62-67.71s72.62,30.32,72.62,67.71"/>
    <path class="cls-1" d="M937.9,1627.07c0-37.4,10.84-67.71,24.21-67.71s24.21,30.32,24.21,67.71"/>
    <path class="cls-1" d="M1050.83,1423.94c0-19.58-39.72-35.45-88.73-35.45s-88.73,15.87-88.73,35.45"/>
    <path class="cls-1" d="M1083.15,1356.23c0,37.4-54.19,67.71-121.04,67.71s-121.04-30.32-121.04-67.71"/>
    <path class="cls-1" d="M1034.73,1356.23c0,37.4-32.52,67.71-72.62,67.71s-72.62-30.32-72.62-67.71"/>
    <path class="cls-1" d="M986.32,1356.23c0,37.4-10.84,67.71-24.21,67.71s-24.21-30.32-24.21-67.71"/>
    <line class="cls-1" x1="841.07" y1="1356.23" x2="1083.15" y2="1356.23"/>
    <line class="cls-1" x1="841.07" y1="1627.07" x2="1083.15" y2="1627.07"/>
  </g>
  <g>
    <ellipse class="cls-1" cx="1381.64" cy="1017.67" rx="88.73" ry="35.45"/>
    <ellipse class="cls-1" cx="1381.64" cy="882.25" rx="88.73" ry="35.45"/>
    <ellipse class="cls-1" cx="1381.64" cy="949.96" rx="121.04" ry="67.71"/>
    <ellipse class="cls-1" cx="1381.64" cy="949.96" rx="72.62" ry="67.71"/>
    <ellipse class="cls-1" cx="1381.64" cy="949.96" rx="24.21" ry="67.71"/>
    <line class="cls-1" x1="1260.6" y1="949.96" x2="1502.68" y2="949.96"/>
    <path class="cls-1" d="M1680.14,1085.38c0-19.58-39.72-35.45-88.73-35.45s-88.73,15.87-88.73,35.45"/>
    <ellipse class="cls-1" cx="1591.41" cy="949.96" rx="88.73" ry="35.45"/>
    <ellipse class="cls-1" cx="1591.41" cy="1017.67" rx="121.04" ry="67.71"/>
    <ellipse class="cls-1" cx="1591.41" cy="1017.67" rx="72.62" ry="67.71"/>
    <ellipse class="cls-1" cx="1591.41" cy="1017.67" rx="24.21" ry="67.71"/>
    <line class="cls-1" x1="1470.37" y1="1017.67" x2="1712.45" y2="1017.67"/>
    <path class="cls-1" d="M1502.68,814.54c0,19.58,39.72,35.45,88.73,35.45s88.73-15.87,88.73-35.45"/>
    <ellipse class="cls-1" cx="1591.41" cy="882.25" rx="121.04" ry="67.71"/>
    <ellipse class="cls-1" cx="1591.41" cy="882.25" rx="72.62" ry="67.71"/>
    <ellipse class="cls-1" cx="1591.41" cy="882.25" rx="24.21" ry="67.71"/>
    <line class="cls-1" x1="1470.37" y1="882.25" x2="1712.45" y2="882.25"/>
    <path class="cls-1" d="M1260.6,1085.38c0-37.4,54.19-67.71,121.04-67.71s121.04,30.32,121.04,67.71"/>
    <path class="cls-1" d="M1309.02,1085.38c0-37.4,32.52-67.71,72.62-67.71s72.62,30.32,72.62,67.71"/>
    <path class="cls-1" d="M1357.44,1085.38c0-37.4,10.84-67.71,24.21-67.71s24.21,30.32,24.21,67.71"/>
    <path class="cls-1" d="M1470.37,882.25c0-19.58-39.72-35.45-88.73-35.45s-88.73,15.87-88.73,35.45"/>
    <path class="cls-1" d="M1502.68,814.54c0,37.4-54.19,67.71-121.04,67.71s-121.04-30.32-121.04-67.71"/>
    <path class="cls-1" d="M1454.27,814.54c0,37.4-32.52,67.71-72.62,67.71s-72.62-30.32-72.62-67.71"/>
    <path class="cls-1" d="M1405.85,814.54c0,37.4-10.84,67.71-24.21,67.71s-24.21-30.32-24.21-67.71"/>
    <line class="cls-1" x1="1260.6" y1="814.54" x2="1502.68" y2="814.54"/>
    <ellipse class="cls-1" cx="1381.64" cy="1288.51" rx="88.73" ry="35.45"/>
    <ellipse class="cls-1" cx="1381.64" cy="1153.09" rx="88.73" ry="35.45"/>
    <ellipse class="cls-1" cx="1381.64" cy="1220.8" rx="121.04" ry="67.71"/>
    <ellipse class="cls-1" cx="1381.64" cy="1220.8" rx="72.62" ry="67.71"/>
    <ellipse class="cls-1" cx="1381.64" cy="1220.8" rx="24.21" ry="67.71"/>
    <line class="cls-1" x1="1260.6" y1="1220.8" x2="1502.68" y2="1220.8"/>
    <path class="cls-1" d="M1680.14,1356.23c0-19.58-39.72-35.45-88.73-35.45s-88.73,15.87-88.73,35.45"/>
    <ellipse class="cls-1" cx="1591.41" cy="1220.8" rx="88.73" ry="35.45"/>
    <ellipse class="cls-1" cx="1591.41" cy="1288.51" rx="121.04" ry="67.71"/>
    <ellipse class="cls-1" cx="1591.41" cy="1288.51" rx="72.62" ry="67.71"/>
    <ellipse class="cls-1" cx="1591.41" cy="1288.51" rx="24.21" ry="67.71"/>
    <line class="cls-1" x1="1470.37" y1="1288.51" x2="1712.45" y2="1288.51"/>
    <path class="cls-1" d="M1502.68,1085.38c0,19.58,39.72,35.45,88.73,35.45s88.73-15.87,88.73-35.45"/>
    <ellipse class="cls-1" cx="1591.41" cy="1153.09" rx="121.04" ry="67.71"/>
    <ellipse class="cls-1" cx="1591.41" cy="1153.09" rx="72.62" ry="67.71"/>
    <ellipse class="cls-1" cx="1591.41" cy="1153.09" rx="24.21" ry="67.71"/>
    <line class="cls-1" x1="1470.37" y1="1153.09" x2="1712.45" y2="1153.09"/>
    <path class="cls-1" d="M1260.6,1356.23c0-37.4,54.19-67.71,121.04-67.71s121.04,30.32,121.04,67.71"/>
    <path class="cls-1" d="M1309.02,1356.23c0-37.4,32.52-67.71,72.62-67.71s72.62,30.32,72.62,67.71"/>
    <path class="cls-1" d="M1357.44,1356.23c0-37.4,10.84-67.71,24.21-67.71s24.21,30.32,24.21,67.71"/>
    <path class="cls-1" d="M1470.37,1153.09c0-19.58-39.72-35.45-88.73-35.45s-88.73,15.87-88.73,35.45"/>
    <path class="cls-1" d="M1502.68,1085.38c0,37.4-54.19,67.71-121.04,67.71s-121.04-30.32-121.04-67.71"/>
    <path class="cls-1" d="M1454.27,1085.38c0,37.4-32.52,67.71-72.62,67.71s-72.62-30.32-72.62-67.71"/>
    <path class="cls-1" d="M1405.85,1085.38c0,37.4-10.84,67.71-24.21,67.71s-24.21-30.32-24.21-67.71"/>
    <line class="cls-1" x1="1260.6" y1="1085.38" x2="1502.68" y2="1085.38"/>
    <ellipse class="cls-1" cx="1801.18" cy="1017.67" rx="88.73" ry="35.45"/>
    <ellipse class="cls-1" cx="1801.18" cy="882.25" rx="88.73" ry="35.45"/>
    <ellipse class="cls-1" cx="1801.18" cy="949.96" rx="121.04" ry="67.71"/>
    <ellipse class="cls-1" cx="1801.18" cy="949.96" rx="72.62" ry="67.71"/>
    <ellipse class="cls-1" cx="1801.18" cy="949.96" rx="24.21" ry="67.71"/>
    <line class="cls-1" x1="1680.14" y1="949.96" x2="1922.22" y2="949.96"/>
    <path class="cls-1" d="M2099.67,1085.38c0-19.58-39.72-35.45-88.73-35.45s-88.73,15.87-88.73,35.45"/>
    <ellipse class="cls-1" cx="2010.94" cy="949.96" rx="88.73" ry="35.45"/>
    <ellipse class="cls-1" cx="2010.94" cy="1017.67" rx="121.04" ry="67.71"/>
    <ellipse class="cls-1" cx="2010.94" cy="1017.67" rx="72.62" ry="67.71"/>
    <ellipse class="cls-1" cx="2010.94" cy="1017.67" rx="24.21" ry="67.71"/>
    <line class="cls-1" x1="1889.9" y1="1017.67" x2="2131.99" y2="1017.67"/>
    <path class="cls-1" d="M1922.22,814.54c0,19.58,39.72,35.45,88.73,35.45s88.73-15.87,88.73-35.45"/>
    <ellipse class="cls-1" cx="2010.94" cy="882.25" rx="121.04" ry="67.71"/>
    <ellipse class="cls-1" cx="2010.94" cy="882.25" rx="72.62" ry="67.71"/>
    <ellipse class="cls-1" cx="2010.94" cy="882.25" rx="24.21" ry="67.71"/>
    <line class="cls-1" x1="1889.9" y1="882.25" x2="2131.99" y2="882.25"/>
    <path class="cls-1" d="M1680.14,1085.38c0-37.4,54.19-67.71,121.04-67.71s121.04,30.32,121.04,67.71"/>
    <path class="cls-1" d="M1728.55,1085.38c0-37.4,32.52-67.71,72.62-67.71s72.62,30.32,72.62,67.71"/>
    <path class="cls-1" d="M1776.97,1085.38c0-37.4,10.84-67.71,24.21-67.71s24.21,30.32,24.21,67.71"/>
    <path class="cls-1" d="M1889.9,882.25c0-19.58-39.72-35.45-88.73-35.45s-88.73,15.87-88.73,35.45"/>
    <path class="cls-1" d="M1922.22,814.54c0,37.4-54.19,67.71-121.04,67.71s-121.04-30.32-121.04-67.71"/>
    <path class="cls-1" d="M1873.8,814.54c0,37.4-32.52,67.71-72.62,67.71s-72.62-30.32-72.62-67.71"/>
    <path class="cls-1" d="M1825.39,814.54c0,37.4-10.84,67.71-24.21,67.71s-24.21-30.32-24.21-67.71"/>
    <line class="cls-1" x1="1680.14" y1="814.54" x2="1922.22" y2="814.54"/>
    <ellipse class="cls-1" cx="1801.18" cy="1288.51" rx="88.73" ry="35.45"/>
    <ellipse class="cls-1" cx="1801.18" cy="1153.09" rx="88.73" ry="35.45"/>
    <ellipse class="cls-1" cx="1801.18" cy="1220.8" rx="121.04" ry="67.71"/>
    <ellipse class="cls-1" cx="1801.18" cy="1220.8" rx="72.62" ry="67.71"/>
    <ellipse class="cls-1" cx="1801.18" cy="1220.8" rx="24.21" ry="67.71"/>
    <line class="cls-1" x1="1680.14" y1="1220.8" x2="1922.22" y2="1220.8"/>
    <path class="cls-1" d="M2099.67,1356.23c0-19.58-39.72-35.45-88.73-35.45s-88.73,15.87-88.73,35.45"/>
    <ellipse class="cls-1" cx="2010.94" cy="1220.8" rx="88.73" ry="35.45"/>
    <ellipse class="cls-1" cx="2010.94" cy="1288.51" rx="121.04" ry="67.71"/>
    <ellipse class="cls-1" cx="2010.94" cy="1288.51" rx="72.62" ry="67.71"/>
    <ellipse class="cls-1" cx="2010.94" cy="1288.51" rx="24.21" ry="67.71"/>
    <line class="cls-1" x1="1889.9" y1="1288.51" x2="2131.99" y2="1288.51"/>
    <path class="cls-1" d="M1922.22,1085.38c0,19.58,39.72,35.45,88.73,35.45s88.73-15.87,88.73-35.45"/>
    <ellipse class="cls-1" cx="2010.94" cy="1153.09" rx="121.04" ry="67.71"/>
    <ellipse class="cls-1" cx="2010.94" cy="1153.09" rx="72.62" ry="67.71"/>
    <ellipse class="cls-1" cx="2010.94" cy="1153.09" rx="24.21" ry="67.71"/>
    <line class="cls-1" x1="1889.9" y1="1153.09" x2="2131.99" y2="1153.09"/>
    <path class="cls-1" d="M1680.14,1356.23c0-37.4,54.19-67.71,121.04-67.71s121.04,30.32,121.04,67.71"/>
    <path class="cls-1" d="M1728.55,1356.23c0-37.4,32.52-67.71,72.62-67.71s72.62,30.32,72.62,67.71"/>
    <path class="cls-1" d="M1776.97,1356.23c0-37.4,10.84-67.71,24.21-67.71s24.21,30.32,24.21,67.71"/>
    <path class="cls-1" d="M1889.9,1153.09c0-19.58-39.72-35.45-88.73-35.45s-88.73,15.87-88.73,35.45"/>
    <path class="cls-1" d="M1922.22,1085.38c0,37.4-54.19,67.71-121.04,67.71s-121.04-30.32-121.04-67.71"/>
    <path class="cls-1" d="M1873.8,1085.38c0,37.4-32.52,67.71-72.62,67.71s-72.62-30.32-72.62-67.71"/>
    <path class="cls-1" d="M1825.39,1085.38c0,37.4-10.84,67.71-24.21,67.71s-24.21-30.32-24.21-67.71"/>
    <line class="cls-1" x1="1680.14" y1="1085.38" x2="1922.22" y2="1085.38"/>
    <ellipse class="cls-1" cx="2220.71" cy="1017.67" rx="88.73" ry="35.45"/>
    <ellipse class="cls-1" cx="2220.71" cy="882.25" rx="88.73" ry="35.45"/>
    <ellipse class="cls-1" cx="2220.71" cy="949.96" rx="121.04" ry="67.71"/>
    <ellipse class="cls-1" cx="2220.71" cy="949.96" rx="72.62" ry="67.71"/>
    <ellipse class="cls-1" cx="2220.71" cy="949.96" rx="24.21" ry="67.71"/>
    <line class="cls-1" x1="2099.67" y1="949.96" x2="2341.75" y2="949.96"/>
    <path class="cls-1" d="M2519.2,1085.38c0-19.58-39.72-35.45-88.73-35.45s-88.73,15.87-88.73,35.45"/>
    <ellipse class="cls-1" cx="2430.48" cy="949.96" rx="88.73" ry="35.45"/>
    <ellipse class="cls-1" cx="2430.48" cy="1017.67" rx="121.04" ry="67.71"/>
    <ellipse class="cls-1" cx="2430.48" cy="1017.67" rx="72.62" ry="67.71"/>
    <ellipse class="cls-1" cx="2430.48" cy="1017.67" rx="24.21" ry="67.71"/>
    <line class="cls-1" x1="2309.44" y1="1017.67" x2="2551.52" y2="1017.67"/>
    <path class="cls-1" d="M2341.75,814.54c0,19.58,39.72,35.45,88.73,35.45s88.73-15.87,88.73-35.45"/>
    <ellipse class="cls-1" cx="2430.48" cy="882.25" rx="121.04" ry="67.71"/>
    <ellipse class="cls-1" cx="2430.48" cy="882.25" rx="72.62" ry="67.71"/>
    <ellipse class="cls-1" cx="2430.48" cy="882.25" rx="24.21" ry="67.71"/>
    <line class="cls-1" x1="2309.44" y1="882.25" x2="2551.52" y2="882.25"/>
    <path class="cls-1" d="M2099.67,1085.38c0-37.4,54.19-67.71,121.04-67.71s121.04,30.32,121.04,67.71"/>
    <path class="cls-1" d="M2148.09,1085.38c0-37.4,32.52-67.71,72.62-67.71s72.62,30.32,72.62,67.71"/>
    <path class="cls-1" d="M2196.5,1085.38c0-37.4,10.84-67.71,24.21-67.71s24.21,30.32,24.21,67.71"/>
    <path class="cls-1" d="M2309.44,882.25c0-19.58-39.72-35.45-88.73-35.45s-88.73,15.87-88.73,35.45"/>
    <path class="cls-1" d="M2341.75,814.54c0,37.4-54.19,67.71-121.04,67.71s-121.04-30.32-121.04-67.71"/>
    <path class="cls-1" d="M2293.34,814.54c0,37.4-32.52,67.71-72.62,67.71s-72.62-30.32-72.62-67.71"/>
    <path class="cls-1" d="M2244.92,814.54c0,37.4-10.84,67.71-24.21,67.71s-24.21-30.32-24.21-67.71"/>
    <line class="cls-1" x1="2099.67" y1="814.54" x2="2341.75" y2="814.54"/>
    <ellipse class="cls-1" cx="2220.71" cy="1288.51" rx="88.73" ry="35.45"/>
    <ellipse class="cls-1" cx="2220.71" cy="1153.09" rx="88.73" ry="35.45"/>
    <ellipse class="cls-1" cx="2220.71" cy="1220.8" rx="121.04" ry="67.71"/>
    <ellipse class="cls-1" cx="2220.71" cy="1220.8" rx="72.62" ry="67.71"/>
    <ellipse class="cls-1" cx="2220.71" cy="1220.8" rx="24.21" ry="67.71"/>
    <line class="cls-1" x1="2099.67" y1="1220.8" x2="2341.75" y2="1220.8"/>
    <path class="cls-1" d="M2519.2,1356.23c0-19.58-39.72-35.45-88.73-35.45s-88.73,15.87-88.73,35.45"/>
    <ellipse class="cls-1" cx="2430.48" cy="1220.8" rx="88.73" ry="35.45"/>
    <ellipse class="cls-1" cx="2430.48" cy="1288.51" rx="121.04" ry="67.71"/>
    <ellipse class="cls-1" cx="2430.48" cy="1288.51" rx="72.62" ry="67.71"/>
    <ellipse class="cls-1" cx="2430.48" cy="1288.51" rx="24.21" ry="67.71"/>
    <line class="cls-1" x1="2309.44" y1="1288.51" x2="2551.52" y2="1288.51"/>
    <path class="cls-1" d="M2341.75,1085.38c0,19.58,39.72,35.45,88.73,35.45s88.73-15.87,88.73-35.45"/>
    <ellipse class="cls-1" cx="2430.48" cy="1153.09" rx="121.04" ry="67.71"/>
    <ellipse class="cls-1" cx="2430.48" cy="1153.09" rx="72.62" ry="67.71"/>
    <ellipse class="cls-1" cx="2430.48" cy="1153.09" rx="24.21" ry="67.71"/>
    <line class="cls-1" x1="2309.44" y1="1153.09" x2="2551.52" y2="1153.09"/>
    <path class="cls-1" d="M2099.67,1356.23c0-37.4,54.19-67.71,121.04-67.71s121.04,30.32,121.04,67.71"/>
    <path class="cls-1" d="M2148.09,1356.23c0-37.4,32.52-67.71,72.62-67.71s72.62,30.32,72.62,67.71"/>
    <path class="cls-1" d="M2196.5,1356.23c0-37.4,10.84-67.71,24.21-67.71s24.21,30.32,24.21,67.71"/>
    <path class="cls-1" d="M2309.44,1153.09c0-19.58-39.72-35.45-88.73-35.45s-88.73,15.87-88.73,35.45"/>
    <path class="cls-1" d="M2341.75,1085.38c0,37.4-54.19,67.71-121.04,67.71s-121.04-30.32-121.04-67.71"/>
    <path class="cls-1" d="M2293.34,1085.38c0,37.4-32.52,67.71-72.62,67.71s-72.62-30.32-72.62-67.71"/>
    <path class="cls-1" d="M2244.92,1085.38c0,37.4-10.84,67.71-24.21,67.71s-24.21-30.32-24.21-67.71"/>
    <line class="cls-1" x1="2099.67" y1="1085.38" x2="2341.75" y2="1085.38"/>
    <ellipse class="cls-1" cx="1381.64" cy="1559.36" rx="88.73" ry="35.45"/>
    <ellipse class="cls-1" cx="1381.64" cy="1423.94" rx="88.73" ry="35.45"/>
    <ellipse class="cls-1" cx="1381.64" cy="1491.65" rx="121.04" ry="67.71"/>
    <ellipse class="cls-1" cx="1381.64" cy="1491.65" rx="72.62" ry="67.71"/>
    <ellipse class="cls-1" cx="1381.64" cy="1491.65" rx="24.21" ry="67.71"/>
    <line class="cls-1" x1="1260.6" y1="1491.65" x2="1502.68" y2="1491.65"/>
    <path class="cls-1" d="M1680.14,1627.07c0-19.58-39.72-35.45-88.73-35.45s-88.73,15.87-88.73,35.45"/>
    <ellipse class="cls-1" cx="1591.41" cy="1491.65" rx="88.73" ry="35.45"/>
    <ellipse class="cls-1" cx="1591.41" cy="1559.36" rx="121.04" ry="67.71"/>
    <ellipse class="cls-1" cx="1591.41" cy="1559.36" rx="72.62" ry="67.71"/>
    <ellipse class="cls-1" cx="1591.41" cy="1559.36" rx="24.21" ry="67.71"/>
    <line class="cls-1" x1="1470.37" y1="1559.36" x2="1712.45" y2="1559.36"/>
    <path class="cls-1" d="M1502.68,1356.23c0,19.58,39.72,35.45,88.73,35.45s88.73-15.87,88.73-35.45"/>
    <ellipse class="cls-1" cx="1591.41" cy="1423.94" rx="121.04" ry="67.71"/>
    <ellipse class="cls-1" cx="1591.41" cy="1423.94" rx="72.62" ry="67.71"/>
    <ellipse class="cls-1" cx="1591.41" cy="1423.94" rx="24.21" ry="67.71"/>
    <line class="cls-1" x1="1470.37" y1="1423.94" x2="1712.45" y2="1423.94"/>
    <path class="cls-1" d="M1260.6,1627.07c0-37.4,54.19-67.71,121.04-67.71s121.04,30.32,121.04,67.71"/>
    <path class="cls-1" d="M1309.02,1627.07c0-37.4,32.52-67.71,72.62-67.71s72.62,30.32,72.62,67.71"/>
    <path class="cls-1" d="M1357.44,1627.07c0-37.4,10.84-67.71,24.21-67.71s24.21,30.32,24.21,67.71"/>
    <path class="cls-1" d="M1470.37,1423.94c0-19.58-39.72-35.45-88.73-35.45s-88.73,15.87-88.73,35.45"/>
    <path class="cls-1" d="M1502.68,1356.23c0,37.4-54.19,67.71-121.04,67.71s-121.04-30.32-121.04-67.71"/>
    <path class="cls-1" d="M1454.27,1356.23c0,37.4-32.52,67.71-72.62,67.71s-72.62-30.32-72.62-67.71"/>
    <path class="cls-1" d="M1405.85,1356.23c0,37.4-10.84,67.71-24.21,67.71s-24.21-30.32-24.21-67.71"/>
    <line class="cls-1" x1="1260.6" y1="1356.23" x2="1502.68" y2="1356.23"/>
    <line class="cls-1" x1="1260.6" y1="1627.07" x2="1502.68" y2="1627.07"/>
    <ellipse class="cls-1" cx="1801.18" cy="1559.36" rx="88.73" ry="35.45"/>
    <ellipse class="cls-1" cx="1801.18" cy="1423.94" rx="88.73" ry="35.45"/>
    <ellipse class="cls-1" cx="1801.18" cy="1491.65" rx="121.04" ry="67.71"/>
    <ellipse class="cls-1" cx="1801.18" cy="1491.65" rx="72.62" ry="67.71"/>
    <ellipse class="cls-1" cx="1801.18" cy="1491.65" rx="24.21" ry="67.71"/>
    <line class="cls-1" x1="1680.14" y1="1491.65" x2="1922.22" y2="1491.65"/>
    <path class="cls-1" d="M2099.67,1627.07c0-19.58-39.72-35.45-88.73-35.45s-88.73,15.87-88.73,35.45"/>
    <ellipse class="cls-1" cx="2010.94" cy="1491.65" rx="88.73" ry="35.45"/>
    <ellipse class="cls-1" cx="2010.94" cy="1559.36" rx="121.04" ry="67.71"/>
    <ellipse class="cls-1" cx="2010.94" cy="1559.36" rx="72.62" ry="67.71"/>
    <ellipse class="cls-1" cx="2010.94" cy="1559.36" rx="24.21" ry="67.71"/>
    <line class="cls-1" x1="1889.9" y1="1559.36" x2="2131.99" y2="1559.36"/>
    <path class="cls-1" d="M1922.22,1356.23c0,19.58,39.72,35.45,88.73,35.45s88.73-15.87,88.73-35.45"/>
    <ellipse class="cls-1" cx="2010.94" cy="1423.94" rx="121.04" ry="67.71"/>
    <ellipse class="cls-1" cx="2010.94" cy="1423.94" rx="72.62" ry="67.71"/>
    <ellipse class="cls-1" cx="2010.94" cy="1423.94" rx="24.21" ry="67.71"/>
    <line class="cls-1" x1="1889.9" y1="1423.94" x2="2131.99" y2="1423.94"/>
    <path class="cls-1" d="M1680.14,1627.07c0-37.4,54.19-67.71,121.04-67.71s121.04,30.32,121.04,67.71"/>
    <path class="cls-1" d="M1728.55,1627.07c0-37.4,32.52-67.71,72.62-67.71s72.62,30.32,72.62,67.71"/>
    <path class="cls-1" d="M1776.97,1627.07c0-37.4,10.84-67.71,24.21-67.71s24.21,30.32,24.21,67.71"/>
    <path class="cls-1" d="M1889.9,1423.94c0-19.58-39.72-35.45-88.73-35.45s-88.73,15.87-88.73,35.45"/>
    <path class="cls-1" d="M1922.22,1356.23c0,37.4-54.19,67.71-121.04,67.71s-121.04-30.32-121.04-67.71"/>
    <path class="cls-1" d="M1873.8,1356.23c0,37.4-32.52,67.71-72.62,67.71s-72.62-30.32-72.62-67.71"/>
    <path class="cls-1" d="M1825.39,1356.23c0,37.4-10.84,67.71-24.21,67.71s-24.21-30.32-24.21-67.71"/>
    <line class="cls-1" x1="1680.14" y1="1356.23" x2="1922.22" y2="1356.23"/>
    <line class="cls-1" x1="1680.14" y1="1627.07" x2="1922.22" y2="1627.07"/>
    <ellipse class="cls-1" cx="2220.71" cy="1559.36" rx="88.73" ry="35.45"/>
    <ellipse class="cls-1" cx="2220.71" cy="1423.94" rx="88.73" ry="35.45"/>
    <ellipse class="cls-1" cx="2220.71" cy="1491.65" rx="121.04" ry="67.71"/>
    <ellipse class="cls-1" cx="2220.71" cy="1491.65" rx="72.62" ry="67.71"/>
    <ellipse class="cls-1" cx="2220.71" cy="1491.65" rx="24.21" ry="67.71"/>
    <line class="cls-1" x1="2099.67" y1="1491.65" x2="2341.75" y2="1491.65"/>
    <path class="cls-1" d="M2519.2,1627.07c0-19.58-39.72-35.45-88.73-35.45s-88.73,15.87-88.73,35.45"/>
    <ellipse class="cls-1" cx="2430.48" cy="1491.65" rx="88.73" ry="35.45"/>
    <ellipse class="cls-1" cx="2430.48" cy="1559.36" rx="121.04" ry="67.71"/>
    <ellipse class="cls-1" cx="2430.48" cy="1559.36" rx="72.62" ry="67.71"/>
    <ellipse class="cls-1" cx="2430.48" cy="1559.36" rx="24.21" ry="67.71"/>
    <line class="cls-1" x1="2309.44" y1="1559.36" x2="2551.52" y2="1559.36"/>
    <path class="cls-1" d="M2341.75,1356.23c0,19.58,39.72,35.45,88.73,35.45s88.73-15.87,88.73-35.45"/>
    <ellipse class="cls-1" cx="2430.48" cy="1423.94" rx="121.04" ry="67.71"/>
    <ellipse class="cls-1" cx="2430.48" cy="1423.94" rx="72.62" ry="67.71"/>
    <ellipse class="cls-1" cx="2430.48" cy="1423.94" rx="24.21" ry="67.71"/>
    <line class="cls-1" x1="2309.44" y1="1423.94" x2="2551.52" y2="1423.94"/>
    <path class="cls-1" d="M2099.67,1627.07c0-37.4,54.19-67.71,121.04-67.71s121.04,30.32,121.04,67.71"/>
    <path class="cls-1" d="M2148.09,1627.07c0-37.4,32.52-67.71,72.62-67.71s72.62,30.32,72.62,67.71"/>
    <path class="cls-1" d="M2196.5,1627.07c0-37.4,10.84-67.71,24.21-67.71s24.21,30.32,24.21,67.71"/>
    <path class="cls-1" d="M2309.44,1423.94c0-19.58-39.72-35.45-88.73-35.45s-88.73,15.87-88.73,35.45"/>
    <path class="cls-1" d="M2341.75,1356.23c0,37.4-54.19,67.71-121.04,67.71s-121.04-30.32-121.04-67.71"/>
    <path class="cls-1" d="M2293.34,1356.23c0,37.4-32.52,67.71-72.62,67.71s-72.62-30.32-72.62-67.71"/>
    <path class="cls-1" d="M2244.92,1356.23c0,37.4-10.84,67.71-24.21,67.71s-24.21-30.32-24.21-67.71"/>
    <line class="cls-1" x1="2099.67" y1="1356.23" x2="2341.75" y2="1356.23"/>
    <line class="cls-1" x1="2099.67" y1="1627.07" x2="2341.75" y2="1627.07"/>
  </g>
</svg>