<?xml version="1.0" encoding="UTF-8"?><svg id="Layer_1" xmlns="http://www.w3.org/2000/svg" viewBox="0 0 930.3097 791.3491"><polygon points="460.3344 393.6836 460.3344 398.8761 650.9421 396.2789 460.3344 393.6836"/><polygon points="653.5386 205.6709 648.3461 205.6709 650.9433 396.2786 653.5386 205.6709"/><polygon points="650.9401 396.2778 526.4911 251.9019 522.6155 255.3277 650.9401 396.2778"/><polygon points="650.9427 396.2778 585.7604 217.1106 580.9144 218.9339 650.9427 396.2778"/><polygon points="650.9427 396.2778 483.3435 305.3946 480.9488 309.9792 650.9427 396.2778"/><polygon points="650.9427 396.2778 630.5395 206.7499 625.3896 207.3578 650.9427 396.2778"/><polygon points="650.9427 396.2778 509.9946 267.9554 506.5667 271.8269 650.9427 396.2778"/><polygon points="650.9401 396.2778 564.6435 226.284 560.0608 228.6786 650.9401 396.2778"/><polygon points="650.9427 396.2778 473.5988 326.2516 471.7754 331.0996 650.9427 396.2778"/><polygon points="650.9427 396.2778 607.837 210.5607 602.8025 211.7986 650.9427 396.2778"/><polygon points="650.9427 396.2778 495.5436 285.8686 492.602 290.1272 650.9427 396.2778"/><polygon points="650.9401 396.2778 544.7934 237.9392 540.5329 240.8788 650.9401 396.2778"/><polygon points="650.9427 396.2778 466.4655 348.1397 465.2256 353.1701 650.9427 396.2778"/><polygon points="650.9427 396.2778 462.0206 370.7268 461.4148 375.8767 650.9427 396.2778"/><polygon points="653.5386 586.8866 648.3461 586.8866 650.9433 396.2768 653.5386 586.8866"/><polygon points="650.9401 396.2778 526.4911 540.6559 522.6155 537.23 650.9401 396.2778"/><polygon points="650.9427 396.2778 585.7604 575.4472 580.9144 573.6238 650.9427 396.2778"/><polygon points="650.9427 396.2778 483.3435 487.1611 480.9488 482.5785 650.9427 396.2778"/><polygon points="650.9427 396.2778 630.5395 585.8098 625.3896 585.202 650.9427 396.2778"/><polygon points="650.9427 396.2778 509.9946 524.6064 506.5667 520.7328 650.9427 396.2778"/><polygon points="650.9401 396.2778 564.6435 566.2717 560.0608 563.8791 650.9401 396.2778"/><polygon points="650.9427 396.2778 473.5988 466.3082 471.7754 461.4622 650.9427 396.2778"/><polygon points="650.9427 396.2778 607.837 581.999 602.8025 580.7612 650.9427 396.2778"/><polygon points="650.9427 396.2778 495.5436 506.6911 492.602 502.4286 650.9427 396.2778"/><polygon points="650.9401 396.2778 544.7934 554.6226 540.5329 551.6789 650.9401 396.2778"/><polygon points="650.9427 396.2778 466.4655 444.418 465.2256 439.3877 650.9427 396.2778"/><polygon points="650.9427 396.2778 462.0206 421.8309 461.4148 416.679 650.9427 396.2778"/><polygon points="650.9433 396.2787 841.549 398.8779 841.549 393.6835 650.9433 396.2787"/><polygon points="650.9443 396.2778 775.3932 251.9019 779.2648 255.3277 650.9443 396.2778"/><polygon points="650.9427 396.2778 716.121 217.1106 720.969 218.9339 650.9427 396.2778"/><polygon points="650.9427 396.2778 818.5419 305.3946 820.9346 309.9792 650.9427 396.2778"/><polygon points="650.9427 396.2778 671.3438 206.7499 676.4917 207.3578 650.9427 396.2778"/><polygon points="650.9427 396.2778 791.8908 267.9554 795.3167 271.8269 650.9427 396.2778"/><polygon points="650.9443 396.2778 737.2409 226.284 741.8236 228.6786 650.9443 396.2778"/><polygon points="650.9427 396.2778 828.2846 326.2516 830.11 331.0996 650.9427 396.2778"/><polygon points="650.9427 396.2778 694.0464 210.5607 699.0788 211.7986 650.9427 396.2778"/><polygon points="650.9427 396.2778 806.3418 285.8686 809.2814 290.1272 650.9427 396.2778"/><polygon points="650.9443 396.2778 757.0909 237.9392 761.3515 240.8788 650.9443 396.2778"/><polygon points="650.9427 396.2778 835.42 348.1397 836.6598 353.1701 650.9427 396.2778"/><polygon points="650.9433 396.2787 840.4692 375.8775 839.8634 370.7256 650.9433 396.2787"/><polygon points="650.9443 396.2778 775.3932 540.6559 779.2648 537.23 650.9443 396.2778"/><polygon points="650.9427 396.2778 716.121 575.4472 720.969 573.6238 650.9427 396.2778"/><polygon points="650.9427 396.2778 818.5419 487.1611 820.9346 482.5785 650.9427 396.2778"/><polygon points="650.9427 396.2778 671.3438 585.8098 676.4917 585.202 650.9427 396.2778"/><polygon points="650.9427 396.2778 791.8908 524.6064 795.3167 520.7328 650.9427 396.2778"/><polygon points="650.9443 396.2778 737.2409 566.2717 741.8236 563.8791 650.9443 396.2778"/><polygon points="650.9427 396.2778 828.2846 466.3082 830.11 461.4622 650.9427 396.2778"/><polygon points="650.9427 396.2778 694.0464 581.999 699.0788 580.7612 650.9427 396.2778"/><polygon points="650.9427 396.2778 806.3418 506.6911 809.2814 502.4286 650.9427 396.2778"/><polygon points="650.9443 396.2778 757.0909 554.6226 761.3515 551.6789 650.9443 396.2778"/><polygon points="650.9427 396.2778 835.42 444.418 836.6598 439.3877 650.9427 396.2778"/><polygon points="839.8631 421.8309 840.4688 416.679 650.9429 396.2778 839.8631 421.8309"/><polygon points="88.7607 398.8769 460.3348 396.2777 88.7607 393.6845 88.7607 398.8769"/><polygon points="650.9427 205.6709 653.5379 68.878 648.3455 68.878 650.9427 205.6709"/><polygon points="524.5523 253.6144 339.1857 40.4783 335.3141 43.9062 524.5523 253.6144"/><polygon points="583.3396 218.0224 511.5953 21.5497 506.7473 23.373 583.3396 218.0224"/><polygon points="482.1445 307.6883 182.0818 147.2832 179.6892 151.8659 482.1445 307.6883"/><polygon points="627.9644 207.0546 611.2586 47.9441 606.1086 48.5499 627.9644 207.0546"/><polygon points="508.2789 269.8907 282.3166 66.2522 278.8887 70.1258 508.2789 269.8907"/><polygon points="455.7914 18.8859 451.2067 21.2806 562.3513 227.4819 455.7914 18.8859"/><polygon points="472.6873 328.6753 142.896 200.831 141.0686 205.677 472.6873 328.6753"/><polygon points="639.434 206.0265 633.0705 57.9167 627.8984 58.2206 639.434 206.0265"/><polygon points="516.1632 261.4967 310.4156 52.0822 306.7446 55.7533 516.1632 261.4967"/><polygon points="479.3526 21.3347 572.6974 222.4226 484.0771 19.2054 479.3526 21.3347"/><polygon points="477.0852 318.0315 161.3944 173.1106 159.2651 177.833 477.0852 318.0315"/><polygon points="616.579 208.7675 588.1188 39.0978 583.0255 40.0297 616.579 208.7675"/><polygon points="500.8935 278.7228 255.1622 82.9206 251.9754 86.9967 500.8935 278.7228"/><polygon points="552.3218 233.1395 426.9369 20.7145 422.494 23.3908 552.3218 233.1395"/><polygon points="468.919 339.555 126.8344 230.2479 125.2927 235.1952 468.919 339.555"/><polygon points="605.3183 211.1803 563.7381 31.6584 558.7077 32.8963 605.3183 211.1803"/><polygon points="494.074 287.9973 229.2504 102.0573 226.3067 106.3178 494.074 287.9973"/><polygon points="542.6646 239.4096 397.7132 24.8574 393.4547 27.799 542.6646 239.4096"/><polygon points="465.8447 350.6549 113.444 261.127 112.2042 266.1594 465.8447 350.6549"/><polygon points="594.2217 214.2552 538.1945 25.7484 533.2452 27.2921 594.2217 214.2552"/><polygon points="487.8018 297.6553 204.8055 123.5468 202.1292 127.9896 487.8018 297.6553"/><polygon points="533.3899 246.2293 368.3838 31.4259 364.3097 34.6127 533.3899 246.2293"/><polygon points="463.4298 361.9146 102.8262 293.2011 101.8942 298.2923 463.4298 361.9146"/><polygon points="461.7189 373.3032 95.1165 326.176 94.5067 331.3279 461.7189 373.3032"/><polygon points="90.1465 364.9537 460.6893 384.7693 90.4503 359.7795 90.1465 364.9537"/><polygon points="777.3335 253.6182 803.1661 228.361 799.2905 224.9351 777.3335 253.6182"/><polygon points="718.5513 218.0246 748.4074 146.6086 743.5593 144.7832 718.5513 218.0246"/><polygon points="819.7389 307.6906 830.9504 304.7287 828.5578 300.1419 819.7389 307.6906"/><polygon points="673.9253 207.0546 690.3738 93.098 685.2239 92.4903 673.9253 207.0546"/><polygon points="793.6049 269.8907 814.8407 254.5383 811.4128 250.6626 793.6049 269.8907"/><polygon points="739.5381 227.4843 770.4436 174.1619 765.861 171.7712 739.5381 227.4843"/><polygon points="662.4569 206.0265 672.6352 80.6659 667.465 80.362 662.4569 206.0265"/><polygon points="785.7255 261.5009 809.3559 241.5415 805.6829 237.8705 785.7255 261.5009"/><polygon points="729.1927 222.4249 759.9524 160.395 755.2279 158.2658 729.1927 222.4249"/><polygon points="824.7972 318.0331 833.6809 316.8783 831.5517 312.1539 824.7972 318.0331"/><polygon points="685.3118 208.7698 706.7725 106.0206 701.6813 105.0887 685.3118 208.7698"/><polygon points="800.9929 278.727 819.7125 267.3453 816.5257 263.2712 800.9929 278.727"/><polygon points="749.5669 233.1415 779.9559 187.8843 775.515 185.206 749.5669 233.1415"/><polygon points="696.5716 211.1822 721.8775 119.3346 716.8471 118.0988 696.5716 211.1822"/><polygon points="807.813 287.9973 823.99 279.9807 821.0463 275.7222 807.813 287.9973"/><polygon points="759.2263 239.4118 788.5273 201.5188 784.2668 198.5751 759.2263 239.4118"/><polygon points="707.6692 214.2572 735.7344 132.9019 730.787 131.3582 707.6692 214.2572"/><polygon points="814.0849 297.6598 827.7154 292.4491 825.0391 288.0062 814.0849 297.6598"/><polygon points="768.5016 246.2335 796.2366 215.024 792.1625 211.8393 768.5016 246.2335"/><polygon points="650.9427 586.8866 653.5379 723.6795 648.3455 723.6795 650.9427 586.8866"/><polygon points="524.5523 538.9443 339.1857 752.0764 335.3141 748.6505 524.5523 538.9443"/><polygon points="583.3396 574.5353 511.5953 771.0101 506.7473 769.1868 583.3396 574.5353"/><polygon points="482.1445 484.8726 182.0818 645.2778 179.6892 640.6931 482.1445 484.8726"/><polygon points="627.9644 585.5053 611.2586 744.6179 606.1086 744.0101 627.9644 585.5053"/><polygon points="508.2789 522.6692 282.3166 726.3037 278.8887 722.4321 508.2789 522.6692"/><polygon points="451.2075 771.2792 455.7922 773.6718 562.3501 565.0779 451.2075 771.2792"/><polygon points="472.6873 463.8858 142.896 591.7261 141.0686 586.8781 472.6873 463.8858"/><polygon points="639.434 586.5292 633.0705 734.641 627.8984 734.3371 639.434 586.5292"/><polygon points="516.1632 531.059 310.4156 740.4755 306.7446 736.8045 516.1632 531.059"/><polygon points="479.3526 771.2263 484.0771 773.3535 572.6974 570.1344 479.3526 771.2263"/><polygon points="477.0852 474.5284 161.3944 619.4474 159.2651 614.7249 477.0852 474.5284"/><polygon points="616.579 583.7924 588.1188 753.4621 583.0255 752.5282 616.579 583.7924"/><polygon points="500.8935 513.8372 255.1622 709.6374 251.9754 705.5632 500.8935 513.8372"/><polygon points="422.4936 769.1696 426.9344 771.8418 552.3234 559.4208 422.4936 769.1696"/><polygon points="468.919 453.0005 126.8344 562.3137 125.2927 557.3623 468.919 453.0005"/><polygon points="605.3183 581.3775 563.7381 760.8993 558.7077 759.6615 605.3183 581.3775"/><polygon points="494.074 504.5618 229.2504 690.4978 226.3067 686.2413 494.074 504.5618"/><polygon points="542.6646 553.1502 397.7132 767.7024 393.4547 764.7587 542.6646 553.1502"/><polygon points="465.8447 441.905 113.444 531.431 112.2042 526.4006 465.8447 441.905"/><polygon points="594.2217 578.3057 538.1945 766.8126 533.2452 765.2688 594.2217 578.3057"/><polygon points="487.8018 494.9024 204.8055 669.011 202.1292 664.5701 487.8018 494.9024"/><polygon points="533.3899 546.3307 368.3838 761.1341 364.3097 757.9473 533.3899 546.3307"/><polygon points="463.4298 430.6453 102.8262 499.3568 101.8942 494.2697 463.4298 430.6453"/><polygon points="461.7189 419.2535 95.1165 466.3807 94.5067 461.2308 461.7189 419.2535"/><polygon points="90.1465 427.6091 90.4503 432.7772 460.6893 407.7894 90.1465 427.6091"/><polygon points="777.3335 538.9391 803.1661 564.1964 799.2905 567.6263 777.3335 538.9391"/><polygon points="718.5513 574.531 748.4074 645.9471 743.5593 647.7766 718.5513 574.531"/><polygon points="819.7389 484.8672 830.9504 487.8331 828.5578 492.4158 819.7389 484.8672"/><polygon points="673.9253 585.5053 690.3738 699.4599 685.2239 700.0677 673.9253 585.5053"/><polygon points="793.6049 522.6692 814.8407 538.0217 811.4128 541.8953 793.6049 522.6692"/><polygon points="739.5381 565.0724 770.4436 618.3969 765.861 620.7895 739.5381 565.0724"/><polygon points="662.4569 586.5292 672.6352 711.8918 667.465 712.1957 662.4569 586.5292"/><polygon points="785.7255 531.059 809.3559 551.0185 805.6829 554.6895 785.7255 531.059"/><polygon points="729.1927 570.1305 759.9524 632.1605 755.2279 634.2938 729.1927 570.1305"/><polygon points="824.7972 474.5242 833.6809 475.683 831.5517 480.4055 824.7972 474.5242"/><polygon points="685.3118 583.7881 706.7725 686.5393 701.6813 687.4712 685.3118 583.7881"/><polygon points="800.9929 513.8329 819.7125 525.2106 816.5257 529.2888 800.9929 513.8329"/><polygon points="749.5669 559.416 779.9559 604.6753 775.515 607.3515 749.5669 559.416"/><polygon points="696.5716 581.3732 721.8775 673.2229 716.8471 674.4607 696.5716 581.3732"/><polygon points="807.813 504.5618 823.99 512.5764 821.0463 516.837 807.813 504.5618"/><polygon points="759.2263 553.1459 788.5273 591.041 784.2668 593.9846 759.2263 553.1459"/><polygon points="707.6692 578.3003 735.7344 659.6576 730.787 661.1973 707.6692 578.3003"/><polygon points="814.0849 494.8982 827.7154 500.1089 825.0391 504.5538 814.0849 494.8982"/><polygon points="768.5016 546.3264 796.2366 577.5359 792.1625 580.7207 768.5016 546.3264"/></svg>