<?xml version="1.0" encoding="UTF-8"?><svg id="Layer_1" xmlns="http://www.w3.org/2000/svg" viewBox="0 0 930.3097 791.3491"><path d="M594.6172,480.7796v-2.4103c-118.9458,0-215.7177-96.772-215.7177-215.7166h-2.4103c0-120.2737,97.852-218.1257,218.1281-218.1257v2.4115c118.9457,0,215.7142,96.7685,215.7142,215.7143h2.4103c0,120.2761-97.8508,218.1269-218.1246,218.1269M594.6172,40.5094v2.4103c-121.1614,0-219.7353,98.5704-219.7353,219.733h-2.4103c0,122.4917,99.6527,222.1457,222.1456,222.1457v-2.4115c121.1614,0,219.7318-98.5739,219.7318-219.7342h2.4115c0-122.4905-99.6539-222.1433-222.1433-222.1433"/><path d="M791.5854,262.6529c0,108.608-88.359,196.9706-196.9682,196.9706v-2.4103c-107.2812,0-194.5602-87.279-194.5602-194.5602h-2.4103c0-108.6092,88.3614-196.9694,196.9706-196.9694v2.4115c14.4155,0,28.4707,1.576,42.001,4.5646,87.1585,19.2536,152.5569,97.13,152.5569,189.9933h2.4103ZM594.6172,61.6659v2.4115c-109.4968,0-198.5778,89.081-198.5778,198.5755h-2.4115c0,110.8248,90.1644,200.9881,200.9893,200.9881v-2.4103c109.4933,0,198.5755-89.081,198.5755-198.5778h2.4103c0-110.826-90.1609-200.987-200.9858-200.987"/><path d="M770.4313,262.6518c0,96.9446-78.8695,175.8142-175.8142,175.8142v-2.4103c-95.6167,0-173.4039-77.7872-173.4039-173.4039h-2.4103c0-96.9435,78.8696-175.8142,175.8142-175.8142v2.4115c95.6167,0,173.4038,77.7873,173.4038,173.4027h2.4103ZM594.6172,82.82v2.4103c-97.83,0-177.4215,79.5927-177.4215,177.4215h-2.4103c0,99.1603,80.6715,179.833,179.8318,179.833v-2.4103c97.8299,0,177.4215-79.5927,177.4215-177.4227h2.4115c0-99.1603-80.6727-179.8318-179.8329-179.8318"/><path d="M749.275,262.652c0,85.2801-69.3777,154.6614-154.6578,154.6614v-2.4115c-83.9521,0-152.2499-68.2978-152.2499-152.2499h-2.4115c0-85.2801,69.3812-154.6579,154.6614-154.6579v2.4115c83.9486,0,152.2475,68.2978,152.2475,152.2464h2.4103ZM594.6172,103.9765v2.4103c-86.1654,0-156.2686,70.1009-156.2686,156.2651h-2.4103c0,87.4969,71.1832,158.6789,158.6789,158.6789v-2.4103c86.1654,0,156.2651-70.1032,156.2651-156.2686h2.4103c0-87.4922-71.182-158.6754-158.6754-158.6754"/><path d="M728.1187,262.6524c0,73.6155-59.8895,133.5038-133.5015,133.5038v-2.4103c-72.2841,0-131.0936-58.8095-131.0936-131.0935h-2.4103c0-73.612,59.8883-133.5015,133.5039-133.5015v2.4115c72.2841,0,131.0901,58.8048,131.0901,131.0901h2.4115ZM594.6172,125.1333v2.4115c-74.5009,0-135.1111,60.6102-135.1111,135.1076h-2.4115c0,75.8277,61.6949,137.5214,137.5226,137.5214v-2.4103c74.4974,0,135.1088-60.6114,135.1088-135.1111h2.4103c0-75.8288-61.6902-137.5191-137.5191-137.5191"/><path d="M136.99,205.5642v1.2379c61.0163,0,110.6573,49.641,110.6573,110.6573h1.2365c0,61.6967-50.1943,111.8924-111.8938,111.8924v-1.2365c-61.0163,0-110.6559-49.6396-110.6559-110.6559h-1.2365c0-61.6995,50.1957-111.8952,111.8923-111.8952M136.99,431.4131v-1.2365c62.1531,0,112.7186-50.564,112.7186-112.7172h1.2365c0-62.8363-51.1187-113.9551-113.9551-113.9551v1.2365c-62.1531,0-112.7171,50.5655-112.7171,112.7186h-1.2365c0,62.8335,51.1202,113.9536,113.9536,113.9536"/><path d="M35.95,317.459c0-55.7136,45.3264-101.0414,101.04-101.0414v1.2365c55.0318,0,99.8049,44.7731,99.8049,99.8049h1.2365c0,55.7136-45.3278,101.04-101.0414,101.04v-1.2365c-55.0304,0-99.8035-44.7717-99.8035-99.8035h-1.2365ZM136.99,420.5603v-1.2365c56.1686,0,101.8662-45.6976,101.8662-101.8648h1.2365c0-56.8504-46.2523-103.1027-103.1027-103.1027v1.2365c-56.1672,0-101.8648,45.6976-101.8648,101.8662h-1.2365c0,56.8504,46.2508,103.1012,103.1012,103.1012"/><path d="M46.801,317.4585c0-49.7291,40.4585-90.1876,90.189-90.1876v1.2365c49.0488,0,88.9525,39.9023,88.9525,88.9511h1.2365c0,49.7306-40.4584,90.189-90.189,90.189v-1.2365c-49.0488,0-88.9526-39.9023-88.9526-88.9526h-1.2365ZM136.99,409.7088v-1.2365c50.1841,0,91.0124-40.8282,91.0124-91.0138h1.2365c0-50.8659-41.3815-92.2488-92.2488-92.2488v1.2365c-50.1841,0-91.0124,40.8297-91.0124,91.0124h-1.2379c0,50.8674,41.3829,92.2503,92.2503,92.2503"/><path d="M57.6548,317.4595c0-43.7461,35.5891-79.3381,79.3352-79.3381v1.2365c43.0657,0,78.1002,35.0359,78.1002,78.1016h1.2365c0,43.7461-35.5906,79.3352-79.3366,79.3352v-1.2365c-43.0643,0-78.0987-35.0359-78.0987-78.0987h-1.2365ZM136.99,398.8559v-1.2365c44.2011,0,80.1614-35.9603,80.1614-80.16h1.2365c0-44.8843-36.515-81.3979-81.3979-81.3979v1.2365c-44.2011,0-80.16,35.9603-80.16,80.1614h-1.2365c0,44.8814,36.515,81.3965,81.3965,81.3965"/><path d="M68.5072,317.4589c0-37.7631,30.7212-68.4843,68.4828-68.4843v1.2365c37.0798,0,67.2478,30.168,67.2478,67.2478h1.2365c0,37.7616-30.7212,68.4828-68.4843,68.4828v-1.2365c-37.0798,0-67.2463-30.1665-67.2463-67.2463h-1.2365ZM136.99,388.003v-1.2365c38.2166,0,69.3091-31.0924,69.3091-69.3076h1.2365c0-38.8984-31.6471-70.5455-70.5455-70.5455v1.2365c-38.2152,0-69.3076,31.0924-69.3076,69.3091h-1.2365c0,38.8984,31.6457,70.5441,70.5441,70.5441"/><path d="M266.7835,365.7523v2.1107c104.0369,0,188.6781,84.6413,188.6781,188.6782h2.1083c0,105.1969-85.5846,190.784-190.7864,190.784v-2.1083c-104.0369,0-188.6757-84.6388-188.6757-188.6757h-2.1083c0-105.2018,85.587-190.7889,190.784-190.7889M266.7835,750.8398v-2.1083c105.9752,0,192.1927-86.2151,192.1927-192.1903h2.1083c0-107.1402-87.1608-194.301-194.301-194.301v2.1083c-105.9752,0-192.1903,86.2176-192.1903,192.1928h-2.1083c0,107.1353,87.1633,194.2986,194.2986,194.2986"/><path d="M94.5036,556.5405c0-94.9954,77.2845-172.2824,172.2799-172.2824v2.1083c93.8329,0,170.1741,76.3412,170.1741,170.1741h2.1083c0,94.9954-77.2869,172.2799-172.2824,172.2799v-2.1083c-93.8305,0-170.1717-76.3387-170.1717-170.1716h-2.1083ZM266.7835,732.335v-2.1083c95.7713,0,173.6887-77.9174,173.6887-173.6862h2.1083c0-96.9338-78.8632-175.797-175.797-175.797v2.1083c-95.7688,0-173.6862,77.9174-173.6862,173.6887h-2.1083c0,96.9338,78.8608,175.7945,175.7945,175.7945"/><path d="M113.0051,556.5395c0-84.7915,68.9844-153.7759,153.7783-153.7759v2.1083c83.6315,0,151.6701,68.0361,151.6701,151.6676h2.1083c0,84.7939-68.9844,153.7783-153.7783,153.7783v-2.1083c-83.6315,0-151.6701-68.0361-151.6701-151.6701h-2.1083ZM266.7835,713.8324v-2.1083c85.5673,0,155.1822-69.6149,155.1822-155.1847h2.1083c0-86.7298-70.5582-157.2905-157.2905-157.2905v2.1082c-85.5673,0-155.1822,69.6173-155.1822,155.1822h-2.1107c0,86.7323,70.5607,157.2929,157.2929,157.2929"/><path d="M131.5116,556.5412c0-74.59,60.6818-135.2768,135.2718-135.2768v2.1083c73.43,0,133.166,59.7385,133.166,133.1685h2.1083c0,74.59-60.6843,135.2718-135.2743,135.2718v-2.1083c-73.4275,0-133.1636-59.7385-133.1636-133.1636h-2.1083ZM266.7835,695.3277v-2.1083c75.3658,0,136.6806-61.3148,136.6806-136.6782h2.1083c0-76.5308-62.2606-138.7889-138.7889-138.7889v2.1083c-75.3659,0-136.6782,61.3148-136.6782,136.6806h-2.1083c0,76.5259,62.2606,138.7864,138.7864,138.7864"/><path d="M150.0157,556.5402c0-64.3886,52.3817-116.7703,116.7678-116.7703v2.1083c63.2236,0,114.662,51.4384,114.662,114.662h2.1083c0,64.3861-52.3817,116.7678-116.7703,116.7678v-2.1083c-63.2236,0-114.6595-51.436-114.6595-114.6595h-2.1083ZM266.7835,676.8226v-2.1083c65.1619,0,118.1766-53.0147,118.1766-118.1741h2.1083c0-66.3244-53.9605-120.2849-120.2849-120.2849v2.1083c-65.1594,0-118.1741,53.0147-118.1741,118.1766h-2.1083c0,66.3244,53.958,120.2824,120.2824,120.2824"/><path d="M615.1922,401.3788h1.3547c0-66.869,54.4037-121.2715,121.2726-121.2715v-1.3558c67.6141,0,122.6249,55.0109,122.6249,122.6273h-1.3558c0,66.869-54.4013,121.2703-121.2692,121.2703v1.3546c-67.6175,0-122.6273-55.0097-122.6273-122.625M862.703,401.3788h-1.3547c0-68.1147-55.4154-123.53-123.5288-123.53v-1.3558c-68.8633,0-124.8858,56.0225-124.8858,124.8858h1.3547c0,68.1147,55.4165,123.5288,123.5311,123.5288v1.3546c68.8609,0,124.8835-56.0225,124.8835-124.8835"/><path d="M737.8187,512.1097c-61.0564,0-110.7321-49.6734-110.7321-110.731h1.3547c0-60.3113,49.0662-109.3775,109.3775-109.3775v-1.3558c61.0587,0,110.7321,49.6758,110.7321,110.7333h-1.3558c0,60.309-49.0662,109.3763-109.3763,109.3763v1.3546ZM850.8094,401.3788h-1.3559c0-61.557-50.079-111.636-111.6348-111.636v-1.3558c-62.3032,0-112.9918,50.6885-112.9918,112.9918h1.3558c0,61.5547,50.079,111.6348,111.636,111.6348v1.3558c62.3044,0,112.9907-50.6874,112.9907-112.9906"/><path d="M737.8192,500.218c-54.4999,0-98.8393-44.3394-98.8393-98.8393h1.3558c0-53.7536,43.7299-97.4835,97.4835-97.4835v-1.3558c54.4998,0,98.8393,44.3394,98.8393,98.8393h-1.3558c0,53.7536-43.7299,97.4835-97.4835,97.4835v1.3558ZM838.917,401.3788h-1.3547c0-54.9981-44.7451-99.7432-99.7432-99.7432v-1.3547c-55.7456,0-101.0978,45.3522-101.0978,101.0978h1.3546c0,54.9981,44.7462,99.7432,99.7432,99.7432v1.3546c55.7456,0,101.0978-45.3522,101.0978-101.0978"/><path d="M737.8194,488.324c-47.9422,0-86.9476-39.0031-86.9476-86.9453h1.3558c0-47.1959,38.3959-85.5918,85.5918-85.5918v-1.3558c47.9421,0,86.9453,39.0055,86.9453,86.9476h-1.3558c0,47.1947-38.396,85.5895-85.5895,85.5895v1.3558ZM827.0232,401.3788h-1.3547c0-48.4404-39.4087-87.8503-87.8492-87.8503v-1.3558c-49.189,0-89.2062,40.0183-89.2062,89.2061h1.3558c0,48.4405,39.4099,87.8492,87.8503,87.8492v1.3546c49.1867,0,89.2038-40.0171,89.2038-89.2038"/><path d="M737.8195,476.4301c-41.3857,0-75.0536-33.668-75.0536-75.0513h1.3558c0-40.637,33.0608-73.6978,73.6978-73.6978v-1.3558c41.3833,0,75.0513,33.668,75.0513,75.0536h-1.3558c0,40.6371-33.0596,73.6967-73.6955,73.6967v1.3546ZM815.1293,401.3788h-1.3559c0-41.8828-34.0736-75.9563-75.954-75.9563v-1.3558c-42.6291,0-77.3121,34.6831-77.3121,77.3121h1.3547c0,41.8805,34.0747,75.9552,75.9575,75.9552v1.3546c42.629,0,77.3098-34.6808,77.3098-77.3098"/></svg>