<?xml version="1.0" encoding="UTF-8"?><svg id="Layer_1" xmlns="http://www.w3.org/2000/svg" viewBox="0 0 2791.6809 1705.5319"><defs><style>.cls-1{fill:none;stroke:#000;stroke-linecap:round;stroke-linejoin:round;stroke-width:3px;}</style></defs><polygon class="cls-1" points="298.1704 233.643 204.9755 331.3466 138.3809 222.9903 298.1704 233.643"/><polygon class="cls-1" points="29.8117 404.1024 91.0083 503.7521 136.9601 421.0419 29.8117 404.1024"/><polygon class="cls-1" points="76.4944 310.7332 136.9605 421.0432 29.8121 404.1019 76.4944 310.7332"/><polygon class="cls-1" points="204.9748 331.3464 136.961 421.0426 76.495 310.7326 204.9748 331.3464"/><polygon class="cls-1" points="138.3816 222.9909 204.9744 331.3471 76.4946 310.7334 138.3816 222.9909"/><polygon class="cls-1" points="76.4938 310.7325 138.3809 222.99 -6.2386 215.6258 76.4938 310.7325"/><polygon class="cls-1" points="-38.8413 309.14 76.4938 310.7332 -6.2386 215.6246 -38.8413 309.14"/><polygon class="cls-1" points="67.4008 124.8346 138.3815 222.9906 215.0492 135.6895 67.4008 124.8346"/><polygon class="cls-1" points="67.4008 124.8346 -6.238 215.6246 138.3815 222.9906 67.4008 124.8346"/><polygon class="cls-1" points="298.1704 233.643 215.0489 135.6888 138.3809 222.9903 298.1704 233.643"/><polyline class="cls-1" points="204.9749 331.3456 254.7683 441.4828 337.848 343.6804"/><polygon class="cls-1" points="298.1699 233.6421 204.9749 331.3456 337.8481 343.6804 298.1699 233.6421"/><polygon class="cls-1" points="384.8507 439.9047 337.8489 343.6801 254.7673 441.4824 384.8507 439.9047"/><polygon class="cls-1" points="326.2383 551.857 254.7674 441.4817 384.8507 439.904 326.2383 551.857"/><polygon class="cls-1" points="192.027 524.5908 136.9606 421.0436 254.7677 441.4826 192.027 524.5908"/><polygon class="cls-1" points="103.2692 608.0148 91.0085 503.752 192.0266 524.591 103.2692 608.0148"/><polygon class="cls-1" points=".0003 621.3186 103.2692 608.0144 91.0104 503.7516 .0003 621.3186"/><polygon class="cls-1" points=".0003 621.3186 91.0104 503.7516 -34.2887 492.1718 .0003 621.3186"/><polygon class="cls-1" points=".0003 621.3186 -100.6964 613.751 -34.2887 492.1718 .0003 621.3186"/><polygon class="cls-1" points=".0003 621.3186 -100.6964 613.751 -56.6583 703.5063 .0003 621.3186"/><polygon class="cls-1" points="347.95 144.1908 298.1709 233.643 406.4436 250.3882 347.95 144.1908"/><polygon class="cls-1" points="453.3318 362.5055 406.444 250.3888 337.8476 343.6801 453.3318 362.5055"/><polygon class="cls-1" points="502.9535 455.7252 384.8516 439.9051 453.3322 362.5059 502.9535 455.7252"/><polygon class="cls-1" points="240.7691 617.818 192.0264 524.5914 326.2381 551.8566 240.7691 617.818"/><polygon class="cls-1" points="170.7019 706.7364 103.2696 608.0144 240.7696 617.8172 170.7019 706.7364"/><polygon class="cls-1" points="369.9887 640.6542 326.2392 551.8566 240.7684 617.818 369.9887 640.6542"/><polygon class="cls-1" points="240.7698 617.8188 288.5271 731.8915 369.9883 640.655 240.7698 617.8188"/><polygon class="cls-1" points="47.3817 694.3563 103.27 608.0146 170.7022 706.7366 47.3817 694.3563"/><polygon class="cls-1" points="0 621.3185 47.3825 694.3556 103.2688 608.0151 0 621.3185"/><polygon class="cls-1" points="-29.6039 819.133 83.2848 817.7639 47.3825 694.3556 -29.6039 819.133"/><polygon class="cls-1" points="-29.6039 819.133 -56.6583 703.5063 47.3825 694.3556 -29.6039 819.133"/><polygon class="cls-1" points="0 621.3185 -56.6583 703.5063 47.3825 694.3556 0 621.3185"/><polygon class="cls-1" points="47.3826 694.3559 83.2848 817.7639 170.7032 706.7365 47.3826 694.3559"/><polygon class="cls-1" points="103.2692 608.0148 192.0266 524.591 240.7693 617.8176 103.2692 608.0148"/><polygon class="cls-1" points="-34.2889 492.1715 29.8117 404.1017 91.0083 503.7513 -34.2889 492.1715"/><polygon class="cls-1" points="91.0089 503.7516 136.9606 421.0434 192.027 524.5906 91.0089 503.7516"/><polygon class="cls-1" points="136.9603 421.0427 204.974 331.3464 254.7673 441.4817 136.9603 421.0427"/><polygon class="cls-1" points="-38.8412 309.1406 76.494 310.7338 29.8117 404.1025 -38.8412 309.1406"/><polygon class="cls-1" points="-38.8412 309.1406 -81.8911 405.4564 29.8117 404.1025 -38.8412 309.1406"/><polygon class="cls-1" points="-34.2889 492.1715 -81.8911 405.4564 29.8117 404.1025 -34.2889 492.1715"/><polygon class="cls-1" points="-43.2729 109.2386 -6.2386 215.6242 67.4004 124.8341 -43.2729 109.2386"/><polygon class="cls-1" points="-43.2729 109.2386 32.5312 24.9361 67.4004 124.8341 -43.2729 109.2386"/><polygon class="cls-1" points="-43.2729 109.2386 32.5312 24.9361 -79.1719 26.2908 -43.2729 109.2386"/><polygon class="cls-1" points="-4.1081 -81.4543 32.5312 24.9361 -79.1719 26.2908 -4.1081 -81.4543"/><polygon class="cls-1" points="-4.1081 -81.4543 32.5312 24.9361 100.6555 -82.7249 -4.1081 -81.4543"/><polygon class="cls-1" points="147.4458 44.3668 215.0487 135.6891 67.4002 124.8326 147.4458 44.3668"/><polygon class="cls-1" points="100.6555 -82.7249 147.4452 44.3664 224.33 -73.1505 100.6555 -82.7249"/><polygon class="cls-1" points="100.6555 -82.7249 147.4452 44.3664 32.5312 24.9361 100.6555 -82.7249"/><polygon class="cls-1" points="67.4004 124.8341 147.4452 44.3664 32.5312 24.9361 67.4004 124.8341"/><polygon class="cls-1" points="299.5189 45.6009 215.0488 135.6897 147.446 44.3674 299.5189 45.6009"/><polyline class="cls-1" points="347.95 144.1908 298.1709 233.643 215.0494 135.6906"/><polygon class="cls-1" points="299.5194 45.6019 215.0492 135.6907 347.9499 144.1908 299.5194 45.6019"/><polygon class="cls-1" points="224.3293 -73.1505 147.4463 44.3664 299.5174 45.6 224.3293 -73.1505"/><polygon class="cls-1" points="337.848 343.6804 298.1698 233.6421 406.4425 250.3892 337.848 343.6804"/><polygon class="cls-1" points="384.8507 439.9047 337.8489 343.6801 453.3313 362.5055 384.8507 439.9047"/><polygon class="cls-1" points="192.027 524.5908 254.7677 441.4826 326.2386 551.8579 192.027 524.5908"/><polygon class="cls-1" points="451.9848 550.3319 384.8513 439.904 326.2388 551.857 451.9848 550.3319"/><polygon class="cls-1" points="326.238 551.8572 369.9893 640.655 451.984 550.3322 326.238 551.8572"/><polygon class="cls-1" points="369.9893 640.6536 437.4554 735.7217 506.1554 658.8977 369.9893 640.6536"/><polygon class="cls-1" points="369.9883 640.654 288.5275 731.8924 437.4566 735.7214 369.9883 640.654"/><polygon class="cls-1" points="210.0748 829.2548 288.5271 731.8915 170.7028 706.7368 210.0748 829.2548"/><polyline class="cls-1" points="170.7028 706.7368 210.0748 829.2548 83.2848 817.7639 170.7028 706.7368"/><polygon class="cls-1" points="437.456 735.7219 573.5467 748.9993 506.156 658.8979 437.456 735.7219"/><polygon class="cls-1" points="614.9414 651.5796 573.5464 748.9989 506.1556 658.8975 614.9414 651.5796"/><polygon class="cls-1" points="614.9414 651.5796 573.5464 748.9989 673.589 739.6749 614.9414 651.5796"/><polygon class="cls-1" points="609.1237 849.2768 573.5464 748.9989 673.589 739.6749 609.1237 849.2768"/><polygon class="cls-1" points="609.1237 849.2768 573.5464 748.9989 487.9216 835.9931 609.1237 849.2768"/><polygon class="cls-1" points="568.9856 560.4208 680.3864 550.2678 614.9414 651.5796 568.9856 560.4208"/><polygon class="cls-1" points="502.9535 455.7252 568.9848 560.4206 451.9852 550.3312 502.9535 455.7252"/><polygon class="cls-1" points="451.9848 550.3319 384.8513 439.904 502.9531 455.726 451.9848 550.3319"/><polygon class="cls-1" points="451.9848 550.3319 568.9863 560.4213 506.1564 658.8967 451.9848 550.3319"/><polygon class="cls-1" points="437.456 735.7219 487.9216 835.9931 573.5467 748.9993 437.456 735.7219"/><polygon class="cls-1" points="437.456 735.7219 487.9216 835.9931 343.1187 829.2548 437.456 735.7219"/><polygon class="cls-1" points="437.456 735.7219 288.5271 731.8915 343.1187 829.2548 437.456 735.7219"/><polygon class="cls-1" points="210.0748 829.2548 288.5271 731.8915 343.1187 829.2548 210.0748 829.2548"/><polygon class="cls-1" points="224.3293 -73.1505 299.5174 45.6 349.4496 -64.8965 224.3293 -73.1505"/><polygon class="cls-1" points="349.4504 -64.8965 299.5182 45.6 409.9689 44.2604 349.4504 -64.8965"/><polygon class="cls-1" points="454.8446 151.552 409.9705 44.2623 347.9503 144.1909 454.8446 151.552"/><polygon class="cls-1" points="347.95 144.1908 299.5195 45.6018 409.9702 44.2623 347.95 144.1908"/><polygon class="cls-1" points="406.4431 250.3886 454.8437 151.5524 347.9494 144.1912 406.4431 250.3886"/><polygon class="cls-1" points="518.1344 243.0512 576.4319 346.66 453.3325 362.5057 518.1344 243.0512"/><polygon class="cls-1" points="454.8442 151.5533 518.1353 243.0514 571.9906 141.4736 454.8442 151.5533"/><polygon class="cls-1" points="454.8442 151.5533 406.4435 250.389 518.1353 243.0514 454.8442 151.5533"/><polygon class="cls-1" points="453.3318 362.5055 406.444 250.3888 518.1336 243.051 453.3318 362.5055"/><polygon class="cls-1" points="349.4504 -64.8965 409.9689 44.2604 486.8298 -76.3341 349.4504 -64.8965"/><polyline class="cls-1" points="409.9683 44.2604 454.8443 151.552 546.6647 25.066"/><polygon class="cls-1" points="486.8293 -76.3341 409.9683 44.2604 546.6647 25.0659 486.8293 -76.3341"/><polygon class="cls-1" points="571.9909 141.4737 546.6647 25.067 454.8442 151.553 571.9909 141.4737"/><polygon class="cls-1" points="486.8292 -76.3341 546.6647 25.066 618.0267 -68.1538 486.8292 -76.3341"/><polygon class="cls-1" points="546.6629 25.0655 661.7267 48.1343 618.0273 -68.1538 546.6629 25.0655"/><polygon class="cls-1" points="736.7905 -59.6108 661.7267 48.1343 618.0273 -68.1538 736.7905 -59.6108"/><polygon class="cls-1" points="546.6644 25.0655 571.9906 141.4745 661.7268 48.1342 546.6644 25.0655"/><polygon class="cls-1" points="697.2479 139.1338 571.9906 141.4745 661.7268 48.1342 697.2479 139.1338"/><polygon class="cls-1" points="697.2479 139.1338 571.9906 141.4745 624.4803 230.1706 697.2479 139.1338"/><polygon class="cls-1" points="624.4803 230.1706 518.1352 243.0512 576.4326 346.6601 624.4803 230.1706"/><polygon class="cls-1" points="624.4803 230.1706 687.4489 347.967 576.4326 346.6601 624.4803 230.1706"/><polygon class="cls-1" points="626.7364 458.2275 687.4489 347.967 576.4326 346.6601 626.7364 458.2275"/><polygon class="cls-1" points="624.4803 230.1706 518.1352 243.0512 571.9906 141.4745 624.4803 230.1706"/><polygon class="cls-1" points="626.7364 458.2275 576.4323 346.661 502.9542 455.7254 626.7364 458.2275"/><polygon class="cls-1" points="626.7364 458.2275 568.9856 560.4202 502.9542 455.7254 626.7364 458.2275"/><polygon class="cls-1" points="680.3865 550.2672 626.7364 458.2275 568.9856 560.4202 680.3865 550.2672"/><polygon class="cls-1" points="451.984 550.3322 369.9893 640.655 506.1558 658.8975 451.984 550.3322"/><polygon class="cls-1" points="240.7698 617.8188 170.7017 706.7362 288.5271 731.8915 240.7698 617.8188"/><polygon class="cls-1" points="1039.069 255.4865 945.8741 353.1901 879.2795 244.8338 1039.069 255.4865"/><polygon class="cls-1" points="760.2332 435.7422 819.4282 535.3513 877.8587 442.8854 760.2332 435.7422"/><polygon class="cls-1" points="817.393 332.5767 877.8591 442.8867 760.2335 435.7416 817.393 332.5767"/><polygon class="cls-1" points="945.8734 353.1899 877.8597 442.8861 817.3936 332.5761 945.8734 353.1899"/><polygon class="cls-1" points="879.2803 244.8344 945.873 353.1907 817.3932 332.5769 879.2803 244.8344"/><polygon class="cls-1" points="817.3925 332.576 879.2795 244.8335 734.6601 237.4693 817.3925 332.576"/><polygon class="cls-1" points="687.4487 347.9664 817.3925 332.5767 734.6601 237.4681 687.4487 347.9664"/><polygon class="cls-1" points="687.4487 347.9664 624.4803 230.1706 734.6601 237.4681 687.4487 347.9664"/><polygon class="cls-1" points="697.2479 139.1338 624.4803 230.1706 734.6601 237.4681 697.2479 139.1338"/><polygon class="cls-1" points="808.2995 146.6781 879.2802 244.8341 955.9479 157.533 808.2995 146.6781"/><polygon class="cls-1" points="808.2995 146.6781 734.6607 237.4681 879.2802 244.8341 808.2995 146.6781"/><polygon class="cls-1" points="1039.069 255.4865 955.9475 157.5323 879.2795 244.8338 1039.069 255.4865"/><polyline class="cls-1" points="945.8736 353.1891 995.6669 463.3263 1078.7466 365.524"/><polygon class="cls-1" points="1039.0686 255.4856 945.8736 353.1891 1078.7467 365.5239 1039.0686 255.4856"/><polygon class="cls-1" points="1125.7494 461.7483 1078.7476 365.5236 995.666 463.3259 1125.7494 461.7483"/><polygon class="cls-1" points="1067.1369 573.7005 995.666 463.3252 1125.7494 461.7475 1067.1369 573.7005"/><polygon class="cls-1" points="932.9256 546.4343 877.8593 442.8871 995.6663 463.3261 932.9256 546.4343"/><polygon class="cls-1" points="844.1679 629.8583 819.4284 535.3513 932.9253 546.4345 844.1679 629.8583"/><polygon class="cls-1" points="740.8989 643.1621 844.1679 629.8579 819.4303 535.3509 740.8989 643.1621"/><polygon class="cls-1" points="740.8989 643.1621 819.4303 535.3509 680.3867 550.2676 740.8989 643.1621"/><polygon class="cls-1" points="740.8989 643.1621 614.9414 651.5796 680.3867 550.2676 740.8989 643.1621"/><polygon class="cls-1" points="740.8989 643.1621 614.9414 651.5796 673.589 739.6749 740.8989 643.1621"/><polygon class="cls-1" points="1088.8486 166.0343 1039.0696 255.4865 1147.3423 272.2317 1088.8486 166.0343"/><polygon class="cls-1" points="1194.2304 384.349 1147.3426 272.2323 1078.7463 365.5236 1194.2304 384.349"/><polygon class="cls-1" points="1243.8521 477.5687 1125.7503 461.7486 1194.2308 384.3494 1243.8521 477.5687"/><polygon class="cls-1" points="981.6677 639.6615 932.9251 546.4349 1067.1367 573.7001 981.6677 639.6615"/><polygon class="cls-1" points="911.6005 728.5799 844.1683 629.8579 981.6683 639.6607 911.6005 728.5799"/><polygon class="cls-1" points="1110.8874 662.4977 1067.1378 573.7001 981.667 639.6615 1110.8874 662.4977"/><polygon class="cls-1" points="981.6684 639.6623 1029.4257 753.735 1110.8869 662.4985 981.6684 639.6623"/><polygon class="cls-1" points="788.2803 716.1998 844.1686 629.8581 911.6009 728.5801 788.2803 716.1998"/><polygon class="cls-1" points="740.8986 643.162 788.2812 716.1991 844.1675 629.8586 740.8986 643.162"/><polygon class="cls-1" points="711.2947 840.9765 824.1834 839.6074 788.2812 716.1991 711.2947 840.9765"/><polygon class="cls-1" points="711.2947 840.9765 673.589 739.6749 788.2812 716.1991 711.2947 840.9765"/><polygon class="cls-1" points="711.2947 840.9765 673.589 739.6749 609.1237 849.2768 711.2947 840.9765"/><polygon class="cls-1" points="740.8986 643.162 673.589 739.6749 788.2812 716.1991 740.8986 643.162"/><polygon class="cls-1" points="788.2813 716.1994 824.1834 839.6074 911.6018 728.58 788.2813 716.1994"/><polygon class="cls-1" points="844.1679 629.8583 932.9253 546.4345 981.6679 639.6611 844.1679 629.8583"/><polygon class="cls-1" points="680.3865 550.2672 760.2332 435.7414 819.4282 535.3505 680.3865 550.2672"/><polygon class="cls-1" points="819.4288 535.3509 877.8593 442.8869 932.9256 546.4341 819.4288 535.3509"/><polygon class="cls-1" points="877.8589 442.8862 945.8726 353.1899 995.666 463.3252 877.8589 442.8862"/><polygon class="cls-1" points="687.4489 347.967 817.3926 332.5773 760.2332 435.7422 687.4489 347.967"/><polygon class="cls-1" points="687.4489 347.967 626.7364 458.2275 760.2332 435.7422 687.4489 347.967"/><polygon class="cls-1" points="680.3865 550.2672 626.7364 458.2275 760.2332 435.7422 680.3865 550.2672"/><polygon class="cls-1" points="697.2479 139.1338 734.6601 237.4677 808.299 146.6776 697.2479 139.1338"/><polygon class="cls-1" points="697.2479 139.1338 773.4299 46.7796 808.299 146.6776 697.2479 139.1338"/><polygon class="cls-1" points="697.2479 139.1338 773.4299 46.7796 661.7267 48.1343 697.2479 139.1338"/><polygon class="cls-1" points="736.7905 -59.6108 773.4299 46.7796 661.7267 48.1343 736.7905 -59.6108"/><polygon class="cls-1" points="736.7905 -59.6108 773.4299 46.7796 841.5542 -60.8814 736.7905 -59.6108"/><polygon class="cls-1" points="888.3444 66.2103 955.9473 157.5326 808.2989 146.6761 888.3444 66.2103"/><polygon class="cls-1" points="841.5542 -60.8814 888.3439 66.2099 965.2287 -51.307 841.5542 -60.8814"/><polygon class="cls-1" points="841.5542 -60.8814 888.3439 66.2099 773.4299 46.7796 841.5542 -60.8814"/><polygon class="cls-1" points="808.299 146.6776 888.3439 66.2099 773.4299 46.7796 808.299 146.6776"/><polygon class="cls-1" points="1040.4176 67.4444 955.9475 157.5332 888.3446 66.2109 1040.4176 67.4444"/><polyline class="cls-1" points="1088.8486 166.0343 1039.0696 255.4865 955.9481 157.5341"/><polygon class="cls-1" points="1040.4181 67.4454 955.9479 157.5342 1088.8485 166.0343 1040.4181 67.4454"/><polygon class="cls-1" points="965.2279 -51.3069 888.345 66.2099 1040.4161 67.4435 965.2279 -51.3069"/><polygon class="cls-1" points="1078.7466 365.524 1039.0685 255.4856 1147.3411 272.2327 1078.7466 365.524"/><polygon class="cls-1" points="1125.7494 461.7483 1078.7476 365.5236 1194.2299 384.349 1125.7494 461.7483"/><polygon class="cls-1" points="932.9256 546.4343 995.6663 463.3261 1067.1372 573.7014 932.9256 546.4343"/><polygon class="cls-1" points="1192.8835 572.1754 1125.7499 461.7475 1067.1374 573.7005 1192.8835 572.1754"/><polygon class="cls-1" points="1067.1366 573.7007 1110.8879 662.4985 1192.8826 572.1757 1067.1366 573.7007"/><polygon class="cls-1" points="1110.8879 662.4971 1178.354 757.5653 1247.054 680.7412 1110.8879 662.4971"/><polygon class="cls-1" points="1110.887 662.4975 1029.4262 753.7359 1178.3552 757.5649 1110.887 662.4975"/><polygon class="cls-1" points="950.9735 851.0983 1029.4257 753.735 911.6014 728.5803 950.9735 851.0983"/><polyline class="cls-1" points="911.6014 728.5803 950.9735 851.0983 824.1834 839.6074 911.6014 728.5803"/><polygon class="cls-1" points="1178.3546 757.5654 1314.4453 770.8428 1247.0546 680.7414 1178.3546 757.5654"/><polygon class="cls-1" points="1364.5108 673.4231 1314.445 770.8424 1247.0543 680.741 1364.5108 673.4231"/><polygon class="cls-1" points="1364.5108 673.4231 1314.445 770.8424 1415.2278 760.7014 1364.5108 673.4231"/><polygon class="cls-1" points="1350.2108 854.277 1314.445 770.8424 1415.2278 760.7014 1350.2108 854.277"/><polygon class="cls-1" points="1350.2108 854.277 1314.445 770.8424 1218.8458 862.8199 1350.2108 854.277"/><polygon class="cls-1" points="1309.8842 582.2643 1419.1373 572.1758 1364.5108 673.4231 1309.8842 582.2643"/><polygon class="cls-1" points="1243.8521 477.5687 1309.8835 582.2641 1192.8838 572.1747 1243.8521 477.5687"/><polygon class="cls-1" points="1192.8835 572.1754 1125.7499 461.7475 1243.8517 477.5695 1192.8835 572.1754"/><polygon class="cls-1" points="1192.8835 572.1754 1309.8849 582.2648 1247.055 680.7402 1192.8835 572.1754"/><polygon class="cls-1" points="1178.3546 757.5654 1218.8458 862.8199 1314.4453 770.8428 1178.3546 757.5654"/><polygon class="cls-1" points="1178.3546 757.5654 1218.8458 862.8199 1079.4069 854.277 1178.3546 757.5654"/><polygon class="cls-1" points="1178.3546 757.5654 1029.4257 753.735 1079.4069 854.277 1178.3546 757.5654"/><polygon class="cls-1" points="950.9735 851.0983 1029.4257 753.735 1079.4069 854.277 950.9735 851.0983"/><polygon class="cls-1" points="965.2279 -51.3069 1040.4161 67.4435 1090.3482 -43.0529 965.2279 -51.3069"/><polygon class="cls-1" points="1090.349 -43.053 1040.4168 67.4435 1150.8675 66.1039 1090.349 -43.053"/><polygon class="cls-1" points="1195.7433 173.3955 1150.8692 66.1058 1088.8489 166.0344 1195.7433 173.3955"/><polygon class="cls-1" points="1088.8486 166.0343 1040.4181 67.4454 1150.8688 66.1058 1088.8486 166.0343"/><polygon class="cls-1" points="1147.3417 272.2321 1195.7423 173.3959 1088.848 166.0347 1147.3417 272.2321"/><polygon class="cls-1" points="1259.0331 264.8947 1317.3305 368.5036 1194.2312 384.3492 1259.0331 264.8947"/><polygon class="cls-1" points="1195.7429 173.3968 1259.034 264.8949 1312.8893 163.3171 1195.7429 173.3968"/><polygon class="cls-1" points="1195.7429 173.3968 1147.3421 272.2325 1259.034 264.8949 1195.7429 173.3968"/><polygon class="cls-1" points="1194.2304 384.349 1147.3426 272.2323 1259.0323 264.8945 1194.2304 384.349"/><polygon class="cls-1" points="1090.349 -43.053 1150.8675 66.1039 1227.7284 -54.4906 1090.349 -43.053"/><polyline class="cls-1" points="1150.867 66.1039 1195.7429 173.3955 1287.5634 46.9095"/><polygon class="cls-1" points="1227.7279 -54.4906 1150.867 66.1039 1287.5634 46.9094 1227.7279 -54.4906"/><polygon class="cls-1" points="1312.8895 163.3172 1287.5633 46.9105 1195.7429 173.3965 1312.8895 163.3172"/><polygon class="cls-1" points="1227.7279 -54.4906 1287.5634 46.9095 1358.9254 -46.3103 1227.7279 -54.4906"/><polygon class="cls-1" points="1287.5615 46.909 1402.6253 69.9778 1358.926 -46.3103 1287.5615 46.909"/><polygon class="cls-1" points="1477.6893 -37.7674 1402.6253 69.9778 1358.926 -46.3103 1477.6893 -37.7674"/><polygon class="cls-1" points="1287.5631 46.909 1312.8893 163.318 1402.6255 69.9777 1287.5631 46.909"/><polygon class="cls-1" points="1438.5245 152.9255 1312.8893 163.318 1402.6255 69.9777 1438.5245 152.9255"/><polygon class="cls-1" points="1438.5245 152.9255 1312.8893 163.318 1388.2265 260.3703 1438.5245 152.9255"/><polygon class="cls-1" points="1388.2265 260.3703 1259.0338 264.8947 1317.3312 368.5036 1388.2265 260.3703"/><polygon class="cls-1" points="1388.2265 260.3703 1431.8926 368.5042 1317.3312 368.5036 1388.2265 260.3703"/><polygon class="cls-1" points="1381.101 477.5687 1431.8926 368.5042 1317.3312 368.5036 1381.101 477.5687"/><polygon class="cls-1" points="1388.2265 260.3703 1259.0338 264.8947 1312.8893 163.318 1388.2265 260.3703"/><polygon class="cls-1" points="1381.101 477.5687 1317.3309 368.5045 1243.8529 477.5689 1381.101 477.5687"/><polygon class="cls-1" points="1381.101 477.5687 1309.8842 582.2637 1243.8529 477.5689 1381.101 477.5687"/><polygon class="cls-1" points="1419.1373 572.1753 1381.101 477.5687 1309.8842 582.2637 1419.1373 572.1753"/><polygon class="cls-1" points="1192.8826 572.1757 1110.8879 662.4985 1247.0544 680.741 1192.8826 572.1757"/><polygon class="cls-1" points="981.6684 639.6623 911.6003 728.5797 1029.4257 753.735 981.6684 639.6623"/><polygon class="cls-1" points="1779.9678 277.3299 1686.7729 375.0334 1620.1783 266.6772 1779.9678 277.3299"/><polygon class="cls-1" points="1511.6091 447.7893 1572.8057 547.4389 1618.7575 464.7288 1511.6091 447.7893"/><polygon class="cls-1" points="1558.2918 354.4201 1618.7579 464.7301 1511.6095 447.7888 1558.2918 354.4201"/><polygon class="cls-1" points="1686.7722 375.0333 1618.7584 464.7295 1558.2924 354.4195 1686.7722 375.0333"/><polygon class="cls-1" points="1620.179 266.6778 1686.7718 375.034 1558.292 354.4203 1620.179 266.6778"/><polygon class="cls-1" points="1558.2912 354.4193 1620.1783 266.6769 1475.5588 259.3127 1558.2912 354.4193"/><polygon class="cls-1" points="1431.8926 368.5042 1558.2912 354.4201 1475.5588 259.3115 1431.8926 368.5042"/><polygon class="cls-1" points="1431.8926 368.5042 1388.2265 260.3703 1475.5588 259.3115 1431.8926 368.5042"/><polygon class="cls-1" points="1438.5245 152.9255 1388.2265 260.3703 1475.5588 259.3115 1438.5245 152.9255"/><polygon class="cls-1" points="1549.1982 168.5215 1620.1789 266.6774 1696.8466 179.3764 1549.1982 168.5215"/><polygon class="cls-1" points="1549.1982 168.5215 1475.5594 259.3115 1620.1789 266.6774 1549.1982 168.5215"/><polygon class="cls-1" points="1779.9678 277.3299 1696.8463 179.3756 1620.1783 266.6772 1779.9678 277.3299"/><polyline class="cls-1" points="1686.7723 375.0325 1736.5657 485.1697 1819.6454 387.3673"/><polygon class="cls-1" points="1779.9673 277.329 1686.7723 375.0325 1819.6455 387.3673 1779.9673 277.329"/><polygon class="cls-1" points="1866.6481 483.5916 1819.6463 387.367 1736.5647 485.1693 1866.6481 483.5916"/><polygon class="cls-1" points="1808.0357 595.5439 1736.5648 485.1686 1866.6481 483.5909 1808.0357 595.5439"/><polygon class="cls-1" points="1673.8244 568.2777 1618.758 464.7305 1736.5651 485.1695 1673.8244 568.2777"/><polygon class="cls-1" points="1585.0666 651.7016 1572.8059 547.4389 1673.824 568.2779 1585.0666 651.7016"/><polygon class="cls-1" points="1481.7977 665.0055 1585.0666 651.7013 1572.8078 547.4385 1481.7977 665.0055"/><polygon class="cls-1" points="1481.7977 665.0055 1572.8078 547.4385 1419.1375 572.1756 1481.7977 665.0055"/><polygon class="cls-1" points="1481.7977 665.0055 1364.5108 673.4231 1419.1375 572.1756 1481.7977 665.0055"/><polygon class="cls-1" points="1481.7977 665.0055 1364.5108 673.4231 1415.2278 760.7014 1481.7977 665.0055"/><polygon class="cls-1" points="1829.7474 187.8777 1779.9683 277.3299 1888.241 294.0751 1829.7474 187.8777"/><polygon class="cls-1" points="1935.1292 406.1924 1888.2414 294.0757 1819.645 387.367 1935.1292 406.1924"/><polygon class="cls-1" points="1984.7509 499.4121 1866.649 483.592 1935.1296 406.1928 1984.7509 499.4121"/><polygon class="cls-1" points="1722.5665 661.5049 1673.8238 568.2783 1808.0355 595.5435 1722.5665 661.5049"/><polygon class="cls-1" points="1652.4993 750.4233 1585.067 651.7013 1722.5671 661.5041 1652.4993 750.4233"/><polygon class="cls-1" points="1851.7861 684.3411 1808.0366 595.5435 1722.5658 661.5049 1851.7861 684.3411"/><polygon class="cls-1" points="1722.5672 661.5056 1770.3245 775.5784 1851.7857 684.3419 1722.5672 661.5056"/><polygon class="cls-1" points="1529.1791 738.0432 1585.0674 651.7015 1652.4996 750.4235 1529.1791 738.0432"/><polygon class="cls-1" points="1481.7974 665.0054 1529.1799 738.0425 1585.0662 651.702 1481.7974 665.0054"/><polygon class="cls-1" points="1452.1935 862.8199 1565.0822 861.4508 1529.1799 738.0425 1452.1935 862.8199"/><polygon class="cls-1" points="1452.1935 862.8199 1415.2278 760.7014 1529.1799 738.0425 1452.1935 862.8199"/><polygon class="cls-1" points="1452.1935 862.8199 1415.2278 760.7014 1350.2108 854.277 1452.1935 862.8199"/><polygon class="cls-1" points="1481.7974 665.0054 1415.2278 760.7014 1529.1799 738.0425 1481.7974 665.0054"/><polygon class="cls-1" points="1529.18 738.0428 1565.0822 861.4508 1652.5006 750.4233 1529.18 738.0428"/><polygon class="cls-1" points="1585.0666 651.7016 1673.824 568.2779 1722.5667 661.5045 1585.0666 651.7016"/><polygon class="cls-1" points="1419.1373 572.1753 1511.6091 447.7886 1572.8057 547.4382 1419.1373 572.1753"/><polygon class="cls-1" points="1572.8063 547.4385 1618.758 464.7303 1673.8244 568.2775 1572.8063 547.4385"/><polygon class="cls-1" points="1618.7577 464.7295 1686.7714 375.0333 1736.5647 485.1686 1618.7577 464.7295"/><polygon class="cls-1" points="1431.8928 368.5048 1558.2914 354.4207 1511.6091 447.7894 1431.8928 368.5048"/><polygon class="cls-1" points="1431.8928 368.5048 1381.101 477.5687 1511.6091 447.7894 1431.8928 368.5048"/><polygon class="cls-1" points="1419.1373 572.1753 1381.101 477.5687 1511.6091 447.7894 1419.1373 572.1753"/><polygon class="cls-1" points="1438.5245 152.9255 1475.5588 259.3111 1549.1978 168.521 1438.5245 152.9255"/><polygon class="cls-1" points="1438.5245 152.9255 1514.3286 68.623 1549.1978 168.521 1438.5245 152.9255"/><polygon class="cls-1" points="1438.5245 152.9255 1514.3286 68.623 1402.6255 69.9777 1438.5245 152.9255"/><polygon class="cls-1" points="1477.6893 -37.7674 1514.3286 68.623 1402.6255 69.9777 1477.6893 -37.7674"/><polygon class="cls-1" points="1477.6893 -37.7674 1514.3286 68.623 1582.4529 -39.038 1477.6893 -37.7674"/><polygon class="cls-1" points="1629.2432 88.0537 1696.8461 179.376 1549.1976 168.5195 1629.2432 88.0537"/><polygon class="cls-1" points="1582.4529 -39.038 1629.2426 88.0533 1706.1274 -29.4636 1582.4529 -39.038"/><polygon class="cls-1" points="1582.4529 -39.038 1629.2426 88.0533 1514.3286 68.623 1582.4529 -39.038"/><polygon class="cls-1" points="1549.1978 168.521 1629.2426 88.0533 1514.3286 68.623 1549.1978 168.521"/><polygon class="cls-1" points="1781.3163 89.2878 1696.8462 179.3766 1629.2434 88.0542 1781.3163 89.2878"/><polyline class="cls-1" points="1829.7474 187.8777 1779.9683 277.3299 1696.8468 179.3775"/><polygon class="cls-1" points="1781.3168 89.2888 1696.8466 179.3776 1829.7473 187.8777 1781.3168 89.2888"/><polygon class="cls-1" points="1706.1267 -29.4636 1629.2437 88.0533 1781.3148 89.2869 1706.1267 -29.4636"/><polygon class="cls-1" points="1819.6454 387.3673 1779.9672 277.329 1888.2399 294.076 1819.6454 387.3673"/><polygon class="cls-1" points="1866.6481 483.5916 1819.6463 387.367 1935.1287 406.1924 1866.6481 483.5916"/><polygon class="cls-1" points="1673.8244 568.2777 1736.5651 485.1695 1808.036 595.5448 1673.8244 568.2777"/><polygon class="cls-1" points="1933.7822 594.0188 1866.6487 483.5909 1808.0362 595.5439 1933.7822 594.0188"/><polygon class="cls-1" points="1808.0354 595.5441 1851.7867 684.3418 1933.7814 594.019 1808.0354 595.5441"/><polygon class="cls-1" points="1851.7867 684.3405 1919.2528 779.4086 1987.9528 702.5846 1851.7867 684.3405"/><polygon class="cls-1" points="1851.7857 684.3409 1770.3249 775.5793 1919.254 779.4083 1851.7857 684.3409"/><polygon class="cls-1" points="1691.8722 872.9417 1770.3245 775.5784 1652.5002 750.4237 1691.8722 872.9417"/><polyline class="cls-1" points="1652.5002 750.4237 1691.8722 872.9417 1565.0822 861.4508 1652.5002 750.4237"/><polygon class="cls-1" points="1919.2534 779.4088 2055.3441 792.6862 1987.9534 702.5847 1919.2534 779.4088"/><polygon class="cls-1" points="2096.7388 695.2665 2055.3438 792.6858 1987.953 702.5844 2096.7388 695.2665"/><polygon class="cls-1" points="2096.7388 695.2665 2055.3438 792.6858 2155.3864 783.3618 2096.7388 695.2665"/><polygon class="cls-1" points="2074.3289 876.1204 2055.3438 792.6858 2155.3864 783.3618 2074.3289 876.1204"/><polygon class="cls-1" points="2074.3289 876.1204 2055.3438 792.6858 1955.7857 876.1204 2074.3289 876.1204"/><polygon class="cls-1" points="2050.783 604.1076 2162.1838 593.9547 2096.7388 695.2665 2050.783 604.1076"/><polygon class="cls-1" points="1984.7509 499.4121 2050.7822 604.1075 1933.7826 594.0181 1984.7509 499.4121"/><polygon class="cls-1" points="1933.7822 594.0188 1866.6487 483.5909 1984.7505 499.4129 1933.7822 594.0188"/><polygon class="cls-1" points="1933.7822 594.0188 2050.7837 604.1082 1987.9538 702.5836 1933.7822 594.0188"/><polygon class="cls-1" points="1919.2534 779.4088 1955.7857 876.1204 2055.3441 792.6862 1919.2534 779.4088"/><polygon class="cls-1" points="1919.2534 779.4088 1955.7857 876.1204 1819.6037 888.3718 1919.2534 779.4088"/><polygon class="cls-1" points="1919.2534 779.4088 1770.3245 775.5784 1819.6037 888.3718 1919.2534 779.4088"/><polygon class="cls-1" points="1691.8722 872.9417 1770.3245 775.5784 1819.6037 888.3718 1691.8722 872.9417"/><polygon class="cls-1" points="1706.1267 -29.4636 1781.3148 89.2869 1831.247 -21.2096 1706.1267 -29.4636"/><polygon class="cls-1" points="1831.2478 -21.2096 1781.3156 89.2869 1891.7663 87.9473 1831.2478 -21.2096"/><polygon class="cls-1" points="1936.642 195.2389 1891.7679 87.9492 1829.7477 187.8778 1936.642 195.2389"/><polygon class="cls-1" points="1829.7474 187.8777 1781.3169 89.2887 1891.7676 87.9492 1829.7474 187.8777"/><polygon class="cls-1" points="1888.2405 294.0755 1936.6411 195.2393 1829.7468 187.8781 1888.2405 294.0755"/><polygon class="cls-1" points="1999.9318 286.7381 2058.2293 390.3469 1935.1299 406.1926 1999.9318 286.7381"/><polygon class="cls-1" points="1936.6417 195.2402 1999.9327 286.7383 2053.788 185.1604 1936.6417 195.2402"/><polygon class="cls-1" points="1936.6417 195.2402 1888.2409 294.0759 1999.9327 286.7383 1936.6417 195.2402"/><polygon class="cls-1" points="1935.1292 406.1924 1888.2414 294.0757 1999.931 286.7379 1935.1292 406.1924"/><polygon class="cls-1" points="1831.2478 -21.2096 1891.7663 87.9473 1968.6272 -32.6472 1831.2478 -21.2096"/><polyline class="cls-1" points="1891.7657 87.9473 1936.6417 195.2389 2028.4621 68.7529"/><polygon class="cls-1" points="1968.6267 -32.6472 1891.7657 87.9473 2028.4621 68.7528 1968.6267 -32.6472"/><polygon class="cls-1" points="2053.7883 185.1606 2028.4621 68.7538 1936.6416 195.2398 2053.7883 185.1606"/><polygon class="cls-1" points="1968.6266 -32.6472 2028.4621 68.7529 2099.8241 -24.4669 1968.6266 -32.6472"/><polygon class="cls-1" points="2028.4603 68.7524 2143.5241 91.8212 2099.8247 -24.4669 2028.4603 68.7524"/><polygon class="cls-1" points="2218.5879 -15.9239 2143.5241 91.8212 2099.8247 -24.4669 2218.5879 -15.9239"/><polygon class="cls-1" points="2028.4618 68.7524 2053.788 185.1614 2143.5242 91.8211 2028.4618 68.7524"/><polygon class="cls-1" points="2179.0453 182.8206 2053.788 185.1614 2143.5242 91.8211 2179.0453 182.8206"/><polygon class="cls-1" points="2179.0453 182.8206 2053.788 185.1614 2106.2777 273.8575 2179.0453 182.8206"/><polygon class="cls-1" points="2106.2777 273.8575 1999.9326 286.7381 2058.23 390.347 2106.2777 273.8575"/><polygon class="cls-1" points="2106.2777 273.8575 2169.2463 391.6539 2058.23 390.347 2106.2777 273.8575"/><polygon class="cls-1" points="2108.5338 501.9144 2169.2463 391.6539 2058.23 390.347 2108.5338 501.9144"/><polygon class="cls-1" points="2106.2777 273.8575 1999.9326 286.7381 2053.788 185.1614 2106.2777 273.8575"/><polygon class="cls-1" points="2108.5338 501.9144 2058.2297 390.3479 1984.7516 499.4123 2108.5338 501.9144"/><polygon class="cls-1" points="2108.5338 501.9144 2050.783 604.1071 1984.7516 499.4123 2108.5338 501.9144"/><polygon class="cls-1" points="2162.1839 593.9541 2108.5338 501.9144 2050.783 604.1071 2162.1839 593.9541"/><polygon class="cls-1" points="1933.7814 594.019 1851.7867 684.3418 1987.9532 702.5844 1933.7814 594.019"/><polygon class="cls-1" points="1722.5672 661.5056 1652.4991 750.4231 1770.3245 775.5784 1722.5672 661.5056"/><polygon class="cls-1" points="2520.8664 299.1734 2427.6715 396.877 2361.0769 288.5207 2520.8664 299.1734"/><polygon class="cls-1" points="2242.0306 479.4291 2301.2256 579.0382 2359.6561 486.5723 2242.0306 479.4291"/><polygon class="cls-1" points="2299.1904 376.2636 2359.6565 486.5736 2242.031 479.4285 2299.1904 376.2636"/><polygon class="cls-1" points="2427.6708 396.8768 2359.6571 486.573 2299.191 376.263 2427.6708 396.8768"/><polygon class="cls-1" points="2361.0777 288.5213 2427.6704 396.8775 2299.1906 376.2638 2361.0777 288.5213"/><polygon class="cls-1" points="2299.1899 376.2629 2361.0769 288.5204 2216.4575 281.1562 2299.1899 376.2629"/><polygon class="cls-1" points="2169.2461 391.6533 2299.1899 376.2636 2216.4575 281.155 2169.2461 391.6533"/><polygon class="cls-1" points="2169.2461 391.6533 2106.2777 273.8575 2216.4575 281.155 2169.2461 391.6533"/><polygon class="cls-1" points="2179.0453 182.8206 2106.2777 273.8575 2216.4575 281.155 2179.0453 182.8206"/><polygon class="cls-1" points="2290.0969 190.365 2361.0776 288.521 2437.7453 201.2199 2290.0969 190.365"/><polygon class="cls-1" points="2290.0969 190.365 2216.4581 281.155 2361.0776 288.521 2290.0969 190.365"/><polygon class="cls-1" points="2520.8664 299.1734 2437.7449 201.2192 2361.0769 288.5207 2520.8664 299.1734"/><polyline class="cls-1" points="2427.671 396.876 2477.4643 507.0132 2560.544 409.2108"/><polygon class="cls-1" points="2520.866 299.1725 2427.671 396.876 2560.5441 409.2108 2520.866 299.1725"/><polygon class="cls-1" points="2607.5468 505.4351 2560.545 409.2105 2477.4634 507.0128 2607.5468 505.4351"/><polygon class="cls-1" points="2548.9343 617.3874 2477.4634 507.0121 2607.5468 505.4344 2548.9343 617.3874"/><polygon class="cls-1" points="2414.723 590.1212 2359.6567 486.574 2477.4637 507.013 2414.723 590.1212"/><polygon class="cls-1" points="2325.9653 673.5452 2301.2258 579.0382 2414.7227 590.1214 2325.9653 673.5452"/><polygon class="cls-1" points="2222.6963 686.849 2325.9653 673.5448 2301.2277 579.0378 2222.6963 686.849"/><polygon class="cls-1" points="2222.6963 686.849 2301.2277 579.0378 2162.1841 593.9545 2222.6963 686.849"/><polygon class="cls-1" points="2222.6963 686.849 2096.7388 695.2665 2162.1841 593.9545 2222.6963 686.849"/><polygon class="cls-1" points="2222.6963 686.849 2096.7388 695.2665 2155.3864 783.3618 2222.6963 686.849"/><polygon class="cls-1" points="2570.646 209.7212 2520.867 299.1734 2629.1397 315.9186 2570.646 209.7212"/><polygon class="cls-1" points="2676.0278 428.0359 2629.14 315.9192 2560.5437 409.2105 2676.0278 428.0359"/><polygon class="cls-1" points="2725.6495 521.2556 2607.5477 505.4355 2676.0282 428.0363 2725.6495 521.2556"/><polygon class="cls-1" points="2463.4651 683.3484 2414.7225 590.1218 2548.9341 617.387 2463.4651 683.3484"/><polygon class="cls-1" points="2393.3979 772.2668 2325.9657 673.5448 2463.4657 683.3476 2393.3979 772.2668"/><polygon class="cls-1" points="2592.6848 706.1846 2548.9352 617.387 2463.4644 683.3484 2592.6848 706.1846"/><polygon class="cls-1" points="2463.4658 683.3492 2511.2231 797.4219 2592.6844 706.1854 2463.4658 683.3492"/><polygon class="cls-1" points="2270.0777 759.8867 2325.966 673.545 2393.3983 772.267 2270.0777 759.8867"/><polygon class="cls-1" points="2222.696 686.8489 2270.0786 759.886 2325.9649 673.5455 2222.696 686.8489"/><polygon class="cls-1" points="2193.0921 884.6634 2305.9808 883.2943 2270.0786 759.886 2193.0921 884.6634"/><polygon class="cls-1" points="2193.0921 884.6634 2155.3864 783.3618 2270.0786 759.886 2193.0921 884.6634"/><polygon class="cls-1" points="2193.0921 884.6634 2155.3864 783.3618 2074.3289 876.1204 2193.0921 884.6634"/><polygon class="cls-1" points="2222.696 686.8489 2155.3864 783.3618 2270.0786 759.886 2222.696 686.8489"/><polygon class="cls-1" points="2270.0787 759.8863 2305.9808 883.2943 2393.3992 772.2668 2270.0787 759.8863"/><polygon class="cls-1" points="2325.9653 673.5452 2414.7227 590.1214 2463.4653 683.348 2325.9653 673.5452"/><polygon class="cls-1" points="2162.1839 593.9541 2242.0306 479.4283 2301.2256 579.0374 2162.1839 593.9541"/><polygon class="cls-1" points="2301.2262 579.0378 2359.6567 486.5738 2414.723 590.121 2301.2262 579.0378"/><polygon class="cls-1" points="2359.6563 486.573 2427.67 396.8768 2477.4634 507.0121 2359.6563 486.573"/><polygon class="cls-1" points="2169.2463 391.6539 2299.19 376.2642 2242.0306 479.4291 2169.2463 391.6539"/><polygon class="cls-1" points="2169.2463 391.6539 2108.5338 501.9144 2242.0306 479.4291 2169.2463 391.6539"/><polygon class="cls-1" points="2162.1839 593.9541 2108.5338 501.9144 2242.0306 479.4291 2162.1839 593.9541"/><polygon class="cls-1" points="2179.0453 182.8206 2216.4575 281.1546 2290.0964 190.3645 2179.0453 182.8206"/><polygon class="cls-1" points="2179.0453 182.8206 2255.2273 90.4665 2290.0964 190.3645 2179.0453 182.8206"/><polygon class="cls-1" points="2179.0453 182.8206 2255.2273 90.4665 2143.5241 91.8212 2179.0453 182.8206"/><polygon class="cls-1" points="2218.5879 -15.9239 2255.2273 90.4665 2143.5241 91.8212 2218.5879 -15.9239"/><polygon class="cls-1" points="2218.5879 -15.9239 2255.2273 90.4665 2323.3516 -17.1945 2218.5879 -15.9239"/><polygon class="cls-1" points="2370.1418 109.8972 2437.7447 201.2195 2290.0963 190.363 2370.1418 109.8972"/><polygon class="cls-1" points="2323.3516 -17.1945 2370.1413 109.8968 2447.0261 -7.6201 2323.3516 -17.1945"/><polygon class="cls-1" points="2323.3516 -17.1945 2370.1413 109.8968 2255.2273 90.4665 2323.3516 -17.1945"/><polygon class="cls-1" points="2290.0964 190.3645 2370.1413 109.8968 2255.2273 90.4665 2290.0964 190.3645"/><polygon class="cls-1" points="2522.215 111.1313 2437.7449 201.2201 2370.142 109.8977 2522.215 111.1313"/><polyline class="cls-1" points="2570.646 209.7212 2520.867 299.1734 2437.7455 201.221"/><polygon class="cls-1" points="2522.2155 111.1323 2437.7453 201.2211 2570.6459 209.7212 2522.2155 111.1323"/><polygon class="cls-1" points="2447.0253 -7.6201 2370.1424 109.8968 2522.2135 111.1304 2447.0253 -7.6201"/><polygon class="cls-1" points="2560.544 409.2108 2520.8659 299.1725 2629.1385 315.9196 2560.544 409.2108"/><polygon class="cls-1" points="2607.5468 505.4351 2560.545 409.2105 2676.0273 428.0359 2607.5468 505.4351"/><polygon class="cls-1" points="2414.723 590.1212 2477.4637 507.013 2548.9346 617.3883 2414.723 590.1212"/><polygon class="cls-1" points="2674.6809 615.8623 2607.5473 505.4344 2548.9348 617.3874 2674.6809 615.8623"/><polygon class="cls-1" points="2548.934 617.3876 2592.6853 706.1853 2674.68 615.8626 2548.934 617.3876"/><polygon class="cls-1" points="2592.6853 706.184 2660.1514 801.2521 2728.8514 724.4281 2592.6853 706.184"/><polygon class="cls-1" points="2592.6844 706.1844 2511.2236 797.4228 2660.1526 801.2518 2592.6844 706.1844"/><polygon class="cls-1" points="2432.7709 894.7852 2511.2231 797.4219 2393.3988 772.2672 2432.7709 894.7852"/><polyline class="cls-1" points="2393.3988 772.2672 2432.7709 894.7852 2305.9808 883.2943 2393.3988 772.2672"/><polygon class="cls-1" points="2660.152 801.2523 2796.2427 814.5297 2728.852 724.4283 2660.152 801.2523"/><polygon class="cls-1" points="2837.6375 717.11 2796.2424 814.5293 2728.8517 724.4279 2837.6375 717.11"/><polygon class="cls-1" points="2815.227 897.9639 2796.2424 814.5293 2684.03 889.7836 2815.227 897.9639"/><polygon class="cls-1" points="2791.6816 625.9511 2880.7568 624.8711 2837.6375 717.11 2791.6816 625.9511"/><polygon class="cls-1" points="2725.6495 521.2556 2791.6809 625.951 2674.6812 615.8616 2725.6495 521.2556"/><polygon class="cls-1" points="2674.6809 615.8623 2607.5473 505.4344 2725.6491 521.2564 2674.6809 615.8623"/><polygon class="cls-1" points="2674.6809 615.8623 2791.6823 625.9517 2728.8524 724.4271 2674.6809 615.8623"/><polygon class="cls-1" points="2660.152 801.2523 2684.03 889.7836 2796.2427 814.5297 2660.152 801.2523"/><polygon class="cls-1" points="2660.152 801.2523 2684.03 889.7836 2567.6203 897.9639 2660.152 801.2523"/><polygon class="cls-1" points="2660.152 801.2523 2511.2231 797.4219 2567.6203 897.9639 2660.152 801.2523"/><polygon class="cls-1" points="2432.7709 894.7852 2511.2231 797.4219 2567.6203 897.9639 2432.7709 894.7852"/><polygon class="cls-1" points="2447.0253 -7.6201 2522.2135 111.1304 2572.1456 .6339 2447.0253 -7.6201"/><polygon class="cls-1" points="2572.1464 .6339 2522.2142 111.1304 2632.6649 109.7908 2572.1464 .6339"/><polygon class="cls-1" points="2677.5407 217.0824 2632.6666 109.7927 2570.6463 209.7213 2677.5407 217.0824"/><polygon class="cls-1" points="2570.646 209.7212 2522.2155 111.1322 2632.6662 109.7927 2570.646 209.7212"/><polygon class="cls-1" points="2629.1391 315.919 2677.5397 217.0828 2570.6454 209.7216 2629.1391 315.919"/><polygon class="cls-1" points="2740.8305 308.5816 2799.1279 412.1904 2676.0286 428.0361 2740.8305 308.5816"/><polygon class="cls-1" points="2677.5403 217.0837 2740.8314 308.5818 2794.6867 207.004 2677.5403 217.0837"/><polygon class="cls-1" points="2677.5403 217.0837 2629.1395 315.9194 2740.8314 308.5818 2677.5403 217.0837"/><polygon class="cls-1" points="2676.0278 428.0359 2629.14 315.9192 2740.8297 308.5814 2676.0278 428.0359"/><polygon class="cls-1" points="2572.1464 .6339 2632.6649 109.7908 2709.5258 -10.8037 2572.1464 .6339"/><polyline class="cls-1" points="2632.6644 109.7908 2677.5403 217.0824 2769.3608 90.5964"/><polygon class="cls-1" points="2709.5253 -10.8037 2632.6644 109.7908 2769.3608 90.5963 2709.5253 -10.8037"/><polygon class="cls-1" points="2794.6869 207.0041 2769.3607 90.5974 2677.5403 217.0834 2794.6869 207.0041"/><polygon class="cls-1" points="2709.5253 -10.8037 2769.3608 90.5964 2840.7228 -2.6234 2709.5253 -10.8037"/><polygon class="cls-1" points="2769.3589 90.5959 2884.4227 113.6647 2840.7234 -2.6234 2769.3589 90.5959"/><polygon class="cls-1" points="2769.3605 90.5959 2794.6867 207.0049 2884.4229 113.6646 2769.3605 90.5959"/><polygon class="cls-1" points="2847.1763 295.701 2740.8312 308.5816 2799.1286 412.1905 2847.1763 295.701"/><polygon class="cls-1" points="2847.1763 295.701 2740.8312 308.5816 2794.6867 207.0049 2847.1763 295.701"/><polygon class="cls-1" points="2833.6835 527.7271 2799.1283 412.1914 2725.6503 521.2558 2833.6835 527.7271"/><polygon class="cls-1" points="2833.6835 527.7271 2791.6816 625.9506 2725.6503 521.2558 2833.6835 527.7271"/><polygon class="cls-1" points="2880.7568 624.8706 2833.6835 527.7271 2791.6816 625.9506 2880.7568 624.8706"/><polygon class="cls-1" points="2674.68 615.8626 2592.6853 706.1853 2728.8518 724.4279 2674.68 615.8626"/><polygon class="cls-1" points="2463.4658 683.3492 2393.3977 772.2666 2511.2231 797.4219 2463.4658 683.3492"/><polygon class="cls-1" points="272.6746 1134.2303 179.4797 1231.9338 112.885 1123.5776 272.6746 1134.2303"/><polygon class="cls-1" points="4.3159 1304.6897 65.5125 1404.3393 111.4643 1321.6292 4.3159 1304.6897"/><polygon class="cls-1" points="50.9986 1211.3205 111.4646 1321.6305 4.3162 1304.6891 50.9986 1211.3205"/><polygon class="cls-1" points="179.4789 1231.9336 111.4652 1321.6299 50.9991 1211.3199 179.4789 1231.9336"/><polygon class="cls-1" points="112.8858 1123.5781 179.4785 1231.9344 50.9987 1211.3207 112.8858 1123.5781"/><polygon class="cls-1" points="50.998 1211.3197 112.885 1123.5772 -31.7344 1116.213 50.998 1211.3197"/><polygon class="cls-1" points="-64.3372 1209.7273 50.998 1211.3205 -31.7344 1116.2119 -64.3372 1209.7273"/><polygon class="cls-1" points="41.905 1025.4218 112.8857 1123.5778 189.5534 1036.2768 41.905 1025.4218"/><polygon class="cls-1" points="41.905 1025.4218 -31.7338 1116.2118 112.8857 1123.5778 41.905 1025.4218"/><polygon class="cls-1" points="272.6746 1134.2303 189.553 1036.276 112.885 1123.5776 272.6746 1134.2303"/><polyline class="cls-1" points="179.4791 1231.9329 229.2724 1342.0701 312.3522 1244.2677"/><polygon class="cls-1" points="272.6741 1134.2293 179.4791 1231.9329 312.3523 1244.2676 272.6741 1134.2293"/><polygon class="cls-1" points="359.3549 1340.492 312.3531 1244.2673 229.2715 1342.0697 359.3549 1340.492"/><polygon class="cls-1" points="300.7424 1452.4443 229.2715 1342.0689 359.3549 1340.4913 300.7424 1452.4443"/><polygon class="cls-1" points="166.5312 1425.1781 111.4648 1321.6309 229.2719 1342.0699 166.5312 1425.1781"/><polygon class="cls-1" points="77.7734 1508.602 65.5127 1404.3393 166.5308 1425.1783 77.7734 1508.602"/><polygon class="cls-1" points="-25.4956 1521.9058 77.7734 1508.6017 65.5146 1404.3389 -25.4956 1521.9058"/><polygon class="cls-1" points="-25.4956 1521.9058 65.5146 1404.3389 -59.7845 1392.7591 -25.4956 1521.9058"/><polygon class="cls-1" points="322.4541 1044.7781 272.6751 1134.2303 380.9478 1150.9755 322.4541 1044.7781"/><polygon class="cls-1" points="427.836 1263.0927 380.9482 1150.9761 312.3518 1244.2673 427.836 1263.0927"/><polygon class="cls-1" points="477.4577 1356.3125 359.3558 1340.4924 427.8363 1263.0931 477.4577 1356.3125"/><polygon class="cls-1" points="215.2733 1518.4053 166.5306 1425.1787 300.7422 1452.4439 215.2733 1518.4053"/><polygon class="cls-1" points="145.206 1607.3237 77.7738 1508.6017 215.2738 1518.4045 145.206 1607.3237"/><polygon class="cls-1" points="344.4929 1541.2414 300.7434 1452.4439 215.2725 1518.4053 344.4929 1541.2414"/><polygon class="cls-1" points="215.274 1518.406 263.0312 1632.4787 344.4925 1541.2422 215.274 1518.406"/><polygon class="cls-1" points="21.8859 1594.9435 77.7742 1508.6018 145.2064 1607.3239 21.8859 1594.9435"/><polygon class="cls-1" points="-25.4958 1521.9057 21.8867 1594.9429 77.773 1508.6023 -25.4958 1521.9057"/><polygon class="cls-1" points="-55.0998 1719.7202 57.789 1718.3511 21.8867 1594.9429 -55.0998 1719.7202"/><polygon class="cls-1" points="-55.0998 1719.7202 -82.1541 1604.0936 21.8867 1594.9429 -55.0998 1719.7202"/><polygon class="cls-1" points="-25.4958 1521.9057 -82.1541 1604.0936 21.8867 1594.9429 -25.4958 1521.9057"/><polygon class="cls-1" points="21.8868 1594.9432 57.789 1718.3511 145.2073 1607.3237 21.8868 1594.9432"/><polygon class="cls-1" points="77.7734 1508.602 166.5308 1425.1783 215.2734 1518.4049 77.7734 1508.602"/><polygon class="cls-1" points="-59.7847 1392.7587 4.3159 1304.689 65.5125 1404.3385 -59.7847 1392.7587"/><polygon class="cls-1" points="65.5131 1404.3389 111.4648 1321.6307 166.5312 1425.1779 65.5131 1404.3389"/><polygon class="cls-1" points="111.4645 1321.6299 179.4782 1231.9336 229.2715 1342.0689 111.4645 1321.6299"/><polygon class="cls-1" points="-64.337 1209.7279 50.9982 1211.3211 4.3159 1304.6897 -64.337 1209.7279"/><polygon class="cls-1" points="-64.337 1209.7279 -107.3869 1306.0437 4.3159 1304.6897 -64.337 1209.7279"/><polygon class="cls-1" points="-59.7847 1392.7587 -107.3869 1306.0437 4.3159 1304.6897 -59.7847 1392.7587"/><polygon class="cls-1" points="-68.7687 1009.8259 -31.7344 1116.2115 41.9046 1025.4214 -68.7687 1009.8259"/><polygon class="cls-1" points="-68.7687 1009.8259 7.0354 925.5233 41.9046 1025.4214 -68.7687 1009.8259"/><polygon class="cls-1" points="-68.7687 1009.8259 7.0354 925.5233 -104.6678 926.8781 -68.7687 1009.8259"/><polygon class="cls-1" points="-29.6039 819.133 7.0354 925.5233 -104.6678 926.8781 -29.6039 819.133"/><polygon class="cls-1" points="-29.6039 819.133 7.0354 925.5233 83.2848 817.7639 -29.6039 819.133"/><polygon class="cls-1" points="121.95 944.954 189.5528 1036.2764 41.9044 1025.4199 121.95 944.954"/><polygon class="cls-1" points="83.2848 817.7639 121.9494 944.9537 210.0756 829.2548 83.2848 817.7639"/><polygon class="cls-1" points="83.2848 817.7639 121.9494 944.9537 7.0354 925.5233 83.2848 817.7639"/><polygon class="cls-1" points="41.9046 1025.4214 121.9494 944.9537 7.0354 925.5233 41.9046 1025.4214"/><polygon class="cls-1" points="274.0231 946.1881 189.553 1036.2769 121.9501 944.9546 274.0231 946.1881"/><polyline class="cls-1" points="322.4541 1044.7781 272.6751 1134.2303 189.5536 1036.2779"/><polygon class="cls-1" points="274.0236 946.1892 189.5534 1036.278 322.4541 1044.778 274.0236 946.1892"/><polygon class="cls-1" points="210.0748 829.2548 121.9505 944.9536 274.0216 946.1872 210.0748 829.2548"/><polygon class="cls-1" points="312.3522 1244.2677 272.674 1134.2294 380.9467 1150.9764 312.3522 1244.2677"/><polygon class="cls-1" points="359.3549 1340.492 312.3531 1244.2673 427.8354 1263.0928 359.3549 1340.492"/><polygon class="cls-1" points="166.5312 1425.1781 229.2719 1342.0699 300.7428 1452.4452 166.5312 1425.1781"/><polygon class="cls-1" points="426.489 1450.9192 359.3554 1340.4913 300.743 1452.4443 426.489 1450.9192"/><polygon class="cls-1" points="300.7422 1452.4445 344.4935 1541.2422 426.4881 1450.9194 300.7422 1452.4445"/><polygon class="cls-1" points="344.4934 1541.2409 411.9596 1636.309 480.6596 1559.4849 344.4934 1541.2409"/><polygon class="cls-1" points="344.4925 1541.2413 263.0317 1632.4797 411.9607 1636.3087 344.4925 1541.2413"/><polygon class="cls-1" points="184.579 1729.842 263.0312 1632.4787 145.207 1607.3241 184.579 1729.842"/><polyline class="cls-1" points="145.207 1607.3241 184.579 1729.842 57.789 1718.3511 145.207 1607.3241"/><polygon class="cls-1" points="411.9602 1636.3092 548.0509 1649.5865 480.6602 1559.4851 411.9602 1636.3092"/><polygon class="cls-1" points="589.4456 1552.1669 548.0505 1649.5862 480.6598 1559.4848 589.4456 1552.1669"/><polygon class="cls-1" points="589.4456 1552.1669 548.0505 1649.5862 648.0932 1640.2622 589.4456 1552.1669"/><polygon class="cls-1" points="596.6501 1742.645 548.0505 1649.5862 648.0932 1640.2622 596.6501 1742.645"/><polygon class="cls-1" points="596.6501 1742.645 548.0505 1649.5862 488.3873 1736.5803 596.6501 1742.645"/><polygon class="cls-1" points="543.4897 1461.008 654.8906 1450.8551 589.4456 1552.1669 543.4897 1461.008"/><polygon class="cls-1" points="477.4577 1356.3125 543.489 1461.0079 426.4894 1450.9184 477.4577 1356.3125"/><polygon class="cls-1" points="426.489 1450.9192 359.3554 1340.4913 477.4573 1356.3133 426.489 1450.9192"/><polygon class="cls-1" points="426.489 1450.9192 543.4905 1461.0086 480.6605 1559.484 426.489 1450.9192"/><polygon class="cls-1" points="411.9602 1636.3092 488.3873 1736.5803 548.0509 1649.5865 411.9602 1636.3092"/><polygon class="cls-1" points="411.9602 1636.3092 488.3873 1736.5803 331.424 1728.0611 411.9602 1636.3092"/><polygon class="cls-1" points="411.9602 1636.3092 263.0312 1632.4787 331.424 1728.0611 411.9602 1636.3092"/><polygon class="cls-1" points="184.579 1729.842 263.0312 1632.4787 331.424 1728.0611 184.579 1729.842"/><polygon class="cls-1" points="210.0748 829.2548 274.0216 946.1872 343.118 829.2548 210.0748 829.2548"/><polygon class="cls-1" points="343.1187 829.2548 274.0224 946.1872 384.4731 944.8477 343.1187 829.2548"/><polygon class="cls-1" points="429.3488 1052.1392 384.4747 944.8496 322.4545 1044.7781 429.3488 1052.1392"/><polygon class="cls-1" points="322.4541 1044.7781 274.0236 946.1891 384.4743 944.8496 322.4541 1044.7781"/><polygon class="cls-1" points="380.9472 1150.9758 429.3479 1052.1397 322.4536 1044.7785 380.9472 1150.9758"/><polygon class="cls-1" points="492.6386 1143.6384 550.936 1247.2473 427.8367 1263.0929 492.6386 1143.6384"/><polygon class="cls-1" points="429.3484 1052.1406 492.6395 1143.6387 546.4948 1042.0608 429.3484 1052.1406"/><polygon class="cls-1" points="429.3484 1052.1406 380.9477 1150.9763 492.6395 1143.6387 429.3484 1052.1406"/><polygon class="cls-1" points="427.836 1263.0927 380.9482 1150.9761 492.6378 1143.6383 427.836 1263.0927"/><polygon class="cls-1" points="343.1187 829.2548 384.4731 944.8477 487.9222 835.9931 343.1187 829.2548"/><polyline class="cls-1" points="384.4725 944.8477 429.3484 1052.1392 521.1689 925.6532"/><polygon class="cls-1" points="487.9216 835.9931 384.4725 944.8477 521.1689 925.6532 487.9216 835.9931"/><polygon class="cls-1" points="546.495 1042.0609 521.1688 925.6542 429.3484 1052.1402 546.495 1042.0609"/><polygon class="cls-1" points="487.9216 835.9931 521.1689 925.6532 609.1232 849.2768 487.9216 835.9931"/><polygon class="cls-1" points="521.167 925.6528 636.2309 948.7216 609.1237 849.2768 521.167 925.6528"/><polygon class="cls-1" points="711.2947 840.9765 636.2309 948.7216 609.1237 849.2768 711.2947 840.9765"/><polygon class="cls-1" points="521.1686 925.6527 546.4948 1042.0618 636.231 948.7215 521.1686 925.6527"/><polygon class="cls-1" points="671.7521 1039.721 546.4948 1042.0618 636.231 948.7215 671.7521 1039.721"/><polygon class="cls-1" points="671.7521 1039.721 546.4948 1042.0618 598.9845 1130.7579 671.7521 1039.721"/><polygon class="cls-1" points="598.9845 1130.7579 492.6393 1143.6385 550.9368 1247.2473 598.9845 1130.7579"/><polygon class="cls-1" points="598.9845 1130.7579 661.9531 1248.5543 550.9368 1247.2473 598.9845 1130.7579"/><polygon class="cls-1" points="601.2405 1358.8147 661.9531 1248.5543 550.9368 1247.2473 601.2405 1358.8147"/><polygon class="cls-1" points="598.9845 1130.7579 492.6393 1143.6385 546.4948 1042.0618 598.9845 1130.7579"/><polygon class="cls-1" points="601.2405 1358.8147 550.9364 1247.2483 477.4584 1356.3127 601.2405 1358.8147"/><polygon class="cls-1" points="601.2405 1358.8147 543.4897 1461.0075 477.4584 1356.3127 601.2405 1358.8147"/><polygon class="cls-1" points="654.8906 1450.8545 601.2405 1358.8147 543.4897 1461.0075 654.8906 1450.8545"/><polygon class="cls-1" points="426.4881 1450.9194 344.4935 1541.2422 480.66 1559.4847 426.4881 1450.9194"/><polygon class="cls-1" points="215.274 1518.406 145.2059 1607.3235 263.0312 1632.4787 215.274 1518.406"/><polygon class="cls-1" points="1013.5732 1156.0738 920.3783 1253.7773 853.7837 1145.4211 1013.5732 1156.0738"/><polygon class="cls-1" points="734.7373 1336.3294 793.9324 1435.9386 852.3629 1343.4727 734.7373 1336.3294"/><polygon class="cls-1" points="791.8972 1233.164 852.3633 1343.474 734.7377 1336.3289 791.8972 1233.164"/><polygon class="cls-1" points="920.3776 1253.7771 852.3638 1343.4734 791.8978 1233.1634 920.3776 1253.7771"/><polygon class="cls-1" points="853.7844 1145.4216 920.3772 1253.7779 791.8974 1233.1642 853.7844 1145.4216"/><polygon class="cls-1" points="791.8966 1233.1632 853.7837 1145.4207 709.1642 1138.0565 791.8966 1233.1632"/><polygon class="cls-1" points="661.9529 1248.5537 791.8966 1233.164 709.1642 1138.0554 661.9529 1248.5537"/><polygon class="cls-1" points="661.9529 1248.5537 598.9845 1130.7579 709.1642 1138.0554 661.9529 1248.5537"/><polygon class="cls-1" points="671.7521 1039.721 598.9845 1130.7579 709.1642 1138.0554 671.7521 1039.721"/><polygon class="cls-1" points="782.8036 1047.2654 853.7843 1145.4213 930.452 1058.1203 782.8036 1047.2654"/><polygon class="cls-1" points="782.8036 1047.2654 709.1648 1138.0553 853.7843 1145.4213 782.8036 1047.2654"/><polygon class="cls-1" points="1013.5732 1156.0738 930.4517 1058.1195 853.7837 1145.4211 1013.5732 1156.0738"/><polyline class="cls-1" points="920.3777 1253.7764 970.1711 1363.9136 1053.2508 1266.1112"/><polygon class="cls-1" points="1013.5728 1156.0728 920.3777 1253.7764 1053.2509 1266.1111 1013.5728 1156.0728"/><polygon class="cls-1" points="1100.2535 1362.3355 1053.2517 1266.1108 970.1702 1363.9132 1100.2535 1362.3355"/><polygon class="cls-1" points="1041.6411 1474.2878 970.1702 1363.9124 1100.2535 1362.3348 1041.6411 1474.2878"/><polygon class="cls-1" points="907.4298 1447.0216 852.3635 1343.4744 970.1705 1363.9134 907.4298 1447.0216"/><polygon class="cls-1" points="818.6721 1530.4455 793.9326 1435.9386 907.4294 1447.0218 818.6721 1530.4455"/><polygon class="cls-1" points="715.4031 1543.7493 818.6721 1530.4452 793.9345 1435.9382 715.4031 1543.7493"/><polygon class="cls-1" points="715.4031 1543.7493 793.9345 1435.9382 654.8908 1450.8548 715.4031 1543.7493"/><polygon class="cls-1" points="715.4031 1543.7493 589.4456 1552.1669 654.8908 1450.8548 715.4031 1543.7493"/><polygon class="cls-1" points="715.4031 1543.7493 589.4456 1552.1669 648.0932 1640.2622 715.4031 1543.7493"/><polygon class="cls-1" points="1063.3528 1066.6216 1013.5738 1156.0738 1121.8464 1172.819 1063.3528 1066.6216"/><polygon class="cls-1" points="1168.7346 1284.9363 1121.8468 1172.8196 1053.2504 1266.1109 1168.7346 1284.9363"/><polygon class="cls-1" points="1218.3563 1378.156 1100.2544 1362.3359 1168.735 1284.9367 1218.3563 1378.156"/><polygon class="cls-1" points="956.1719 1540.2488 907.4292 1447.0222 1041.6409 1474.2874 956.1719 1540.2488"/><polygon class="cls-1" points="886.1047 1629.1672 818.6724 1530.4452 956.1725 1540.248 886.1047 1629.1672"/><polygon class="cls-1" points="1085.3915 1563.085 1041.642 1474.2874 956.1712 1540.2488 1085.3915 1563.085"/><polygon class="cls-1" points="956.1726 1540.2495 1003.9299 1654.3222 1085.3911 1563.0857 956.1726 1540.2495"/><polygon class="cls-1" points="762.7845 1616.787 818.6728 1530.4453 886.105 1629.1674 762.7845 1616.787"/><polygon class="cls-1" points="715.4028 1543.7492 762.7853 1616.7864 818.6716 1530.4458 715.4028 1543.7492"/><polygon class="cls-1" points="685.7989 1741.5638 798.6876 1740.1946 762.7853 1616.7864 685.7989 1741.5638"/><polygon class="cls-1" points="685.7989 1741.5638 648.0932 1640.2622 762.7853 1616.7864 685.7989 1741.5638"/><polygon class="cls-1" points="685.7989 1741.5638 648.0932 1640.2622 596.6501 1742.645 685.7989 1741.5638"/><polygon class="cls-1" points="715.4028 1543.7492 648.0932 1640.2622 762.7853 1616.7864 715.4028 1543.7492"/><polygon class="cls-1" points="762.7854 1616.7867 798.6876 1740.1946 886.106 1629.1672 762.7854 1616.7867"/><polygon class="cls-1" points="818.6721 1530.4455 907.4294 1447.0218 956.1721 1540.2484 818.6721 1530.4455"/><polygon class="cls-1" points="654.8906 1450.8545 734.7373 1336.3287 793.9324 1435.9378 654.8906 1450.8545"/><polygon class="cls-1" points="793.933 1435.9382 852.3634 1343.4742 907.4298 1447.0214 793.933 1435.9382"/><polygon class="cls-1" points="852.3631 1343.4734 920.3768 1253.7771 970.1701 1363.9124 852.3631 1343.4734"/><polygon class="cls-1" points="661.9531 1248.5543 791.8968 1233.1646 734.7373 1336.3295 661.9531 1248.5543"/><polygon class="cls-1" points="661.9531 1248.5543 601.2405 1358.8147 734.7373 1336.3295 661.9531 1248.5543"/><polygon class="cls-1" points="654.8906 1450.8545 601.2405 1358.8147 734.7373 1336.3295 654.8906 1450.8545"/><polygon class="cls-1" points="671.7521 1039.721 709.1642 1138.055 782.8032 1047.2649 671.7521 1039.721"/><polygon class="cls-1" points="671.7521 1039.721 747.934 947.3669 782.8032 1047.2649 671.7521 1039.721"/><polygon class="cls-1" points="671.7521 1039.721 747.934 947.3669 636.2309 948.7216 671.7521 1039.721"/><polygon class="cls-1" points="711.2947 840.9765 747.934 947.3669 636.2309 948.7216 711.2947 840.9765"/><polygon class="cls-1" points="711.2947 840.9765 747.934 947.3669 824.1834 839.6074 711.2947 840.9765"/><polygon class="cls-1" points="862.8486 966.7976 930.4515 1058.1199 782.8031 1047.2634 862.8486 966.7976"/><polygon class="cls-1" points="824.1834 839.6074 862.848 966.7972 950.9742 851.0983 824.1834 839.6074"/><polygon class="cls-1" points="824.1834 839.6074 862.848 966.7972 747.934 947.3669 824.1834 839.6074"/><polygon class="cls-1" points="782.8032 1047.2649 862.848 966.7972 747.934 947.3669 782.8032 1047.2649"/><polygon class="cls-1" points="1014.9217 968.0317 930.4517 1058.1204 862.8488 966.7981 1014.9217 968.0317"/><polyline class="cls-1" points="1063.3528 1066.6216 1013.5738 1156.0738 930.4522 1058.1214"/><polygon class="cls-1" points="1014.9222 968.0327 930.452 1058.1215 1063.3527 1066.6215 1014.9222 968.0327"/><polygon class="cls-1" points="950.9735 851.0983 862.8492 966.7971 1014.9202 968.0308 950.9735 851.0983"/><polygon class="cls-1" points="1053.2508 1266.1112 1013.5726 1156.0729 1121.8453 1172.8199 1053.2508 1266.1112"/><polygon class="cls-1" points="1100.2535 1362.3355 1053.2517 1266.1108 1168.7341 1284.9363 1100.2535 1362.3355"/><polygon class="cls-1" points="907.4298 1447.0216 970.1705 1363.9134 1041.6414 1474.2887 907.4298 1447.0216"/><polygon class="cls-1" points="1167.3876 1472.7627 1100.2541 1362.3348 1041.6416 1474.2878 1167.3876 1472.7627"/><polygon class="cls-1" points="1041.6408 1474.288 1085.3921 1563.0857 1167.3868 1472.7629 1041.6408 1474.288"/><polygon class="cls-1" points="1085.3921 1563.0844 1152.8582 1658.1525 1221.5582 1581.3284 1085.3921 1563.0844"/><polygon class="cls-1" points="1085.3911 1563.0848 1003.9304 1654.3232 1152.8594 1658.1522 1085.3911 1563.0848"/><polygon class="cls-1" points="925.4776 1751.6855 1003.9299 1654.3222 886.1056 1629.1676 925.4776 1751.6855"/><polyline class="cls-1" points="886.1056 1629.1676 925.4776 1751.6855 798.6876 1740.1946 886.1056 1629.1676"/><polygon class="cls-1" points="1152.8588 1658.1527 1288.9495 1671.4301 1221.5588 1581.3286 1152.8588 1658.1527"/><polygon class="cls-1" points="1339.0149 1574.0104 1288.9492 1671.4297 1221.5584 1581.3283 1339.0149 1574.0104"/><polygon class="cls-1" points="1339.0149 1574.0104 1288.9492 1671.4297 1389.732 1661.2887 1339.0149 1574.0104"/><polygon class="cls-1" points="1337.5489 1764.4883 1288.9492 1671.4297 1389.732 1661.2887 1337.5489 1764.4883"/><polygon class="cls-1" points="1337.5489 1764.4883 1288.9492 1671.4297 1229.2859 1758.4238 1337.5489 1764.4883"/><polygon class="cls-1" points="1284.3884 1482.8515 1393.6414 1472.7631 1339.0149 1574.0104 1284.3884 1482.8515"/><polygon class="cls-1" points="1218.3563 1378.156 1284.3876 1482.8514 1167.388 1472.7619 1218.3563 1378.156"/><polygon class="cls-1" points="1167.3876 1472.7627 1100.2541 1362.3348 1218.3559 1378.1568 1167.3876 1472.7627"/><polygon class="cls-1" points="1167.3876 1472.7627 1284.3891 1482.8521 1221.5592 1581.3275 1167.3876 1472.7627"/><polygon class="cls-1" points="1152.8588 1658.1527 1229.2859 1758.4238 1288.9495 1671.4301 1152.8588 1658.1527"/><polygon class="cls-1" points="1152.8588 1658.1527 1229.2859 1758.4238 1072.3227 1749.9046 1152.8588 1658.1527"/><polygon class="cls-1" points="1152.8588 1658.1527 1003.9299 1654.3222 1072.3227 1749.9046 1152.8588 1658.1527"/><polygon class="cls-1" points="925.4776 1751.6855 1003.9299 1654.3222 1072.3227 1749.9046 925.4776 1751.6855"/><polygon class="cls-1" points="950.9735 851.0983 1014.9202 968.0308 1079.4061 854.277 950.9735 851.0983"/><polygon class="cls-1" points="1079.4069 854.277 1014.921 968.0307 1125.3717 966.6912 1079.4069 854.277"/><polygon class="cls-1" points="1170.2474 1073.9827 1125.3734 966.6931 1063.3531 1066.6216 1170.2474 1073.9827"/><polygon class="cls-1" points="1063.3528 1066.6216 1014.9223 968.0326 1125.373 966.6931 1063.3528 1066.6216"/><polygon class="cls-1" points="1121.8459 1172.8193 1170.2465 1073.9832 1063.3522 1066.622 1121.8459 1172.8193"/><polygon class="cls-1" points="1233.5372 1165.482 1291.8347 1269.0908 1168.7354 1284.9364 1233.5372 1165.482"/><polygon class="cls-1" points="1170.2471 1073.9841 1233.5381 1165.4822 1287.3934 1063.9043 1170.2471 1073.9841"/><polygon class="cls-1" points="1170.2471 1073.9841 1121.8463 1172.8198 1233.5381 1165.4822 1170.2471 1073.9841"/><polygon class="cls-1" points="1168.7346 1284.9363 1121.8468 1172.8196 1233.5364 1165.4818 1168.7346 1284.9363"/><polygon class="cls-1" points="1079.4069 854.277 1125.3717 966.6912 1218.8458 862.8199 1079.4069 854.277"/><polyline class="cls-1" points="1125.3711 966.6912 1170.2471 1073.9828 1262.0685 958.0916"/><polygon class="cls-1" points="1218.8452 862.8199 1125.3712 966.6912 1262.0685 958.0916 1218.8452 862.8199"/><polygon class="cls-1" points="1287.3937 1063.9045 1262.0684 958.0926 1170.247 1073.9837 1287.3937 1063.9045"/><polygon class="cls-1" points="1218.8452 862.8199 1262.0685 958.0916 1350.2108 854.277 1218.8452 862.8199"/><polygon class="cls-1" points="1262.0666 958.0912 1377.1295 970.5651 1350.2113 854.277 1262.0666 958.0912"/><polygon class="cls-1" points="1452.1935 862.8199 1377.1295 970.5651 1350.2113 854.277 1452.1935 862.8199"/><polygon class="cls-1" points="1262.0682 958.0911 1287.3934 1063.9053 1377.1296 970.565 1262.0682 958.0911"/><polygon class="cls-1" points="1413.0287 1053.5128 1287.3934 1063.9053 1377.1296 970.565 1413.0287 1053.5128"/><polygon class="cls-1" points="1413.0287 1053.5128 1287.3934 1063.9053 1362.7307 1160.9576 1413.0287 1053.5128"/><polygon class="cls-1" points="1362.7307 1160.9576 1233.538 1165.482 1291.8354 1269.0908 1362.7307 1160.9576"/><polygon class="cls-1" points="1362.7307 1160.9576 1406.3968 1269.0915 1291.8354 1269.0908 1362.7307 1160.9576"/><polygon class="cls-1" points="1355.6052 1378.156 1406.3968 1269.0915 1291.8354 1269.0908 1355.6052 1378.156"/><polygon class="cls-1" points="1362.7307 1160.9576 1233.538 1165.482 1287.3934 1063.9053 1362.7307 1160.9576"/><polygon class="cls-1" points="1355.6052 1378.156 1291.8351 1269.0918 1218.357 1378.1562 1355.6052 1378.156"/><polygon class="cls-1" points="1355.6052 1378.156 1284.3884 1482.851 1218.357 1378.1562 1355.6052 1378.156"/><polygon class="cls-1" points="1393.6415 1472.7625 1355.6052 1378.156 1284.3884 1482.851 1393.6415 1472.7625"/><polygon class="cls-1" points="1167.3868 1472.7629 1085.3921 1563.0857 1221.5586 1581.3282 1167.3868 1472.7629"/><polygon class="cls-1" points="956.1726 1540.2495 886.1045 1629.167 1003.9299 1654.3222 956.1726 1540.2495"/><polygon class="cls-1" points="1754.472 1177.9172 1661.2771 1275.6207 1594.6824 1167.2645 1754.472 1177.9172"/><polygon class="cls-1" points="1486.1133 1348.3766 1547.3099 1448.0262 1593.2617 1365.3161 1486.1133 1348.3766"/><polygon class="cls-1" points="1532.796 1255.0073 1593.262 1365.3174 1486.1136 1348.376 1532.796 1255.0073"/><polygon class="cls-1" points="1661.2763 1275.6205 1593.2626 1365.3168 1532.7965 1255.0068 1661.2763 1275.6205"/><polygon class="cls-1" points="1594.6832 1167.265 1661.2759 1275.6213 1532.7961 1255.0076 1594.6832 1167.265"/><polygon class="cls-1" points="1532.7954 1255.0066 1594.6824 1167.2641 1450.063 1159.8999 1532.7954 1255.0066"/><polygon class="cls-1" points="1406.3968 1269.0915 1532.7954 1255.0074 1450.063 1159.8988 1406.3968 1269.0915"/><polygon class="cls-1" points="1406.3968 1269.0915 1362.7307 1160.9576 1450.063 1159.8988 1406.3968 1269.0915"/><polygon class="cls-1" points="1413.0287 1053.5128 1362.7307 1160.9576 1450.063 1159.8988 1413.0287 1053.5128"/><polygon class="cls-1" points="1523.7024 1069.1087 1594.6831 1167.2647 1671.3508 1079.9637 1523.7024 1069.1087"/><polygon class="cls-1" points="1523.7024 1069.1087 1450.0636 1159.8987 1594.6831 1167.2647 1523.7024 1069.1087"/><polygon class="cls-1" points="1754.472 1177.9172 1671.3504 1079.9629 1594.6824 1167.2645 1754.472 1177.9172"/><polyline class="cls-1" points="1661.2765 1275.6198 1711.0698 1385.7569 1794.1496 1287.9546"/><polygon class="cls-1" points="1754.4715 1177.9162 1661.2765 1275.6198 1794.1497 1287.9545 1754.4715 1177.9162"/><polygon class="cls-1" points="1841.1523 1384.1789 1794.1505 1287.9542 1711.0689 1385.7566 1841.1523 1384.1789"/><polygon class="cls-1" points="1782.5398 1496.1311 1711.0689 1385.7558 1841.1523 1384.1782 1782.5398 1496.1311"/><polygon class="cls-1" points="1648.3286 1468.865 1593.2622 1365.3177 1711.0693 1385.7568 1648.3286 1468.865"/><polygon class="cls-1" points="1559.5708 1552.2889 1547.3101 1448.0262 1648.3282 1468.8652 1559.5708 1552.2889"/><polygon class="cls-1" points="1456.3018 1565.5927 1559.5708 1552.2885 1547.312 1448.0258 1456.3018 1565.5927"/><polygon class="cls-1" points="1456.3018 1565.5927 1547.312 1448.0258 1393.6417 1472.7629 1456.3018 1565.5927"/><polygon class="cls-1" points="1456.3018 1565.5927 1339.0149 1574.0104 1393.6417 1472.7629 1456.3018 1565.5927"/><polygon class="cls-1" points="1456.3018 1565.5927 1339.0149 1574.0104 1389.732 1661.2887 1456.3018 1565.5927"/><polygon class="cls-1" points="1804.2515 1088.465 1754.4725 1177.9172 1862.7452 1194.6624 1804.2515 1088.465"/><polygon class="cls-1" points="1909.6334 1306.7796 1862.7456 1194.663 1794.1492 1287.9542 1909.6334 1306.7796"/><polygon class="cls-1" points="1959.2551 1399.9994 1841.1532 1384.1793 1909.6337 1306.78 1959.2551 1399.9994"/><polygon class="cls-1" points="1697.0707 1562.0921 1648.328 1468.8655 1782.5396 1496.1308 1697.0707 1562.0921"/><polygon class="cls-1" points="1627.0034 1651.0106 1559.5712 1552.2886 1697.0712 1562.0914 1627.0034 1651.0106"/><polygon class="cls-1" points="1826.2903 1584.9283 1782.5408 1496.1308 1697.0699 1562.0922 1826.2903 1584.9283"/><polygon class="cls-1" points="1697.0714 1562.0929 1744.8286 1676.1656 1826.2899 1584.9291 1697.0714 1562.0929"/><polygon class="cls-1" points="1503.6833 1638.6304 1559.5716 1552.2887 1627.0038 1651.0108 1503.6833 1638.6304"/><polygon class="cls-1" points="1456.3016 1565.5926 1503.6841 1638.6298 1559.5704 1552.2892 1456.3016 1565.5926"/><polygon class="cls-1" points="1426.6976 1763.4071 1539.5864 1762.038 1503.6841 1638.6298 1426.6976 1763.4071"/><polygon class="cls-1" points="1426.6976 1763.4071 1389.732 1661.2887 1503.6841 1638.6298 1426.6976 1763.4071"/><polygon class="cls-1" points="1426.6976 1763.4071 1389.732 1661.2887 1337.5489 1764.4883 1426.6976 1763.4071"/><polygon class="cls-1" points="1456.3016 1565.5926 1389.732 1661.2887 1503.6841 1638.6298 1456.3016 1565.5926"/><polygon class="cls-1" points="1503.6842 1638.6301 1539.5864 1762.038 1627.0047 1651.0106 1503.6842 1638.6301"/><polygon class="cls-1" points="1559.5708 1552.2889 1648.3282 1468.8652 1697.0708 1562.0918 1559.5708 1552.2889"/><polygon class="cls-1" points="1393.6415 1472.7625 1486.1133 1348.3759 1547.3099 1448.0254 1393.6415 1472.7625"/><polygon class="cls-1" points="1547.3105 1448.0258 1593.2622 1365.3176 1648.3286 1468.8648 1547.3105 1448.0258"/><polygon class="cls-1" points="1593.2619 1365.3168 1661.2756 1275.6205 1711.0689 1385.7558 1593.2619 1365.3168"/><polygon class="cls-1" points="1406.3969 1269.092 1532.7956 1255.008 1486.1133 1348.3766 1406.3969 1269.092"/><polygon class="cls-1" points="1406.3969 1269.092 1355.6052 1378.156 1486.1133 1348.3766 1406.3969 1269.092"/><polygon class="cls-1" points="1393.6415 1472.7625 1355.6052 1378.156 1486.1133 1348.3766 1393.6415 1472.7625"/><polygon class="cls-1" points="1413.0287 1053.5128 1450.063 1159.8984 1523.702 1069.1083 1413.0287 1053.5128"/><polygon class="cls-1" points="1413.0287 1053.5128 1488.8328 969.2102 1523.702 1069.1083 1413.0287 1053.5128"/><polygon class="cls-1" points="1413.0287 1053.5128 1488.8328 969.2102 1377.1296 970.565 1413.0287 1053.5128"/><polygon class="cls-1" points="1452.1935 862.8199 1488.8328 969.2102 1377.1296 970.565 1452.1935 862.8199"/><polygon class="cls-1" points="1452.1935 862.8199 1488.8328 969.2102 1565.0822 861.4508 1452.1935 862.8199"/><polygon class="cls-1" points="1603.7474 988.6409 1671.3502 1079.9633 1523.7018 1069.1068 1603.7474 988.6409"/><polygon class="cls-1" points="1565.0822 861.4508 1603.7468 988.6405 1691.873 872.9416 1565.0822 861.4508"/><polygon class="cls-1" points="1565.0822 861.4508 1603.7468 988.6405 1488.8328 969.2102 1565.0822 861.4508"/><polygon class="cls-1" points="1523.702 1069.1083 1603.7468 988.6405 1488.8328 969.2102 1523.702 1069.1083"/><polygon class="cls-1" points="1755.8205 989.875 1671.3504 1079.9638 1603.7476 988.6415 1755.8205 989.875"/><polyline class="cls-1" points="1804.2515 1088.465 1754.4725 1177.9172 1671.351 1079.9648"/><polygon class="cls-1" points="1755.821 989.8761 1671.3508 1079.9648 1804.2515 1088.4649 1755.821 989.8761"/><polygon class="cls-1" points="1691.8722 872.9417 1603.7479 988.6405 1755.819 989.8741 1691.8722 872.9417"/><polygon class="cls-1" points="1794.1496 1287.9546 1754.4714 1177.9163 1862.7441 1194.6633 1794.1496 1287.9546"/><polygon class="cls-1" points="1841.1523 1384.1789 1794.1505 1287.9542 1909.6328 1306.7797 1841.1523 1384.1789"/><polygon class="cls-1" points="1648.3286 1468.865 1711.0693 1385.7568 1782.5402 1496.1321 1648.3286 1468.865"/><polygon class="cls-1" points="1908.2864 1494.6061 1841.1528 1384.1781 1782.5404 1496.1311 1908.2864 1494.6061"/><polygon class="cls-1" points="1782.5396 1496.1314 1826.2909 1584.9291 1908.2855 1494.6063 1782.5396 1496.1314"/><polygon class="cls-1" points="1826.2908 1584.9278 1893.757 1679.9959 1962.457 1603.1718 1826.2908 1584.9278"/><polygon class="cls-1" points="1826.2899 1584.9281 1744.8291 1676.1666 1893.7581 1679.9956 1826.2899 1584.9281"/><polygon class="cls-1" points="1666.3764 1773.5289 1744.8286 1676.1656 1627.0044 1651.0109 1666.3764 1773.5289"/><polyline class="cls-1" points="1627.0044 1651.0109 1666.3764 1773.5289 1539.5864 1762.038 1627.0044 1651.0109"/><polygon class="cls-1" points="1893.7576 1679.9961 2029.8483 1693.2734 1962.4576 1603.172 1893.7576 1679.9961"/><polygon class="cls-1" points="2071.243 1595.8537 2029.8479 1693.2731 1962.4572 1603.1716 2071.243 1595.8537"/><polygon class="cls-1" points="2071.243 1595.8537 2029.8479 1693.2731 2129.8906 1683.9491 2071.243 1595.8537"/><polygon class="cls-1" points="2078.4475 1786.3318 2029.8479 1693.2731 2129.8906 1683.9491 2078.4475 1786.3318"/><polygon class="cls-1" points="2078.4475 1786.3318 2029.8479 1693.2731 1970.1847 1780.2672 2078.4475 1786.3318"/><polygon class="cls-1" points="2025.2871 1504.6949 2136.688 1494.5419 2071.243 1595.8537 2025.2871 1504.6949"/><polygon class="cls-1" points="1959.2551 1399.9994 2025.2864 1504.6947 1908.2868 1494.6053 1959.2551 1399.9994"/><polygon class="cls-1" points="1908.2864 1494.6061 1841.1528 1384.1781 1959.2547 1400.0001 1908.2864 1494.6061"/><polygon class="cls-1" points="1908.2864 1494.6061 2025.2879 1504.6955 1962.4579 1603.1709 1908.2864 1494.6061"/><polygon class="cls-1" points="1893.7576 1679.9961 1970.1847 1780.2672 2029.8483 1693.2734 1893.7576 1679.9961"/><polygon class="cls-1" points="1893.7576 1679.9961 1970.1847 1780.2672 1813.2214 1771.748 1893.7576 1679.9961"/><polygon class="cls-1" points="1893.7576 1679.9961 1744.8286 1676.1656 1813.2214 1771.748 1893.7576 1679.9961"/><polygon class="cls-1" points="1666.3764 1773.5289 1744.8286 1676.1656 1813.2214 1771.748 1666.3764 1773.5289"/><polygon class="cls-1" points="1691.8722 872.9417 1755.819 989.8741 1819.6037 888.3718 1691.8722 872.9417"/><polygon class="cls-1" points="1819.6045 888.3718 1755.8198 989.8741 1866.2705 988.5346 1819.6045 888.3718"/><polygon class="cls-1" points="1911.1462 1095.8261 1866.2721 988.5364 1804.2519 1088.465 1911.1462 1095.8261"/><polygon class="cls-1" points="1804.2515 1088.465 1755.821 989.876 1866.2717 988.5365 1804.2515 1088.465"/><polygon class="cls-1" points="1862.7446 1194.6627 1911.1453 1095.8265 1804.251 1088.4654 1862.7446 1194.6627"/><polygon class="cls-1" points="1974.436 1187.3253 2032.7334 1290.9342 1909.6341 1306.7798 1974.436 1187.3253"/><polygon class="cls-1" points="1911.1458 1095.8275 1974.4369 1187.3256 2028.2922 1085.7477 1911.1458 1095.8275"/><polygon class="cls-1" points="1911.1458 1095.8275 1862.7451 1194.6632 1974.4369 1187.3256 1911.1458 1095.8275"/><polygon class="cls-1" points="1909.6334 1306.7796 1862.7456 1194.663 1974.4352 1187.3252 1909.6334 1306.7796"/><polygon class="cls-1" points="1819.6045 888.3718 1866.2705 988.5346 1955.7857 876.1204 1819.6045 888.3718"/><polyline class="cls-1" points="1866.2699 988.5346 1911.1458 1095.8261 2002.9663 969.3401"/><polygon class="cls-1" points="1955.7852 876.1204 1866.2699 988.5346 2002.9663 969.3401 1955.7852 876.1204"/><polygon class="cls-1" points="2028.2924 1085.7478 2002.9662 969.3411 1911.1458 1095.8271 2028.2924 1085.7478"/><polygon class="cls-1" points="1955.7852 876.1204 2002.9663 969.3401 2074.3283 876.1204 1955.7852 876.1204"/><polygon class="cls-1" points="2002.9644 969.3397 2118.0283 992.4085 2074.3289 876.1204 2002.9644 969.3397"/><polygon class="cls-1" points="2193.0921 884.6634 2118.0283 992.4085 2074.3289 876.1204 2193.0921 884.6634"/><polygon class="cls-1" points="2002.966 969.3396 2028.2922 1085.7487 2118.0284 992.4084 2002.966 969.3396"/><polygon class="cls-1" points="2153.5495 1083.4079 2028.2922 1085.7487 2118.0284 992.4084 2153.5495 1083.4079"/><polygon class="cls-1" points="2153.5495 1083.4079 2028.2922 1085.7487 2080.7819 1174.4448 2153.5495 1083.4079"/><polygon class="cls-1" points="2080.7819 1174.4448 1974.4367 1187.3254 2032.7342 1290.9342 2080.7819 1174.4448"/><polygon class="cls-1" points="2080.7819 1174.4448 2143.7505 1292.2412 2032.7342 1290.9342 2080.7819 1174.4448"/><polygon class="cls-1" points="2083.0379 1402.5016 2143.7505 1292.2412 2032.7342 1290.9342 2083.0379 1402.5016"/><polygon class="cls-1" points="2080.7819 1174.4448 1974.4367 1187.3254 2028.2922 1085.7487 2080.7819 1174.4448"/><polygon class="cls-1" points="2083.0379 1402.5016 2032.7338 1290.9351 1959.2558 1399.9996 2083.0379 1402.5016"/><polygon class="cls-1" points="2083.0379 1402.5016 2025.2871 1504.6944 1959.2558 1399.9996 2083.0379 1402.5016"/><polygon class="cls-1" points="2136.688 1494.5414 2083.0379 1402.5016 2025.2871 1504.6944 2136.688 1494.5414"/><polygon class="cls-1" points="1908.2855 1494.6063 1826.2909 1584.9291 1962.4574 1603.1716 1908.2855 1494.6063"/><polygon class="cls-1" points="1697.0714 1562.0929 1627.0033 1651.0104 1744.8286 1676.1656 1697.0714 1562.0929"/><polygon class="cls-1" points="2495.3706 1199.7607 2402.1757 1297.4642 2335.5811 1189.108 2495.3706 1199.7607"/><polygon class="cls-1" points="2216.5347 1380.0163 2275.7298 1479.6255 2334.1603 1387.1596 2216.5347 1380.0163"/><polygon class="cls-1" points="2273.6946 1276.8509 2334.1607 1387.1609 2216.5351 1380.0157 2273.6946 1276.8509"/><polygon class="cls-1" points="2402.175 1297.464 2334.1612 1387.1603 2273.6952 1276.8503 2402.175 1297.464"/><polygon class="cls-1" points="2335.5818 1189.1085 2402.1746 1297.4648 2273.6948 1276.8511 2335.5818 1189.1085"/><polygon class="cls-1" points="2273.694 1276.8501 2335.5811 1189.1076 2190.9616 1181.7434 2273.694 1276.8501"/><polygon class="cls-1" points="2143.7503 1292.2406 2273.694 1276.8509 2190.9616 1181.7423 2143.7503 1292.2406"/><polygon class="cls-1" points="2143.7503 1292.2406 2080.7819 1174.4448 2190.9616 1181.7423 2143.7503 1292.2406"/><polygon class="cls-1" points="2153.5495 1083.4079 2080.7819 1174.4448 2190.9616 1181.7423 2153.5495 1083.4079"/><polygon class="cls-1" points="2264.601 1090.9522 2335.5817 1189.1082 2412.2494 1101.8072 2264.601 1090.9522"/><polygon class="cls-1" points="2264.601 1090.9522 2190.9622 1181.7422 2335.5817 1189.1082 2264.601 1090.9522"/><polygon class="cls-1" points="2495.3706 1199.7607 2412.2491 1101.8064 2335.5811 1189.108 2495.3706 1199.7607"/><polyline class="cls-1" points="2402.1751 1297.4633 2451.9685 1407.6005 2535.0482 1309.7981"/><polygon class="cls-1" points="2495.3702 1199.7597 2402.1751 1297.4633 2535.0483 1309.798 2495.3702 1199.7597"/><polygon class="cls-1" points="2582.0509 1406.0224 2535.0491 1309.7977 2451.9676 1407.6001 2582.0509 1406.0224"/><polygon class="cls-1" points="2523.4385 1517.9747 2451.9676 1407.5993 2582.0509 1406.0217 2523.4385 1517.9747"/><polygon class="cls-1" points="2389.2272 1490.7085 2334.1609 1387.1613 2451.9679 1407.6003 2389.2272 1490.7085"/><polygon class="cls-1" points="2300.4695 1574.1324 2275.73 1479.6254 2389.2268 1490.7087 2300.4695 1574.1324"/><polygon class="cls-1" points="2197.2005 1587.4362 2300.4695 1574.132 2275.7319 1479.6251 2197.2005 1587.4362"/><polygon class="cls-1" points="2197.2005 1587.4362 2275.7319 1479.6251 2136.6882 1494.5417 2197.2005 1587.4362"/><polygon class="cls-1" points="2197.2005 1587.4362 2071.243 1595.8537 2136.6882 1494.5417 2197.2005 1587.4362"/><polygon class="cls-1" points="2197.2005 1587.4362 2071.243 1595.8537 2129.8906 1683.9491 2197.2005 1587.4362"/><polygon class="cls-1" points="2545.1502 1110.3085 2495.3712 1199.7607 2603.6438 1216.5059 2545.1502 1110.3085"/><polygon class="cls-1" points="2650.532 1328.6231 2603.6442 1216.5065 2535.0478 1309.7977 2650.532 1328.6231"/><polygon class="cls-1" points="2700.1537 1421.8429 2582.0518 1406.0228 2650.5324 1328.6235 2700.1537 1421.8429"/><polygon class="cls-1" points="2437.9693 1583.9356 2389.2266 1490.7091 2523.4383 1517.9743 2437.9693 1583.9356"/><polygon class="cls-1" points="2367.9021 1672.8541 2300.4698 1574.1321 2437.9699 1583.9349 2367.9021 1672.8541"/><polygon class="cls-1" points="2567.1889 1606.7718 2523.4394 1517.9743 2437.9686 1583.9357 2567.1889 1606.7718"/><polygon class="cls-1" points="2437.97 1583.9364 2485.7273 1698.0091 2567.1885 1606.7726 2437.97 1583.9364"/><polygon class="cls-1" points="2244.5819 1660.4739 2300.4702 1574.1322 2367.9024 1672.8543 2244.5819 1660.4739"/><polygon class="cls-1" points="2197.2002 1587.4361 2244.5827 1660.4733 2300.469 1574.1327 2197.2002 1587.4361"/><polygon class="cls-1" points="2167.5963 1785.2506 2280.485 1783.8815 2244.5827 1660.4733 2167.5963 1785.2506"/><polygon class="cls-1" points="2167.5963 1785.2506 2129.8906 1683.9491 2244.5827 1660.4733 2167.5963 1785.2506"/><polygon class="cls-1" points="2167.5963 1785.2506 2129.8906 1683.9491 2078.4475 1786.3318 2167.5963 1785.2506"/><polygon class="cls-1" points="2197.2002 1587.4361 2129.8906 1683.9491 2244.5827 1660.4733 2197.2002 1587.4361"/><polygon class="cls-1" points="2244.5828 1660.4736 2280.485 1783.8815 2367.9034 1672.8541 2244.5828 1660.4736"/><polygon class="cls-1" points="2300.4695 1574.1324 2389.2268 1490.7087 2437.9695 1583.9353 2300.4695 1574.1324"/><polygon class="cls-1" points="2136.688 1494.5414 2216.5347 1380.0156 2275.7298 1479.6247 2136.688 1494.5414"/><polygon class="cls-1" points="2275.7304 1479.6251 2334.1608 1387.1611 2389.2272 1490.7083 2275.7304 1479.6251"/><polygon class="cls-1" points="2334.1605 1387.1603 2402.1742 1297.464 2451.9675 1407.5993 2334.1605 1387.1603"/><polygon class="cls-1" points="2143.7505 1292.2412 2273.6942 1276.8515 2216.5347 1380.0164 2143.7505 1292.2412"/><polygon class="cls-1" points="2143.7505 1292.2412 2083.0379 1402.5016 2216.5347 1380.0164 2143.7505 1292.2412"/><polygon class="cls-1" points="2136.688 1494.5414 2083.0379 1402.5016 2216.5347 1380.0164 2136.688 1494.5414"/><polygon class="cls-1" points="2153.5495 1083.4079 2190.9616 1181.7419 2264.6006 1090.9518 2153.5495 1083.4079"/><polygon class="cls-1" points="2153.5495 1083.4079 2229.7314 991.0537 2264.6006 1090.9518 2153.5495 1083.4079"/><polygon class="cls-1" points="2153.5495 1083.4079 2229.7314 991.0537 2118.0283 992.4085 2153.5495 1083.4079"/><polygon class="cls-1" points="2193.0921 884.6634 2229.7314 991.0537 2118.0283 992.4085 2193.0921 884.6634"/><polygon class="cls-1" points="2193.0921 884.6634 2229.7314 991.0537 2305.9808 883.2943 2193.0921 884.6634"/><polygon class="cls-1" points="2344.646 1010.4844 2412.2489 1101.8068 2264.6005 1090.9503 2344.646 1010.4844"/><polygon class="cls-1" points="2305.9808 883.2943 2344.6454 1010.484 2432.7716 894.7852 2305.9808 883.2943"/><polygon class="cls-1" points="2305.9808 883.2943 2344.6454 1010.484 2229.7314 991.0537 2305.9808 883.2943"/><polygon class="cls-1" points="2264.6006 1090.9518 2344.6454 1010.484 2229.7314 991.0537 2264.6006 1090.9518"/><polygon class="cls-1" points="2496.7191 1011.7185 2412.2491 1101.8073 2344.6462 1010.485 2496.7191 1011.7185"/><polyline class="cls-1" points="2545.1502 1110.3085 2495.3712 1199.7607 2412.2496 1101.8083"/><polygon class="cls-1" points="2496.7197 1011.7196 2412.2494 1101.8084 2545.1501 1110.3084 2496.7197 1011.7196"/><polygon class="cls-1" points="2432.7709 894.7852 2344.6466 1010.484 2496.7176 1011.7176 2432.7709 894.7852"/><polygon class="cls-1" points="2535.0482 1309.7981 2495.37 1199.7598 2603.6427 1216.5068 2535.0482 1309.7981"/><polygon class="cls-1" points="2582.0509 1406.0224 2535.0491 1309.7977 2650.5315 1328.6232 2582.0509 1406.0224"/><polygon class="cls-1" points="2389.2272 1490.7085 2451.9679 1407.6003 2523.4388 1517.9756 2389.2272 1490.7085"/><polygon class="cls-1" points="2649.185 1516.4496 2582.0515 1406.0217 2523.439 1517.9746 2649.185 1516.4496"/><polygon class="cls-1" points="2523.4382 1517.9749 2567.1895 1606.7726 2649.1842 1516.4498 2523.4382 1517.9749"/><polygon class="cls-1" points="2567.1895 1606.7713 2634.6556 1701.8394 2703.3556 1625.0153 2567.1895 1606.7713"/><polygon class="cls-1" points="2567.1885 1606.7716 2485.7278 1698.0101 2634.6568 1701.8391 2567.1885 1606.7716"/><polygon class="cls-1" points="2407.275 1795.3724 2485.7273 1698.0091 2367.903 1672.8545 2407.275 1795.3724"/><polyline class="cls-1" points="2367.903 1672.8545 2407.275 1795.3724 2280.485 1783.8815 2367.903 1672.8545"/><polygon class="cls-1" points="2634.6562 1701.8396 2770.7469 1715.1169 2703.3562 1625.0155 2634.6562 1701.8396"/><polygon class="cls-1" points="2812.1417 1617.6973 2770.7466 1715.1166 2703.3558 1625.0152 2812.1417 1617.6973"/><polygon class="cls-1" points="2812.1417 1617.6973 2770.7466 1715.1166 2855.8793 1704.9756 2812.1417 1617.6973"/><polygon class="cls-1" points="2802.6465 1801.6521 2770.7466 1715.1166 2855.8793 1704.9756 2802.6465 1801.6521"/><polygon class="cls-1" points="2766.1858 1526.5384 2855.2609 1525.4584 2812.1417 1617.6973 2766.1858 1526.5384"/><polygon class="cls-1" points="2700.1537 1421.8429 2766.185 1526.5383 2649.1854 1516.4488 2700.1537 1421.8429"/><polygon class="cls-1" points="2649.185 1516.4496 2582.0515 1406.0217 2700.1533 1421.8437 2649.185 1516.4496"/><polygon class="cls-1" points="2649.185 1516.4496 2766.1865 1526.539 2703.3566 1625.0144 2649.185 1516.4496"/><polygon class="cls-1" points="2634.6562 1701.8396 2711.0833 1802.1107 2770.7469 1715.1169 2634.6562 1701.8396"/><polygon class="cls-1" points="2634.6562 1701.8396 2711.0833 1802.1107 2554.1201 1793.5915 2634.6562 1701.8396"/><polygon class="cls-1" points="2634.6562 1701.8396 2485.7273 1698.0091 2554.1201 1793.5915 2634.6562 1701.8396"/><polygon class="cls-1" points="2407.275 1795.3724 2485.7273 1698.0091 2554.1201 1793.5915 2407.275 1795.3724"/><polygon class="cls-1" points="2432.7709 894.7852 2496.7176 1011.7176 2567.6203 897.9639 2432.7709 894.7852"/><polygon class="cls-1" points="2567.6211 897.9639 2496.7184 1011.7176 2607.1691 1010.3781 2567.6211 897.9639"/><polygon class="cls-1" points="2652.0448 1117.6696 2607.1708 1010.38 2545.1505 1110.3085 2652.0448 1117.6696"/><polygon class="cls-1" points="2545.1502 1110.3085 2496.7197 1011.7195 2607.1704 1010.38 2545.1502 1110.3085"/><polygon class="cls-1" points="2603.6433 1216.5062 2652.0439 1117.6701 2545.1496 1110.3089 2603.6433 1216.5062"/><polygon class="cls-1" points="2715.3346 1209.1688 2773.6321 1312.7777 2650.5328 1328.6233 2715.3346 1209.1688"/><polygon class="cls-1" points="2652.0445 1117.671 2715.3356 1209.1691 2769.1908 1107.5912 2652.0445 1117.671"/><polygon class="cls-1" points="2652.0445 1117.671 2603.6437 1216.5067 2715.3356 1209.1691 2652.0445 1117.671"/><polygon class="cls-1" points="2650.532 1328.6231 2603.6442 1216.5065 2715.3338 1209.1687 2650.532 1328.6231"/><polygon class="cls-1" points="2567.6211 897.9639 2607.1691 1010.3781 2684.03 889.7836 2567.6211 897.9639"/><polyline class="cls-1" points="2607.1685 1010.3781 2652.0445 1117.6696 2743.8649 991.1836"/><polygon class="cls-1" points="2684.0295 889.7836 2607.1686 1010.3781 2743.8649 991.1836 2684.0295 889.7836"/><polygon class="cls-1" points="2769.1911 1107.5913 2743.8649 991.1846 2652.0444 1117.6706 2769.1911 1107.5913"/><polygon class="cls-1" points="2684.0295 889.7836 2743.8649 991.1836 2815.227 897.9639 2684.0295 889.7836"/><polygon class="cls-1" points="2743.8631 991.1832 2858.9269 1014.252 2815.2275 897.9639 2743.8631 991.1832"/><polygon class="cls-1" points="2743.8646 991.1831 2769.1908 1107.5922 2858.927 1014.2519 2743.8646 991.1831"/><polygon class="cls-1" points="2877.9561 1106.2726 2769.1908 1107.5922 2858.927 1014.2519 2877.9561 1106.2726"/><polygon class="cls-1" points="2877.9561 1106.2726 2769.1908 1107.5922 2821.6805 1196.2883 2877.9561 1106.2726"/><polygon class="cls-1" points="2821.6805 1196.2883 2715.3354 1209.1689 2773.6328 1312.7777 2821.6805 1196.2883"/><polygon class="cls-1" points="2821.6805 1196.2883 2876.3806 1325.884 2773.6328 1312.7777 2821.6805 1196.2883"/><polygon class="cls-1" points="2808.1877 1428.3143 2876.3806 1325.884 2773.6328 1312.7777 2808.1877 1428.3143"/><polygon class="cls-1" points="2821.6805 1196.2883 2715.3354 1209.1689 2769.1908 1107.5922 2821.6805 1196.2883"/><polygon class="cls-1" points="2808.1877 1428.3143 2773.6325 1312.7786 2700.1544 1421.8431 2808.1877 1428.3143"/><polygon class="cls-1" points="2808.1877 1428.3143 2766.1858 1526.5379 2700.1544 1421.8431 2808.1877 1428.3143"/><polygon class="cls-1" points="2855.261 1525.4578 2808.1877 1428.3143 2766.1858 1526.5379 2855.261 1525.4578"/><polygon class="cls-1" points="2649.1842 1516.4498 2567.1895 1606.7726 2703.356 1625.0151 2649.1842 1516.4498"/><polygon class="cls-1" points="2437.97 1583.9364 2367.9019 1672.8539 2485.7273 1698.0091 2437.97 1583.9364"/></svg>