<?xml version="1.0" encoding="UTF-8"?><svg id="Layer_1" xmlns="http://www.w3.org/2000/svg" viewBox="0 0 2794.1556 1705.5319"><defs><style>.cls-1{fill:none;stroke:#000;stroke-linecap:round;stroke-linejoin:round;stroke-width:3px;}</style></defs><polygon class="cls-1" points="281.2131 233.643 188.0182 331.3466 121.4236 222.9903 281.2131 233.643"/><polygon class="cls-1" points="12.8544 404.1024 74.0511 503.7521 120.0028 421.0419 12.8544 404.1024"/><polygon class="cls-1" points="59.5371 310.7332 120.0032 421.0432 12.8548 404.1019 59.5371 310.7332"/><polygon class="cls-1" points="188.0175 331.3464 120.0038 421.0426 59.5377 310.7326 188.0175 331.3464"/><polygon class="cls-1" points="121.4243 222.9909 188.0171 331.3471 59.5373 310.7334 121.4243 222.9909"/><polygon class="cls-1" points="59.5366 310.7325 121.4236 222.99 -23.1958 215.6258 59.5366 310.7325"/><polygon class="cls-1" points="-55.7986 309.14 59.5365 310.7332 -23.1958 215.6246 -55.7986 309.14"/><polygon class="cls-1" points="50.4435 124.8346 121.4242 222.9906 198.092 135.6895 50.4435 124.8346"/><polygon class="cls-1" points="50.4435 124.8346 -23.1952 215.6246 121.4242 222.9906 50.4435 124.8346"/><polygon class="cls-1" points="281.2131 233.643 198.0916 135.6888 121.4236 222.9903 281.2131 233.643"/><polyline class="cls-1" points="188.0177 331.3456 237.811 441.4828 320.8907 343.6804"/><polygon class="cls-1" points="281.2127 233.6421 188.0176 331.3456 320.8908 343.6804 281.2127 233.6421"/><polygon class="cls-1" points="367.8935 439.9047 320.8917 343.6801 237.8101 441.4824 367.8935 439.9047"/><polygon class="cls-1" points="309.281 551.857 237.8101 441.4817 367.8935 439.904 309.281 551.857"/><polygon class="cls-1" points="175.0697 524.5908 120.0034 421.0436 237.8104 441.4826 175.0697 524.5908"/><polygon class="cls-1" points="86.312 608.0148 74.0513 503.752 175.0694 524.591 86.312 608.0148"/><polygon class="cls-1" points="-16.957 621.3186 86.312 608.0144 74.0531 503.7516 -16.957 621.3186"/><polygon class="cls-1" points="-16.957 621.3186 74.0531 503.7516 -51.246 492.1718 -16.957 621.3186"/><polygon class="cls-1" points="330.9927 144.1908 281.2137 233.643 389.4863 250.3882 330.9927 144.1908"/><polygon class="cls-1" points="436.3745 362.5055 389.4867 250.3888 320.8903 343.6801 436.3745 362.5055"/><polygon class="cls-1" points="485.9962 455.7252 367.8944 439.9051 436.3749 362.5059 485.9962 455.7252"/><polygon class="cls-1" points="223.8118 617.818 175.0692 524.5914 309.2808 551.8566 223.8118 617.818"/><polygon class="cls-1" points="153.7446 706.7364 86.3124 608.0144 223.8124 617.8172 153.7446 706.7364"/><polygon class="cls-1" points="353.0314 640.6542 309.2819 551.8566 223.8111 617.818 353.0314 640.6542"/><polygon class="cls-1" points="223.8125 617.8188 271.5698 731.8915 353.031 640.655 223.8125 617.8188"/><polygon class="cls-1" points="30.4244 694.3563 86.3127 608.0146 153.7449 706.7366 30.4244 694.3563"/><polygon class="cls-1" points="-16.9573 621.3185 30.4253 694.3556 86.3116 608.0151 -16.9573 621.3185"/><polygon class="cls-1" points="-46.5612 819.133 66.3275 817.7639 30.4253 694.3556 -46.5612 819.133"/><polygon class="cls-1" points="-46.5612 819.133 -73.6156 703.5063 30.4253 694.3556 -46.5612 819.133"/><polygon class="cls-1" points="-16.9573 621.3185 -73.6156 703.5063 30.4253 694.3556 -16.9573 621.3185"/><polygon class="cls-1" points="30.4254 694.3559 66.3275 817.7639 153.7459 706.7365 30.4254 694.3559"/><polygon class="cls-1" points="86.312 608.0148 175.0694 524.591 223.812 617.8176 86.312 608.0148"/><polygon class="cls-1" points="-51.2461 492.1715 12.8544 404.1017 74.0511 503.7513 -51.2461 492.1715"/><polygon class="cls-1" points="74.0516 503.7516 120.0034 421.0434 175.0697 524.5906 74.0516 503.7516"/><polygon class="cls-1" points="120.003 421.0427 188.0167 331.3464 237.8101 441.4817 120.003 421.0427"/><polygon class="cls-1" points="-55.7984 309.1406 59.5367 310.7338 12.8544 404.1025 -55.7984 309.1406"/><polygon class="cls-1" points="-55.7984 309.1406 -98.8484 405.4564 12.8544 404.1025 -55.7984 309.1406"/><polygon class="cls-1" points="-51.2461 492.1715 -98.8484 405.4564 12.8544 404.1025 -51.2461 492.1715"/><polygon class="cls-1" points="-60.2302 109.2386 -23.1958 215.6242 50.4431 124.8341 -60.2302 109.2386"/><polygon class="cls-1" points="-60.2302 109.2386 15.574 24.9361 50.4431 124.8341 -60.2302 109.2386"/><polygon class="cls-1" points="-60.2302 109.2386 15.574 24.9361 -96.1292 26.2908 -60.2302 109.2386"/><polygon class="cls-1" points="-21.0654 -81.4543 15.574 24.9361 -96.1292 26.2908 -21.0654 -81.4543"/><polygon class="cls-1" points="-21.0654 -81.4543 15.574 24.9361 83.6983 -82.7249 -21.0654 -81.4543"/><polygon class="cls-1" points="130.4885 44.3668 198.0914 135.6891 50.443 124.8326 130.4885 44.3668"/><polygon class="cls-1" points="83.6983 -82.7249 130.488 44.3664 207.3727 -73.1505 83.6983 -82.7249"/><polygon class="cls-1" points="83.6983 -82.7249 130.488 44.3664 15.574 24.9361 83.6983 -82.7249"/><polygon class="cls-1" points="50.4431 124.8341 130.488 44.3664 15.574 24.9361 50.4431 124.8341"/><polygon class="cls-1" points="282.5617 45.6009 198.0916 135.6897 130.4887 44.3674 282.5617 45.6009"/><polyline class="cls-1" points="330.9927 144.1908 281.2137 233.643 198.0922 135.6906"/><polygon class="cls-1" points="282.5622 45.6019 198.0919 135.6907 330.9926 144.1908 282.5622 45.6019"/><polygon class="cls-1" points="207.372 -73.1505 130.4891 44.3664 282.5601 45.6 207.372 -73.1505"/><polygon class="cls-1" points="320.8907 343.6804 281.2126 233.6421 389.4852 250.3892 320.8907 343.6804"/><polygon class="cls-1" points="367.8935 439.9047 320.8917 343.6801 436.374 362.5055 367.8935 439.9047"/><polygon class="cls-1" points="175.0697 524.5908 237.8104 441.4826 309.2813 551.8579 175.0697 524.5908"/><polygon class="cls-1" points="435.0276 550.3319 367.894 439.904 309.2815 551.857 435.0276 550.3319"/><polygon class="cls-1" points="309.2807 551.8572 353.032 640.655 435.0267 550.3322 309.2807 551.8572"/><polygon class="cls-1" points="353.032 640.6536 420.4981 735.7217 489.1981 658.8977 353.032 640.6536"/><polygon class="cls-1" points="353.0311 640.654 271.5703 731.8924 420.4993 735.7214 353.0311 640.654"/><polygon class="cls-1" points="193.1176 829.2548 271.5698 731.8915 153.7455 706.7368 193.1176 829.2548"/><polyline class="cls-1" points="153.7455 706.7368 193.1176 829.2548 66.3275 817.7639 153.7455 706.7368"/><polygon class="cls-1" points="420.4987 735.7219 556.5894 748.9993 489.1987 658.8979 420.4987 735.7219"/><polygon class="cls-1" points="597.9842 651.5796 556.5891 748.9989 489.1984 658.8975 597.9842 651.5796"/><polygon class="cls-1" points="597.9842 651.5796 556.5891 748.9989 656.6317 739.6749 597.9842 651.5796"/><polygon class="cls-1" points="592.1665 849.2768 556.5891 748.9989 656.6317 739.6749 592.1665 849.2768"/><polygon class="cls-1" points="592.1665 849.2768 556.5891 748.9989 470.9643 835.9931 592.1665 849.2768"/><polygon class="cls-1" points="552.0283 560.4208 663.4291 550.2678 597.9842 651.5796 552.0283 560.4208"/><polygon class="cls-1" points="485.9962 455.7252 552.0276 560.4206 435.0279 550.3312 485.9962 455.7252"/><polygon class="cls-1" points="435.0276 550.3319 367.894 439.904 485.9958 455.726 435.0276 550.3319"/><polygon class="cls-1" points="435.0276 550.3319 552.029 560.4213 489.1991 658.8967 435.0276 550.3319"/><polygon class="cls-1" points="420.4987 735.7219 470.9643 835.9931 556.5894 748.9993 420.4987 735.7219"/><polygon class="cls-1" points="420.4987 735.7219 470.9643 835.9931 326.1615 829.2548 420.4987 735.7219"/><polygon class="cls-1" points="420.4987 735.7219 271.5698 731.8915 326.1615 829.2548 420.4987 735.7219"/><polygon class="cls-1" points="193.1176 829.2548 271.5698 731.8915 326.1615 829.2548 193.1176 829.2548"/><polygon class="cls-1" points="207.372 -73.1505 282.5601 45.6 332.4923 -64.8965 207.372 -73.1505"/><polygon class="cls-1" points="332.4931 -64.8965 282.5609 45.6 393.0116 44.2604 332.4931 -64.8965"/><polygon class="cls-1" points="437.8874 151.552 393.0133 44.2623 330.993 144.1909 437.8874 151.552"/><polygon class="cls-1" points="330.9927 144.1908 282.5622 45.6018 393.0129 44.2623 330.9927 144.1908"/><polygon class="cls-1" points="389.4858 250.3886 437.8864 151.5524 330.9921 144.1912 389.4858 250.3886"/><polygon class="cls-1" points="501.1772 243.0512 559.4746 346.66 436.3753 362.5057 501.1772 243.0512"/><polygon class="cls-1" points="437.887 151.5533 501.1781 243.0514 555.0334 141.4736 437.887 151.5533"/><polygon class="cls-1" points="437.887 151.5533 389.4862 250.389 501.1781 243.0514 437.887 151.5533"/><polygon class="cls-1" points="436.3745 362.5055 389.4867 250.3888 501.1764 243.051 436.3745 362.5055"/><polygon class="cls-1" points="332.4931 -64.8965 393.0116 44.2604 469.8725 -76.3341 332.4931 -64.8965"/><polyline class="cls-1" points="393.0111 44.2604 437.887 151.552 529.7075 25.066"/><polygon class="cls-1" points="469.872 -76.3341 393.0111 44.2604 529.7075 25.0659 469.872 -76.3341"/><polygon class="cls-1" points="555.0336 141.4737 529.7074 25.067 437.887 151.553 555.0336 141.4737"/><polygon class="cls-1" points="469.872 -76.3341 529.7075 25.066 601.0695 -68.1538 469.872 -76.3341"/><polygon class="cls-1" points="529.7056 25.0655 644.7694 48.1343 601.0701 -68.1538 529.7056 25.0655"/><polygon class="cls-1" points="719.8333 -59.6108 644.7694 48.1343 601.0701 -68.1538 719.8333 -59.6108"/><polygon class="cls-1" points="529.7072 25.0655 555.0334 141.4745 644.7696 48.1342 529.7072 25.0655"/><polygon class="cls-1" points="680.2907 139.1338 555.0334 141.4745 644.7696 48.1342 680.2907 139.1338"/><polygon class="cls-1" points="680.2907 139.1338 555.0334 141.4745 607.523 230.1706 680.2907 139.1338"/><polygon class="cls-1" points="607.523 230.1706 501.1779 243.0512 559.4753 346.6601 607.523 230.1706"/><polygon class="cls-1" points="607.523 230.1706 670.4916 347.967 559.4753 346.6601 607.523 230.1706"/><polygon class="cls-1" points="609.7791 458.2275 670.4916 347.967 559.4753 346.6601 609.7791 458.2275"/><polygon class="cls-1" points="607.523 230.1706 501.1779 243.0512 555.0334 141.4745 607.523 230.1706"/><polygon class="cls-1" points="609.7791 458.2275 559.475 346.661 485.997 455.7254 609.7791 458.2275"/><polygon class="cls-1" points="609.7791 458.2275 552.0283 560.4202 485.997 455.7254 609.7791 458.2275"/><polygon class="cls-1" points="663.4292 550.2672 609.7791 458.2275 552.0283 560.4202 663.4292 550.2672"/><polygon class="cls-1" points="435.0267 550.3322 353.032 640.655 489.1985 658.8975 435.0267 550.3322"/><polygon class="cls-1" points="223.8125 617.8188 153.7444 706.7362 271.5698 731.8915 223.8125 617.8188"/><polygon class="cls-1" points="1022.1118 255.4865 928.9169 353.1901 862.3222 244.8338 1022.1118 255.4865"/><polygon class="cls-1" points="743.2759 435.7422 802.4709 535.3513 860.9015 442.8854 743.2759 435.7422"/><polygon class="cls-1" points="800.4358 332.5767 860.9018 442.8867 743.2763 435.7416 800.4358 332.5767"/><polygon class="cls-1" points="928.9161 353.1899 860.9024 442.8861 800.4363 332.5761 928.9161 353.1899"/><polygon class="cls-1" points="862.323 244.8344 928.9157 353.1907 800.4359 332.5769 862.323 244.8344"/><polygon class="cls-1" points="800.4352 332.576 862.3222 244.8335 717.7028 237.4693 800.4352 332.576"/><polygon class="cls-1" points="670.4915 347.9664 800.4352 332.5767 717.7028 237.4681 670.4915 347.9664"/><polygon class="cls-1" points="670.4915 347.9664 607.523 230.1706 717.7028 237.4681 670.4915 347.9664"/><polygon class="cls-1" points="680.2907 139.1338 607.523 230.1706 717.7028 237.4681 680.2907 139.1338"/><polygon class="cls-1" points="791.3422 146.6781 862.3229 244.8341 938.9906 157.533 791.3422 146.6781"/><polygon class="cls-1" points="791.3422 146.6781 717.7034 237.4681 862.3229 244.8341 791.3422 146.6781"/><polygon class="cls-1" points="1022.1118 255.4865 938.9902 157.5323 862.3222 244.8338 1022.1118 255.4865"/><polyline class="cls-1" points="928.9163 353.1891 978.7096 463.3263 1061.7894 365.524"/><polygon class="cls-1" points="1022.1113 255.4856 928.9163 353.1891 1061.7895 365.5239 1022.1113 255.4856"/><polygon class="cls-1" points="1108.7921 461.7483 1061.7903 365.5236 978.7087 463.3259 1108.7921 461.7483"/><polygon class="cls-1" points="1050.1796 573.7005 978.7087 463.3252 1108.7921 461.7475 1050.1796 573.7005"/><polygon class="cls-1" points="915.9684 546.4343 860.902 442.8871 978.7091 463.3261 915.9684 546.4343"/><polygon class="cls-1" points="827.2106 629.8583 802.4711 535.3513 915.968 546.4345 827.2106 629.8583"/><polygon class="cls-1" points="723.9416 643.1621 827.2106 629.8579 802.473 535.3509 723.9416 643.1621"/><polygon class="cls-1" points="723.9416 643.1621 802.473 535.3509 663.4294 550.2676 723.9416 643.1621"/><polygon class="cls-1" points="723.9416 643.1621 597.9842 651.5796 663.4294 550.2676 723.9416 643.1621"/><polygon class="cls-1" points="723.9416 643.1621 597.9842 651.5796 656.6317 739.6749 723.9416 643.1621"/><polygon class="cls-1" points="1071.8913 166.0343 1022.1123 255.4865 1130.385 272.2317 1071.8913 166.0343"/><polygon class="cls-1" points="1177.2732 384.349 1130.3854 272.2323 1061.789 365.5236 1177.2732 384.349"/><polygon class="cls-1" points="1226.8949 477.5687 1108.793 461.7486 1177.2735 384.3494 1226.8949 477.5687"/><polygon class="cls-1" points="964.7105 639.6615 915.9678 546.4349 1050.1794 573.7001 964.7105 639.6615"/><polygon class="cls-1" points="894.6432 728.5799 827.211 629.8579 964.711 639.6607 894.6432 728.5799"/><polygon class="cls-1" points="1093.9301 662.4977 1050.1806 573.7001 964.7097 639.6615 1093.9301 662.4977"/><polygon class="cls-1" points="964.7112 639.6623 1012.4684 753.735 1093.9297 662.4985 964.7112 639.6623"/><polygon class="cls-1" points="771.3231 716.1998 827.2114 629.8581 894.6436 728.5801 771.3231 716.1998"/><polygon class="cls-1" points="723.9414 643.162 771.3239 716.1991 827.2102 629.8586 723.9414 643.162"/><polygon class="cls-1" points="694.3374 840.9765 807.2262 839.6074 771.3239 716.1991 694.3374 840.9765"/><polygon class="cls-1" points="694.3374 840.9765 656.6317 739.6749 771.3239 716.1991 694.3374 840.9765"/><polygon class="cls-1" points="694.3374 840.9765 656.6317 739.6749 592.1665 849.2768 694.3374 840.9765"/><polygon class="cls-1" points="723.9414 643.162 656.6317 739.6749 771.3239 716.1991 723.9414 643.162"/><polygon class="cls-1" points="771.324 716.1994 807.2262 839.6074 894.6445 728.58 771.324 716.1994"/><polygon class="cls-1" points="827.2106 629.8583 915.968 546.4345 964.7107 639.6611 827.2106 629.8583"/><polygon class="cls-1" points="663.4292 550.2672 743.2759 435.7414 802.4709 535.3505 663.4292 550.2672"/><polygon class="cls-1" points="802.4715 535.3509 860.902 442.8869 915.9684 546.4341 802.4715 535.3509"/><polygon class="cls-1" points="860.9017 442.8862 928.9154 353.1899 978.7087 463.3252 860.9017 442.8862"/><polygon class="cls-1" points="670.4916 347.967 800.4354 332.5773 743.2759 435.7422 670.4916 347.967"/><polygon class="cls-1" points="670.4916 347.967 609.7791 458.2275 743.2759 435.7422 670.4916 347.967"/><polygon class="cls-1" points="663.4292 550.2672 609.7791 458.2275 743.2759 435.7422 663.4292 550.2672"/><polygon class="cls-1" points="680.2907 139.1338 717.7028 237.4677 791.3418 146.6776 680.2907 139.1338"/><polygon class="cls-1" points="680.2907 139.1338 756.4726 46.7796 791.3418 146.6776 680.2907 139.1338"/><polygon class="cls-1" points="680.2907 139.1338 756.4726 46.7796 644.7694 48.1343 680.2907 139.1338"/><polygon class="cls-1" points="719.8333 -59.6108 756.4726 46.7796 644.7694 48.1343 719.8333 -59.6108"/><polygon class="cls-1" points="719.8333 -59.6108 756.4726 46.7796 824.5969 -60.8814 719.8333 -59.6108"/><polygon class="cls-1" points="871.3872 66.2103 938.99 157.5326 791.3416 146.6761 871.3872 66.2103"/><polygon class="cls-1" points="824.5969 -60.8814 871.3866 66.2099 948.2714 -51.307 824.5969 -60.8814"/><polygon class="cls-1" points="824.5969 -60.8814 871.3866 66.2099 756.4726 46.7796 824.5969 -60.8814"/><polygon class="cls-1" points="791.3418 146.6776 871.3866 66.2099 756.4726 46.7796 791.3418 146.6776"/><polygon class="cls-1" points="1023.4603 67.4444 938.9902 157.5332 871.3874 66.2109 1023.4603 67.4444"/><polyline class="cls-1" points="1071.8913 166.0343 1022.1123 255.4865 938.9908 157.5341"/><polygon class="cls-1" points="1023.4608 67.4454 938.9906 157.5342 1071.8913 166.0343 1023.4608 67.4454"/><polygon class="cls-1" points="948.2706 -51.3069 871.3877 66.2099 1023.4588 67.4435 948.2706 -51.3069"/><polygon class="cls-1" points="1061.7894 365.524 1022.1112 255.4856 1130.3839 272.2327 1061.7894 365.524"/><polygon class="cls-1" points="1108.7921 461.7483 1061.7903 365.5236 1177.2726 384.349 1108.7921 461.7483"/><polygon class="cls-1" points="915.9684 546.4343 978.7091 463.3261 1050.18 573.7014 915.9684 546.4343"/><polygon class="cls-1" points="1175.9262 572.1754 1108.7926 461.7475 1050.1802 573.7005 1175.9262 572.1754"/><polygon class="cls-1" points="1050.1794 573.7007 1093.9307 662.4985 1175.9253 572.1757 1050.1794 573.7007"/><polygon class="cls-1" points="1093.9306 662.4971 1161.3968 757.5653 1230.0968 680.7412 1093.9306 662.4971"/><polygon class="cls-1" points="1093.9297 662.4975 1012.4689 753.7359 1161.3979 757.5649 1093.9297 662.4975"/><polygon class="cls-1" points="934.0162 851.0983 1012.4684 753.735 894.6442 728.5803 934.0162 851.0983"/><polyline class="cls-1" points="894.6442 728.5803 934.0162 851.0983 807.2262 839.6074 894.6442 728.5803"/><polygon class="cls-1" points="1161.3974 757.5654 1297.4881 770.8428 1230.0974 680.7414 1161.3974 757.5654"/><polygon class="cls-1" points="1347.5535 673.4231 1297.4877 770.8424 1230.097 680.741 1347.5535 673.4231"/><polygon class="cls-1" points="1347.5535 673.4231 1297.4877 770.8424 1398.2706 760.7014 1347.5535 673.4231"/><polygon class="cls-1" points="1333.2535 854.277 1297.4877 770.8424 1398.2706 760.7014 1333.2535 854.277"/><polygon class="cls-1" points="1333.2535 854.277 1297.4877 770.8424 1201.8885 862.8199 1333.2535 854.277"/><polygon class="cls-1" points="1292.9269 582.2643 1402.18 572.1758 1347.5535 673.4231 1292.9269 582.2643"/><polygon class="cls-1" points="1226.8949 477.5687 1292.9262 582.2641 1175.9266 572.1747 1226.8949 477.5687"/><polygon class="cls-1" points="1175.9262 572.1754 1108.7926 461.7475 1226.8945 477.5695 1175.9262 572.1754"/><polygon class="cls-1" points="1175.9262 572.1754 1292.9277 582.2648 1230.0977 680.7402 1175.9262 572.1754"/><polygon class="cls-1" points="1161.3974 757.5654 1201.8885 862.8199 1297.4881 770.8428 1161.3974 757.5654"/><polygon class="cls-1" points="1161.3974 757.5654 1201.8885 862.8199 1062.4496 854.277 1161.3974 757.5654"/><polygon class="cls-1" points="1161.3974 757.5654 1012.4684 753.735 1062.4496 854.277 1161.3974 757.5654"/><polygon class="cls-1" points="934.0162 851.0983 1012.4684 753.735 1062.4496 854.277 934.0162 851.0983"/><polygon class="cls-1" points="948.2706 -51.3069 1023.4588 67.4435 1073.391 -43.0529 948.2706 -51.3069"/><polygon class="cls-1" points="1073.3917 -43.053 1023.4596 67.4435 1133.9103 66.1039 1073.3917 -43.053"/><polygon class="cls-1" points="1178.786 173.3955 1133.9119 66.1058 1071.8917 166.0344 1178.786 173.3955"/><polygon class="cls-1" points="1071.8913 166.0343 1023.4608 67.4454 1133.9115 66.1058 1071.8913 166.0343"/><polygon class="cls-1" points="1130.3844 272.2321 1178.7851 173.3959 1071.8908 166.0347 1130.3844 272.2321"/><polygon class="cls-1" points="1242.0758 264.8947 1300.3732 368.5036 1177.2739 384.3492 1242.0758 264.8947"/><polygon class="cls-1" points="1178.7856 173.3968 1242.0767 264.8949 1295.932 163.3171 1178.7856 173.3968"/><polygon class="cls-1" points="1178.7856 173.3968 1130.3849 272.2325 1242.0767 264.8949 1178.7856 173.3968"/><polygon class="cls-1" points="1177.2732 384.349 1130.3854 272.2323 1242.075 264.8945 1177.2732 384.349"/><polygon class="cls-1" points="1073.3917 -43.053 1133.9103 66.1039 1210.7712 -54.4906 1073.3917 -43.053"/><polyline class="cls-1" points="1133.9097 66.1039 1178.7856 173.3955 1270.6061 46.9095"/><polygon class="cls-1" points="1210.7706 -54.4906 1133.9097 66.1039 1270.6061 46.9094 1210.7706 -54.4906"/><polygon class="cls-1" points="1295.9322 163.3172 1270.606 46.9105 1178.7856 173.3965 1295.9322 163.3172"/><polygon class="cls-1" points="1210.7706 -54.4906 1270.6061 46.9095 1341.9681 -46.3103 1210.7706 -54.4906"/><polygon class="cls-1" points="1270.6042 46.909 1385.6681 69.9778 1341.9687 -46.3103 1270.6042 46.909"/><polygon class="cls-1" points="1460.732 -37.7674 1385.6681 69.9778 1341.9687 -46.3103 1460.732 -37.7674"/><polygon class="cls-1" points="1270.6058 46.909 1295.932 163.318 1385.6682 69.9777 1270.6058 46.909"/><polygon class="cls-1" points="1421.5672 152.9255 1295.932 163.318 1385.6682 69.9777 1421.5672 152.9255"/><polygon class="cls-1" points="1421.5672 152.9255 1295.932 163.318 1371.2693 260.3703 1421.5672 152.9255"/><polygon class="cls-1" points="1371.2693 260.3703 1242.0765 264.8947 1300.374 368.5036 1371.2693 260.3703"/><polygon class="cls-1" points="1371.2693 260.3703 1414.9353 368.5042 1300.374 368.5036 1371.2693 260.3703"/><polygon class="cls-1" points="1364.1438 477.5687 1414.9353 368.5042 1300.374 368.5036 1364.1438 477.5687"/><polygon class="cls-1" points="1371.2693 260.3703 1242.0765 264.8947 1295.932 163.318 1371.2693 260.3703"/><polygon class="cls-1" points="1364.1438 477.5687 1300.3736 368.5045 1226.8956 477.5689 1364.1438 477.5687"/><polygon class="cls-1" points="1364.1438 477.5687 1292.9269 582.2637 1226.8956 477.5689 1364.1438 477.5687"/><polygon class="cls-1" points="1402.1801 572.1753 1364.1438 477.5687 1292.9269 582.2637 1402.1801 572.1753"/><polygon class="cls-1" points="1175.9253 572.1757 1093.9307 662.4985 1230.0972 680.741 1175.9253 572.1757"/><polygon class="cls-1" points="964.7112 639.6623 894.6431 728.5797 1012.4684 753.735 964.7112 639.6623"/><polygon class="cls-1" points="1763.0105 277.3299 1669.8156 375.0334 1603.221 266.6772 1763.0105 277.3299"/><polygon class="cls-1" points="1494.6518 447.7893 1555.8485 547.4389 1601.8002 464.7288 1494.6518 447.7893"/><polygon class="cls-1" points="1541.3345 354.4201 1601.8006 464.7301 1494.6522 447.7888 1541.3345 354.4201"/><polygon class="cls-1" points="1669.8149 375.0333 1601.8012 464.7295 1541.3351 354.4195 1669.8149 375.0333"/><polygon class="cls-1" points="1603.2217 266.6778 1669.8145 375.034 1541.3347 354.4203 1603.2217 266.6778"/><polygon class="cls-1" points="1541.334 354.4193 1603.221 266.6769 1458.6016 259.3127 1541.334 354.4193"/><polygon class="cls-1" points="1414.9353 368.5042 1541.334 354.4201 1458.6016 259.3115 1414.9353 368.5042"/><polygon class="cls-1" points="1414.9353 368.5042 1371.2693 260.3703 1458.6016 259.3115 1414.9353 368.5042"/><polygon class="cls-1" points="1421.5672 152.9255 1371.2693 260.3703 1458.6016 259.3115 1421.5672 152.9255"/><polygon class="cls-1" points="1532.241 168.5215 1603.2216 266.6774 1679.8894 179.3764 1532.241 168.5215"/><polygon class="cls-1" points="1532.241 168.5215 1458.6022 259.3115 1603.2216 266.6774 1532.241 168.5215"/><polygon class="cls-1" points="1763.0105 277.3299 1679.889 179.3756 1603.221 266.6772 1763.0105 277.3299"/><polyline class="cls-1" points="1669.8151 375.0325 1719.6084 485.1697 1802.6881 387.3673"/><polygon class="cls-1" points="1763.0101 277.329 1669.815 375.0325 1802.6882 387.3673 1763.0101 277.329"/><polygon class="cls-1" points="1849.6909 483.5916 1802.6891 387.367 1719.6075 485.1693 1849.6909 483.5916"/><polygon class="cls-1" points="1791.0784 595.5439 1719.6075 485.1686 1849.6909 483.5909 1791.0784 595.5439"/><polygon class="cls-1" points="1656.8671 568.2777 1601.8008 464.7305 1719.6078 485.1695 1656.8671 568.2777"/><polygon class="cls-1" points="1568.1094 651.7016 1555.8487 547.4389 1656.8668 568.2779 1568.1094 651.7016"/><polygon class="cls-1" points="1464.8404 665.0055 1568.1094 651.7013 1555.8505 547.4385 1464.8404 665.0055"/><polygon class="cls-1" points="1464.8404 665.0055 1555.8505 547.4385 1402.1802 572.1756 1464.8404 665.0055"/><polygon class="cls-1" points="1464.8404 665.0055 1347.5535 673.4231 1402.1802 572.1756 1464.8404 665.0055"/><polygon class="cls-1" points="1464.8404 665.0055 1347.5535 673.4231 1398.2706 760.7014 1464.8404 665.0055"/><polygon class="cls-1" points="1812.7901 187.8777 1763.0111 277.3299 1871.2838 294.0751 1812.7901 187.8777"/><polygon class="cls-1" points="1918.1719 406.1924 1871.2841 294.0757 1802.6877 387.367 1918.1719 406.1924"/><polygon class="cls-1" points="1967.7936 499.4121 1849.6918 483.592 1918.1723 406.1928 1967.7936 499.4121"/><polygon class="cls-1" points="1705.6092 661.5049 1656.8666 568.2783 1791.0782 595.5435 1705.6092 661.5049"/><polygon class="cls-1" points="1635.542 750.4233 1568.1098 651.7013 1705.6098 661.5041 1635.542 750.4233"/><polygon class="cls-1" points="1834.8288 684.3411 1791.0793 595.5435 1705.6085 661.5049 1834.8288 684.3411"/><polygon class="cls-1" points="1705.6099 661.5056 1753.3672 775.5784 1834.8284 684.3419 1705.6099 661.5056"/><polygon class="cls-1" points="1512.2218 738.0432 1568.1101 651.7015 1635.5423 750.4235 1512.2218 738.0432"/><polygon class="cls-1" points="1464.8401 665.0054 1512.2227 738.0425 1568.109 651.702 1464.8401 665.0054"/><polygon class="cls-1" points="1435.2362 862.8199 1548.1249 861.4508 1512.2227 738.0425 1435.2362 862.8199"/><polygon class="cls-1" points="1435.2362 862.8199 1398.2706 760.7014 1512.2227 738.0425 1435.2362 862.8199"/><polygon class="cls-1" points="1435.2362 862.8199 1398.2706 760.7014 1333.2535 854.277 1435.2362 862.8199"/><polygon class="cls-1" points="1464.8401 665.0054 1398.2706 760.7014 1512.2227 738.0425 1464.8401 665.0054"/><polygon class="cls-1" points="1512.2228 738.0428 1548.1249 861.4508 1635.5433 750.4233 1512.2228 738.0428"/><polygon class="cls-1" points="1568.1094 651.7016 1656.8668 568.2779 1705.6094 661.5045 1568.1094 651.7016"/><polygon class="cls-1" points="1402.1801 572.1753 1494.6518 447.7886 1555.8485 547.4382 1402.1801 572.1753"/><polygon class="cls-1" points="1555.849 547.4385 1601.8008 464.7303 1656.8671 568.2775 1555.849 547.4385"/><polygon class="cls-1" points="1601.8004 464.7295 1669.8141 375.0333 1719.6075 485.1686 1601.8004 464.7295"/><polygon class="cls-1" points="1414.9355 368.5048 1541.3341 354.4207 1494.6518 447.7894 1414.9355 368.5048"/><polygon class="cls-1" points="1414.9355 368.5048 1364.1438 477.5687 1494.6518 447.7894 1414.9355 368.5048"/><polygon class="cls-1" points="1402.1801 572.1753 1364.1438 477.5687 1494.6518 447.7894 1402.1801 572.1753"/><polygon class="cls-1" points="1421.5672 152.9255 1458.6016 259.3111 1532.2405 168.521 1421.5672 152.9255"/><polygon class="cls-1" points="1421.5672 152.9255 1497.3714 68.623 1532.2405 168.521 1421.5672 152.9255"/><polygon class="cls-1" points="1421.5672 152.9255 1497.3714 68.623 1385.6682 69.9777 1421.5672 152.9255"/><polygon class="cls-1" points="1460.732 -37.7674 1497.3714 68.623 1385.6682 69.9777 1460.732 -37.7674"/><polygon class="cls-1" points="1460.732 -37.7674 1497.3714 68.623 1565.4957 -39.038 1460.732 -37.7674"/><polygon class="cls-1" points="1612.2859 88.0537 1679.8888 179.376 1532.2404 168.5195 1612.2859 88.0537"/><polygon class="cls-1" points="1565.4957 -39.038 1612.2854 88.0533 1689.1702 -29.4636 1565.4957 -39.038"/><polygon class="cls-1" points="1565.4957 -39.038 1612.2854 88.0533 1497.3714 68.623 1565.4957 -39.038"/><polygon class="cls-1" points="1532.2405 168.521 1612.2854 88.0533 1497.3714 68.623 1532.2405 168.521"/><polygon class="cls-1" points="1764.3591 89.2878 1679.889 179.3766 1612.2861 88.0542 1764.3591 89.2878"/><polyline class="cls-1" points="1812.7901 187.8777 1763.0111 277.3299 1679.8896 179.3775"/><polygon class="cls-1" points="1764.3596 89.2888 1679.8893 179.3776 1812.79 187.8777 1764.3596 89.2888"/><polygon class="cls-1" points="1689.1694 -29.4636 1612.2865 88.0533 1764.3575 89.2869 1689.1694 -29.4636"/><polygon class="cls-1" points="1802.6881 387.3673 1763.01 277.329 1871.2826 294.076 1802.6881 387.3673"/><polygon class="cls-1" points="1849.6909 483.5916 1802.6891 387.367 1918.1714 406.1924 1849.6909 483.5916"/><polygon class="cls-1" points="1656.8671 568.2777 1719.6078 485.1695 1791.0787 595.5448 1656.8671 568.2777"/><polygon class="cls-1" points="1916.825 594.0188 1849.6914 483.5909 1791.0789 595.5439 1916.825 594.0188"/><polygon class="cls-1" points="1791.0781 595.5441 1834.8294 684.3418 1916.8241 594.019 1791.0781 595.5441"/><polygon class="cls-1" points="1834.8294 684.3405 1902.2955 779.4086 1970.9955 702.5846 1834.8294 684.3405"/><polygon class="cls-1" points="1834.8285 684.3409 1753.3677 775.5793 1902.2967 779.4083 1834.8285 684.3409"/><polygon class="cls-1" points="1674.915 872.9417 1753.3672 775.5784 1635.5429 750.4237 1674.915 872.9417"/><polyline class="cls-1" points="1635.5429 750.4237 1674.915 872.9417 1548.1249 861.4508 1635.5429 750.4237"/><polygon class="cls-1" points="1902.2961 779.4088 2038.3868 792.6862 1970.9961 702.5847 1902.2961 779.4088"/><polygon class="cls-1" points="2079.7816 695.2665 2038.3865 792.6858 1970.9958 702.5844 2079.7816 695.2665"/><polygon class="cls-1" points="2079.7816 695.2665 2038.3865 792.6858 2138.4291 783.3618 2079.7816 695.2665"/><polygon class="cls-1" points="2057.3716 876.1204 2038.3865 792.6858 2138.4291 783.3618 2057.3716 876.1204"/><polygon class="cls-1" points="2057.3716 876.1204 2038.3865 792.6858 1938.8285 876.1204 2057.3716 876.1204"/><polygon class="cls-1" points="2033.8257 604.1076 2145.2266 593.9547 2079.7816 695.2665 2033.8257 604.1076"/><polygon class="cls-1" points="1967.7936 499.4121 2033.825 604.1075 1916.8253 594.0181 1967.7936 499.4121"/><polygon class="cls-1" points="1916.825 594.0188 1849.6914 483.5909 1967.7932 499.4129 1916.825 594.0188"/><polygon class="cls-1" points="1916.825 594.0188 2033.8264 604.1082 1970.9965 702.5836 1916.825 594.0188"/><polygon class="cls-1" points="1902.2961 779.4088 1938.8285 876.1204 2038.3868 792.6862 1902.2961 779.4088"/><polygon class="cls-1" points="1902.2961 779.4088 1938.8285 876.1204 1802.6464 888.3718 1902.2961 779.4088"/><polygon class="cls-1" points="1902.2961 779.4088 1753.3672 775.5784 1802.6464 888.3718 1902.2961 779.4088"/><polygon class="cls-1" points="1674.915 872.9417 1753.3672 775.5784 1802.6464 888.3718 1674.915 872.9417"/><polygon class="cls-1" points="1689.1694 -29.4636 1764.3575 89.2869 1814.2897 -21.2096 1689.1694 -29.4636"/><polygon class="cls-1" points="1814.2905 -21.2096 1764.3583 89.2869 1874.809 87.9473 1814.2905 -21.2096"/><polygon class="cls-1" points="1919.6848 195.2389 1874.8107 87.9492 1812.7904 187.8778 1919.6848 195.2389"/><polygon class="cls-1" points="1812.7901 187.8777 1764.3596 89.2887 1874.8103 87.9492 1812.7901 187.8777"/><polygon class="cls-1" points="1871.2832 294.0755 1919.6838 195.2393 1812.7895 187.8781 1871.2832 294.0755"/><polygon class="cls-1" points="1982.9746 286.7381 2041.272 390.3469 1918.1727 406.1926 1982.9746 286.7381"/><polygon class="cls-1" points="1919.6844 195.2402 1982.9755 286.7383 2036.8308 185.1604 1919.6844 195.2402"/><polygon class="cls-1" points="1919.6844 195.2402 1871.2836 294.0759 1982.9755 286.7383 1919.6844 195.2402"/><polygon class="cls-1" points="1918.1719 406.1924 1871.2841 294.0757 1982.9738 286.7379 1918.1719 406.1924"/><polygon class="cls-1" points="1814.2905 -21.2096 1874.809 87.9473 1951.6699 -32.6472 1814.2905 -21.2096"/><polyline class="cls-1" points="1874.8085 87.9473 1919.6844 195.2389 2011.5049 68.7529"/><polygon class="cls-1" points="1951.6694 -32.6472 1874.8085 87.9473 2011.5049 68.7528 1951.6694 -32.6472"/><polygon class="cls-1" points="2036.831 185.1606 2011.5048 68.7538 1919.6844 195.2398 2036.831 185.1606"/><polygon class="cls-1" points="1951.6694 -32.6472 2011.5049 68.7529 2082.8669 -24.4669 1951.6694 -32.6472"/><polygon class="cls-1" points="2011.503 68.7524 2126.5668 91.8212 2082.8675 -24.4669 2011.503 68.7524"/><polygon class="cls-1" points="2201.6307 -15.9239 2126.5668 91.8212 2082.8675 -24.4669 2201.6307 -15.9239"/><polygon class="cls-1" points="2011.5046 68.7524 2036.8308 185.1614 2126.567 91.8211 2011.5046 68.7524"/><polygon class="cls-1" points="2162.0881 182.8206 2036.8308 185.1614 2126.567 91.8211 2162.0881 182.8206"/><polygon class="cls-1" points="2162.0881 182.8206 2036.8308 185.1614 2089.3204 273.8575 2162.0881 182.8206"/><polygon class="cls-1" points="2089.3204 273.8575 1982.9753 286.7381 2041.2727 390.347 2089.3204 273.8575"/><polygon class="cls-1" points="2089.3204 273.8575 2152.2891 391.6539 2041.2727 390.347 2089.3204 273.8575"/><polygon class="cls-1" points="2091.5765 501.9144 2152.2891 391.6539 2041.2727 390.347 2091.5765 501.9144"/><polygon class="cls-1" points="2089.3204 273.8575 1982.9753 286.7381 2036.8308 185.1614 2089.3204 273.8575"/><polygon class="cls-1" points="2091.5765 501.9144 2041.2724 390.3479 1967.7944 499.4123 2091.5765 501.9144"/><polygon class="cls-1" points="2091.5765 501.9144 2033.8257 604.1071 1967.7944 499.4123 2091.5765 501.9144"/><polygon class="cls-1" points="2145.2266 593.9541 2091.5765 501.9144 2033.8257 604.1071 2145.2266 593.9541"/><polygon class="cls-1" points="1916.8241 594.019 1834.8294 684.3418 1970.9959 702.5844 1916.8241 594.019"/><polygon class="cls-1" points="1705.6099 661.5056 1635.5418 750.4231 1753.3672 775.5784 1705.6099 661.5056"/><polygon class="cls-1" points="2503.9092 299.1734 2410.7143 396.877 2344.1196 288.5207 2503.9092 299.1734"/><polygon class="cls-1" points="2225.0733 479.4291 2284.2683 579.0382 2342.6989 486.5723 2225.0733 479.4291"/><polygon class="cls-1" points="2282.2332 376.2636 2342.6992 486.5736 2225.0737 479.4285 2282.2332 376.2636"/><polygon class="cls-1" points="2410.7135 396.8768 2342.6998 486.573 2282.2337 376.263 2410.7135 396.8768"/><polygon class="cls-1" points="2344.1204 288.5213 2410.7131 396.8775 2282.2333 376.2638 2344.1204 288.5213"/><polygon class="cls-1" points="2282.2326 376.2629 2344.1196 288.5204 2199.5002 281.1562 2282.2326 376.2629"/><polygon class="cls-1" points="2152.2889 391.6533 2282.2326 376.2636 2199.5002 281.155 2152.2889 391.6533"/><polygon class="cls-1" points="2152.2889 391.6533 2089.3204 273.8575 2199.5002 281.155 2152.2889 391.6533"/><polygon class="cls-1" points="2162.0881 182.8206 2089.3204 273.8575 2199.5002 281.155 2162.0881 182.8206"/><polygon class="cls-1" points="2273.1396 190.365 2344.1203 288.521 2420.788 201.2199 2273.1396 190.365"/><polygon class="cls-1" points="2273.1396 190.365 2199.5008 281.155 2344.1203 288.521 2273.1396 190.365"/><polygon class="cls-1" points="2503.9092 299.1734 2420.7876 201.2192 2344.1196 288.5207 2503.9092 299.1734"/><polyline class="cls-1" points="2410.7137 396.876 2460.507 507.0132 2543.5868 409.2108"/><polygon class="cls-1" points="2503.9087 299.1725 2410.7137 396.876 2543.5869 409.2108 2503.9087 299.1725"/><polygon class="cls-1" points="2590.5895 505.4351 2543.5877 409.2105 2460.5061 507.0128 2590.5895 505.4351"/><polygon class="cls-1" points="2531.977 617.3874 2460.5061 507.0121 2590.5895 505.4344 2531.977 617.3874"/><polygon class="cls-1" points="2397.7658 590.1212 2342.6994 486.574 2460.5065 507.013 2397.7658 590.1212"/><polygon class="cls-1" points="2309.008 673.5452 2284.2685 579.0382 2397.7654 590.1214 2309.008 673.5452"/><polygon class="cls-1" points="2205.739 686.849 2309.008 673.5448 2284.2704 579.0378 2205.739 686.849"/><polygon class="cls-1" points="2205.739 686.849 2284.2704 579.0378 2145.2268 593.9545 2205.739 686.849"/><polygon class="cls-1" points="2205.739 686.849 2079.7816 695.2665 2145.2268 593.9545 2205.739 686.849"/><polygon class="cls-1" points="2205.739 686.849 2079.7816 695.2665 2138.4291 783.3618 2205.739 686.849"/><polygon class="cls-1" points="2553.6887 209.7212 2503.9097 299.1734 2612.1824 315.9186 2553.6887 209.7212"/><polygon class="cls-1" points="2659.0706 428.0359 2612.1828 315.9192 2543.5864 409.2105 2659.0706 428.0359"/><polygon class="cls-1" points="2708.6923 521.2556 2590.5904 505.4355 2659.0709 428.0363 2708.6923 521.2556"/><polygon class="cls-1" points="2446.5079 683.3484 2397.7652 590.1218 2531.9768 617.387 2446.5079 683.3484"/><polygon class="cls-1" points="2376.4406 772.2668 2309.0084 673.5448 2446.5084 683.3476 2376.4406 772.2668"/><polygon class="cls-1" points="2575.7275 706.1846 2531.978 617.387 2446.5071 683.3484 2575.7275 706.1846"/><polygon class="cls-1" points="2446.5086 683.3492 2494.2658 797.4219 2575.7271 706.1854 2446.5086 683.3492"/><polygon class="cls-1" points="2253.1205 759.8867 2309.0088 673.545 2376.441 772.267 2253.1205 759.8867"/><polygon class="cls-1" points="2205.7388 686.8489 2253.1213 759.886 2309.0076 673.5455 2205.7388 686.8489"/><polygon class="cls-1" points="2176.1349 884.6634 2289.0236 883.2943 2253.1213 759.886 2176.1349 884.6634"/><polygon class="cls-1" points="2176.1349 884.6634 2138.4291 783.3618 2253.1213 759.886 2176.1349 884.6634"/><polygon class="cls-1" points="2176.1349 884.6634 2138.4291 783.3618 2057.3716 876.1204 2176.1349 884.6634"/><polygon class="cls-1" points="2205.7388 686.8489 2138.4291 783.3618 2253.1213 759.886 2205.7388 686.8489"/><polygon class="cls-1" points="2253.1214 759.8863 2289.0236 883.2943 2376.4419 772.2668 2253.1214 759.8863"/><polygon class="cls-1" points="2309.008 673.5452 2397.7654 590.1214 2446.5081 683.348 2309.008 673.5452"/><polygon class="cls-1" points="2145.2266 593.9541 2225.0733 479.4283 2284.2683 579.0374 2145.2266 593.9541"/><polygon class="cls-1" points="2284.2689 579.0378 2342.6994 486.5738 2397.7658 590.121 2284.2689 579.0378"/><polygon class="cls-1" points="2342.6991 486.573 2410.7128 396.8768 2460.5061 507.0121 2342.6991 486.573"/><polygon class="cls-1" points="2152.2891 391.6539 2282.2328 376.2642 2225.0733 479.4291 2152.2891 391.6539"/><polygon class="cls-1" points="2152.2891 391.6539 2091.5765 501.9144 2225.0733 479.4291 2152.2891 391.6539"/><polygon class="cls-1" points="2145.2266 593.9541 2091.5765 501.9144 2225.0733 479.4291 2145.2266 593.9541"/><polygon class="cls-1" points="2162.0881 182.8206 2199.5002 281.1546 2273.1392 190.3645 2162.0881 182.8206"/><polygon class="cls-1" points="2162.0881 182.8206 2238.27 90.4665 2273.1392 190.3645 2162.0881 182.8206"/><polygon class="cls-1" points="2162.0881 182.8206 2238.27 90.4665 2126.5668 91.8212 2162.0881 182.8206"/><polygon class="cls-1" points="2201.6307 -15.9239 2238.27 90.4665 2126.5668 91.8212 2201.6307 -15.9239"/><polygon class="cls-1" points="2201.6307 -15.9239 2238.27 90.4665 2306.3943 -17.1945 2201.6307 -15.9239"/><polygon class="cls-1" points="2353.1846 109.8972 2420.7874 201.2195 2273.139 190.363 2353.1846 109.8972"/><polygon class="cls-1" points="2306.3943 -17.1945 2353.184 109.8968 2430.0688 -7.6201 2306.3943 -17.1945"/><polygon class="cls-1" points="2306.3943 -17.1945 2353.184 109.8968 2238.27 90.4665 2306.3943 -17.1945"/><polygon class="cls-1" points="2273.1392 190.3645 2353.184 109.8968 2238.27 90.4665 2273.1392 190.3645"/><polygon class="cls-1" points="2505.2577 111.1313 2420.7876 201.2201 2353.1848 109.8977 2505.2577 111.1313"/><polyline class="cls-1" points="2553.6887 209.7212 2503.9097 299.1734 2420.7882 201.221"/><polygon class="cls-1" points="2505.2582 111.1323 2420.788 201.2211 2553.6887 209.7212 2505.2582 111.1323"/><polygon class="cls-1" points="2430.068 -7.6201 2353.1851 109.8968 2505.2562 111.1304 2430.068 -7.6201"/><polygon class="cls-1" points="2543.5868 409.2108 2503.9086 299.1725 2612.1813 315.9196 2543.5868 409.2108"/><polygon class="cls-1" points="2590.5895 505.4351 2543.5877 409.2105 2659.07 428.0359 2590.5895 505.4351"/><polygon class="cls-1" points="2397.7658 590.1212 2460.5065 507.013 2531.9774 617.3883 2397.7658 590.1212"/><polygon class="cls-1" points="2657.7236 615.8623 2590.59 505.4344 2531.9776 617.3874 2657.7236 615.8623"/><polygon class="cls-1" points="2531.9768 617.3876 2575.7281 706.1853 2657.7227 615.8626 2531.9768 617.3876"/><polygon class="cls-1" points="2575.728 706.184 2643.1942 801.2521 2711.8942 724.4281 2575.728 706.184"/><polygon class="cls-1" points="2575.7271 706.1844 2494.2663 797.4228 2643.1953 801.2518 2575.7271 706.1844"/><polygon class="cls-1" points="2415.8136 894.7852 2494.2658 797.4219 2376.4416 772.2672 2415.8136 894.7852"/><polyline class="cls-1" points="2376.4416 772.2672 2415.8136 894.7852 2289.0236 883.2943 2376.4416 772.2672"/><polygon class="cls-1" points="2643.1948 801.2523 2779.2855 814.5297 2711.8948 724.4283 2643.1948 801.2523"/><polygon class="cls-1" points="2820.6802 717.11 2779.2851 814.5293 2711.8944 724.4279 2820.6802 717.11"/><polygon class="cls-1" points="2820.6802 717.11 2779.2851 814.5293 2864.4178 804.3883 2820.6802 717.11"/><polygon class="cls-1" points="2798.2697 897.9639 2779.2851 814.5293 2864.4178 804.3883 2798.2697 897.9639"/><polygon class="cls-1" points="2798.2697 897.9639 2779.2851 814.5293 2667.0727 889.7836 2798.2697 897.9639"/><polygon class="cls-1" points="2774.7243 625.9511 2863.7995 624.8711 2820.6802 717.11 2774.7243 625.9511"/><polygon class="cls-1" points="2708.6923 521.2556 2774.7236 625.951 2657.724 615.8616 2708.6923 521.2556"/><polygon class="cls-1" points="2657.7236 615.8623 2590.59 505.4344 2708.6919 521.2564 2657.7236 615.8623"/><polygon class="cls-1" points="2657.7236 615.8623 2774.7251 625.9517 2711.8951 724.4271 2657.7236 615.8623"/><polygon class="cls-1" points="2643.1948 801.2523 2667.0727 889.7836 2779.2855 814.5297 2643.1948 801.2523"/><polygon class="cls-1" points="2643.1948 801.2523 2667.0727 889.7836 2550.663 897.9639 2643.1948 801.2523"/><polygon class="cls-1" points="2643.1948 801.2523 2494.2658 797.4219 2550.663 897.9639 2643.1948 801.2523"/><polygon class="cls-1" points="2415.8136 894.7852 2494.2658 797.4219 2550.663 897.9639 2415.8136 894.7852"/><polygon class="cls-1" points="2430.068 -7.6201 2505.2562 111.1304 2555.1884 .6339 2430.068 -7.6201"/><polygon class="cls-1" points="2555.1891 .6339 2505.257 111.1304 2615.7077 109.7908 2555.1891 .6339"/><polygon class="cls-1" points="2660.5834 217.0824 2615.7093 109.7927 2553.6891 209.7213 2660.5834 217.0824"/><polygon class="cls-1" points="2553.6887 209.7212 2505.2582 111.1322 2615.7089 109.7927 2553.6887 209.7212"/><polygon class="cls-1" points="2612.1818 315.919 2660.5825 217.0828 2553.6882 209.7216 2612.1818 315.919"/><polygon class="cls-1" points="2723.8732 308.5816 2782.1706 412.1904 2659.0713 428.0361 2723.8732 308.5816"/><polygon class="cls-1" points="2660.583 217.0837 2723.8741 308.5818 2777.7294 207.004 2660.583 217.0837"/><polygon class="cls-1" points="2660.583 217.0837 2612.1823 315.9194 2723.8741 308.5818 2660.583 217.0837"/><polygon class="cls-1" points="2659.0706 428.0359 2612.1828 315.9192 2723.8724 308.5814 2659.0706 428.0359"/><polygon class="cls-1" points="2555.1891 .6339 2615.7077 109.7908 2692.5686 -10.8037 2555.1891 .6339"/><polyline class="cls-1" points="2615.7071 109.7908 2660.583 217.0824 2752.4035 90.5964"/><polygon class="cls-1" points="2692.568 -10.8037 2615.7071 109.7908 2752.4035 90.5963 2692.568 -10.8037"/><polygon class="cls-1" points="2777.7296 207.0041 2752.4034 90.5974 2660.583 217.0834 2777.7296 207.0041"/><polygon class="cls-1" points="2692.568 -10.8037 2752.4035 90.5964 2823.7655 -2.6234 2692.568 -10.8037"/><polygon class="cls-1" points="2752.4017 90.5959 2867.4655 113.6647 2823.7661 -2.6234 2752.4017 90.5959"/><polygon class="cls-1" points="2752.4032 90.5959 2777.7294 207.0049 2867.4656 113.6646 2752.4032 90.5959"/><polygon class="cls-1" points="2886.4947 205.6853 2777.7294 207.0049 2867.4656 113.6646 2886.4947 205.6853"/><polygon class="cls-1" points="2886.4947 205.6853 2777.7294 207.0049 2830.2191 295.701 2886.4947 205.6853"/><polygon class="cls-1" points="2830.2191 295.701 2723.8739 308.5816 2782.1714 412.1905 2830.2191 295.701"/><polygon class="cls-1" points="2830.2191 295.701 2884.9192 425.2968 2782.1714 412.1905 2830.2191 295.701"/><polygon class="cls-1" points="2816.7262 527.7271 2884.9192 425.2968 2782.1714 412.1905 2816.7262 527.7271"/><polygon class="cls-1" points="2830.2191 295.701 2723.8739 308.5816 2777.7294 207.0049 2830.2191 295.701"/><polygon class="cls-1" points="2816.7262 527.7271 2782.171 412.1914 2708.693 521.2558 2816.7262 527.7271"/><polygon class="cls-1" points="2816.7262 527.7271 2774.7243 625.9506 2708.693 521.2558 2816.7262 527.7271"/><polygon class="cls-1" points="2863.7996 624.8706 2816.7262 527.7271 2774.7243 625.9506 2863.7996 624.8706"/><polygon class="cls-1" points="2657.7227 615.8626 2575.7281 706.1853 2711.8946 724.4279 2657.7227 615.8626"/><polygon class="cls-1" points="2446.5086 683.3492 2376.4405 772.2666 2494.2658 797.4219 2446.5086 683.3492"/><polygon class="cls-1" points="255.7173 1134.2303 162.5224 1231.9338 95.9278 1123.5776 255.7173 1134.2303"/><polygon class="cls-1" points="-12.6414 1304.6897 48.5552 1404.3393 94.507 1321.6292 -12.6414 1304.6897"/><polygon class="cls-1" points="34.0413 1211.3205 94.5074 1321.6305 -12.641 1304.6891 34.0413 1211.3205"/><polygon class="cls-1" points="162.5217 1231.9336 94.5079 1321.6299 34.0419 1211.3199 162.5217 1231.9336"/><polygon class="cls-1" points="95.9285 1123.5781 162.5213 1231.9344 34.0415 1211.3207 95.9285 1123.5781"/><polygon class="cls-1" points="34.0407 1211.3197 95.9278 1123.5772 -48.6917 1116.213 34.0407 1211.3197"/><polygon class="cls-1" points="-81.2944 1209.7273 34.0407 1211.3205 -48.6917 1116.2119 -81.2944 1209.7273"/><polygon class="cls-1" points="24.9477 1025.4218 95.9284 1123.5778 172.5961 1036.2768 24.9477 1025.4218"/><polygon class="cls-1" points="24.9477 1025.4218 -48.6911 1116.2118 95.9284 1123.5778 24.9477 1025.4218"/><polygon class="cls-1" points="255.7173 1134.2303 172.5958 1036.276 95.9278 1123.5776 255.7173 1134.2303"/><polyline class="cls-1" points="162.5218 1231.9329 212.3152 1342.0701 295.3949 1244.2677"/><polygon class="cls-1" points="255.7169 1134.2293 162.5218 1231.9329 295.395 1244.2676 255.7169 1134.2293"/><polygon class="cls-1" points="342.3976 1340.492 295.3958 1244.2673 212.3143 1342.0697 342.3976 1340.492"/><polygon class="cls-1" points="283.7852 1452.4443 212.3143 1342.0689 342.3976 1340.4913 283.7852 1452.4443"/><polygon class="cls-1" points="149.5739 1425.1781 94.5076 1321.6309 212.3146 1342.0699 149.5739 1425.1781"/><polygon class="cls-1" points="60.8161 1508.602 48.5554 1404.3393 149.5735 1425.1783 60.8161 1508.602"/><polygon class="cls-1" points="-42.4528 1521.9058 60.8162 1508.6017 48.5573 1404.3389 -42.4528 1521.9058"/><polygon class="cls-1" points="-42.4528 1521.9058 48.5573 1404.3389 -76.7418 1392.7591 -42.4528 1521.9058"/><polygon class="cls-1" points="305.4969 1044.7781 255.7179 1134.2303 363.9905 1150.9755 305.4969 1044.7781"/><polygon class="cls-1" points="410.8787 1263.0927 363.9909 1150.9761 295.3945 1244.2673 410.8787 1263.0927"/><polygon class="cls-1" points="460.5004 1356.3125 342.3985 1340.4924 410.8791 1263.0931 460.5004 1356.3125"/><polygon class="cls-1" points="198.316 1518.4053 149.5733 1425.1787 283.785 1452.4439 198.316 1518.4053"/><polygon class="cls-1" points="128.2488 1607.3237 60.8165 1508.6017 198.3166 1518.4045 128.2488 1607.3237"/><polygon class="cls-1" points="327.5356 1541.2414 283.7861 1452.4439 198.3153 1518.4053 327.5356 1541.2414"/><polygon class="cls-1" points="198.3167 1518.406 246.074 1632.4787 327.5352 1541.2422 198.3167 1518.406"/><polygon class="cls-1" points="4.9286 1594.9435 60.8169 1508.6018 128.2491 1607.3239 4.9286 1594.9435"/><polygon class="cls-1" points="-42.4531 1521.9057 4.9294 1594.9429 60.8157 1508.6023 -42.4531 1521.9057"/><polygon class="cls-1" points="-72.057 1719.7202 40.8317 1718.3511 4.9294 1594.9429 -72.057 1719.7202"/><polygon class="cls-1" points="-72.057 1719.7202 -99.1114 1604.0936 4.9294 1594.9429 -72.057 1719.7202"/><polygon class="cls-1" points="-42.4531 1521.9057 -99.1114 1604.0936 4.9294 1594.9429 -42.4531 1521.9057"/><polygon class="cls-1" points="4.9295 1594.9432 40.8317 1718.3511 128.2501 1607.3237 4.9295 1594.9432"/><polygon class="cls-1" points="60.8161 1508.602 149.5735 1425.1783 198.3162 1518.4049 60.8161 1508.602"/><polygon class="cls-1" points="-76.742 1392.7587 -12.6414 1304.689 48.5552 1404.3385 -76.742 1392.7587"/><polygon class="cls-1" points="48.5558 1404.3389 94.5075 1321.6307 149.5739 1425.1779 48.5558 1404.3389"/><polygon class="cls-1" points="94.5072 1321.6299 162.5209 1231.9336 212.3142 1342.0689 94.5072 1321.6299"/><polygon class="cls-1" points="-81.2942 1209.7279 34.0409 1211.3211 -12.6414 1304.6897 -81.2942 1209.7279"/><polygon class="cls-1" points="-85.726 1009.8259 -48.6917 1116.2115 24.9473 1025.4214 -85.726 1009.8259"/><polygon class="cls-1" points="-85.726 1009.8259 -9.9219 925.5233 24.9473 1025.4214 -85.726 1009.8259"/><polygon class="cls-1" points="-46.5612 819.133 -9.9219 925.5233 66.3275 817.7639 -46.5612 819.133"/><polygon class="cls-1" points="104.9927 944.954 172.5956 1036.2764 24.9471 1025.4199 104.9927 944.954"/><polygon class="cls-1" points="66.3275 817.7639 104.9921 944.9537 193.1183 829.2548 66.3275 817.7639"/><polygon class="cls-1" points="66.3275 817.7639 104.9921 944.9537 -9.9219 925.5233 66.3275 817.7639"/><polygon class="cls-1" points="24.9473 1025.4214 104.9921 944.9537 -9.9219 925.5233 24.9473 1025.4214"/><polygon class="cls-1" points="257.0658 946.1881 172.5958 1036.2769 104.9929 944.9546 257.0658 946.1881"/><polyline class="cls-1" points="305.4969 1044.7781 255.7179 1134.2303 172.5963 1036.2779"/><polygon class="cls-1" points="257.0663 946.1892 172.5961 1036.278 305.4968 1044.778 257.0663 946.1892"/><polygon class="cls-1" points="193.1176 829.2548 104.9933 944.9536 257.0643 946.1872 193.1176 829.2548"/><polygon class="cls-1" points="295.3949 1244.2677 255.7167 1134.2294 363.9894 1150.9764 295.3949 1244.2677"/><polygon class="cls-1" points="342.3976 1340.492 295.3958 1244.2673 410.8782 1263.0928 342.3976 1340.492"/><polygon class="cls-1" points="149.5739 1425.1781 212.3146 1342.0699 283.7855 1452.4452 149.5739 1425.1781"/><polygon class="cls-1" points="409.5317 1450.9192 342.3982 1340.4913 283.7857 1452.4443 409.5317 1450.9192"/><polygon class="cls-1" points="283.7849 1452.4445 327.5362 1541.2422 409.5309 1450.9194 283.7849 1452.4445"/><polygon class="cls-1" points="327.5362 1541.2409 395.0023 1636.309 463.7023 1559.4849 327.5362 1541.2409"/><polygon class="cls-1" points="327.5352 1541.2413 246.0745 1632.4797 395.0035 1636.3087 327.5352 1541.2413"/><polygon class="cls-1" points="167.6217 1729.842 246.074 1632.4787 128.2497 1607.3241 167.6217 1729.842"/><polyline class="cls-1" points="128.2497 1607.3241 167.6217 1729.842 40.8317 1718.3511 128.2497 1607.3241"/><polygon class="cls-1" points="395.0029 1636.3092 531.0936 1649.5865 463.7029 1559.4851 395.0029 1636.3092"/><polygon class="cls-1" points="572.4883 1552.1669 531.0933 1649.5862 463.7025 1559.4848 572.4883 1552.1669"/><polygon class="cls-1" points="572.4883 1552.1669 531.0933 1649.5862 631.1359 1640.2622 572.4883 1552.1669"/><polygon class="cls-1" points="579.6929 1742.645 531.0933 1649.5862 631.1359 1640.2622 579.6929 1742.645"/><polygon class="cls-1" points="579.6929 1742.645 531.0933 1649.5862 471.43 1736.5803 579.6929 1742.645"/><polygon class="cls-1" points="526.5325 1461.008 637.9333 1450.8551 572.4883 1552.1669 526.5325 1461.008"/><polygon class="cls-1" points="460.5004 1356.3125 526.5317 1461.0079 409.5321 1450.9184 460.5004 1356.3125"/><polygon class="cls-1" points="409.5317 1450.9192 342.3982 1340.4913 460.5 1356.3133 409.5317 1450.9192"/><polygon class="cls-1" points="409.5317 1450.9192 526.5332 1461.0086 463.7033 1559.484 409.5317 1450.9192"/><polygon class="cls-1" points="395.0029 1636.3092 471.43 1736.5803 531.0936 1649.5865 395.0029 1636.3092"/><polygon class="cls-1" points="395.0029 1636.3092 471.43 1736.5803 314.4668 1728.0611 395.0029 1636.3092"/><polygon class="cls-1" points="395.0029 1636.3092 246.074 1632.4787 314.4668 1728.0611 395.0029 1636.3092"/><polygon class="cls-1" points="167.6217 1729.842 246.074 1632.4787 314.4668 1728.0611 167.6217 1729.842"/><polygon class="cls-1" points="193.1176 829.2548 257.0643 946.1872 326.1607 829.2548 193.1176 829.2548"/><polygon class="cls-1" points="326.1615 829.2548 257.0651 946.1872 367.5158 944.8477 326.1615 829.2548"/><polygon class="cls-1" points="412.3915 1052.1392 367.5174 944.8496 305.4972 1044.7781 412.3915 1052.1392"/><polygon class="cls-1" points="305.4969 1044.7781 257.0664 946.1891 367.5171 944.8496 305.4969 1044.7781"/><polygon class="cls-1" points="363.99 1150.9758 412.3906 1052.1397 305.4963 1044.7785 363.99 1150.9758"/><polygon class="cls-1" points="475.6813 1143.6384 533.9788 1247.2473 410.8795 1263.0929 475.6813 1143.6384"/><polygon class="cls-1" points="412.3912 1052.1406 475.6822 1143.6387 529.5375 1042.0608 412.3912 1052.1406"/><polygon class="cls-1" points="412.3912 1052.1406 363.9904 1150.9763 475.6822 1143.6387 412.3912 1052.1406"/><polygon class="cls-1" points="410.8787 1263.0927 363.9909 1150.9761 475.6805 1143.6383 410.8787 1263.0927"/><polygon class="cls-1" points="326.1615 829.2548 367.5158 944.8477 470.9649 835.9931 326.1615 829.2548"/><polyline class="cls-1" points="367.5152 944.8477 412.3912 1052.1392 504.2116 925.6532"/><polygon class="cls-1" points="470.9644 835.9931 367.5153 944.8477 504.2116 925.6532 470.9644 835.9931"/><polygon class="cls-1" points="529.5378 1042.0609 504.2116 925.6542 412.3911 1052.1402 529.5378 1042.0609"/><polygon class="cls-1" points="470.9643 835.9931 504.2116 925.6532 592.1659 849.2768 470.9643 835.9931"/><polygon class="cls-1" points="504.2098 925.6528 619.2736 948.7216 592.1665 849.2768 504.2098 925.6528"/><polygon class="cls-1" points="694.3374 840.9765 619.2736 948.7216 592.1665 849.2768 694.3374 840.9765"/><polygon class="cls-1" points="504.2113 925.6527 529.5375 1042.0618 619.2737 948.7215 504.2113 925.6527"/><polygon class="cls-1" points="654.7949 1039.721 529.5375 1042.0618 619.2737 948.7215 654.7949 1039.721"/><polygon class="cls-1" points="654.7949 1039.721 529.5375 1042.0618 582.0272 1130.7579 654.7949 1039.721"/><polygon class="cls-1" points="582.0272 1130.7579 475.6821 1143.6385 533.9795 1247.2473 582.0272 1130.7579"/><polygon class="cls-1" points="582.0272 1130.7579 644.9958 1248.5543 533.9795 1247.2473 582.0272 1130.7579"/><polygon class="cls-1" points="584.2833 1358.8147 644.9958 1248.5543 533.9795 1247.2473 584.2833 1358.8147"/><polygon class="cls-1" points="582.0272 1130.7579 475.6821 1143.6385 529.5375 1042.0618 582.0272 1130.7579"/><polygon class="cls-1" points="584.2833 1358.8147 533.9792 1247.2483 460.5011 1356.3127 584.2833 1358.8147"/><polygon class="cls-1" points="584.2833 1358.8147 526.5325 1461.0075 460.5011 1356.3127 584.2833 1358.8147"/><polygon class="cls-1" points="637.9334 1450.8545 584.2833 1358.8147 526.5325 1461.0075 637.9334 1450.8545"/><polygon class="cls-1" points="409.5309 1450.9194 327.5362 1541.2422 463.7027 1559.4847 409.5309 1450.9194"/><polygon class="cls-1" points="198.3167 1518.406 128.2486 1607.3235 246.074 1632.4787 198.3167 1518.406"/><polygon class="cls-1" points="996.6159 1156.0738 903.4211 1253.7773 836.8264 1145.4211 996.6159 1156.0738"/><polygon class="cls-1" points="717.7801 1336.3294 776.9751 1435.9386 835.4056 1343.4727 717.7801 1336.3294"/><polygon class="cls-1" points="774.9399 1233.164 835.406 1343.474 717.7805 1336.3289 774.9399 1233.164"/><polygon class="cls-1" points="903.4203 1253.7771 835.4066 1343.4734 774.9405 1233.1634 903.4203 1253.7771"/><polygon class="cls-1" points="836.8272 1145.4216 903.4199 1253.7779 774.9401 1233.1642 836.8272 1145.4216"/><polygon class="cls-1" points="774.9394 1233.1632 836.8264 1145.4207 692.207 1138.0565 774.9394 1233.1632"/><polygon class="cls-1" points="644.9956 1248.5537 774.9394 1233.164 692.207 1138.0554 644.9956 1248.5537"/><polygon class="cls-1" points="644.9956 1248.5537 582.0272 1130.7579 692.207 1138.0554 644.9956 1248.5537"/><polygon class="cls-1" points="654.7949 1039.721 582.0272 1130.7579 692.207 1138.0554 654.7949 1039.721"/><polygon class="cls-1" points="765.8464 1047.2654 836.8271 1145.4213 913.4948 1058.1203 765.8464 1047.2654"/><polygon class="cls-1" points="765.8464 1047.2654 692.2076 1138.0553 836.8271 1145.4213 765.8464 1047.2654"/><polygon class="cls-1" points="996.6159 1156.0738 913.4944 1058.1195 836.8264 1145.4211 996.6159 1156.0738"/><polyline class="cls-1" points="903.4205 1253.7764 953.2138 1363.9136 1036.2935 1266.1112"/><polygon class="cls-1" points="996.6155 1156.0728 903.4205 1253.7764 1036.2937 1266.1111 996.6155 1156.0728"/><polygon class="cls-1" points="1083.2963 1362.3355 1036.2945 1266.1108 953.2129 1363.9132 1083.2963 1362.3355"/><polygon class="cls-1" points="1024.6838 1474.2878 953.2129 1363.9124 1083.2963 1362.3348 1024.6838 1474.2878"/><polygon class="cls-1" points="890.4725 1447.0216 835.4062 1343.4744 953.2132 1363.9134 890.4725 1447.0216"/><polygon class="cls-1" points="801.7148 1530.4455 776.9753 1435.9386 890.4722 1447.0218 801.7148 1530.4455"/><polygon class="cls-1" points="698.4458 1543.7493 801.7148 1530.4452 776.9772 1435.9382 698.4458 1543.7493"/><polygon class="cls-1" points="698.4458 1543.7493 776.9772 1435.9382 637.9336 1450.8548 698.4458 1543.7493"/><polygon class="cls-1" points="698.4458 1543.7493 572.4883 1552.1669 637.9336 1450.8548 698.4458 1543.7493"/><polygon class="cls-1" points="698.4458 1543.7493 572.4883 1552.1669 631.1359 1640.2622 698.4458 1543.7493"/><polygon class="cls-1" points="1046.3955 1066.6216 996.6165 1156.0738 1104.8892 1172.819 1046.3955 1066.6216"/><polygon class="cls-1" points="1151.7773 1284.9363 1104.8895 1172.8196 1036.2932 1266.1109 1151.7773 1284.9363"/><polygon class="cls-1" points="1201.3991 1378.156 1083.2972 1362.3359 1151.7777 1284.9367 1201.3991 1378.156"/><polygon class="cls-1" points="939.2146 1540.2488 890.472 1447.0222 1024.6836 1474.2874 939.2146 1540.2488"/><polygon class="cls-1" points="869.1474 1629.1672 801.7152 1530.4452 939.2152 1540.248 869.1474 1629.1672"/><polygon class="cls-1" points="1068.4343 1563.085 1024.6847 1474.2874 939.2139 1540.2488 1068.4343 1563.085"/><polygon class="cls-1" points="939.2154 1540.2495 986.9726 1654.3222 1068.4339 1563.0857 939.2154 1540.2495"/><polygon class="cls-1" points="745.8272 1616.787 801.7155 1530.4453 869.1478 1629.1674 745.8272 1616.787"/><polygon class="cls-1" points="698.4455 1543.7492 745.8281 1616.7864 801.7144 1530.4458 698.4455 1543.7492"/><polygon class="cls-1" points="668.8416 1741.5638 781.7303 1740.1946 745.8281 1616.7864 668.8416 1741.5638"/><polygon class="cls-1" points="668.8416 1741.5638 631.1359 1640.2622 745.8281 1616.7864 668.8416 1741.5638"/><polygon class="cls-1" points="668.8416 1741.5638 631.1359 1640.2622 579.6929 1742.645 668.8416 1741.5638"/><polygon class="cls-1" points="698.4455 1543.7492 631.1359 1640.2622 745.8281 1616.7864 698.4455 1543.7492"/><polygon class="cls-1" points="745.8282 1616.7867 781.7303 1740.1946 869.1487 1629.1672 745.8282 1616.7867"/><polygon class="cls-1" points="801.7148 1530.4455 890.4722 1447.0218 939.2148 1540.2484 801.7148 1530.4455"/><polygon class="cls-1" points="637.9334 1450.8545 717.7801 1336.3287 776.9751 1435.9378 637.9334 1450.8545"/><polygon class="cls-1" points="776.9757 1435.9382 835.4062 1343.4742 890.4725 1447.0214 776.9757 1435.9382"/><polygon class="cls-1" points="835.4058 1343.4734 903.4195 1253.7771 953.2129 1363.9124 835.4058 1343.4734"/><polygon class="cls-1" points="644.9958 1248.5543 774.9395 1233.1646 717.7801 1336.3295 644.9958 1248.5543"/><polygon class="cls-1" points="644.9958 1248.5543 584.2833 1358.8147 717.7801 1336.3295 644.9958 1248.5543"/><polygon class="cls-1" points="637.9334 1450.8545 584.2833 1358.8147 717.7801 1336.3295 637.9334 1450.8545"/><polygon class="cls-1" points="654.7949 1039.721 692.207 1138.055 765.846 1047.2649 654.7949 1039.721"/><polygon class="cls-1" points="654.7949 1039.721 730.9768 947.3669 765.846 1047.2649 654.7949 1039.721"/><polygon class="cls-1" points="654.7949 1039.721 730.9768 947.3669 619.2736 948.7216 654.7949 1039.721"/><polygon class="cls-1" points="694.3374 840.9765 730.9768 947.3669 619.2736 948.7216 694.3374 840.9765"/><polygon class="cls-1" points="694.3374 840.9765 730.9768 947.3669 807.2262 839.6074 694.3374 840.9765"/><polygon class="cls-1" points="845.8913 966.7976 913.4942 1058.1199 765.8458 1047.2634 845.8913 966.7976"/><polygon class="cls-1" points="807.2262 839.6074 845.8908 966.7972 934.0169 851.0983 807.2262 839.6074"/><polygon class="cls-1" points="807.2262 839.6074 845.8908 966.7972 730.9768 947.3669 807.2262 839.6074"/><polygon class="cls-1" points="765.846 1047.2649 845.8908 966.7972 730.9768 947.3669 765.846 1047.2649"/><polygon class="cls-1" points="997.9645 968.0317 913.4944 1058.1204 845.8915 966.7981 997.9645 968.0317"/><polyline class="cls-1" points="1046.3955 1066.6216 996.6165 1156.0738 913.495 1058.1214"/><polygon class="cls-1" points="997.965 968.0327 913.4948 1058.1215 1046.3955 1066.6215 997.965 968.0327"/><polygon class="cls-1" points="934.0162 851.0983 845.8919 966.7971 997.963 968.0308 934.0162 851.0983"/><polygon class="cls-1" points="1036.2935 1266.1112 996.6154 1156.0729 1104.888 1172.8199 1036.2935 1266.1112"/><polygon class="cls-1" points="1083.2963 1362.3355 1036.2945 1266.1108 1151.7768 1284.9363 1083.2963 1362.3355"/><polygon class="cls-1" points="890.4725 1447.0216 953.2132 1363.9134 1024.6842 1474.2887 890.4725 1447.0216"/><polygon class="cls-1" points="1150.4304 1472.7627 1083.2968 1362.3348 1024.6844 1474.2878 1150.4304 1472.7627"/><polygon class="cls-1" points="1024.6835 1474.288 1068.4348 1563.0857 1150.4295 1472.7629 1024.6835 1474.288"/><polygon class="cls-1" points="1068.4348 1563.0844 1135.9009 1658.1525 1204.601 1581.3284 1068.4348 1563.0844"/><polygon class="cls-1" points="1068.4339 1563.0848 986.9731 1654.3232 1135.9021 1658.1522 1068.4339 1563.0848"/><polygon class="cls-1" points="908.5204 1751.6855 986.9726 1654.3222 869.1483 1629.1676 908.5204 1751.6855"/><polyline class="cls-1" points="869.1483 1629.1676 908.5204 1751.6855 781.7303 1740.1946 869.1483 1629.1676"/><polygon class="cls-1" points="1135.9015 1658.1527 1271.9922 1671.4301 1204.6016 1581.3286 1135.9015 1658.1527"/><polygon class="cls-1" points="1322.0577 1574.0104 1271.9919 1671.4297 1204.6012 1581.3283 1322.0577 1574.0104"/><polygon class="cls-1" points="1322.0577 1574.0104 1271.9919 1671.4297 1372.7747 1661.2887 1322.0577 1574.0104"/><polygon class="cls-1" points="1320.5916 1764.4883 1271.9919 1671.4297 1372.7747 1661.2887 1320.5916 1764.4883"/><polygon class="cls-1" points="1320.5916 1764.4883 1271.9919 1671.4297 1212.3287 1758.4238 1320.5916 1764.4883"/><polygon class="cls-1" points="1267.4311 1482.8515 1376.6842 1472.7631 1322.0577 1574.0104 1267.4311 1482.8515"/><polygon class="cls-1" points="1201.3991 1378.156 1267.4304 1482.8514 1150.4307 1472.7619 1201.3991 1378.156"/><polygon class="cls-1" points="1150.4304 1472.7627 1083.2968 1362.3348 1201.3986 1378.1568 1150.4304 1472.7627"/><polygon class="cls-1" points="1150.4304 1472.7627 1267.4319 1482.8521 1204.6019 1581.3275 1150.4304 1472.7627"/><polygon class="cls-1" points="1135.9015 1658.1527 1212.3287 1758.4238 1271.9922 1671.4301 1135.9015 1658.1527"/><polygon class="cls-1" points="1135.9015 1658.1527 1212.3287 1758.4238 1055.3654 1749.9046 1135.9015 1658.1527"/><polygon class="cls-1" points="1135.9015 1658.1527 986.9726 1654.3222 1055.3654 1749.9046 1135.9015 1658.1527"/><polygon class="cls-1" points="908.5204 1751.6855 986.9726 1654.3222 1055.3654 1749.9046 908.5204 1751.6855"/><polygon class="cls-1" points="934.0162 851.0983 997.963 968.0308 1062.4488 854.277 934.0162 851.0983"/><polygon class="cls-1" points="1062.4496 854.277 997.9637 968.0307 1108.4144 966.6912 1062.4496 854.277"/><polygon class="cls-1" points="1153.2902 1073.9827 1108.4161 966.6931 1046.3959 1066.6216 1153.2902 1073.9827"/><polygon class="cls-1" points="1046.3955 1066.6216 997.965 968.0326 1108.4157 966.6931 1046.3955 1066.6216"/><polygon class="cls-1" points="1104.8886 1172.8193 1153.2892 1073.9832 1046.3949 1066.622 1104.8886 1172.8193"/><polygon class="cls-1" points="1216.58 1165.482 1274.8774 1269.0908 1151.7781 1284.9364 1216.58 1165.482"/><polygon class="cls-1" points="1153.2898 1073.9841 1216.5809 1165.4822 1270.4362 1063.9043 1153.2898 1073.9841"/><polygon class="cls-1" points="1153.2898 1073.9841 1104.889 1172.8198 1216.5809 1165.4822 1153.2898 1073.9841"/><polygon class="cls-1" points="1151.7773 1284.9363 1104.8895 1172.8196 1216.5792 1165.4818 1151.7773 1284.9363"/><polygon class="cls-1" points="1062.4496 854.277 1108.4144 966.6912 1201.8885 862.8199 1062.4496 854.277"/><polyline class="cls-1" points="1108.4139 966.6912 1153.2898 1073.9828 1245.1112 958.0916"/><polygon class="cls-1" points="1201.888 862.8199 1108.4139 966.6912 1245.1112 958.0916 1201.888 862.8199"/><polygon class="cls-1" points="1270.4364 1063.9045 1245.1111 958.0926 1153.2898 1073.9837 1270.4364 1063.9045"/><polygon class="cls-1" points="1201.888 862.8199 1245.1112 958.0916 1333.2535 854.277 1201.888 862.8199"/><polygon class="cls-1" points="1245.1094 958.0912 1360.1722 970.5651 1333.2541 854.277 1245.1094 958.0912"/><polygon class="cls-1" points="1435.2362 862.8199 1360.1722 970.5651 1333.2541 854.277 1435.2362 862.8199"/><polygon class="cls-1" points="1245.1109 958.0911 1270.4362 1063.9053 1360.1724 970.565 1245.1109 958.0911"/><polygon class="cls-1" points="1396.0714 1053.5128 1270.4362 1063.9053 1360.1724 970.565 1396.0714 1053.5128"/><polygon class="cls-1" points="1396.0714 1053.5128 1270.4362 1063.9053 1345.7734 1160.9576 1396.0714 1053.5128"/><polygon class="cls-1" points="1345.7734 1160.9576 1216.5807 1165.482 1274.8782 1269.0908 1345.7734 1160.9576"/><polygon class="cls-1" points="1345.7734 1160.9576 1389.4395 1269.0915 1274.8782 1269.0908 1345.7734 1160.9576"/><polygon class="cls-1" points="1338.648 1378.156 1389.4395 1269.0915 1274.8782 1269.0908 1338.648 1378.156"/><polygon class="cls-1" points="1345.7734 1160.9576 1216.5807 1165.482 1270.4362 1063.9053 1345.7734 1160.9576"/><polygon class="cls-1" points="1338.648 1378.156 1274.8778 1269.0918 1201.3998 1378.1562 1338.648 1378.156"/><polygon class="cls-1" points="1338.648 1378.156 1267.4311 1482.851 1201.3998 1378.1562 1338.648 1378.156"/><polygon class="cls-1" points="1376.6842 1472.7625 1338.648 1378.156 1267.4311 1482.851 1376.6842 1472.7625"/><polygon class="cls-1" points="1150.4295 1472.7629 1068.4348 1563.0857 1204.6013 1581.3282 1150.4295 1472.7629"/><polygon class="cls-1" points="939.2154 1540.2495 869.1473 1629.167 986.9726 1654.3222 939.2154 1540.2495"/><polygon class="cls-1" points="1737.5147 1177.9172 1644.3198 1275.6207 1577.7252 1167.2645 1737.5147 1177.9172"/><polygon class="cls-1" points="1469.156 1348.3766 1530.3526 1448.0262 1576.3044 1365.3161 1469.156 1348.3766"/><polygon class="cls-1" points="1515.8387 1255.0073 1576.3048 1365.3174 1469.1564 1348.376 1515.8387 1255.0073"/><polygon class="cls-1" points="1644.3191 1275.6205 1576.3053 1365.3168 1515.8393 1255.0068 1644.3191 1275.6205"/><polygon class="cls-1" points="1577.7259 1167.265 1644.3187 1275.6213 1515.8389 1255.0076 1577.7259 1167.265"/><polygon class="cls-1" points="1515.8381 1255.0066 1577.7252 1167.2641 1433.1057 1159.8999 1515.8381 1255.0066"/><polygon class="cls-1" points="1389.4395 1269.0915 1515.8381 1255.0074 1433.1057 1159.8988 1389.4395 1269.0915"/><polygon class="cls-1" points="1389.4395 1269.0915 1345.7734 1160.9576 1433.1057 1159.8988 1389.4395 1269.0915"/><polygon class="cls-1" points="1396.0714 1053.5128 1345.7734 1160.9576 1433.1057 1159.8988 1396.0714 1053.5128"/><polygon class="cls-1" points="1506.7451 1069.1087 1577.7258 1167.2647 1654.3935 1079.9637 1506.7451 1069.1087"/><polygon class="cls-1" points="1506.7451 1069.1087 1433.1063 1159.8987 1577.7258 1167.2647 1506.7451 1069.1087"/><polygon class="cls-1" points="1737.5147 1177.9172 1654.3932 1079.9629 1577.7252 1167.2645 1737.5147 1177.9172"/><polyline class="cls-1" points="1644.3192 1275.6198 1694.1126 1385.7569 1777.1923 1287.9546"/><polygon class="cls-1" points="1737.5143 1177.9162 1644.3192 1275.6198 1777.1924 1287.9545 1737.5143 1177.9162"/><polygon class="cls-1" points="1824.195 1384.1789 1777.1932 1287.9542 1694.1117 1385.7566 1824.195 1384.1789"/><polygon class="cls-1" points="1765.5826 1496.1311 1694.1117 1385.7558 1824.195 1384.1782 1765.5826 1496.1311"/><polygon class="cls-1" points="1631.3713 1468.865 1576.305 1365.3177 1694.112 1385.7568 1631.3713 1468.865"/><polygon class="cls-1" points="1542.6136 1552.2889 1530.3528 1448.0262 1631.3709 1468.8652 1542.6136 1552.2889"/><polygon class="cls-1" points="1439.3446 1565.5927 1542.6136 1552.2885 1530.3547 1448.0258 1439.3446 1565.5927"/><polygon class="cls-1" points="1439.3446 1565.5927 1530.3547 1448.0258 1376.6844 1472.7629 1439.3446 1565.5927"/><polygon class="cls-1" points="1439.3446 1565.5927 1322.0577 1574.0104 1376.6844 1472.7629 1439.3446 1565.5927"/><polygon class="cls-1" points="1439.3446 1565.5927 1322.0577 1574.0104 1372.7747 1661.2887 1439.3446 1565.5927"/><polygon class="cls-1" points="1787.2943 1088.465 1737.5153 1177.9172 1845.7879 1194.6624 1787.2943 1088.465"/><polygon class="cls-1" points="1892.6761 1306.7796 1845.7883 1194.663 1777.1919 1287.9542 1892.6761 1306.7796"/><polygon class="cls-1" points="1942.2978 1399.9994 1824.1959 1384.1793 1892.6765 1306.78 1942.2978 1399.9994"/><polygon class="cls-1" points="1680.1134 1562.0921 1631.3707 1468.8655 1765.5824 1496.1308 1680.1134 1562.0921"/><polygon class="cls-1" points="1610.0462 1651.0106 1542.6139 1552.2886 1680.114 1562.0914 1610.0462 1651.0106"/><polygon class="cls-1" points="1809.333 1584.9283 1765.5835 1496.1308 1680.1127 1562.0922 1809.333 1584.9283"/><polygon class="cls-1" points="1680.1141 1562.0929 1727.8714 1676.1656 1809.3326 1584.9291 1680.1141 1562.0929"/><polygon class="cls-1" points="1486.726 1638.6304 1542.6143 1552.2887 1610.0465 1651.0108 1486.726 1638.6304"/><polygon class="cls-1" points="1439.3443 1565.5926 1486.7268 1638.6298 1542.6131 1552.2892 1439.3443 1565.5926"/><polygon class="cls-1" points="1409.7404 1763.4071 1522.6291 1762.038 1486.7268 1638.6298 1409.7404 1763.4071"/><polygon class="cls-1" points="1409.7404 1763.4071 1372.7747 1661.2887 1486.7268 1638.6298 1409.7404 1763.4071"/><polygon class="cls-1" points="1409.7404 1763.4071 1372.7747 1661.2887 1320.5916 1764.4883 1409.7404 1763.4071"/><polygon class="cls-1" points="1439.3443 1565.5926 1372.7747 1661.2887 1486.7268 1638.6298 1439.3443 1565.5926"/><polygon class="cls-1" points="1486.7269 1638.6301 1522.6291 1762.038 1610.0475 1651.0106 1486.7269 1638.6301"/><polygon class="cls-1" points="1542.6136 1552.2889 1631.3709 1468.8652 1680.1136 1562.0918 1542.6136 1552.2889"/><polygon class="cls-1" points="1376.6842 1472.7625 1469.156 1348.3759 1530.3526 1448.0254 1376.6842 1472.7625"/><polygon class="cls-1" points="1530.3532 1448.0258 1576.3049 1365.3176 1631.3713 1468.8648 1530.3532 1448.0258"/><polygon class="cls-1" points="1576.3046 1365.3168 1644.3183 1275.6205 1694.1116 1385.7558 1576.3046 1365.3168"/><polygon class="cls-1" points="1389.4397 1269.092 1515.8383 1255.008 1469.156 1348.3766 1389.4397 1269.092"/><polygon class="cls-1" points="1389.4397 1269.092 1338.648 1378.156 1469.156 1348.3766 1389.4397 1269.092"/><polygon class="cls-1" points="1376.6842 1472.7625 1338.648 1378.156 1469.156 1348.3766 1376.6842 1472.7625"/><polygon class="cls-1" points="1396.0714 1053.5128 1433.1057 1159.8984 1506.7447 1069.1083 1396.0714 1053.5128"/><polygon class="cls-1" points="1396.0714 1053.5128 1471.8755 969.2102 1506.7447 1069.1083 1396.0714 1053.5128"/><polygon class="cls-1" points="1396.0714 1053.5128 1471.8755 969.2102 1360.1724 970.565 1396.0714 1053.5128"/><polygon class="cls-1" points="1435.2362 862.8199 1471.8755 969.2102 1360.1724 970.565 1435.2362 862.8199"/><polygon class="cls-1" points="1435.2362 862.8199 1471.8755 969.2102 1548.1249 861.4508 1435.2362 862.8199"/><polygon class="cls-1" points="1586.7901 988.6409 1654.393 1079.9633 1506.7445 1069.1068 1586.7901 988.6409"/><polygon class="cls-1" points="1548.1249 861.4508 1586.7895 988.6405 1674.9157 872.9416 1548.1249 861.4508"/><polygon class="cls-1" points="1548.1249 861.4508 1586.7895 988.6405 1471.8755 969.2102 1548.1249 861.4508"/><polygon class="cls-1" points="1506.7447 1069.1083 1586.7895 988.6405 1471.8755 969.2102 1506.7447 1069.1083"/><polygon class="cls-1" points="1738.8632 989.875 1654.3932 1079.9638 1586.7903 988.6415 1738.8632 989.875"/><polyline class="cls-1" points="1787.2943 1088.465 1737.5153 1177.9172 1654.3937 1079.9648"/><polygon class="cls-1" points="1738.8637 989.8761 1654.3935 1079.9648 1787.2942 1088.4649 1738.8637 989.8761"/><polygon class="cls-1" points="1674.915 872.9417 1586.7907 988.6405 1738.8617 989.8741 1674.915 872.9417"/><polygon class="cls-1" points="1777.1923 1287.9546 1737.5141 1177.9163 1845.7868 1194.6633 1777.1923 1287.9546"/><polygon class="cls-1" points="1824.195 1384.1789 1777.1932 1287.9542 1892.6756 1306.7797 1824.195 1384.1789"/><polygon class="cls-1" points="1631.3713 1468.865 1694.112 1385.7568 1765.5829 1496.1321 1631.3713 1468.865"/><polygon class="cls-1" points="1891.3291 1494.6061 1824.1956 1384.1781 1765.5831 1496.1311 1891.3291 1494.6061"/><polygon class="cls-1" points="1765.5823 1496.1314 1809.3336 1584.9291 1891.3283 1494.6063 1765.5823 1496.1314"/><polygon class="cls-1" points="1809.3336 1584.9278 1876.7997 1679.9959 1945.4997 1603.1718 1809.3336 1584.9278"/><polygon class="cls-1" points="1809.3326 1584.9281 1727.8719 1676.1666 1876.8009 1679.9956 1809.3326 1584.9281"/><polygon class="cls-1" points="1649.4191 1773.5289 1727.8714 1676.1656 1610.0471 1651.0109 1649.4191 1773.5289"/><polyline class="cls-1" points="1610.0471 1651.0109 1649.4191 1773.5289 1522.6291 1762.038 1610.0471 1651.0109"/><polygon class="cls-1" points="1876.8003 1679.9961 2012.891 1693.2734 1945.5003 1603.172 1876.8003 1679.9961"/><polygon class="cls-1" points="2054.2857 1595.8537 2012.8907 1693.2731 1945.4999 1603.1716 2054.2857 1595.8537"/><polygon class="cls-1" points="2054.2857 1595.8537 2012.8907 1693.2731 2112.9333 1683.9491 2054.2857 1595.8537"/><polygon class="cls-1" points="2061.4903 1786.3318 2012.8907 1693.2731 2112.9333 1683.9491 2061.4903 1786.3318"/><polygon class="cls-1" points="2061.4903 1786.3318 2012.8907 1693.2731 1953.2274 1780.2672 2061.4903 1786.3318"/><polygon class="cls-1" points="2008.3299 1504.6949 2119.7307 1494.5419 2054.2857 1595.8537 2008.3299 1504.6949"/><polygon class="cls-1" points="1942.2978 1399.9994 2008.3291 1504.6947 1891.3295 1494.6053 1942.2978 1399.9994"/><polygon class="cls-1" points="1891.3291 1494.6061 1824.1956 1384.1781 1942.2974 1400.0001 1891.3291 1494.6061"/><polygon class="cls-1" points="1891.3291 1494.6061 2008.3306 1504.6955 1945.5007 1603.1709 1891.3291 1494.6061"/><polygon class="cls-1" points="1876.8003 1679.9961 1953.2274 1780.2672 2012.891 1693.2734 1876.8003 1679.9961"/><polygon class="cls-1" points="1876.8003 1679.9961 1953.2274 1780.2672 1796.2642 1771.748 1876.8003 1679.9961"/><polygon class="cls-1" points="1876.8003 1679.9961 1727.8714 1676.1656 1796.2642 1771.748 1876.8003 1679.9961"/><polygon class="cls-1" points="1649.4191 1773.5289 1727.8714 1676.1656 1796.2642 1771.748 1649.4191 1773.5289"/><polygon class="cls-1" points="1674.915 872.9417 1738.8617 989.8741 1802.6464 888.3718 1674.915 872.9417"/><polygon class="cls-1" points="1802.6472 888.3718 1738.8625 989.8741 1849.3132 988.5346 1802.6472 888.3718"/><polygon class="cls-1" points="1894.1889 1095.8261 1849.3148 988.5364 1787.2946 1088.465 1894.1889 1095.8261"/><polygon class="cls-1" points="1787.2943 1088.465 1738.8638 989.876 1849.3145 988.5365 1787.2943 1088.465"/><polygon class="cls-1" points="1845.7874 1194.6627 1894.188 1095.8265 1787.2937 1088.4654 1845.7874 1194.6627"/><polygon class="cls-1" points="1957.4787 1187.3253 2015.7762 1290.9342 1892.6769 1306.7798 1957.4787 1187.3253"/><polygon class="cls-1" points="1894.1886 1095.8275 1957.4796 1187.3256 2011.3349 1085.7477 1894.1886 1095.8275"/><polygon class="cls-1" points="1894.1886 1095.8275 1845.7878 1194.6632 1957.4796 1187.3256 1894.1886 1095.8275"/><polygon class="cls-1" points="1892.6761 1306.7796 1845.7883 1194.663 1957.4779 1187.3252 1892.6761 1306.7796"/><polygon class="cls-1" points="1802.6472 888.3718 1849.3132 988.5346 1938.8285 876.1204 1802.6472 888.3718"/><polyline class="cls-1" points="1849.3126 988.5346 1894.1886 1095.8261 1986.009 969.3401"/><polygon class="cls-1" points="1938.8279 876.1204 1849.3127 988.5346 1986.009 969.3401 1938.8279 876.1204"/><polygon class="cls-1" points="2011.3352 1085.7478 1986.009 969.3411 1894.1885 1095.8271 2011.3352 1085.7478"/><polygon class="cls-1" points="1938.8279 876.1204 1986.009 969.3401 2057.3711 876.1204 1938.8279 876.1204"/><polygon class="cls-1" points="1986.0072 969.3397 2101.071 992.4085 2057.3716 876.1204 1986.0072 969.3397"/><polygon class="cls-1" points="2176.1349 884.6634 2101.071 992.4085 2057.3716 876.1204 2176.1349 884.6634"/><polygon class="cls-1" points="1986.0087 969.3396 2011.3349 1085.7487 2101.0711 992.4084 1986.0087 969.3396"/><polygon class="cls-1" points="2136.5923 1083.4079 2011.3349 1085.7487 2101.0711 992.4084 2136.5923 1083.4079"/><polygon class="cls-1" points="2136.5923 1083.4079 2011.3349 1085.7487 2063.8246 1174.4448 2136.5923 1083.4079"/><polygon class="cls-1" points="2063.8246 1174.4448 1957.4795 1187.3254 2015.7769 1290.9342 2063.8246 1174.4448"/><polygon class="cls-1" points="2063.8246 1174.4448 2126.7932 1292.2412 2015.7769 1290.9342 2063.8246 1174.4448"/><polygon class="cls-1" points="2066.0807 1402.5016 2126.7932 1292.2412 2015.7769 1290.9342 2066.0807 1402.5016"/><polygon class="cls-1" points="2063.8246 1174.4448 1957.4795 1187.3254 2011.3349 1085.7487 2063.8246 1174.4448"/><polygon class="cls-1" points="2066.0807 1402.5016 2015.7766 1290.9351 1942.2985 1399.9996 2066.0807 1402.5016"/><polygon class="cls-1" points="2066.0807 1402.5016 2008.3299 1504.6944 1942.2985 1399.9996 2066.0807 1402.5016"/><polygon class="cls-1" points="2119.7308 1494.5414 2066.0807 1402.5016 2008.3299 1504.6944 2119.7308 1494.5414"/><polygon class="cls-1" points="1891.3283 1494.6063 1809.3336 1584.9291 1945.5001 1603.1716 1891.3283 1494.6063"/><polygon class="cls-1" points="1680.1141 1562.0929 1610.046 1651.0104 1727.8714 1676.1656 1680.1141 1562.0929"/><polygon class="cls-1" points="2478.4133 1199.7607 2385.2185 1297.4642 2318.6238 1189.108 2478.4133 1199.7607"/><polygon class="cls-1" points="2199.5775 1380.0163 2258.7725 1479.6255 2317.203 1387.1596 2199.5775 1380.0163"/><polygon class="cls-1" points="2256.7373 1276.8509 2317.2034 1387.1609 2199.5779 1380.0157 2256.7373 1276.8509"/><polygon class="cls-1" points="2385.2177 1297.464 2317.204 1387.1603 2256.7379 1276.8503 2385.2177 1297.464"/><polygon class="cls-1" points="2318.6246 1189.1085 2385.2173 1297.4648 2256.7375 1276.8511 2318.6246 1189.1085"/><polygon class="cls-1" points="2256.7368 1276.8501 2318.6238 1189.1076 2174.0044 1181.7434 2256.7368 1276.8501"/><polygon class="cls-1" points="2126.793 1292.2406 2256.7368 1276.8509 2174.0044 1181.7423 2126.793 1292.2406"/><polygon class="cls-1" points="2126.793 1292.2406 2063.8246 1174.4448 2174.0044 1181.7423 2126.793 1292.2406"/><polygon class="cls-1" points="2136.5923 1083.4079 2063.8246 1174.4448 2174.0044 1181.7423 2136.5923 1083.4079"/><polygon class="cls-1" points="2247.6438 1090.9522 2318.6245 1189.1082 2395.2922 1101.8072 2247.6438 1090.9522"/><polygon class="cls-1" points="2247.6438 1090.9522 2174.005 1181.7422 2318.6245 1189.1082 2247.6438 1090.9522"/><polygon class="cls-1" points="2478.4133 1199.7607 2395.2918 1101.8064 2318.6238 1189.108 2478.4133 1199.7607"/><polyline class="cls-1" points="2385.2179 1297.4633 2435.0112 1407.6005 2518.0909 1309.7981"/><polygon class="cls-1" points="2478.4129 1199.7597 2385.2179 1297.4633 2518.0911 1309.798 2478.4129 1199.7597"/><polygon class="cls-1" points="2565.0937 1406.0224 2518.0919 1309.7977 2435.0103 1407.6001 2565.0937 1406.0224"/><polygon class="cls-1" points="2506.4812 1517.9747 2435.0103 1407.5993 2565.0937 1406.0217 2506.4812 1517.9747"/><polygon class="cls-1" points="2372.2699 1490.7085 2317.2036 1387.1613 2435.0106 1407.6003 2372.2699 1490.7085"/><polygon class="cls-1" points="2283.5122 1574.1324 2258.7727 1479.6254 2372.2696 1490.7087 2283.5122 1574.1324"/><polygon class="cls-1" points="2180.2432 1587.4362 2283.5122 1574.132 2258.7746 1479.6251 2180.2432 1587.4362"/><polygon class="cls-1" points="2180.2432 1587.4362 2258.7746 1479.6251 2119.731 1494.5417 2180.2432 1587.4362"/><polygon class="cls-1" points="2180.2432 1587.4362 2054.2857 1595.8537 2119.731 1494.5417 2180.2432 1587.4362"/><polygon class="cls-1" points="2180.2432 1587.4362 2054.2857 1595.8537 2112.9333 1683.9491 2180.2432 1587.4362"/><polygon class="cls-1" points="2528.1929 1110.3085 2478.4139 1199.7607 2586.6866 1216.5059 2528.1929 1110.3085"/><polygon class="cls-1" points="2633.5747 1328.6231 2586.6869 1216.5065 2518.0906 1309.7977 2633.5747 1328.6231"/><polygon class="cls-1" points="2683.1965 1421.8429 2565.0946 1406.0228 2633.5751 1328.6235 2683.1965 1421.8429"/><polygon class="cls-1" points="2421.0121 1583.9356 2372.2694 1490.7091 2506.481 1517.9743 2421.0121 1583.9356"/><polygon class="cls-1" points="2350.9448 1672.8541 2283.5126 1574.1321 2421.0126 1583.9349 2350.9448 1672.8541"/><polygon class="cls-1" points="2550.2317 1606.7718 2506.4821 1517.9743 2421.0113 1583.9357 2550.2317 1606.7718"/><polygon class="cls-1" points="2421.0128 1583.9364 2468.77 1698.0091 2550.2313 1606.7726 2421.0128 1583.9364"/><polygon class="cls-1" points="2227.6246 1660.4739 2283.5129 1574.1322 2350.9452 1672.8543 2227.6246 1660.4739"/><polygon class="cls-1" points="2180.243 1587.4361 2227.6255 1660.4733 2283.5118 1574.1327 2180.243 1587.4361"/><polygon class="cls-1" points="2150.639 1785.2506 2263.5277 1783.8815 2227.6255 1660.4733 2150.639 1785.2506"/><polygon class="cls-1" points="2150.639 1785.2506 2112.9333 1683.9491 2227.6255 1660.4733 2150.639 1785.2506"/><polygon class="cls-1" points="2150.639 1785.2506 2112.9333 1683.9491 2061.4903 1786.3318 2150.639 1785.2506"/><polygon class="cls-1" points="2180.243 1587.4361 2112.9333 1683.9491 2227.6255 1660.4733 2180.243 1587.4361"/><polygon class="cls-1" points="2227.6256 1660.4736 2263.5277 1783.8815 2350.9461 1672.8541 2227.6256 1660.4736"/><polygon class="cls-1" points="2283.5122 1574.1324 2372.2696 1490.7087 2421.0122 1583.9353 2283.5122 1574.1324"/><polygon class="cls-1" points="2119.7308 1494.5414 2199.5775 1380.0156 2258.7725 1479.6247 2119.7308 1494.5414"/><polygon class="cls-1" points="2258.7731 1479.6251 2317.2036 1387.1611 2372.2699 1490.7083 2258.7731 1479.6251"/><polygon class="cls-1" points="2317.2032 1387.1603 2385.2169 1297.464 2435.0103 1407.5993 2317.2032 1387.1603"/><polygon class="cls-1" points="2126.7932 1292.2412 2256.7369 1276.8515 2199.5775 1380.0164 2126.7932 1292.2412"/><polygon class="cls-1" points="2126.7932 1292.2412 2066.0807 1402.5016 2199.5775 1380.0164 2126.7932 1292.2412"/><polygon class="cls-1" points="2119.7308 1494.5414 2066.0807 1402.5016 2199.5775 1380.0164 2119.7308 1494.5414"/><polygon class="cls-1" points="2136.5923 1083.4079 2174.0044 1181.7419 2247.6434 1090.9518 2136.5923 1083.4079"/><polygon class="cls-1" points="2136.5923 1083.4079 2212.7742 991.0537 2247.6434 1090.9518 2136.5923 1083.4079"/><polygon class="cls-1" points="2136.5923 1083.4079 2212.7742 991.0537 2101.071 992.4085 2136.5923 1083.4079"/><polygon class="cls-1" points="2176.1349 884.6634 2212.7742 991.0537 2101.071 992.4085 2176.1349 884.6634"/><polygon class="cls-1" points="2176.1349 884.6634 2212.7742 991.0537 2289.0236 883.2943 2176.1349 884.6634"/><polygon class="cls-1" points="2327.6887 1010.4844 2395.2916 1101.8068 2247.6432 1090.9503 2327.6887 1010.4844"/><polygon class="cls-1" points="2289.0236 883.2943 2327.6882 1010.484 2415.8143 894.7852 2289.0236 883.2943"/><polygon class="cls-1" points="2289.0236 883.2943 2327.6882 1010.484 2212.7742 991.0537 2289.0236 883.2943"/><polygon class="cls-1" points="2247.6434 1090.9518 2327.6882 1010.484 2212.7742 991.0537 2247.6434 1090.9518"/><polygon class="cls-1" points="2479.7619 1011.7185 2395.2918 1101.8073 2327.6889 1010.485 2479.7619 1011.7185"/><polyline class="cls-1" points="2528.1929 1110.3085 2478.4139 1199.7607 2395.2924 1101.8083"/><polygon class="cls-1" points="2479.7624 1011.7196 2395.2922 1101.8084 2528.1929 1110.3084 2479.7624 1011.7196"/><polygon class="cls-1" points="2415.8136 894.7852 2327.6893 1010.484 2479.7604 1011.7176 2415.8136 894.7852"/><polygon class="cls-1" points="2518.0909 1309.7981 2478.4128 1199.7598 2586.6854 1216.5068 2518.0909 1309.7981"/><polygon class="cls-1" points="2565.0937 1406.0224 2518.0919 1309.7977 2633.5742 1328.6232 2565.0937 1406.0224"/><polygon class="cls-1" points="2372.2699 1490.7085 2435.0106 1407.6003 2506.4816 1517.9756 2372.2699 1490.7085"/><polygon class="cls-1" points="2632.2278 1516.4496 2565.0942 1406.0217 2506.4818 1517.9746 2632.2278 1516.4496"/><polygon class="cls-1" points="2506.4809 1517.9749 2550.2322 1606.7726 2632.2269 1516.4498 2506.4809 1517.9749"/><polygon class="cls-1" points="2550.2322 1606.7713 2617.6983 1701.8394 2686.3984 1625.0153 2550.2322 1606.7713"/><polygon class="cls-1" points="2550.2313 1606.7716 2468.7705 1698.0101 2617.6995 1701.8391 2550.2313 1606.7716"/><polygon class="cls-1" points="2390.3178 1795.3724 2468.77 1698.0091 2350.9457 1672.8545 2390.3178 1795.3724"/><polyline class="cls-1" points="2350.9457 1672.8545 2390.3178 1795.3724 2263.5277 1783.8815 2350.9457 1672.8545"/><polygon class="cls-1" points="2617.6989 1701.8396 2753.7896 1715.1169 2686.399 1625.0155 2617.6989 1701.8396"/><polygon class="cls-1" points="2795.1844 1617.6973 2753.7893 1715.1166 2686.3986 1625.0152 2795.1844 1617.6973"/><polygon class="cls-1" points="2795.1844 1617.6973 2753.7893 1715.1166 2838.922 1704.9756 2795.1844 1617.6973"/><polygon class="cls-1" points="2785.6893 1801.6521 2753.7893 1715.1166 2838.922 1704.9756 2785.6893 1801.6521"/><polygon class="cls-1" points="2749.2285 1526.5384 2838.3037 1525.4584 2795.1844 1617.6973 2749.2285 1526.5384"/><polygon class="cls-1" points="2683.1965 1421.8429 2749.2278 1526.5383 2632.2281 1516.4488 2683.1965 1421.8429"/><polygon class="cls-1" points="2632.2278 1516.4496 2565.0942 1406.0217 2683.196 1421.8437 2632.2278 1516.4496"/><polygon class="cls-1" points="2632.2278 1516.4496 2749.2293 1526.539 2686.3993 1625.0144 2632.2278 1516.4496"/><polygon class="cls-1" points="2617.6989 1701.8396 2694.1261 1802.1107 2753.7896 1715.1169 2617.6989 1701.8396"/><polygon class="cls-1" points="2617.6989 1701.8396 2694.1261 1802.1107 2537.1628 1793.5915 2617.6989 1701.8396"/><polygon class="cls-1" points="2617.6989 1701.8396 2468.77 1698.0091 2537.1628 1793.5915 2617.6989 1701.8396"/><polygon class="cls-1" points="2390.3178 1795.3724 2468.77 1698.0091 2537.1628 1793.5915 2390.3178 1795.3724"/><polygon class="cls-1" points="2415.8136 894.7852 2479.7604 1011.7176 2550.663 897.9639 2415.8136 894.7852"/><polygon class="cls-1" points="2550.6638 897.9639 2479.7611 1011.7176 2590.2118 1010.3781 2550.6638 897.9639"/><polygon class="cls-1" points="2635.0876 1117.6696 2590.2135 1010.38 2528.1933 1110.3085 2635.0876 1117.6696"/><polygon class="cls-1" points="2528.1929 1110.3085 2479.7624 1011.7195 2590.2131 1010.38 2528.1929 1110.3085"/><polygon class="cls-1" points="2586.686 1216.5062 2635.0866 1117.6701 2528.1923 1110.3089 2586.686 1216.5062"/><polygon class="cls-1" points="2698.3774 1209.1688 2756.6748 1312.7777 2633.5755 1328.6233 2698.3774 1209.1688"/><polygon class="cls-1" points="2635.0872 1117.671 2698.3783 1209.1691 2752.2336 1107.5912 2635.0872 1117.671"/><polygon class="cls-1" points="2635.0872 1117.671 2586.6864 1216.5067 2698.3783 1209.1691 2635.0872 1117.671"/><polygon class="cls-1" points="2633.5747 1328.6231 2586.6869 1216.5065 2698.3766 1209.1687 2633.5747 1328.6231"/><polygon class="cls-1" points="2550.6638 897.9639 2590.2118 1010.3781 2667.0727 889.7836 2550.6638 897.9639"/><polyline class="cls-1" points="2590.2113 1010.3781 2635.0872 1117.6696 2726.9077 991.1836"/><polygon class="cls-1" points="2667.0722 889.7836 2590.2113 1010.3781 2726.9077 991.1836 2667.0722 889.7836"/><polygon class="cls-1" points="2752.2338 1107.5913 2726.9076 991.1846 2635.0872 1117.6706 2752.2338 1107.5913"/><polygon class="cls-1" points="2667.0722 889.7836 2726.9077 991.1836 2798.2697 897.9639 2667.0722 889.7836"/><polygon class="cls-1" points="2726.9058 991.1832 2841.9696 1014.252 2798.2703 897.9639 2726.9058 991.1832"/><polygon class="cls-1" points="2726.9074 991.1831 2752.2336 1107.5922 2841.9698 1014.2519 2726.9074 991.1831"/><polygon class="cls-1" points="2860.9988 1106.2726 2752.2336 1107.5922 2841.9698 1014.2519 2860.9988 1106.2726"/><polygon class="cls-1" points="2860.9988 1106.2726 2752.2336 1107.5922 2804.7233 1196.2883 2860.9988 1106.2726"/><polygon class="cls-1" points="2804.7233 1196.2883 2698.3781 1209.1689 2756.6756 1312.7777 2804.7233 1196.2883"/><polygon class="cls-1" points="2804.7233 1196.2883 2859.4233 1325.884 2756.6756 1312.7777 2804.7233 1196.2883"/><polygon class="cls-1" points="2791.2304 1428.3143 2859.4233 1325.884 2756.6756 1312.7777 2791.2304 1428.3143"/><polygon class="cls-1" points="2804.7233 1196.2883 2698.3781 1209.1689 2752.2336 1107.5922 2804.7233 1196.2883"/><polygon class="cls-1" points="2791.2304 1428.3143 2756.6752 1312.7786 2683.1972 1421.8431 2791.2304 1428.3143"/><polygon class="cls-1" points="2791.2304 1428.3143 2749.2285 1526.5379 2683.1972 1421.8431 2791.2304 1428.3143"/><polygon class="cls-1" points="2838.3037 1525.4578 2791.2304 1428.3143 2749.2285 1526.5379 2838.3037 1525.4578"/><polygon class="cls-1" points="2632.2269 1516.4498 2550.2322 1606.7726 2686.3987 1625.0151 2632.2269 1516.4498"/><polygon class="cls-1" points="2421.0128 1583.9364 2350.9447 1672.8539 2468.77 1698.0091 2421.0128 1583.9364"/></svg>