<?xml version="1.0" encoding="UTF-8"?><svg id="Layer_1" xmlns="http://www.w3.org/2000/svg" viewBox="0 0 2887.1386 1577.9459"><defs><style>.cls-1{fill:none;stroke:#000;stroke-miterlimit:10;stroke-width:4px;}</style></defs><rect class="cls-1" x="-.5294" y="704.4949" width="88.0345" height="175.0102" transform="translate(86.9757 1584) rotate(180)"/><rect class="cls-1" x="699.5114" width="350.0204" height="177.8646"/><rect class="cls-1" x="524.5012" y="702.8953" width="350.0204" height="350.0204"/><rect class="cls-1" x="1137.0365" y="792" width="350.0204" height="350.0204"/><polyline class="cls-1" points="1224.542 1141.2203 1224.542 1577.9462 1049.5308 1577.9462 1049.5308 1141.2203"/><circle class="cls-1" cx="174.4809" cy="265.3696" r="175.0101"/><circle class="cls-1" cx="1137.0365" cy="792" r="175.0101"/><circle class="cls-1" cx="874.5217" cy="1402.9361" r="175.0101"/><circle class="cls-1" cx="436.9961" cy="352.8749" r="87.505"/><circle class="cls-1" cx="436.9961" cy="702.8953" r="87.505"/><circle class="cls-1" cx="1137.0368" cy="90.3596" r="87.505"/><circle class="cls-1" cx="1487.0576" cy="1490.4409" r="87.505"/><path class="cls-1" d="M789.6421,2.855v175.0098c48.3276,0,87.5049-39.1777,87.5049-87.5049S837.9697,2.855,789.6421,2.855Z"/><circle class="cls-1" cx="436.9961" cy="352.8749" r="43.7525"/><circle class="cls-1" cx="1137.0365" cy="792" r="87.505"/><path class="cls-1" d="M699.5112,527.8852c0,48.3271,39.1772,87.5049,87.5054,87.5049v-175.0107c-48.3281,0-87.5054,39.1777-87.5054,87.5059Z"/><path class="cls-1" d="M1049.5312,527.8852c-48.3276,0-87.5049,39.1777-87.5049,87.5049h175.0103c0-48.3271-39.1772-87.5049-87.5054-87.5049Z"/><path class="cls-1" d="M699.5117,702.895h87.5044v-87.5049c-48.3276,0-87.5044,39.1768-87.5044,87.5049Z"/><path class="cls-1" d="M524.5015,177.8637l87.5049.001v-87.5049c-48.3276,0-87.5049,39.1758-87.5049,87.5039Z"/><path class="cls-1" d="M1137.0366,440.3794c0,48.3281,39.1772,87.5059,87.5054,87.5059v-175.0107c-48.3281,0-87.5054,39.1777-87.5054,87.5049Z"/><circle class="cls-1" cx="962.0266" cy="352.8747" r="175.0101"/><path class="cls-1" d="M436.9959,440.3801v175.0102c48.3278,0,87.5051-39.1773,87.5051-87.5051s-39.1773-87.5051-87.5051-87.5051Z"/><path class="cls-1" d="M-.5293,90.3595h175.0102c0-48.3278-39.1773-87.5051-87.5051-87.5051S-.5293,42.0317-.5293,90.3595Z"/><path class="cls-1" d="M612.0063,265.3696c-48.3276,0-87.5054,39.1777-87.5054,87.5049h175.0103c0-48.3271-39.1772-87.5049-87.5049-87.5049Z"/><path class="cls-1" d="M612.0063,2.854c-48.3276,0-87.5054,39.1777-87.5054,87.5059h175.0103c0-48.3281-39.1772-87.5059-87.5049-87.5059Z"/><polyline class="cls-1" points="699.5114 177.8646 699.5114 265.3697 612.0063 265.3697 612.0063 177.8646"/><rect class="cls-1" x="1137.0367" y="527.8847" width="87.5051" height="87.5051"/><rect class="cls-1" x="349.491" y="440.3799" width="87.5051" height="87.5051"/><polyline class="cls-1" points="524.5011 90.3595 524.5011 265.3697 349.4909 265.3697 349.4909 90.3595"/><rect class="cls-1" x="174.4807" width="175.01" height="90.3598"/><rect class="cls-1" x="349.4912" y="1052.9157" width="175.01" height="175.0107"/><rect class="cls-1" x="787.0162" y="615.3903" width="175.0102" height="175.0102"/><polyline class="cls-1" points="1137.0368 527.8847 962.0266 527.8847 962.0266 352.8745 1137.0368 352.8745"/><rect class="cls-1" x="699.5114" y="265.3697" width="87.5051" height="175.0102"/><rect class="cls-1" x="1137.0367" y="177.8645" width="87.5051" height="175.0102"/><path class="cls-1" d="M524.501,527.8852c0,96.6553,78.355,175.0098,175.0103,175.0098v-350.0205c-96.6553,0-175.0103,78.3555-175.0103,175.0107Z"/><circle class="cls-1" cx="87.505" cy="1317.0303" r="87.505"/><circle class="cls-1" cx="87.505" cy="967.0099" r="87.505"/><circle class="cls-1" cx="87.505" cy="1317.0303" r="43.7525"/><path class="cls-1" d="M87.5053,1229.5251v-175.0102C39.1775,1054.5149.0002,1093.6923.0002,1142.02s39.1773,87.5051,87.5051,87.5051Z"/><rect class="cls-1" x="87.505" y="1142.0202" width="87.5051" height="87.5051" transform="translate(262.5152 2371.5455) rotate(180)"/><rect class="cls-1" x=".0002" y="1404.5354" width="175.0102" height="175.0102" transform="translate(175.0105 2984.0809) rotate(180)"/><circle class="cls-1" cx="1574.5622" cy="527.8846" r="87.505"/><circle class="cls-1" cx="1574.5622" cy="177.8642" r="87.505"/><circle class="cls-1" cx="1574.5622" cy="527.8846" r="43.7525"/><path class="cls-1" d="M1312.047,352.8743c0-48.3271-39.1772-87.5049-87.5054-87.5049v175.0107c48.3281,0,87.5054-39.1777,87.5054-87.5059Z"/><path class="cls-1" d="M1312.0466,177.8645h-87.5044s0,87.5049,0,87.5049c48.3276,0,87.5044-39.1768,87.5044-87.5049Z"/><path class="cls-1" d="M1574.5624,440.3795v-175.0102c-48.3278,0-87.5051,39.1773-87.5051,87.5051s39.1773,87.5051,87.5051,87.5051Z"/><path class="cls-1" d="M1399.5519,615.3899c48.3276,0,87.5054-39.1777,87.5054-87.5049h-175.0103c0,48.3271,39.1772,87.5049,87.5049,87.5049Z"/><rect class="cls-1" x="1574.5622" y="352.8745" width="87.5051" height="87.5051" transform="translate(3236.6295 793.2541) rotate(-180)"/><rect class="cls-1" x="1399.5522" y="877.9054" width="87.5051" height="87.5051" transform="translate(2886.6095 1843.316) rotate(-180)"/><rect class="cls-1" x="1137.0368" y="1315.4308" width="350.0205" height="87.5051" transform="translate(2624.0941 2718.3667) rotate(-180)"/><rect class="cls-1" x="1662.0673" y="615.3897" width="350.0205" height="87.5051" transform="translate(3674.155 1318.2846) rotate(-180)"/><rect class="cls-1" x="1312.047" y="2.8543" width="262.5152" height="175.0102" transform="translate(2886.6091 180.7188) rotate(-180)"/><rect class="cls-1" x="1224.5418" y="440.3796" width="87.5051" height="175.0102" transform="translate(2536.5887 1055.7695) rotate(-180)"/><rect class="cls-1" x="1793.3249" y="1446.6888" width="87.5051" height="175.0102" transform="translate(302.8835 3371.2713) rotate(-90)"/><path class="cls-1" d="M1487.0573,352.8743c0-96.6553-78.355-175.0098-175.0103-175.0098v350.0205c96.6553,0,175.0103-78.3555,175.0103-175.0107Z"/><path class="cls-1" d="M699.511,877.9055c-96.6553,0-175.0098,78.355-175.0098,175.0103h350.0205c0-96.6553-78.3555-175.0103-175.0107-175.0103Z"/><path class="cls-1" d="M1224.542,1577.9462c96.6553,0,175.0098-78.355,175.0098-175.0103h-350.0205c0,96.6553,78.3555,175.0103,175.0107,175.0103Z"/><path class="cls-1" d="M2012.0877,1140.4205c0,96.6553,78.355,175.0098,175.0103,175.0098v-350.0205c-96.6553,0-175.0103,78.3555-175.0103,175.0107Z"/><path class="cls-1" d="M349.4912,0c0,96.6553,78.3545,175.0107,175.0098,175.0107V2.855"/><path class="cls-1" d="M349.4915,965.4091l87.5049.001v-87.5049c-48.3276,0-87.5049,39.1758-87.5049,87.5039Z"/><path class="cls-1" d="M436.9964,790.3994c-48.3276,0-87.5054,39.1777-87.5054,87.5059h175.0103c0-48.3281-39.1772-87.5059-87.5049-87.5059Z"/><rect class="cls-1" x="174.4809" y="1140.4205" width="175.0102" height="175.0102"/><path class="cls-1" d="M174.4812,965.4101c0,96.6553,78.3545,175.0107,175.0098,175.0107v-350.0205c-96.6553,0-175.0098,78.3545-175.0098,175.0098Z"/><rect class="cls-1" x="-.5294" y="440.3799" width="350.0204" height="350.0204"/><circle class="cls-1" cx="261.986" cy="527.8852" r="87.505"/><polyline class="cls-1" points="0 792 0 529.4847 262.5153 529.4847 262.5153 792"/><rect class="cls-1" x="1487.0573" y="527.885" width="350.0204" height="350.0204"/><circle class="cls-1" cx="1837.0776" cy="352.8743" r="175.0101"/><circle class="cls-1" cx="2099.5929" cy="440.3796" r="87.505"/><circle class="cls-1" cx="2099.5929" cy="790.4" r="87.505"/><path class="cls-1" d="M2012.0876,1579.5459c0-48.3277,39.1773-87.505,87.505-87.505s87.505,39.1773,87.505,87.505"/><circle class="cls-1" cx="1137.0365" cy="1054.5154" r="87.505"/><path class="cls-1" d="M1837.0776,790.4004c0,48.3277,39.1774,87.505,87.5051,87.505s87.505-39.1773,87.505-87.505h-175.0101Z"/><circle class="cls-1" cx="1837.0774" cy="1402.9358" r="87.505"/><path class="cls-1" d="M1487.0573,702.8958v175.0098c48.3276,0,87.5049-39.1777,87.5049-87.5049s-39.1772-87.5049-87.5049-87.5049Z"/><circle class="cls-1" cx="2099.5929" cy="440.3796" r="43.7525"/><path class="cls-1" d="M1487.0571,1227.9261c0,48.3271,39.1772,87.5049,87.5054,87.5049v-175.0107c-48.3281,0-87.5054,39.1777-87.5054,87.5059Z"/><path class="cls-1" d="M1837.0772,1227.9261c-48.3276,0-87.5049,39.1777-87.5049,87.5049h175.0103c0-48.3271-39.1772-87.5049-87.5054-87.5049Z"/><path class="cls-1" d="M1487.0576,1402.9358h87.5044v-87.5049c-48.3276,0-87.5044,39.1768-87.5044,87.5049Z"/><path class="cls-1" d="M1312.0464,1141.2203h-87.5044v87.5049c48.3276,0,87.5044-39.1768,87.5044-87.5049Z"/><path class="cls-1" d="M962.0264,1141.2203h87.5044v-87.5049c-48.3276,0-87.5044,39.1768-87.5044,87.5049Z"/><path class="cls-1" d="M874.5224,1140.4209l-.001,87.5049h87.5049c0-48.3276-39.1758-87.5049-87.5039-87.5049Z"/><path class="cls-1" d="M1924.5825,1140.4202c0,48.3281,39.1772,87.5059,87.5054,87.5059v-175.0107c-48.3281,0-87.5054,39.1777-87.5054,87.5049Z"/><circle class="cls-1" cx="1749.5725" cy="1052.9155" r="175.0101"/><path class="cls-1" d="M2099.5926,527.8848v175.0102c48.3278,0,87.5051-39.1773,87.5051-87.5051s-39.1773-87.5051-87.5051-87.5051Z"/><path class="cls-1" d="M1662.0674,177.8642h175.0102c0-48.3278-39.1773-87.5051-87.5051-87.5051s-87.5051,39.1773-87.5051,87.5051Z"/><path class="cls-1" d="M436.9965,1227.9258c-48.3276,0-87.5054,39.1777-87.5054,87.5049h175.0103c0-48.3271-39.1772-87.5049-87.5049-87.5049Z"/><path class="cls-1" d="M612.0058,1490.441c0,48.3276,39.1777,87.5054,87.5059,87.5054v-175.0103c-48.3281,0-87.5059,39.1772-87.5059,87.5049Z"/><rect class="cls-1" x="1924.5826" y="1227.9256" width="87.5051" height="87.5051"/><rect class="cls-1" x="2012.0878" y="527.8846" width="87.5051" height="87.5051"/><rect class="cls-1" x="1662.0672" y="2.854" width="87.5051" height="87.5051"/><rect class="cls-1" x="2012.0877" y="177.8642" width="175.0102" height="175.0102"/><rect class="cls-1" x="699.5116" y="1227.9259" width="175.0102" height="175.0102"/><rect class="cls-1" x="1837.0775" y="2.8538" width="175.01" height="175.0107"/><rect class="cls-1" x="1574.5621" y="1315.4312" width="175.0102" height="175.0102"/><polyline class="cls-1" points="1924.5827 1227.9256 1749.5725 1227.9256 1749.5725 1052.9154 1924.5827 1052.9154"/><rect class="cls-1" x="1487.0573" y="965.4105" width="87.5051" height="175.0102"/><rect class="cls-1" x="1924.5826" y="877.9053" width="87.5051" height="175.0102"/><path class="cls-1" d="M2012.088,1402.936c0-48.3271-39.1772-87.5049-87.5054-87.5049v175.0107c48.3281,0,87.5054-39.1777,87.5054-87.5059Z"/><path class="cls-1" d="M2099.5925,877.9054h-87.5044s0,87.5049,0,87.5049c48.3276,0,87.5044-39.1768,87.5044-87.5049Z"/><rect class="cls-1" x="2012.0877" y="1140.4205" width="175.01" height="351.6204" transform="translate(4199.1854 2632.4613) rotate(-180)"/><rect class="cls-1" x="874.5213" y="789.5999" width="87.5051" height="351.6204" transform="translate(1836.5478 1930.8202) rotate(-180)"/><path class="cls-1" d="M2012.088,2.8538c0,96.6553,78.3545,175.0107,175.0098,175.0107V2.855"/><rect class="cls-1" x="349.4912" y="1052.9157" width="350.0204" height="350.0204"/><circle class="cls-1" cx="787.0166" cy="1140.421" r="87.505"/><path class="cls-1" d="M174.4812,1577.9462c0-96.6554,78.3547-175.0101,175.0101-175.0101s175.0101,78.3547,175.0101,175.0101"/><path class="cls-1" d="M261.9862,1577.9462c0-48.3277,39.1773-87.505,87.505-87.505s87.505,39.1773,87.505,87.505"/><rect class="cls-1" x="2187.098" y="704.4949" width="88.0345" height="175.0102" transform="translate(4462.2304 1584) rotate(180)"/><polyline class="cls-1" points="2887.139 1052.9157 2712.1286 1052.9157 2712.1286 702.8953 2887.139 702.8953"/><circle class="cls-1" cx="2362.1082" cy="265.3696" r="175.0101"/><circle class="cls-1" cx="2624.6235" cy="352.8749" r="87.505"/><circle class="cls-1" cx="2624.6235" cy="702.8953" r="87.505"/><circle class="cls-1" cx="2624.6235" cy="352.8749" r="43.7525"/><path class="cls-1" d="M2712.1288,177.8637l87.5049.001v-87.5049c-48.3276,0-87.5049,39.1758-87.5049,87.5039Z"/><path class="cls-1" d="M2624.6232,440.3801v175.0102c48.3278,0,87.5051-39.1773,87.5051-87.5051s-39.1773-87.5051-87.5051-87.5051Z"/><path class="cls-1" d="M2187.098,90.3595h175.0102c0-48.3278-39.1773-87.5051-87.5051-87.5051s-87.5051,39.1773-87.5051,87.5051Z"/><path class="cls-1" d="M2799.6337,265.3696c-48.3276,0-87.5054,39.1777-87.5054,87.5049h175.0103c0-48.3271-39.1772-87.5049-87.5049-87.5049Z"/><path class="cls-1" d="M2799.6337,2.854c-48.3276,0-87.5054,39.1777-87.5054,87.5059h175.0103c0-48.3281-39.1772-87.5059-87.5049-87.5059Z"/><polyline class="cls-1" points="2887.1388 177.8646 2887.1388 265.3697 2799.6337 265.3697 2799.6337 177.8646"/><rect class="cls-1" x="2537.1184" y="440.3799" width="87.5051" height="87.5051"/><polyline class="cls-1" points="2712.1285 90.3595 2712.1285 265.3697 2537.1183 265.3697 2537.1183 90.3595"/><rect class="cls-1" x="2362.1081" width="175.01" height="90.3598"/><rect class="cls-1" x="2537.1186" y="1052.9157" width="175.01" height="175.0107"/><path class="cls-1" d="M2712.1283,527.8852c0,96.6553,78.355,175.0098,175.0103,175.0098v-350.0205c-96.6553,0-175.0103,78.3555-175.0103,175.0107Z"/><circle class="cls-1" cx="2275.1324" cy="1317.0303" r="87.505"/><circle class="cls-1" cx="2275.1324" cy="967.0099" r="87.505"/><circle class="cls-1" cx="2275.1324" cy="1317.0303" r="43.7525"/><path class="cls-1" d="M2275.1326,1229.5251v-175.0102c-48.3278,0-87.5051,39.1773-87.5051,87.5051s39.1773,87.5051,87.5051,87.5051Z"/><rect class="cls-1" x="2275.1324" y="1142.0202" width="87.5051" height="87.5051" transform="translate(4637.7699 2371.5455) rotate(180)"/><rect class="cls-1" x="2187.6275" y="1404.5354" width="175.0102" height="175.0102" transform="translate(4550.2653 2984.0809) rotate(180)"/><path class="cls-1" d="M2887.1384,877.9055c-96.6553,0-175.0098,78.355-175.0098,175.0103h175.0104"/><path class="cls-1" d="M2537.1186,0c0,96.6553,78.3545,175.0107,175.0098,175.0107V2.855"/><path class="cls-1" d="M2537.1188,965.4091l87.5049.001v-87.5049c-48.3276,0-87.5049,39.1758-87.5049,87.5039Z"/><path class="cls-1" d="M2624.6237,790.3994c-48.3276,0-87.5054,39.1777-87.5054,87.5059h175.0103c0-48.3281-39.1772-87.5059-87.5049-87.5059Z"/><rect class="cls-1" x="2362.1083" y="1140.4205" width="175.0102" height="175.0102"/><path class="cls-1" d="M2362.1086,965.4101c0,96.6553,78.3545,175.0107,175.0098,175.0107v-350.0205c-96.6553,0-175.0098,78.3545-175.0098,175.0098Z"/><rect class="cls-1" x="2187.098" y="440.3799" width="350.0204" height="350.0204"/><circle class="cls-1" cx="2449.6133" cy="527.8852" r="87.505"/><polyline class="cls-1" points="2187.6274 792 2187.6274 529.4847 2450.1427 529.4847 2450.1427 792"/><path class="cls-1" d="M2624.6239,1227.9258c-48.3276,0-87.5054,39.1777-87.5054,87.5049h175.0103c0-48.3271-39.1772-87.5049-87.5049-87.5049Z"/><path class="cls-1" d="M2799.6331,1490.441c0,48.3276,39.1777,87.5054,87.5059,87.5054v-175.0103c-48.3281,0-87.5059,39.1772-87.5059,87.5049Z"/><rect class="cls-1" x="2537.1186" y="1052.9157" width="350.0204" height="350.0204"/><path class="cls-1" d="M2362.1085,1577.9462c0-96.6554,78.3547-175.0101,175.0101-175.0101s175.0101,78.3547,175.0101,175.0101"/><path class="cls-1" d="M2449.6136,1577.9462c0-48.3277,39.1773-87.505,87.505-87.505s87.505,39.1773,87.505,87.505"/></svg>